<?xml version="1.0" encoding="iso-8859-1"?>
<!-- Generator: Adobe Illustrator 16.0.0, SVG Export Plug-In . SVG Version: 6.00 Build 0)  -->
<!DOCTYPE svg PUBLIC "-//W3C//DTD SVG 1.1//EN" "http://www.w3.org/Graphics/SVG/1.1/DTD/svg11.dtd">
<svg version="1.1" id="Layer_1" xmlns="http://www.w3.org/2000/svg" xmlns:xlink="http://www.w3.org/1999/xlink" x="0px" y="0px"
	 width="31.943px" height="31.99px" viewBox="0 0 31.943 31.99" style="enable-background:new 0 0 31.943 31.99;"
	 xml:space="preserve">
<g>
	<path style="fill:#070909;" d="M1.196,13.233c0-6.638,5.399-12.037,12.037-12.037c6.637,0,12.037,5.399,12.037,12.037
		c0,0.945-0.121,1.86-0.327,2.744l1.282-0.268c0.153-0.804,0.241-1.628,0.241-2.476C26.466,5.937,20.53,0,13.233,0
		C5.936,0,0,5.937,0,13.233c0,6.868,5.26,12.526,11.963,13.168c0,0-0.241-0.536-0.449-1.244C5.777,24.243,1.196,19.223,1.196,13.233
		z"/>
	<path style="fill:#070909;" d="M8.66,3.553L8.129,3.824l0.492,0.975C8.795,4.7,8.975,4.612,9.155,4.524L8.664,3.553z"/>
	<path style="fill:#070909;" d="M2.222,12.833v1.2h1.374c-0.012-0.199-0.03-0.397-0.03-0.6c0-0.203,0.019-0.4,0.03-0.6H2.222z"/>

	<path style="fill:#070909;" d="M14.077,3.552V2.179h-1.2v1.373c0.199-0.012,0.396-0.029,0.599-0.029S13.876,3.54,14.077,3.552z"/>

	<path style="fill:#070909;" d="M23.374,8.365l-1.083,0.55c0.092,0.178,0.181,0.356,0.261,0.542l1.094-0.557L23.374,8.365z"/>
	<path style="fill:#070909;" d="M19.32,4.11l-0.596,0.926c0.17,0.107,0.336,0.216,0.499,0.332l0.601-0.933L19.32,4.11z"/>
	<path style="fill:#070909;" d="M5.354,7.762l-0.972-0.67L4.043,7.587l0.986,0.68C5.134,8.097,5.24,7.927,5.354,7.762z"/>
	<path style="fill:#070909;" d="M24.731,13.61v-0.777h-1.374c0.012,0.129,0.03,0.257,0.03,0.389c0,0.131-0.018,0.258-0.03,0.388
		H24.731z"/>
	<path style="fill:#070909;" d="M7.128,23.031l0.504,0.325l0.874-1.357c-0.174-0.1-0.346-0.201-0.512-0.312L7.128,23.031z"/>
	<path style="fill:#070909;" d="M4.92,18.418c-0.101-0.172-0.197-0.347-0.288-0.527l-1.325,0.674l0.271,0.535L4.92,18.418z"/>

	<polygon style="fill:#070909;" points="19.493,14.024 19.493,12.842 13.898,12.842 13.898,4.595 13.055,4.595 13.055,12.842 
		13.055,13.233 13.055,13.763 8.063,19.241 8.195,19.361 13.059,14.024 	"/>
	<path style="fill:#070909;" d="M27.582,17.226c-2.354-0.395-4.298,0.683-5.079,1.208c0.033-0.687,0.068-1.446,0.086-1.885
		c0.022-0.593,1.066-0.907,1.571-1.388c0.3-0.286-0.008-1.041-0.008-1.041s-2.608,1.157-2.538,2.276
		c0.034,0.545,0.042,1.308,0.039,1.948c-0.732-0.487-2.278-1.285-4.457-1.182c-3.009,0.142-4.982,2.353-4.926,5.633
		c0.056,4.547,4.092,8.388,6.906,8.388c0.692,0,1.259-0.088,1.699-0.197l-0.053,0.327l0.518-0.267l0.243,0.944l0.325-0.811
		l0.534,0.567v-0.567l0.708,0.217l-0.167-0.509c0.453,0.153,1.13,0.305,2.035,0.305c2.814,0,6.866-3.044,6.922-7.59
		C31.998,20.321,30.651,17.742,27.582,17.226z M16.421,26.822c-1.139-1.458-0.795-3.528-0.795-3.528s0.761,1.917,1.543,3.105
		c0.783,1.187,2.124,2.136,2.124,2.136S17.559,28.28,16.421,26.822z"/>

</g>
<g>
</g>
<g>
</g>
<g>
</g>
<g>
</g>
<g>
</g>
<g>
</g>
<g>
</g>
<g>
</g>
<g>
</g>
<g>
</g>
<g>
</g>
<g>
</g>
<g>
</g>
<g>
</g>
<g>
</g>
</svg>
