<?xml version="1.0" encoding="UTF-8" standalone="no"?>
<svg
   xmlns:dc="http://purl.org/dc/elements/1.1/"
   xmlns:cc="http://creativecommons.org/ns#"
   xmlns:rdf="http://www.w3.org/1999/02/22-rdf-syntax-ns#"
   xmlns:svg="http://www.w3.org/2000/svg"
   xmlns="http://www.w3.org/2000/svg"
   xmlns:sodipodi="http://sodipodi.sourceforge.net/DTD/sodipodi-0.dtd"
   xmlns:inkscape="http://www.inkscape.org/namespaces/inkscape"
   width="172"
   height="152"
   version="1.1"
   id="svg2761"
   sodipodi:docname="accanlz.svg"
   inkscape:version="0.92.2 (5c3e80d, 2017-08-06)">
  <metadata
     id="metadata2767">
    <rdf:RDF>
      <cc:Work
         rdf:about="">
        <dc:format>image/svg+xml</dc:format>
        <dc:type
           rdf:resource="http://purl.org/dc/dcmitype/StillImage" />
      </cc:Work>
    </rdf:RDF>
  </metadata>
  <defs
     id="defs2765" />
  <sodipodi:namedview
     pagecolor="#ffffff"
     bordercolor="#666666"
     borderopacity="1"
     objecttolerance="10"
     gridtolerance="10"
     guidetolerance="10"
     inkscape:pageopacity="0"
     inkscape:pageshadow="2"
     inkscape:window-width="1920"
     inkscape:window-height="1017"
     id="namedview2763"
     showgrid="false"
     inkscape:zoom="2.9410441"
     inkscape:cx="75.180779"
     inkscape:cy="76"
     inkscape:window-x="-8"
     inkscape:window-y="-8"
     inkscape:window-maximized="1"
     inkscape:current-layer="svg2761" />
  <path
     style="fill:#008080;fill-opacity:1;stroke-width:0.14001499"
     inkscape:connector-curvature="0"
     d="m 40.049447,13.357766 c 0,7.645639 0,7.792671 4.266666,8.086733 2.266667,0.147032 4.666667,1.176253 5.333333,2.205473 1.200001,2.205473 1.466667,54.107599 0.266667,57.636356 -0.533333,1.470315 -2.4,2.352504 -5.333333,2.352504 h -4.533333 v 7.498607 7.498608 L 72.449445,98.04792 c 30.266665,-0.441094 32.666665,-0.588126 38.799995,-3.822819 10.26667,-5.146103 14.93333,-9.851111 19.06667,-18.967066 3.2,-7.498608 3.73333,-10.145175 3.73333,-22.495822 0,-15.732373 -2.8,-24.848327 -10.26667,-33.376154 C 114.58277,8.9468196 100.98278,5.7121265 65.116112,5.7121265 H 40.049447 Z m 53.733331,11.468459 c 4.666667,4.116882 6.266662,11.174395 6.266662,28.230051 0,17.937846 -2.399995,25.583484 -8.799995,28.524114 -2.4,1.176253 -6,2.058442 -7.866667,2.058442 H 80.049445 V 52.762213 21.885594 h 5.2 c 3.066666,0 6.4,1.176252 8.533333,2.940631 z"
     id="path2106" />
  <path
     style="fill:#800080;fill-opacity:1;stroke-width:0.13886605"
     inkscape:connector-curvature="0"
     d="m 130.72543,56.628334 c -9.77836,1.561895 -15.88984,4.685683 -22.95198,11.359231 -10.864835,10.507289 -15.210771,25.27429 -12.901992,44.301015 1.901346,16.32889 8.827682,26.97817 21.322242,33.36774 7.06214,3.54976 9.0993,3.97573 23.3594,3.97573 14.66753,0 16.02563,-0.28398 22.81616,-4.11772 10.32159,-5.96359 15.48239,-14.05705 17.24793,-26.97818 l 0.95068,-6.67354 -7.87702,0.42597 -7.877,0.42597 -1.2223,5.9636 c -0.67905,3.83374 -2.85202,7.95145 -5.56823,11.07525 -4.07431,4.4017 -5.29661,4.96966 -11.27226,4.96966 -13.17362,0 -17.11212,-7.80947 -16.97631,-32.65779 0.13581,-20.020653 3.53107,-28.54008 12.49456,-30.527944 8.82768,-1.987866 16.97631,5.821605 19.69252,18.74273 l 0.95067,4.685683 h 8.69188 8.82767 l -0.40743,-18.884722 -0.40743,-18.742731 -6.65471,-0.425971 c -4.48175,-0.283981 -7.33377,0.283981 -8.82769,1.703885 -1.90134,1.845875 -2.98782,1.845875 -7.60538,0.283981 -7.60539,-2.697817 -17.79117,-3.549759 -25.80398,-2.271847 z"
     id="path2098" />
  <path
     inkscape:connector-curvature="0"
     d="m 20.940785,125.42116 c 0,13.56845 12.568674,24.60761 28.017853,24.60761 H 63.63466 c 4.42115,0 8.005101,-3.14773 8.005101,-7.03075 0,-3.88303 -3.583951,-7.03075 -8.005101,-7.03075 H 48.958638 c -6.621219,0 -12.007652,-4.7308 -12.007652,-10.54611 V 93.782798 c 0,-1.864612 -0.843538,-3.653058 -2.344496,-4.971615 L 18.919823,75.034144 34.606158,61.257107 c 1.50129,-1.318557 2.344828,-3.107003 2.344828,-4.971615 V 24.647138 c 0,-5.815309 5.386433,-10.546115 12.007652,-10.546115 H 63.63466 c 4.42115,0 8.005101,-3.147728 8.005101,-7.0307503 0,-3.8830235 -3.583951,-7.03074452 -8.005101,-7.03074452 H 48.958638 c -15.449179,0 -28.017853,11.03915282 -28.017853,24.60760982 v 28.72616 L 1.9383341,70.062528 c -3.1263319,2.7458 -3.1263319,7.19714 0,9.942939 L 20.940785,96.69499 Z"
     id="path7044"
     style="stroke-width:0.31258842" />
</svg>
