<?xml version="1.0" encoding="iso-8859-1"?>
<!-- Generator: Adobe Illustrator 16.0.0, SVG Export Plug-In . SVG Version: 6.00 Build 0)  -->
<!DOCTYPE svg PUBLIC "-//W3C//DTD SVG 1.1//EN" "http://www.w3.org/Graphics/SVG/1.1/DTD/svg11.dtd">
<svg version="1.1" id="Capa_1" xmlns="http://www.w3.org/2000/svg" xmlns:xlink="http://www.w3.org/1999/xlink" x="0px" y="0px"
	 width="45.821px" height="45.821px" viewBox="0 0 45.821 45.821" style="enable-background:new 0 0 45.821 45.821;"
	 xml:space="preserve">
<g>
	<path d="M44.752,18.038l-6.707-8.323c-0.811-1.006-1.965-1.636-3.249-1.774c-1.277-0.138-2.562,0.245-3.555,1.043l-1.704,1.374
		c-0.951,0.766-1.533,1.821-1.727,2.939h-9.111c-0.23,0-0.456,0.02-0.675,0.057c-0.184-1.139-0.771-2.217-1.738-2.996L14.58,8.983
		c-0.991-0.798-2.271-1.18-3.552-1.043C9.742,8.078,8.589,8.708,7.776,9.715l-6.704,8.321c-0.812,1.006-1.183,2.268-1.043,3.553
		c0.138,1.286,0.767,2.438,1.774,3.251l1.705,1.374c0.858,0.69,1.935,1.071,3.034,1.071c0.531,0,1.049-0.086,1.538-0.25
		l12.418,9.929c0.797,0.609,1.789,0.945,2.791,0.945c0.134,0,0.268-0.006,0.4-0.018c0.896-0.08,1.761-0.424,2.466-0.989
		l12.133-9.707c0.322,0.067,0.654,0.116,0.991,0.116c0.001,0,0.001,0,0.001,0c1.099,0,2.177-0.396,3.034-1.085l1.705-1.381
		c1.006-0.812,1.637-1.968,1.772-3.253C45.934,20.309,45.564,19.044,44.752,18.038z M3.713,22.473
		c-0.373-0.301-0.607-0.73-0.658-1.207c-0.052-0.477,0.086-0.945,0.386-1.319l6.704-8.32c0.302-0.374,0.73-0.607,1.207-0.66
		c0.064-0.007,0.129-0.01,0.192-0.01c0.409,0,0.81,0.142,1.126,0.397l1.706,1.374c0.771,0.622,0.894,1.755,0.271,2.526l-6.705,8.32
		c-0.601,0.747-1.774,0.876-2.524,0.272L3.713,22.473z M33.753,26.921c-0.328,0.263-0.794,0.262-1.121-0.003l-7.19-5.823
		c-0.562-0.454-1.264-0.701-1.985-0.697L18.7,20.422c-0.594,0-1.07-0.496-1.07-1.09v-1.901c0-0.594,0.477-1.063,1.07-1.063h8.727
		c0.27,0,0.523,0.121,0.693,0.329l6.695,8.218c0.149,0.186,0.221,0.423,0.195,0.659c-0.024,0.237-0.145,0.454-0.329,0.604
		L33.753,26.921z M42.771,21.267c-0.053,0.477-0.285,0.905-0.659,1.206l-1.705,1.374c-0.323,0.26-0.711,0.397-1.124,0.397
		c-0.549,0-1.06-0.245-1.402-0.669l-6.704-8.321c-0.62-0.771-0.5-1.904,0.272-2.526l1.703-1.373
		c0.319-0.256,0.719-0.398,1.128-0.398c0.062,0,0.129,0.003,0.192,0.01c0.477,0.052,0.904,0.286,1.205,0.659l6.705,8.322
		C42.685,20.321,42.821,20.789,42.771,21.267z"/>
</g>
<g>
</g>
<g>
</g>
<g>
</g>
<g>
</g>
<g>
</g>
<g>
</g>
<g>
</g>
<g>
</g>
<g>
</g>
<g>
</g>
<g>
</g>
<g>
</g>
<g>
</g>
<g>
</g>
<g>
</g>
</svg>
