<?xml version="1.0" encoding="iso-8859-1"?>
<!-- Generator: Adobe Illustrator 17.1.0, SVG Export Plug-In . SVG Version: 6.00 Build 0)  -->
<!DOCTYPE svg PUBLIC "-//W3C//DTD SVG 1.1//EN" "http://www.w3.org/Graphics/SVG/1.1/DTD/svg11.dtd">
<svg version="1.1" id="Capa_1" xmlns="http://www.w3.org/2000/svg" xmlns:xlink="http://www.w3.org/1999/xlink" x="0px" y="0px"
	 viewBox="0 0 432.691 432.691" style="enable-background:new 0 0 432.691 432.691;" xml:space="preserve">
<path id="XMLID_405_" d="M214.913,411.187c0,3.866-3.134,7-7,7h-84.771c-12.108,0-21.959-9.851-21.959-21.959V183.831
	c0-33.237,20.106-63.256,50.522-76.201V38.462c-2.593-2.44-4.154-5.886-4.154-9.594V13.173c0-5.595,3.555-10.595,8.847-12.442
	c1.405-0.486,2.855-0.73,4.325-0.73h46.489c1.47,0,2.92,0.244,4.31,0.726c5.307,1.853,8.862,6.853,8.862,12.447v15.695
	c0,3.708-1.561,7.153-4.154,9.594v69.168c16.851,7.176,30.927,19.771,39.977,35.886c1.893,3.371,0.695,7.638-2.676,9.531
	c-3.372,1.891-7.638,0.694-9.531-2.676c-8.214-14.627-21.397-25.768-37.12-31.37c-2.789-0.993-4.65-3.634-4.65-6.594V42.041h-1.591
	c-3.866,0-7-3.134-7-7s3.134-7,7-7h5.745V14h-44.833v14.041h5.746c3.866,0,7,3.134,7,7s-3.134,7-7,7h-1.592v70.366
	c0,2.96-1.862,5.6-4.65,6.594c-27.438,9.778-45.873,35.832-45.873,64.83v212.396c0,4.389,3.57,7.959,7.959,7.959h84.771
	C211.779,404.187,214.913,407.32,214.913,411.187z M155.239,141.218c-15.06,8.583-24.416,24.616-24.416,41.841v190.436
	c0,3.866,3.134,7,7,7s7-3.134,7-7V183.059c0-12.207,6.647-23.579,17.348-29.679c3.359-1.914,4.529-6.188,2.615-9.547
	C162.872,140.474,158.597,139.302,155.239,141.218z M298.488,265.97c-3.839,0.458-6.579,3.941-6.121,7.779
	c0.753,6.309-1.381,12.654-6.01,17.868c-5.751,6.478-14.381,10.346-23.084,10.346c-3.866,0-7,3.134-7,7s3.134,7,7,7
	c12.644,0,25.187-5.627,33.554-15.052c7.322-8.248,10.675-18.483,9.441-28.82C305.811,268.251,302.329,265.508,298.488,265.97z
	 M316.355,319.906c-11.687,13.166-28.529,21.646-46.082,23.45v75.334h22.287c3.866,0,7,3.134,7,7s-3.134,7-7,7h-29.168
	c-0.04,0.001-0.079,0.001-0.119,0.001s-0.079,0-0.119-0.001h-29.168c-3.866,0-7-3.134-7-7s3.134-7,7-7h22.288v-75.334
	c-17.554-1.804-34.396-10.285-46.084-23.451c-11.44-12.89-16.684-28.841-14.763-44.916l5.106-42.754
	c0.009-0.093,0.021-0.186,0.033-0.278l5.77-48.314c0.42-3.52,3.406-6.17,6.951-6.17h99.974c3.545,0,6.53,2.65,6.951,6.17
	l10.91,91.347C333.04,291.065,327.796,307.018,316.355,319.906z M317.219,276.649l-10.173-85.177H219.5l-4.544,38.046
	c18.835,11.392,50.225,10.779,76.635-1.906c3.483-1.675,7.667-0.206,9.341,3.278c1.674,3.485,0.206,7.667-3.279,9.341
	c-28.555,13.717-61.494,15.026-84.476,4.188l-3.849,32.229c-1.439,12.047,2.585,24.107,11.332,33.962
	c10.619,11.963,26.549,19.105,42.612,19.105c16.064,0,31.994-7.142,42.613-19.104C314.632,300.758,318.658,288.696,317.219,276.649z
	"/>
<g>
</g>
<g>
</g>
<g>
</g>
<g>
</g>
<g>
</g>
<g>
</g>
<g>
</g>
<g>
</g>
<g>
</g>
<g>
</g>
<g>
</g>
<g>
</g>
<g>
</g>
<g>
</g>
<g>
</g>
</svg>
