<?xml version="1.0" encoding="UTF-8" standalone="no"?>
<!-- Svg Vector Icons : http://www.onlinewebfonts.com/icon -->

<svg
   xmlns:dc="http://purl.org/dc/elements/1.1/"
   xmlns:cc="http://creativecommons.org/ns#"
   xmlns:rdf="http://www.w3.org/1999/02/22-rdf-syntax-ns#"
   xmlns:svg="http://www.w3.org/2000/svg"
   xmlns="http://www.w3.org/2000/svg"
   xmlns:sodipodi="http://sodipodi.sourceforge.net/DTD/sodipodi-0.dtd"
   xmlns:inkscape="http://www.inkscape.org/namespaces/inkscape"
   version="1.1"
   x="0px"
   y="0px"
   viewBox="0 0 1000 1000"
   enable-background="new 0 0 1000 1000"
   xml:space="preserve"
   id="svg833"
   sodipodi:docname="alcodecl.svg"
   inkscape:version="0.92.2 (5c3e80d, 2017-08-06)"><defs
     id="defs837" /><sodipodi:namedview
     pagecolor="#ffffff"
     bordercolor="#666666"
     borderopacity="1"
     objecttolerance="10"
     gridtolerance="10"
     guidetolerance="10"
     inkscape:pageopacity="0"
     inkscape:pageshadow="2"
     inkscape:window-width="1920"
     inkscape:window-height="1017"
     id="namedview835"
     showgrid="false"
     inkscape:zoom="0.82"
     inkscape:cx="252.54138"
     inkscape:cy="566.37184"
     inkscape:window-x="-8"
     inkscape:window-y="-8"
     inkscape:window-maximized="1"
     inkscape:current-layer="svg833" /><metadata
     id="metadata827"> Svg Vector Icons : http://www.onlinewebfonts.com/icon <rdf:RDF><cc:Work
     rdf:about=""><dc:format>image/svg+xml</dc:format><dc:type
       rdf:resource="http://purl.org/dc/dcmitype/StillImage" /></cc:Work></rdf:RDF></metadata><g
     id="g831"><path
       d="M855.8,928.7h-593v-61.2h474.5c32.7,0,59.3-27.5,59.3-61.2V193.7h59.2V928.7z M230.6,745c-16.3,0-29.7-13.7-29.7-30.6c0-16.9,13.3-30.6,29.7-30.6h417.6c16.3,0,29.7,13.8,29.7,30.6c0,16.9-13.3,30.6-29.7,30.6H230.6z M230.6,500h417.6c16.3,0,29.7,13.8,29.7,30.6c0,16.9-13.3,30.6-29.7,30.6H230.6c-16.3,0-29.7-13.7-29.7-30.6C201,513.7,214.3,500,230.6,500 M230.6,316.2h417.6c16.3,0,29.7,13.8,29.7,30.6c0,16.9-13.3,30.6-29.7,30.6H230.6c-16.3,0-29.7-13.7-29.7-30.6C201,330,214.3,316.2,230.6,316.2 M408.5,132.5h239.7c16.3,0,29.7,13.8,29.7,30.6c0,16.9-13.3,30.6-29.7,30.6H408.5c-16.3,0-29.7-13.7-29.7-30.6C378.9,146.3,392.2,132.5,408.5,132.5 M855.8,132.5h-59.2V71.3c0-33.7-26.7-61.3-59.3-61.3h-593c-32.8,0-59.4,27.5-59.4,61.3v735c0,33.8,26.5,61.2,59.4,61.2h59.2v61.2c0,33.8,26.7,61.3,59.3,61.3h593c32.8,0,59.3-27.5,59.3-61.3v-735C915.1,160,888.6,132.5,855.8,132.5"
       id="path829" /></g><rect
     style="opacity:1;fill:#ffffff;fill-opacity:1;fill-rule:evenodd;stroke:#000000;stroke-width:15.11811066;stroke-linecap:round;stroke-linejoin:round;stroke-miterlimit:4;stroke-dasharray:none;stroke-opacity:1"
     id="rect945"
     width="459.75613"
     height="664.63416"
     x="126.82923"
     y="40.243912" /><g
     id="g1040"
     transform="matrix(1.8328157,0,0,1.4820994,-41.923579,50.952395)"
     style="stroke-width:0.60673904"><path
       d="m 214.913,411.187 c 0,3.866 -3.134,7 -7,7 h -84.771 c -12.108,0 -21.959,-9.851 -21.959,-21.959 V 183.831 c 0,-33.237 20.106,-63.256 50.522,-76.201 V 38.462 c -2.593,-2.44 -4.154,-5.886 -4.154,-9.594 V 13.173 c 0,-5.595 3.555,-10.595 8.847,-12.442 1.405,-0.486 2.855,-0.73 4.325,-0.73 h 46.489 c 1.47,0 2.92,0.244 4.31,0.726 5.307,1.853 8.862,6.853 8.862,12.447 v 15.695 c 0,3.708 -1.561,7.153 -4.154,9.594 v 69.168 c 16.851,7.176 30.927,19.771 39.977,35.886 1.893,3.371 0.695,7.638 -2.676,9.531 -3.372,1.891 -7.638,0.694 -9.531,-2.676 -8.214,-14.627 -21.397,-25.768 -37.12,-31.37 -2.789,-0.993 -4.65,-3.634 -4.65,-6.594 V 42.041 h -1.591 c -3.866,0 -7,-3.134 -7,-7 0,-3.866 3.134,-7 7,-7 h 5.745 V 14 h -44.833 v 14.041 h 5.746 c 3.866,0 7,3.134 7,7 0,3.866 -3.134,7 -7,7 h -1.592 v 70.366 c 0,2.96 -1.862,5.6 -4.65,6.594 -27.438,9.778 -45.873,35.832 -45.873,64.83 v 212.396 c 0,4.389 3.57,7.959 7.959,7.959 h 84.771 c 3.867,0.001 7.001,3.134 7.001,7.001 z M 155.239,141.218 c -15.06,8.583 -24.416,24.616 -24.416,41.841 v 190.436 c 0,3.866 3.134,7 7,7 3.866,0 7,-3.134 7,-7 V 183.059 c 0,-12.207 6.647,-23.579 17.348,-29.679 3.359,-1.914 4.529,-6.188 2.615,-9.547 -1.914,-3.359 -6.189,-4.531 -9.547,-2.615 z M 298.488,265.97 c -3.839,0.458 -6.579,3.941 -6.121,7.779 0.753,6.309 -1.381,12.654 -6.01,17.868 -5.751,6.478 -14.381,10.346 -23.084,10.346 -3.866,0 -7,3.134 -7,7 0,3.866 3.134,7 7,7 12.644,0 25.187,-5.627 33.554,-15.052 7.322,-8.248 10.675,-18.483 9.441,-28.82 -0.457,-3.84 -3.939,-6.583 -7.78,-6.121 z m 17.867,53.936 c -11.687,13.166 -28.529,21.646 -46.082,23.45 v 75.334 h 22.287 c 3.866,0 7,3.134 7,7 0,3.866 -3.134,7 -7,7 h -29.168 c -0.04,10e-4 -0.079,10e-4 -0.119,10e-4 -0.04,0 -0.079,0 -0.119,-10e-4 h -29.168 c -3.866,0 -7,-3.134 -7,-7 0,-3.866 3.134,-7 7,-7 h 22.288 v -75.334 c -17.554,-1.804 -34.396,-10.285 -46.084,-23.451 -11.44,-12.89 -16.684,-28.841 -14.763,-44.916 l 5.106,-42.754 c 0.009,-0.093 0.021,-0.186 0.033,-0.278 l 5.77,-48.314 c 0.42,-3.52 3.406,-6.17 6.951,-6.17 h 99.974 c 3.545,0 6.53,2.65 6.951,6.17 l 10.91,91.347 c 1.918,16.075 -3.326,32.028 -14.767,44.916 z m 0.864,-43.257 -10.173,-85.177 H 219.5 l -4.544,38.046 c 18.835,11.392 50.225,10.779 76.635,-1.906 3.483,-1.675 7.667,-0.206 9.341,3.278 1.674,3.485 0.206,7.667 -3.279,9.341 -28.555,13.717 -61.494,15.026 -84.476,4.188 l -3.849,32.229 c -1.439,12.047 2.585,24.107 11.332,33.962 10.619,11.963 26.549,19.105 42.612,19.105 16.064,0 31.994,-7.142 42.613,-19.104 8.747,-9.853 12.773,-21.915 11.334,-33.962 z"
       id="XMLID_405_"
       inkscape:connector-curvature="0"
       style="stroke-width:0.60673904" /><g
       id="g987"
       style="stroke-width:0.60673904" /><g
       id="g989"
       style="stroke-width:0.60673904" /><g
       id="g991"
       style="stroke-width:0.60673904" /><g
       id="g993"
       style="stroke-width:0.60673904" /><g
       id="g995"
       style="stroke-width:0.60673904" /><g
       id="g997"
       style="stroke-width:0.60673904" /><g
       id="g999"
       style="stroke-width:0.60673904" /><g
       id="g1001"
       style="stroke-width:0.60673904" /><g
       id="g1003"
       style="stroke-width:0.60673904" /><g
       id="g1005"
       style="stroke-width:0.60673904" /><g
       id="g1007"
       style="stroke-width:0.60673904" /><g
       id="g1009"
       style="stroke-width:0.60673904" /><g
       id="g1011"
       style="stroke-width:0.60673904" /><g
       id="g1013"
       style="stroke-width:0.60673904" /><g
       id="g1015"
       style="stroke-width:0.60673904" /></g></svg>