<?xml version="1.0" encoding="iso-8859-1"?>
<!-- Generator: Adobe Illustrator 18.1.1, SVG Export Plug-In . SVG Version: 6.00 Build 0)  -->
<svg version="1.1" id="Capa_1" xmlns="http://www.w3.org/2000/svg" xmlns:xlink="http://www.w3.org/1999/xlink" x="0px" y="0px"
	 viewBox="0 0 74 74" style="enable-background:new 0 0 74 74;" xml:space="preserve">
<g id="_x37_7_Essential_Icons_51_">
	<path id="Rearrange" d="M22,52.95H2c-1.1,0-2,0.9-2,2v12c0,1.1,0.9,2,2,2h20c1.1,0,2-0.9,2-2v-12C24,53.85,23.1,52.95,22,52.95z
		 M20,64.95H4v-8h16V64.95z M22,28.95H2c-1.1,0-2,0.9-2,2v12c0,1.1,0.9,2,2,2h20c1.1,0,2-0.9,2-2v-12C24,29.85,23.1,28.95,22,28.95z
		 M20,40.95H4v-8h16V40.95z M22,4.95H2c-1.1,0-2,0.9-2,2v12c0,1.1,0.9,2,2,2h20c1.1,0,2-0.9,2-2v-12C24,5.85,23.1,4.95,22,4.95z
		 M20,16.95H4v-8h16V16.95z M63.4,17.75c-0.8-0.8-1.6-1.5-2.5-2.1l7.5-7.2c1.3-1.3,0.4-3.4-1.4-3.4H34c-1.1,0-2,0.9-2,2v31.7
		c0,1.8,2.1,2.7,3.4,1.5l8-7.7c0.2,0.2,0.5,0.4,0.7,0.6c3.6,3.4,5.5,8,5.5,12.8s-1.9,9.3-5.5,12.6c-3.1,3-6,4.8-10.4,5.2
		c-2.1,0.2-2.6,3.3-0.4,3.9c3.1,0.9,5,1.4,8.2,1.4c4.2,0,8.2-0.8,11.9-2.2c3.7-1.5,7.1-3.7,10.1-6.5c5.9-5.7,10.5-13.3,10.5-21.3
		S69.4,23.45,63.4,17.75z M60.8,57.35c-5,4.8-11.7,7.5-18.8,7.6c1.8-1,3.5-2.2,5-3.6c4.3-4.1,6.7-9.7,6.7-15.5
		c0-5.9-2.4-11.5-6.8-15.7c-0.8-0.8-1.6-1.4-2.4-2c-0.6-0.4-1.7-0.6-2.5,0.2l-6,5.6v-25h26.1l-5.6,5.4c-0.4,0.4-0.7,1-0.6,1.6
		s0.4,1.1,0.9,1.5c1.4,0.9,2.7,2,3.9,3.1c5.2,4.9,9.3,11.5,9.3,18.5C70,45.95,65.9,52.45,60.8,57.35z"/>
</g>
<g>
</g>
<g>
</g>
<g>
</g>
<g>
</g>
<g>
</g>
<g>
</g>
<g>
</g>
<g>
</g>
<g>
</g>
<g>
</g>
<g>
</g>
<g>
</g>
<g>
</g>
<g>
</g>
<g>
</g>
</svg>
