<?xml version="1.0" encoding="UTF-8" standalone="no"?>
<!-- Created with Inkscape (http://www.inkscape.org/) -->

<svg
   xmlns:svg="http://www.w3.org/2000/svg"
   xmlns="http://www.w3.org/2000/svg"
   version="1.1"
   width="80"
   height="80"
   id="svg2">
  <defs
     id="defs4">
    <linearGradient
       id="linearGradient5118">
      <stop
         id="stop5120"
         style="stop-color:#005c00;stop-opacity:1"
         offset="0" />
      <stop
         id="stop5122"
         style="stop-color:#00b500;stop-opacity:0"
         offset="1" />
    </linearGradient>
    <linearGradient
       id="linearGradient5096">
      <stop
         id="stop5098"
         style="stop-color:#00b500;stop-opacity:1"
         offset="0" />
      <stop
         id="stop5100"
         style="stop-color:#00b500;stop-opacity:0"
         offset="1" />
    </linearGradient>
  </defs>
  <g
     transform="translate(-12,-12.36218)"
     id="layer1">
    <g
       transform="translate(170.925,450.28718)"
       id="1">
      <path
         d="m -145.4,-411.025 -5.6,0 c 1.2,0 2.15,1 2.15,2.15 0,0 0,0 0,0 l 0,18.15 c 0,1.15 -0.95,2.1 -2.15,2.1 -1.2,0 -2.15,-0.95 -2.15,-2.1 l 0,0 0,-18.15 c 0,-1.15 0.95,-2.15 2.15,-2.15 1.2,0 2.15,1 2.15,2.15 0,0 0,0 0,0 l 0,18.15 c 0,1.15 -0.95,2.1 -2.15,2.1 l 0,0 17.6,0 c 1.75,0 3.2,-1.4 3.2,-3.2 0,0 0,0 0,0 l 0,0 0,-16 c 0,-1.75 -1.45,-3.2 -3.2,-3.2 l -12,0 z"
         id="2-7"
         style="opacity:0.75;fill:#ffffff;fill-opacity:1;fill-rule:evenodd;stroke:none" />
      <path
         d="m -145.4,-411.025 -5.6,0 c 1.2,0 2.15,1 2.15,2.15 0,0 0,0 0,0 l 0,18.15 c 0,1.15 -0.95,2.1 -2.15,2.1 -1.2,0 -2.15,-0.95 -2.15,-2.1 l 0,0 0,-18.15 c 0,-1.15 0.95,-2.15 2.15,-2.15 1.2,0 2.15,1 2.15,2.15 0,0 0,0 0,0 l 0,18.15 c 0,1.15 -0.95,2.1 -2.15,2.1 l 0,0 17.6,0 c 1.75,0 3.2,-1.4 3.2,-3.2 0,0 0,0 0,0 l 0,0 0,-16 c 0,-1.75 -1.45,-3.2 -3.2,-3.2 l -12,0 z"
         id="3-1"
         style="opacity:0.75;fill:#aa8800;stroke:#000000;stroke-width:0.34999999px;stroke-linecap:round;stroke-linejoin:round;stroke-opacity:1;stroke-dasharray:none" />
      <path
         d="m -129.15,-372.525 0,5.6 c 0,-1.2 1,-2.15 2.15,-2.15 0,0 0,0 0,0 l 0,0 18.15,0 c 1.15,0 2.1,0.95 2.1,2.15 0,1.15 -0.95,2.1 -2.1,2.1 l -18.15,0 c -1.15,0 -2.15,-0.95 -2.15,-2.1 0,-1.2 1,-2.15 2.15,-2.15 0,0 0,0 0,0 l 0,0 18.15,0 c 1.15,0 2.1,0.95 2.1,2.15 l 0,0 0,-17.6 c 0,-1.8 -1.4,-3.2 -3.2,-3.2 0,0 0,0 0,0 l 0,0 -16,0 c -1.75,0 -3.2,1.4 -3.2,3.2 l 0,12 z"
         id="4-2"
         style="opacity:0.75;fill:#ffffff;fill-opacity:1;fill-rule:evenodd;stroke:none" />
      <path
         d="m -129.15,-372.525 0,5.6 c 0,-1.2 1,-2.15 2.15,-2.15 0,0 0,0 0,0 l 0,0 18.15,0 c 1.15,0 2.1,0.95 2.1,2.15 0,1.15 -0.95,2.1 -2.1,2.1 l -18.15,0 c -1.15,0 -2.15,-0.95 -2.15,-2.1 0,-1.2 1,-2.15 2.15,-2.15 0,0 0,0 0,0 l 0,0 18.15,0 c 1.15,0 2.1,0.95 2.1,2.15 l 0,0 0,-17.6 c 0,-1.8 -1.4,-3.2 -3.2,-3.2 0,0 0,0 0,0 l 0,0 -16,0 c -1.75,0 -3.2,1.4 -3.2,3.2 l 0,12 z"
         id="5-6"
         style="opacity:0.75;fill:#aa8800;stroke:#000000;stroke-width:0.34999999px;stroke-linecap:round;stroke-linejoin:round;stroke-opacity:1;stroke-dasharray:none" />
      <path
         d="m -90.4,-388.625 5.6,0 c -1.2,0 -2.15,-0.95 -2.15,-2.1 0,0 0,0 0,0 l 0,0 0,-18.15 c 0,-1.15 0.95,-2.15 2.15,-2.15 1.15,0 2.1,1 2.1,2.15 l 0,0 0,18.15 c 0,1.15 -0.95,2.1 -2.1,2.1 -1.2,0 -2.15,-0.95 -2.15,-2.1 0,0 0,0 0,0 l 0,0 0,-18.15 c 0,-1.15 0.95,-2.15 2.15,-2.15 l 0,0 -17.6,0 c -1.8,0 -3.2,1.45 -3.2,3.2 0,0 0,0 0,0 l 0,16 c 0,1.8 1.4,3.2 3.2,3.2 l 0,0 12,0 z"
         id="6-0"
         style="opacity:0.75;fill:#ffffff;fill-opacity:1;fill-rule:evenodd;stroke:none" />
      <path
         d="m -90.4,-388.625 5.6,0 c -1.2,0 -2.15,-0.95 -2.15,-2.1 0,0 0,0 0,0 l 0,0 0,-18.15 c 0,-1.15 0.95,-2.15 2.15,-2.15 1.15,0 2.1,1 2.1,2.15 l 0,0 0,18.15 c 0,1.15 -0.95,2.1 -2.1,2.1 -1.2,0 -2.15,-0.95 -2.15,-2.1 0,0 0,0 0,0 l 0,0 0,-18.15 c 0,-1.15 0.95,-2.15 2.15,-2.15 l 0,0 -17.6,0 c -1.8,0 -3.2,1.45 -3.2,3.2 0,0 0,0 0,0 l 0,16 c 0,1.8 1.4,3.2 3.2,3.2 l 0,0 12,0 z"
         id="7-4"
         style="opacity:0.75;fill:#aa8800;stroke:#000000;stroke-width:0.34999999px;stroke-linecap:round;stroke-linejoin:round;stroke-opacity:1;stroke-dasharray:none" />
      <path
         d="m -106.75,-427.275 0,-5.6 c 0,1.2 -0.95,2.15 -2.1,2.15 0,0 0,0 0,0 l 0,0 -18.15,0 c -1.15,0 -2.15,-0.95 -2.15,-2.15 0,-1.2 1,-2.15 2.15,-2.15 l 0,0 18.15,0 c 1.15,0 2.1,0.95 2.1,2.15 0,1.2 -0.95,2.15 -2.1,2.15 0,0 0,0 0,0 l 0,0 -18.15,0 c -1.15,0 -2.15,-0.95 -2.15,-2.15 l 0,17.6 c 0,1.75 1.45,3.2 3.2,3.2 0,0 0,0 0,0 l 0,0 16,0 c 1.8,0 3.2,-1.45 3.2,-3.2 l 0,0 0,-12 z"
         id="8-9"
         style="opacity:0.75;fill:#ffffff;fill-opacity:1;fill-rule:evenodd;stroke:none" />
      <path
         d="m -106.75,-427.275 0,-5.6 c 0,1.2 -0.95,2.15 -2.1,2.15 0,0 0,0 0,0 l 0,0 -18.15,0 c -1.15,0 -2.15,-0.95 -2.15,-2.15 0,-1.2 1,-2.15 2.15,-2.15 l 0,0 18.15,0 c 1.15,0 2.1,0.95 2.1,2.15 0,1.2 -0.95,2.15 -2.1,2.15 0,0 0,0 0,0 l 0,0 -18.15,0 c -1.15,0 -2.15,-0.95 -2.15,-2.15 l 0,17.6 c 0,1.75 1.45,3.2 3.2,3.2 0,0 0,0 0,0 l 0,0 16,0 c 1.8,0 3.2,-1.45 3.2,-3.2 l 0,0 0,-12 z"
         id="9-4"
         style="opacity:0.75;fill:#aa8800;stroke:#000000;stroke-width:0.34999999px;stroke-linecap:round;stroke-linejoin:round;stroke-opacity:1;stroke-dasharray:none" />
      <path
         d="m -140.35,-399.825 c 0,-12.35 10.05,-22.4 22.4,-22.4 12.4,0 22.45,10.05 22.45,22.4 0,12.4 -10.05,22.45 -22.45,22.45 -12.35,0 -22.4,-10.05 -22.4,-22.45"
         id="10-6"
         style="opacity:0.5625;fill:#006400;fill-opacity:1;fill-rule:evenodd;stroke:none" />
      <path
         d="m -140.35,-399.825 c 0,-12.35 10.05,-22.4 22.4,-22.4 12.4,0 22.45,10.05 22.45,22.4 0,12.4 -10.05,22.45 -22.45,22.45 -12.35,0 -22.4,-10.05 -22.4,-22.45"
         id="11-0"
         style="opacity:0.5625;fill:#006400;fill-opacity:1;stroke:#000000;stroke-width:0.34999999px;stroke-linecap:round;stroke-linejoin:round;stroke-opacity:1;stroke-dasharray:none" />
    </g>
  </g>
</svg>
