<?xml version="1.0" encoding="iso-8859-1"?>
<!-- Generator: Adobe Illustrator 16.0.0, SVG Export Plug-In . SVG Version: 6.00 Build 0)  -->
<!DOCTYPE svg PUBLIC "-//W3C//DTD SVG 1.1//EN" "http://www.w3.org/Graphics/SVG/1.1/DTD/svg11.dtd">
<svg version="1.1" id="Capa_1" xmlns="http://www.w3.org/2000/svg" xmlns:xlink="http://www.w3.org/1999/xlink" x="0px" y="0px"
	 width="961.5px" height="961.5px" viewBox="0 0 961.5 961.5" style="enable-background:new 0 0 961.5 961.5;" xml:space="preserve"
	>
<g>
	<g>
		<path d="M852.45,911.4V50c0-27.6-22.4-50-50-50h-643.4c-27.6,0-50,22.4-50,50v861.5c0,27.601,22.4,50,50,50h643.4
			C830.05,961.4,852.45,939.101,852.45,911.4z M313.95,846.601c0,13.8-11.2,25-25,25h-57.7c-13.8,0-25-11.2-25-25v-57.7
			c0-13.8,11.2-25,25-25h57.7c13.8,0,25,11.2,25,25V846.601z M313.95,698.3c0,13.801-11.2,25-25,25h-57.7c-13.8,0-25-11.199-25-25
			v-57.6c0-13.8,11.2-25,25-25h57.7c13.8,0,25,11.2,25,25V698.3z M313.95,550c0,13.8-11.2,25-25,25h-57.7c-13.8,0-25-11.2-25-25
			v-57.7c0-13.8,11.2-25,25-25h57.7c13.8,0,25,11.2,25,25V550z M313.95,401.7c0,13.8-11.2,25-25,25h-57.7c-13.8,0-25-11.2-25-25V344
			c0-13.8,11.2-25,25-25h57.7c13.8,0,25,11.2,25,25V401.7z M461.25,846.601c0,13.8-11.2,25-25,25h-57.7c-13.8,0-25-11.2-25-25v-57.7
			c0-13.8,11.2-25,25-25h57.7c13.8,0,25,11.2,25,25V846.601z M461.25,698.3c0,13.801-11.2,25-25,25h-57.7c-13.8,0-25-11.199-25-25
			v-57.6c0-13.8,11.2-25,25-25h57.7c13.8,0,25,11.2,25,25V698.3z M461.25,550c0,13.8-11.2,25-25,25h-57.7c-13.8,0-25-11.2-25-25
			v-57.7c0-13.8,11.2-25,25-25h57.7c13.8,0,25,11.2,25,25V550z M461.25,401.7c0,13.8-11.2,25-25,25h-57.7c-13.8,0-25-11.2-25-25V344
			c0-13.8,11.2-25,25-25h57.7c13.8,0,25,11.2,25,25V401.7z M608.55,846.601c0,13.8-11.199,25-25,25h-57.6c-13.801,0-25-11.2-25-25
			v-57.7c0-13.8,11.199-25,25-25h57.699c13.801,0,25,11.2,25,25v57.7H608.55z M608.55,698.3c0,13.801-11.199,25-25,25h-57.6
			c-13.801,0-25-11.199-25-25v-57.6c0-13.8,11.199-25,25-25h57.699c13.801,0,25,11.2,25,25v57.6H608.55z M608.55,550
			c0,13.8-11.199,25-25,25h-57.6c-13.801,0-25-11.2-25-25v-57.7c0-13.8,11.199-25,25-25h57.699c13.801,0,25,11.2,25,25V550H608.55z
			 M608.55,401.7c0,13.8-11.199,25-25,25h-57.6c-13.801,0-25-11.2-25-25V344c0-13.8,11.199-25,25-25h57.699c13.801,0,25,11.2,25,25
			v57.7H608.55z M755.851,846.601c0,13.8-11.201,25-25,25h-57.701c-13.799,0-25-11.2-25-25V640.7c0-13.8,11.201-25,25-25h57.701
			c13.799,0,25,11.2,25,25V846.601z M755.851,550c0,13.8-11.201,25-25,25h-57.701c-13.799,0-25-11.2-25-25v-57.7
			c0-13.8,11.201-25,25-25h57.701c13.799,0,25,11.2,25,25V550z M755.851,401.7c0,13.8-11.201,25-25,25h-57.701
			c-13.799,0-25-11.2-25-25V344c0-13.8,11.201-25,25-25h57.701c13.799,0,25,11.2,25,25V401.7z M755.851,200.4
			c0,13.8-11.201,25-25,25H230.55c-13.8,0-25-11.2-25-25v-86.5c0-13.8,11.2-25,25-25h500.301c13.799,0,25,11.2,25,25V200.4z"/>
	</g>
</g>
<g>
</g>
<g>
</g>
<g>
</g>
<g>
</g>
<g>
</g>
<g>
</g>
<g>
</g>
<g>
</g>
<g>
</g>
<g>
</g>
<g>
</g>
<g>
</g>
<g>
</g>
<g>
</g>
<g>
</g>
</svg>
