<?xml version="1.0" encoding="iso-8859-1"?>
<!-- Generator: Adobe Illustrator 19.0.0, SVG Export Plug-In . SVG Version: 6.00 Build 0)  -->
<svg version="1.1" id="Capa_1" xmlns="http://www.w3.org/2000/svg" xmlns:xlink="http://www.w3.org/1999/xlink" x="0px" y="0px"
	 viewBox="0 0 60 60" style="enable-background:new 0 0 60 60;" xml:space="preserve">
<path d="M50.586,0H9.414C7.807,0,6.5,1.308,6.5,2.914v54.172C6.5,58.692,7.807,60,9.414,60h41.172c1.607,0,2.914-1.308,2.914-2.914
	V2.914C53.5,1.308,52.193,0,50.586,0z M22.5,55h-11V44h11V55z M22.5,42h-11V31h11V42z M22.5,29h-11V18h11V29z M35.5,55h-11V44h11V55
	z M35.5,42h-11V31h11V42z M35.5,29h-11V18h11V29z M48.5,55h-11V31h11V55z M48.5,29h-11V18h11V29z M48.5,15h-37V5h37V15z"/>
<g>
</g>
<g>
</g>
<g>
</g>
<g>
</g>
<g>
</g>
<g>
</g>
<g>
</g>
<g>
</g>
<g>
</g>
<g>
</g>
<g>
</g>
<g>
</g>
<g>
</g>
<g>
</g>
<g>
</g>
</svg>
