<?xml version='1.0' encoding='iso-8859-1'?>
<!DOCTYPE svg PUBLIC '-//W3C//DTD SVG 1.1//EN' 'http://www.w3.org/Graphics/SVG/1.1/DTD/svg11.dtd'>
<svg version="1.1" xmlns="http://www.w3.org/2000/svg" viewBox="0 0 383.958 383.958" xmlns:xlink="http://www.w3.org/1999/xlink" enable-background="new 0 0 383.958 383.958">
  <g>
    <path d="m105.608,155.967h-29.492c-7.709,0-13.98,6.271-13.98,13.98v13.812c0,7.709 6.271,13.98 13.98,13.98h29.491c7.709,0 13.98-6.271 13.98-13.98v-13.812c0.001-7.708-6.27-13.98-13.979-13.98zm3.98,27.793c0,2.195-1.785,3.98-3.98,3.98h-29.492c-2.195,0-3.98-1.786-3.98-3.98v-13.812c0-2.195 1.785-3.98 3.98-3.98h29.491c2.195,0 3.98,1.786 3.98,3.98v13.812z"/>
    <path d="m105.608,203.435h-29.492c-7.709,0-13.98,6.271-13.98,13.98v13.812c0,7.709 6.271,13.98 13.98,13.98h29.491c7.709,0 13.98-6.271 13.98-13.98v-13.812c0.001-7.708-6.27-13.98-13.979-13.98zm3.98,27.792c0,2.195-1.785,3.98-3.98,3.98h-29.492c-2.195,0-3.98-1.786-3.98-3.98v-13.812c0-2.195 1.785-3.98 3.98-3.98h29.491c2.195,0 3.98,1.786 3.98,3.98v13.812z"/>
    <path d="m105.608,250.901h-29.492c-7.709,0-13.98,6.271-13.98,13.98v13.812c0,7.709 6.271,13.98 13.98,13.98h29.491c7.709,0 13.98-6.271 13.98-13.98v-13.812c0.001-7.708-6.27-13.98-13.979-13.98zm3.98,27.793c0,2.195-1.785,3.98-3.98,3.98h-29.492c-2.195,0-3.98-1.786-3.98-3.98v-13.812c0-2.195 1.785-3.98 3.98-3.98h29.491c2.195,0 3.98,1.786 3.98,3.98v13.812z"/>
    <path d="m105.608,299.686h-29.492c-7.709,0-13.98,6.271-13.98,13.98v13.812c0,7.709 6.271,13.98 13.98,13.98h29.491c7.709,0 13.98-6.271 13.98-13.98v-13.812c0.001-7.709-6.27-13.98-13.979-13.98zm3.98,27.792c0,2.195-1.785,3.98-3.98,3.98h-29.492c-2.195,0-3.98-1.786-3.98-3.98v-13.812c0-2.195 1.785-3.98 3.98-3.98h29.491c2.195,0 3.98,1.786 3.98,3.98v13.812z"/>
    <path d="m173.019,155.967h-29.491c-7.709,0-13.98,6.271-13.98,13.98v13.812c0,7.709 6.271,13.98 13.98,13.98h29.491c7.709,0 13.98-6.271 13.98-13.98v-13.812c0-7.708-6.271-13.98-13.98-13.98zm3.98,27.793c0,2.195-1.785,3.98-3.98,3.98h-29.491c-2.195,0-3.98-1.786-3.98-3.98v-13.812c0-2.195 1.785-3.98 3.98-3.98h29.491c2.195,0 3.98,1.786 3.98,3.98v13.812z"/>
    <path d="m173.019,203.435h-29.491c-7.709,0-13.98,6.271-13.98,13.98v13.812c0,7.709 6.271,13.98 13.98,13.98h29.491c7.709,0 13.98-6.271 13.98-13.98v-13.812c0-7.708-6.271-13.98-13.98-13.98zm3.98,27.792c0,2.195-1.785,3.98-3.98,3.98h-29.491c-2.195,0-3.98-1.786-3.98-3.98v-13.812c0-2.195 1.785-3.98 3.98-3.98h29.491c2.195,0 3.98,1.786 3.98,3.98v13.812z"/>
    <path d="m173.019,250.901h-29.491c-7.709,0-13.98,6.271-13.98,13.98v13.812c0,7.709 6.271,13.98 13.98,13.98h29.491c7.709,0 13.98-6.271 13.98-13.98v-13.812c0-7.708-6.271-13.98-13.98-13.98zm3.98,27.793c0,2.195-1.785,3.98-3.98,3.98h-29.491c-2.195,0-3.98-1.786-3.98-3.98v-13.812c0-2.195 1.785-3.98 3.98-3.98h29.491c2.195,0 3.98,1.786 3.98,3.98v13.812z"/>
    <path d="m173.019,299.686h-29.491c-7.709,0-13.98,6.271-13.98,13.98v13.812c0,7.709 6.271,13.98 13.98,13.98h29.491c7.709,0 13.98-6.271 13.98-13.98v-13.812c0-7.709-6.271-13.98-13.98-13.98zm3.98,27.792c0,2.195-1.785,3.98-3.98,3.98h-29.491c-2.195,0-3.98-1.786-3.98-3.98v-13.812c0-2.195 1.785-3.98 3.98-3.98h29.491c2.195,0 3.98,1.786 3.98,3.98v13.812z"/>
    <path d="m240.431,155.967h-29.491c-7.709,0-13.98,6.271-13.98,13.98v13.812c0,7.709 6.271,13.98 13.98,13.98h29.491c7.709,0 13.98-6.271 13.98-13.98v-13.812c2.84217e-14-7.708-6.271-13.98-13.98-13.98zm3.98,27.793c0,2.195-1.785,3.98-3.98,3.98h-29.491c-2.195,0-3.98-1.786-3.98-3.98v-13.812c0-2.195 1.785-3.98 3.98-3.98h29.491c2.195,0 3.98,1.786 3.98,3.98v13.812z"/>
    <path d="m240.431,203.435h-29.491c-7.709,0-13.98,6.271-13.98,13.98v13.812c0,7.709 6.271,13.98 13.98,13.98h29.491c7.709,0 13.98-6.271 13.98-13.98v-13.812c2.84217e-14-7.708-6.271-13.98-13.98-13.98zm3.98,27.792c0,2.195-1.785,3.98-3.98,3.98h-29.491c-2.195,0-3.98-1.786-3.98-3.98v-13.812c0-2.195 1.785-3.98 3.98-3.98h29.491c2.195,0 3.98,1.786 3.98,3.98v13.812z"/>
    <path d="m240.431,250.901h-29.491c-7.709,0-13.98,6.271-13.98,13.98v13.812c0,7.709 6.271,13.98 13.98,13.98h29.491c7.709,0 13.98-6.271 13.98-13.98v-13.812c2.84217e-14-7.708-6.271-13.98-13.98-13.98zm3.98,27.793c0,2.195-1.785,3.98-3.98,3.98h-29.491c-2.195,0-3.98-1.786-3.98-3.98v-13.812c0-2.195 1.785-3.98 3.98-3.98h29.491c2.195,0 3.98,1.786 3.98,3.98v13.812z"/>
    <path d="m240.431,299.686h-29.491c-7.709,0-13.98,6.271-13.98,13.98v13.812c0,7.709 6.271,13.98 13.98,13.98h29.491c7.709,0 13.98-6.271 13.98-13.98v-13.812c2.84217e-14-7.709-6.271-13.98-13.98-13.98zm3.98,27.792c0,2.195-1.785,3.98-3.98,3.98h-29.491c-2.195,0-3.98-1.786-3.98-3.98v-13.812c0-2.195 1.785-3.98 3.98-3.98h29.491c2.195,0 3.98,1.786 3.98,3.98v13.812z"/>
    <path d="m307.842,155.967h-29.491c-7.709,0-13.98,6.271-13.98,13.98v13.812c0,7.709 6.271,13.98 13.98,13.98h29.491c7.709,0 13.98-6.271 13.98-13.98v-13.812c0-7.708-6.271-13.98-13.98-13.98zm3.98,27.793c0,2.195-1.785,3.98-3.98,3.98h-29.491c-2.195,0-3.98-1.786-3.98-3.98v-13.812c0-2.195 1.785-3.98 3.98-3.98h29.491c2.195,0 3.98,1.786 3.98,3.98v13.812z"/>
    <path d="m307.842,203.435h-29.491c-7.709,0-13.98,6.271-13.98,13.98v13.812c0,7.709 6.271,13.98 13.98,13.98h29.491c7.709,0 13.98-6.271 13.98-13.98v-13.812c0-7.708-6.271-13.98-13.98-13.98zm3.98,27.792c0,2.195-1.785,3.98-3.98,3.98h-29.491c-2.195,0-3.98-1.786-3.98-3.98v-13.812c0-2.195 1.785-3.98 3.98-3.98h29.491c2.195,0 3.98,1.786 3.98,3.98v13.812z"/>
    <path d="m307.842,250.901h-29.491c-7.709,0-13.98,6.271-13.98,13.98v13.812c0,7.709 6.271,13.98 13.98,13.98h29.491c7.709,0 13.98-6.271 13.98-13.98v-13.812c0-7.708-6.271-13.98-13.98-13.98zm3.98,27.793c0,2.195-1.785,3.98-3.98,3.98h-29.491c-2.195,0-3.98-1.786-3.98-3.98v-13.812c0-2.195 1.785-3.98 3.98-3.98h29.491c2.195,0 3.98,1.786 3.98,3.98v13.812z"/>
    <path d="m307.842,299.686h-29.491c-7.709,0-13.98,6.271-13.98,13.98v13.812c0,7.709 6.271,13.98 13.98,13.98h29.491c7.709,0 13.98-6.271 13.98-13.98v-13.812c0-7.709-6.271-13.98-13.98-13.98zm3.98,27.792c0,2.195-1.785,3.98-3.98,3.98h-29.491c-2.195,0-3.98-1.786-3.98-3.98v-13.812c0-2.195 1.785-3.98 3.98-3.98h29.491c2.195,0 3.98,1.786 3.98,3.98v13.812z"/>
    <path d="M319.467,0H64.492C39.758,0,19.636,20.122,19.636,44.856v294.246c0,24.734,20.122,44.856,44.856,44.856h254.975   c24.733,0,44.855-20.122,44.855-44.856V44.856C364.322,20.122,344.2,0,319.467,0z M349.322,339.102   c0,16.462-13.394,29.856-29.855,29.856H64.492c-16.463,0-29.856-13.394-29.856-29.856V44.856C34.636,28.393,48.029,15,64.492,15   h254.975c16.462,0,29.855,13.393,29.855,29.856V339.102z"/>
    <path d="m319.467,135.967h-254.975c-12.327,0-22.356,10.029-22.356,22.356v180.779c0,12.327 10.029,22.356 22.356,22.356h254.975c12.327,0 22.355-10.029 22.355-22.356v-180.779c0-12.327-10.028-22.356-22.355-22.356zm12.355,203.135c0,6.813-5.543,12.356-12.355,12.356h-254.975c-6.813,0-12.356-5.543-12.356-12.356v-180.779c0-6.813 5.543-12.356 12.356-12.356h254.975c6.813,0 12.355,5.543 12.355,12.356v180.779z"/>
    <path d="m319.467,22.452h-254.975c-12.327,0-22.356,10.029-22.356,22.356v58.85c0,12.328 10.029,22.356 22.356,22.356h254.975c12.327,0 22.355-10.029 22.355-22.356v-58.85c0-12.327-10.028-22.356-22.355-22.356zm12.355,81.206c0,6.813-5.543,12.356-12.355,12.356h-254.975c-6.813,0-12.356-5.543-12.356-12.356v-58.85c0-6.813 5.543-12.356 12.356-12.356h254.975c6.813,0 12.355,5.543 12.355,12.356v58.85z"/>
    <path d="m316.822,42.452h-249.686c-2.762,0-5,2.239-5,5v53.562c0,2.761 2.238,5 5,5h249.687c2.762,0 5-2.239 5-5v-53.562c-0.001-2.761-2.239-5-5.001-5zm-5,53.562h-239.686v-43.562h239.687v43.562z"/>
    <path d="m284.5,87.878h14.951c2.209,0 4-1.791 4-4v-19.289c0-2.209-1.791-4-4-4h-14.951c-2.209,0-4,1.791-4,4v19.289c0,2.209 1.791,4 4,4zm4-19.289h6.951v11.289h-6.951v-11.289z"/>
  </g>
</svg>
