<?xml version="1.0" encoding="iso-8859-1"?>
<!-- Generator: Adobe Illustrator 16.0.0, SVG Export Plug-In . SVG Version: 6.00 Build 0)  -->
<!DOCTYPE svg PUBLIC "-//W3C//DTD SVG 1.1//EN" "http://www.w3.org/Graphics/SVG/1.1/DTD/svg11.dtd">
<svg version="1.1" id="Capa_1" xmlns="http://www.w3.org/2000/svg" xmlns:xlink="http://www.w3.org/1999/xlink" x="0px" y="0px"
	 width="305.002px" height="305.002px" viewBox="0 0 305.002 305.002" style="enable-background:new 0 0 305.002 305.002;"
	 xml:space="preserve">
<g>
	<g>
		<path d="M152.502,0.001C68.412,0.001,0,68.412,0,152.501s68.412,152.5,152.502,152.5c84.089,0,152.5-68.411,152.5-152.5
			S236.591,0.001,152.502,0.001z M152.502,280.001C82.197,280.001,25,222.806,25,152.501c0-70.304,57.197-127.5,127.502-127.5
			c70.304,0,127.5,57.196,127.5,127.5C280.002,222.806,222.806,280.001,152.502,280.001z"/>
		<path d="M170.18,152.5l43.13-43.129c4.882-4.882,4.882-12.796,0-17.678c-4.881-4.882-12.796-4.881-17.678,0l-43.13,43.13
			l-43.131-43.131c-4.882-4.881-12.796-4.881-17.678,0c-4.881,4.882-4.881,12.796,0,17.678l43.13,43.13l-43.131,43.131
			c-4.881,4.882-4.881,12.796,0,17.679c2.441,2.44,5.64,3.66,8.839,3.66c3.199,0,6.398-1.221,8.839-3.66l43.131-43.132
			l43.131,43.132c2.441,2.439,5.64,3.66,8.839,3.66s6.398-1.221,8.839-3.66c4.882-4.883,4.882-12.797,0-17.679L170.18,152.5z"/>
	</g>
</g>
<g>
</g>
<g>
</g>
<g>
</g>
<g>
</g>
<g>
</g>
<g>
</g>
<g>
</g>
<g>
</g>
<g>
</g>
<g>
</g>
<g>
</g>
<g>
</g>
<g>
</g>
<g>
</g>
<g>
</g>
</svg>
