<?xml version="1.0" encoding="iso-8859-1"?>
<!-- Generator: Adobe Illustrator 19.1.0, SVG Export Plug-In . SVG Version: 6.00 Build 0)  -->
<svg version="1.1" id="Capa_1" xmlns="http://www.w3.org/2000/svg" xmlns:xlink="http://www.w3.org/1999/xlink" x="0px" y="0px"
	 viewBox="0 0 485.231 485.231" style="enable-background:new 0 0 485.231 485.231;" xml:space="preserve">
<g>
	<g>
		<g>
			<g>
				<path d="M440.831,176.681h-252c-24.4,0-44.4,20-44.4,44.4v159.6c0,24.4,20,44.4,44.4,44.4h252c24.4,0,44.4-20,44.4-44.4v-159.6
					C485.331,196.581,465.231,176.681,440.831,176.681z M461.331,381.281c0,8.8-7.2,16.1-16.1,16.1h-256.9
					c-8.8,0-16.1-7.2-16.1-16.1v-112.3h289.1V381.281z M461.331,226.681h-289.1v-6.1c0-8.8,7.2-16.1,16.1-16.1h256.9
					c8.8,0,16.1,7.2,16.1,16.1V226.681z"/>
			</g>
		</g>
		<g>
			<path d="M185.631,149.281h156.3l-31.8-64.4c-10.9-22-37.6-31-59.6-20.1l-225.8,111.6c-22,10.9-31,37.6-20.1,59.6l70.8,143.1
				c9.5,19.3,31.4,28.7,51.5,23.2c-6-10.1-9.4-21.8-9.4-34.3v-150.5C117.431,179.981,148.131,149.281,185.631,149.281z"/>
		</g>
		<g>
			<path d="M217.731,380.081c8.7,0,16.6-3.9,21.8-10.1c5.3,6.2,13.1,10.1,21.8,10.1c15.9,0,28.8-12.9,28.8-28.8
				s-12.9-28.8-28.8-28.8c-8.7,0-16.6,3.9-21.8,10.1c-5.3-6.2-13.1-10.1-21.8-10.1c-15.9,0-28.8,12.9-28.8,28.8
				S201.831,380.081,217.731,380.081z"/>
		</g>
	</g>
</g>
<g>
</g>
<g>
</g>
<g>
</g>
<g>
</g>
<g>
</g>
<g>
</g>
<g>
</g>
<g>
</g>
<g>
</g>
<g>
</g>
<g>
</g>
<g>
</g>
<g>
</g>
<g>
</g>
<g>
</g>
</svg>
