<svg height="384pt" viewBox="0 0 384 384" width="384pt" xmlns="http://www.w3.org/2000/svg"><path d="m368 0h-352c-8.832031 0-16 7.167969-16 16v256c0 8.832031 7.167969 16 16 16h112c8.832031 0 16-7.167969 16-16s-7.167969-16-16-16h-96v-160h320v16c0 8.832031 7.167969 16 16 16s16-7.167969 16-16v-96c0-8.832031-7.167969-16-16-16zm-336 64v-32h320v32zm0 0"/><path d="m80 192c-8.832031 0-16 7.167969-16 16s7.167969 16 16 16h16c8.832031 0 16-7.167969 16-16s-7.167969-16-16-16zm0 0"/><path d="m184 208c0-8.832031-7.167969-16-16-16h-16c-8.832031 0-16 7.167969-16 16s7.167969 16 16 16h16c8.832031 0 16-7.167969 16-16zm0 0"/><path d="m246.398438 372.800781c2.882812 2.160157 6.25 3.199219 9.59375 3.199219 4.863281 0 9.664062-2.207031 12.816406-6.398438l96-128c5.304687-7.074218 3.863281-17.105468-3.199219-22.402343-7.074219-5.296875-17.097656-3.855469-22.402344 3.199219l-96 128c-5.3125 7.074218-3.871093 17.105468 3.191407 22.402343zm0 0"/><path d="m384 352c0 17.671875-14.328125 32-32 32s-32-14.328125-32-32 14.328125-32 32-32 32 14.328125 32 32zm0 0"/><path d="m288 240c0 17.671875-14.328125 32-32 32s-32-14.328125-32-32 14.328125-32 32-32 32 14.328125 32 32zm0 0"/></svg>