<?xml version="1.0" encoding="iso-8859-1"?>
<!-- Generator: Adobe Illustrator 17.1.0, SVG Export Plug-In . SVG Version: 6.00 Build 0)  -->
<!DOCTYPE svg PUBLIC "-//W3C//DTD SVG 1.1//EN" "http://www.w3.org/Graphics/SVG/1.1/DTD/svg11.dtd">
<svg version="1.1" id="Capa_1" xmlns="http://www.w3.org/2000/svg" xmlns:xlink="http://www.w3.org/1999/xlink" x="0px" y="0px"
	 viewBox="0 0 512 512" style="enable-background:new 0 0 512 512;" xml:space="preserve">
<g>
	<path d="M368,296V104c0-13.233-10.767-24-24-24H24C10.767,80,0,90.767,0,104v192c0,13.233,10.767,24,24,24h320
		C357.233,320,368,309.233,368,296z M16,296V104c0-4.411,3.589-8,8-8h320c4.411,0,8,3.589,8,8v192c0,4.411-3.589,8-8,8H24
		C19.589,304,16,300.411,16,296z"/>
	<path d="M488,192h-96c-4.418,0-8,3.582-8,8s3.582,8,8,8h96c4.411,0,8,3.589,8,8v40H392c-4.418,0-8,3.582-8,8s3.582,8,8,8h104v136
		c0,4.411-3.589,8-8,8H168c-4.411,0-8-3.589-8-8v-64c0-4.418-3.582-8-8-8s-8,3.582-8,8v64c0,13.233,10.767,24,24,24h320
		c13.233,0,24-10.767,24-24V216C512,202.767,501.233,192,488,192z"/>
	<path d="M168,248h-40c-4.418,0-8,3.582-8,8s3.582,8,8,8h40c4.418,0,8-3.582,8-8S172.418,248,168,248z"/>
	<path d="M96,248H56c-4.418,0-8,3.582-8,8s3.582,8,8,8h40c4.418,0,8-3.582,8-8S100.418,248,96,248z"/>
	<path d="M312,248h-40c-4.418,0-8,3.582-8,8s3.582,8,8,8h40c4.418,0,8-3.582,8-8S316.418,248,312,248z"/>
	<path d="M240,248h-40c-4.418,0-8,3.582-8,8s3.582,8,8,8h40c4.418,0,8-3.582,8-8S244.418,248,240,248z"/>
	<path d="M88,120H64c-13.234,0-24,10.767-24,24v8c0,13.233,10.766,24,24,24h24c13.234,0,24-10.767,24-24v-8
		C112,130.767,101.234,120,88,120z M96,152c0,4.411-3.589,8-8,8H64c-4.411,0-8-3.589-8-8v-8c0-4.411,3.589-8,8-8h24
		c4.411,0,8,3.589,8,8V152z"/>
	<path d="M296,120c-9.551,0-18.132,4.211-24,10.868C266.132,124.211,257.551,120,248,120c-17.645,0-32,14.355-32,32s14.355,32,32,32
		c9.551,0,18.132-4.211,24-10.868c5.868,6.657,14.449,10.868,24,10.868c17.645,0,32-14.355,32-32S313.645,120,296,120z M248,168
		c-8.822,0-16-7.178-16-16s7.178-16,16-16s16,7.178,16,16S256.822,168,248,168z M296,168c-8.822,0-16-7.178-16-16s7.178-16,16-16
		s16,7.178,16,16S304.822,168,296,168z"/>
	<path d="M392,240h88c4.418,0,8-3.582,8-8s-3.582-8-8-8h-88c-4.418,0-8,3.582-8,8S387.582,240,392,240z"/>
	<path d="M456,336H304c-4.418,0-8,3.582-8,8s3.582,8,8,8h152c4.418,0,8-3.582,8-8S460.418,336,456,336z"/>
	<path d="M456,368h-96c-4.418,0-8,3.582-8,8s3.582,8,8,8h96c4.418,0,8-3.582,8-8S460.418,368,456,368z"/>
</g>
<g>
</g>
<g>
</g>
<g>
</g>
<g>
</g>
<g>
</g>
<g>
</g>
<g>
</g>
<g>
</g>
<g>
</g>
<g>
</g>
<g>
</g>
<g>
</g>
<g>
</g>
<g>
</g>
<g>
</g>
</svg>
