<?xml version="1.0" encoding="iso-8859-1"?>
<!-- Generator: Adobe Illustrator 16.0.0, SVG Export Plug-In . SVG Version: 6.00 Build 0)  -->
<!DOCTYPE svg PUBLIC "-//W3C//DTD SVG 1.1//EN" "http://www.w3.org/Graphics/SVG/1.1/DTD/svg11.dtd">
<svg version="1.1" id="Capa_1" xmlns="http://www.w3.org/2000/svg" xmlns:xlink="http://www.w3.org/1999/xlink" x="0px" y="0px"
	 width="47.236px" height="47.236px" viewBox="0 0 47.236 47.236" style="enable-background:new 0 0 47.236 47.236;"
	 xml:space="preserve">
<g>
	<g>
		<path d="M40.869,38.584c0-0.747-0.605-1.352-1.352-1.352H7.662c-0.747,0-1.352,0.604-1.352,1.352V40.2
			c0,0.746,0.605,1.353,1.352,1.353h31.855c0.746,0,1.352-0.605,1.352-1.353V38.584z M26.375,39.59c0,0.299-0.242,0.541-0.54,0.541
			h-5.116c-0.298,0-0.54-0.242-0.54-0.541c0-0.298,0.242-0.539,0.54-0.539h5.116C26.133,39.051,26.375,39.292,26.375,39.59z"/>
		<path d="M13.415,17.053v-5.059h5.036c2.323,0,4.206-1.883,4.206-4.206V4.491c0-2.323-1.883-4.206-4.206-4.206H4.206
			C1.883,0.285,0,2.168,0,4.491v3.297c0,2.323,1.883,4.206,4.206,4.206h5.002v5.059H4.801C2.149,17.053,0,19.202,0,21.854v23.154
			c0,1.073,0.87,1.943,1.943,1.943h43.35c1.073,0,1.943-0.87,1.943-1.943V21.854c0-2.652-2.149-4.801-4.801-4.801H13.415z
			 M29.729,22.668c0-0.747,0.604-1.352,1.352-1.352h2.697c0.746,0,1.352,0.604,1.352,1.352v2.128c0,0.747-0.605,1.353-1.352,1.353
			H31.08c-0.746,0-1.352-0.605-1.352-1.353V22.668z M29.729,29.092c0-0.746,0.604-1.353,1.352-1.353h2.697
			c0.746,0,1.352,0.604,1.352,1.353v2.127c0,0.748-0.605,1.353-1.352,1.353H31.08c-0.746,0-1.352-0.604-1.352-1.353V29.092z
			 M22.907,22.668c0-0.747,0.605-1.352,1.352-1.352h2.64c0.748,0,1.353,0.604,1.353,1.352v2.128c0,0.747-0.604,1.353-1.353,1.353
			h-2.64c-0.746,0-1.352-0.605-1.352-1.353V22.668z M22.907,29.092c0-0.746,0.605-1.353,1.352-1.353h2.64
			c0.748,0,1.353,0.604,1.353,1.353v2.127c0,0.748-0.604,1.353-1.353,1.353h-2.64c-0.746,0-1.352-0.604-1.352-1.353V29.092z
			 M4.206,7.787V4.491h14.243v3.297L4.206,7.787L4.206,7.787z M5.286,22.668c0-0.747,0.605-1.352,1.352-1.352h9.744
			c0.747,0,1.352,0.604,1.352,1.352v8.551c0,0.748-0.605,1.353-1.352,1.353H6.638c-0.747,0-1.352-0.604-1.352-1.353V22.668z
			 M41.95,40.426c0,1.188-0.964,2.149-2.15,2.149H7.437c-1.188,0-2.151-0.963-2.151-2.149v-2.123c0-1.188,0.963-2.15,2.151-2.15
			h32.362c1.188,0,2.15,0.963,2.15,2.15L41.95,40.426L41.95,40.426z M41.95,31.219c0,0.748-0.604,1.353-1.353,1.353h-2.64
			c-0.747,0-1.353-0.604-1.353-1.353v-2.127c0-0.746,0.605-1.353,1.353-1.353h2.64c0.746,0,1.353,0.604,1.353,1.353V31.219z
			 M41.95,24.796c0,0.747-0.604,1.353-1.353,1.353h-2.64c-0.747,0-1.353-0.605-1.353-1.353v-2.128c0-0.747,0.605-1.352,1.353-1.352
			h2.64c0.746,0,1.353,0.604,1.353,1.352V24.796z"/>
	</g>
</g>
<g>
</g>
<g>
</g>
<g>
</g>
<g>
</g>
<g>
</g>
<g>
</g>
<g>
</g>
<g>
</g>
<g>
</g>
<g>
</g>
<g>
</g>
<g>
</g>
<g>
</g>
<g>
</g>
<g>
</g>
</svg>
