<?xml version="1.0" encoding="iso-8859-1"?>
<!-- Generator: Adobe Illustrator 19.0.0, SVG Export Plug-In . SVG Version: 6.00 Build 0)  -->
<svg version="1.1" id="Layer_1" xmlns="http://www.w3.org/2000/svg" xmlns:xlink="http://www.w3.org/1999/xlink" x="0px" y="0px"
	 viewBox="0 0 512 512" style="enable-background:new 0 0 512 512;" xml:space="preserve">
<g>
	<g>
		<path d="M503.467,366.933H493.5l-41.378-223.42c-0.742-4.045-4.275-6.98-8.388-6.98H409.6V76.8h34.133
			c4.719,0,8.533-3.823,8.533-8.533V8.533c0-4.71-3.814-8.533-8.533-8.533H307.2c-4.719,0-8.533,3.823-8.533,8.533v59.733
			c0,4.71,3.814,8.533,8.533,8.533h34.133v59.733H196.267v-17.067c0-4.71-3.814-8.533-8.533-8.533H128
			c-4.719,0-8.533,3.823-8.533,8.533v17.067h-51.2c-4.113,0-7.646,2.935-8.388,6.98L18.5,366.933H8.533
			c-4.719,0-8.533,3.823-8.533,8.533v128C0,508.177,3.814,512,8.533,512h494.933c4.719,0,8.533-3.823,8.533-8.533v-128
			C512,370.756,508.186,366.933,503.467,366.933z M315.733,59.733V17.067H435.2v42.667H315.733z M392.533,76.8v59.733H358.4V76.8
			H392.533z M136.533,128H179.2v93.867h-42.667V128z M128,238.933h59.733c4.719,0,8.533-3.823,8.533-8.533v-8.533h17.067V256H102.4
			v-34.133h17.067v8.533C119.467,235.11,123.281,238.933,128,238.933z M75.366,153.6h44.1v51.2h-25.6
			c-4.719,0-8.533,3.823-8.533,8.533v51.2c0,4.71,3.814,8.533,8.533,8.533h128c4.719,0,8.533-3.823,8.533-8.533v-51.2
			c0-4.71-3.814-8.533-8.533-8.533h-25.6v-51.2h240.367l39.509,213.333H35.857L75.366,153.6z M494.933,494.933H17.067V384h477.867
			V494.933z"/>
	</g>
</g>
<g>
	<g>
		<path d="M409.6,170.667H256c-4.719,0-8.533,3.823-8.533,8.533v59.733c0,4.71,3.814,8.533,8.533,8.533h153.6
			c4.719,0,8.533-3.823,8.533-8.533V179.2C418.133,174.49,414.319,170.667,409.6,170.667z M401.067,230.4H264.533v-42.667h136.533
			V230.4z"/>
	</g>
</g>
<g>
	<g>
		<path d="M409.6,264.533h-17.067c-4.719,0-8.533,3.823-8.533,8.533c0,4.71,3.814,8.533,8.533,8.533H409.6
			c4.719,0,8.533-3.823,8.533-8.533C418.133,268.356,414.319,264.533,409.6,264.533z"/>
	</g>
</g>
<g>
	<g>
		<path d="M341.333,264.533h-17.067c-4.719,0-8.533,3.823-8.533,8.533c0,4.71,3.814,8.533,8.533,8.533h17.067
			c4.719,0,8.533-3.823,8.533-8.533C349.867,268.356,346.052,264.533,341.333,264.533z"/>
	</g>
</g>
<g>
	<g>
		<path d="M273.067,264.533H256c-4.719,0-8.533,3.823-8.533,8.533c0,4.71,3.814,8.533,8.533,8.533h17.067
			c4.719,0,8.533-3.823,8.533-8.533C281.6,268.356,277.786,264.533,273.067,264.533z"/>
	</g>
</g>
<g>
	<g>
		<path d="M409.6,298.667h-17.067c-4.719,0-8.533,3.823-8.533,8.533s3.814,8.533,8.533,8.533H409.6c4.719,0,8.533-3.823,8.533-8.533
			S414.319,298.667,409.6,298.667z"/>
	</g>
</g>
<g>
	<g>
		<path d="M341.333,298.667h-17.067c-4.719,0-8.533,3.823-8.533,8.533s3.814,8.533,8.533,8.533h17.067
			c4.719,0,8.533-3.823,8.533-8.533S346.052,298.667,341.333,298.667z"/>
	</g>
</g>
<g>
	<g>
		<path d="M273.067,298.667H256c-4.719,0-8.533,3.823-8.533,8.533s3.814,8.533,8.533,8.533h17.067c4.719,0,8.533-3.823,8.533-8.533
			S277.786,298.667,273.067,298.667z"/>
	</g>
</g>
<g>
	<g>
		<path d="M409.6,332.8h-17.067c-4.719,0-8.533,3.823-8.533,8.533s3.814,8.533,8.533,8.533H409.6c4.719,0,8.533-3.823,8.533-8.533
			S414.319,332.8,409.6,332.8z"/>
	</g>
</g>
<g>
	<g>
		<path d="M341.333,332.8h-17.067c-4.719,0-8.533,3.823-8.533,8.533s3.814,8.533,8.533,8.533h17.067
			c4.719,0,8.533-3.823,8.533-8.533S346.052,332.8,341.333,332.8z"/>
	</g>
</g>
<g>
	<g>
		<path d="M273.067,332.8H256c-4.719,0-8.533,3.823-8.533,8.533s3.814,8.533,8.533,8.533h17.067c4.719,0,8.533-3.823,8.533-8.533
			S277.786,332.8,273.067,332.8z"/>
	</g>
</g>
<g>
</g>
<g>
</g>
<g>
</g>
<g>
</g>
<g>
</g>
<g>
</g>
<g>
</g>
<g>
</g>
<g>
</g>
<g>
</g>
<g>
</g>
<g>
</g>
<g>
</g>
<g>
</g>
<g>
</g>
</svg>
