<?xml version="1.0" encoding="iso-8859-1"?>
<!-- Generator: Adobe Illustrator 18.0.0, SVG Export Plug-In . SVG Version: 6.00 Build 0)  -->
<!DOCTYPE svg PUBLIC "-//W3C//DTD SVG 1.1//EN" "http://www.w3.org/Graphics/SVG/1.1/DTD/svg11.dtd">
<svg version="1.1" id="Capa_1" xmlns="http://www.w3.org/2000/svg" xmlns:xlink="http://www.w3.org/1999/xlink" x="0px" y="0px"
	 viewBox="0 0 477.965 477.965" style="enable-background:new 0 0 477.965 477.965;" xml:space="preserve">
<g>
	<path d="M468.053,312.081c0-2.68-1.43-5.155-3.75-6.495c-0.013-0.007-28.127-16.236-38.454-22.198v-93.14
		c0-2.679-1.429-5.155-3.749-6.495c-0.001,0-0.001,0-0.001,0l-59.556-34.385v-31.412l30.938,17.862
		c1.16,0.67,2.455,1.005,3.75,1.005c1.294,0,2.589-0.335,3.749-1.004l0.001-0.001v0l21.102-12.184c2.32-1.34,3.75-3.816,3.75-6.495
		l-0.001-48.733c0-2.679-1.43-5.155-3.75-6.495L316.59,1.005c-2.318-1.339-5.175-1.34-7.495-0.003l-21.102,12.161l0,0.001
		c-0.001,0.001-0.003,0.001-0.004,0.002c-2.321,1.34-3.751,3.816-3.751,6.495v48.755c0,2.679,1.43,5.156,3.75,6.495l59.556,34.385
		v31.412L211.061,61.91c-2.321-1.34-5.181-1.34-7.502,0.001l-63.287,36.561c-1.138,0.657-2.083,1.603-2.741,2.741
		c0,0.001-0.001,0.001-0.001,0.002L74.206,210.853c-0.754,1.305-1.092,2.797-0.987,4.279v19.497L34.764,256.83
		c-2.319,1.339-3.749,3.813-3.75,6.492c0,0.001,0,13.035,0,20.042l-17.353,10.018c-2.32,1.339-3.75,3.815-3.75,6.495v48.734
		c0,2.679,1.43,5.155,3.749,6.495L224.681,476.96c1.161,0.67,2.456,1.005,3.751,1.005s2.59-0.335,3.75-1.005l38.456-22.204
		l17.354,10.002c2.321,1.337,5.178,1.336,7.495-0.003l172.565-99.63c-1.429,0.825,0-1.651,0-4.33V312.081z M404.736,116.329
		l0.011-31.403l6.086-3.519l0.001,31.402L404.736,116.329z M312.837,16.158l90.504,52.253l-6.096,3.525l-90.499-52.268
		L312.837,16.158z M299.238,32.654l90.508,52.274l-0.01,31.407l-90.498-52.249V32.654z M299.238,338.456l61.296-106.185
		l50.315-29.035v104.497l-111.611,64.439V338.456z M207.312,77.066l140.231,80.963v26.459c0,4.142,3.357,7.5,7.5,7.5
		s7.5-3.358,7.5-7.5v-17.799l40.803,23.558l-48.302,27.873L159.022,104.963L207.312,77.066z M146.768,115.21l198.03,114.316
		l-55.807,96.676L90.946,211.859L146.768,115.21z M88.219,227.605l196.02,113.172v31.395L88.219,259.018V227.605z M149.7,336.202
		l-26.98,15.824l-55.623-32.12v-31.395L149.7,336.202z M157.111,371.886l-19.452-11.233l19.452-11.409V371.886z M52.096,288.512
		v22.732l-19.685-11.367L52.096,288.512z M220.932,457.474L24.912,344.281v-31.413l196.021,113.192V457.474z M228.433,413.071
		l-56.322-32.523v-31.406l83.524,48.223L228.433,413.071z M263.135,441.768l-27.203,15.707v-31.413l27.203-15.707V441.768z
		 M284.238,445.281l-6.103-3.518v-31.409l6.103,3.523V445.281z M291.738,400.887L53.503,263.332l19.716-11.383v11.399
		c0,2.68,1.43,5.156,3.75,6.496l211.02,121.813c1.161,0.669,2.455,1.004,3.75,1.004s2.59-0.335,3.75-1.005l126.611-73.099
		c2.32-1.34,3.75-3.815,3.75-6.495v-11.354l19.701,11.374L291.738,400.887z M453.053,356.465l-153.815,88.806v-31.393
		l153.815-88.806V356.465z"/>
	<path d="M330.252,238.915c2.071-3.587,0.842-8.174-2.745-10.245l-171.352-98.914c-3.589-2.071-8.174-0.842-10.244,2.744
		l-40.413,69.972c-0.995,1.723-1.266,3.77-0.75,5.691c0.515,1.922,1.771,3.56,3.494,4.555l171.361,98.936
		c1.15,0.664,2.444,1.005,3.75,1.005c0.65,0,1.303-0.084,1.941-0.255c1.922-0.515,3.56-1.772,4.554-3.495L330.252,238.915z
		 M303.51,255.237L246.116,222.1l9.999-17.322l57.397,33.133L303.51,255.237z M280.607,294.912l-158.369-91.435l32.911-56.983
		l87.975,50.785l-13.749,23.817c-2.071,3.587-0.842,8.174,2.745,10.245l63.89,36.887L280.607,294.912z"/>
	<path d="M211.082,194.288l-42.204-24.386c-3.586-2.073-8.174-0.845-10.246,2.741c-2.072,3.586-0.845,8.174,2.742,10.246
		l42.204,24.386c1.182,0.683,2.472,1.008,3.745,1.008c2.591,0,5.111-1.345,6.501-3.749
		C215.896,200.948,214.669,196.36,211.082,194.288z"/>
</g>
<g>
</g>
<g>
</g>
<g>
</g>
<g>
</g>
<g>
</g>
<g>
</g>
<g>
</g>
<g>
</g>
<g>
</g>
<g>
</g>
<g>
</g>
<g>
</g>
<g>
</g>
<g>
</g>
<g>
</g>
</svg>
