<?xml version="1.0" encoding="UTF-8" standalone="no"?>
<!-- Generator: Adobe Illustrator 18.1.1, SVG Export Plug-In . SVG Version: 6.00 Build 0)  -->

<svg
   xmlns:dc="http://purl.org/dc/elements/1.1/"
   xmlns:cc="http://creativecommons.org/ns#"
   xmlns:rdf="http://www.w3.org/1999/02/22-rdf-syntax-ns#"
   xmlns:svg="http://www.w3.org/2000/svg"
   xmlns="http://www.w3.org/2000/svg"
   xmlns:sodipodi="http://sodipodi.sourceforge.net/DTD/sodipodi-0.dtd"
   xmlns:inkscape="http://www.inkscape.org/namespaces/inkscape"
   version="1.1"
   id="Capa_1"
   x="0px"
   y="0px"
   viewBox="0 0 28 28"
   style="enable-background:new 0 0 28 28;"
   xml:space="preserve"
   inkscape:version="0.91 r13725"
   sodipodi:docname="categoryheart.svg"><metadata
     id="metadata3423"><rdf:RDF><cc:Work
         rdf:about=""><dc:format>image/svg+xml</dc:format><dc:type
           rdf:resource="http://purl.org/dc/dcmitype/StillImage" /><dc:title></dc:title></cc:Work></rdf:RDF></metadata><defs
     id="defs3421" /><sodipodi:namedview
     pagecolor="#ffffff"
     bordercolor="#666666"
     borderopacity="1"
     objecttolerance="10"
     gridtolerance="10"
     guidetolerance="10"
     inkscape:pageopacity="0"
     inkscape:pageshadow="2"
     inkscape:window-width="1680"
     inkscape:window-height="987"
     id="namedview3419"
     showgrid="true"
     inkscape:zoom="22.627417"
     inkscape:cx="14"
     inkscape:cy="22.52092"
     inkscape:window-x="-8"
     inkscape:window-y="-8"
     inkscape:window-maximized="1"
     inkscape:current-layer="Capa_1"><inkscape:grid
       type="xygrid"
       id="grid3425" /></sodipodi:namedview><g
     id="g3385"><path
       style="fill:#010002;"
       d="M15,18v-4h-4v8l4,0.001V20h8v8h-8v-4H9V8H5V0h8v8h-2v4h4v-2h8v8H15z"
       id="path3387" /></g><g
     id="g3389" /><g
     id="g3391" /><g
     id="g3393" /><g
     id="g3395" /><g
     id="g3397" /><g
     id="g3399" /><g
     id="g3401" /><g
     id="g3403" /><g
     id="g3405" /><g
     id="g3407" /><g
     id="g3409" /><g
     id="g3411" /><g
     id="g3413" /><g
     id="g3415" /><g
     id="g3417" /><rect
     style="fill:#ffffff"
     id="rect3429"
     width="4"
     height="4"
     x="17"
     y="12" /><rect
     style="fill:#ffffff"
     id="rect3431"
     width="4"
     height="4"
     x="17"
     y="22" /><rect
     style="fill:#ffffff"
     id="rect3433"
     width="4"
     height="4"
     x="7"
     y="2" /><path
     style="fill:#ffffff"
     d="m 7.0173205,4.0121167 0,-1.9887378 1.9887378,0 1.9887377,0 0,1.9887378 0,1.9887378 -1.9887377,0 -1.9887378,0 0,-1.9887378 z"
     id="path3435"
     inkscape:connector-curvature="0" /><path
     style="fill:#ffffff"
     id="path3481"
     sodipodi:type="arc"
     sodipodi:cx="20.5"
     sodipodi:cy="5.24435"
     sodipodi:rx="5.5"
     sodipodi:ry="0.75565022"
     sodipodi:start="0"
     sodipodi:end="0.12601965"
     sodipodi:open="true"
     d="m 26,5.24435 a 5.5,0.75565022 0 0 1 -0.04361,0.094975" /><path
     style="fill:#ffffff"
     id="path3486"
     sodipodi:type="arc"
     sodipodi:cx="19"
     sodipodi:cy="4.7525826"
     sodipodi:rx="1"
     sodipodi:ry="0.75258279"
     sodipodi:start="0"
     sodipodi:end="0.12601958"
     sodipodi:open="true"
     d="m 20,4.7525826 a 1,0.75258279 0 0 1 -0.0079,0.094589" /><g
     transform="matrix(0.1143607,0,0,0.12333824,16.008908,0.795316)"
     id="g3495"><path
       inkscape:connector-curvature="0"
       d="M 51.911,16.242 C 51.152,7.888 45.239,1.827 37.839,1.827 32.909,1.827 28.395,4.48 25.855,8.732 23.338,4.425 19.009,1.826 14.158,1.826 6.759,1.826 0.845,7.887 0.087,16.241 c -0.06,0.369 -0.306,2.311 0.442,5.478 1.078,4.568 3.568,8.723 7.199,12.013 L 25.843,50.171 44.269,33.733 c 3.631,-3.291 6.121,-7.445 7.199,-12.014 0.748,-3.166 0.502,-5.108 0.443,-5.477 z m -2.39,5.019 c -0.984,4.172 -3.265,7.973 -6.59,10.985 L 25.855,47.481 9.072,32.25 C 5.741,29.232 3.461,25.432 2.476,21.26 1.768,18.263 2.059,16.57 2.06,16.559 L 2.075,16.458 C 2.725,9.139 7.806,3.826 14.158,3.826 c 4.687,0 8.813,2.88 10.771,7.515 l 0.921,2.183 0.921,-2.183 c 1.927,-4.564 6.271,-7.514 11.069,-7.514 6.351,0 11.433,5.313 12.096,12.727 0.002,0.016 0.293,1.71 -0.415,4.707 z"
       id="path3497" /><path
       inkscape:connector-curvature="0"
       d="m 15.999,7.904 c -5.514,0 -10,4.486 -10,10 0,0.553 0.447,1 1,1 0.553,0 1,-0.447 1,-1 0,-4.411 3.589,-8 8,-8 0.553,0 1,-0.447 1,-1 0,-0.553 -0.448,-1 -1,-1 z"
       id="path3499" /></g><g
     transform="matrix(0.12795977,0,0,0.12333824,14.196944,1.1046752)"
     id="g3501" /><g
     transform="matrix(0.12795977,0,0,0.12333824,14.196944,1.1046752)"
     id="g3503" /><g
     transform="matrix(0.12795977,0,0,0.12333824,14.196944,1.1046752)"
     id="g3505" /><g
     transform="matrix(0.12795977,0,0,0.12333824,14.196944,1.1046752)"
     id="g3507" /><g
     transform="matrix(0.12795977,0,0,0.12333824,14.196944,1.1046752)"
     id="g3509" /><g
     transform="matrix(0.12795977,0,0,0.12333824,14.196944,1.1046752)"
     id="g3511" /><g
     transform="matrix(0.12795977,0,0,0.12333824,14.196944,1.1046752)"
     id="g3513" /><g
     transform="matrix(0.12795977,0,0,0.12333824,14.196944,1.1046752)"
     id="g3515" /><g
     transform="matrix(0.12795977,0,0,0.12333824,14.196944,1.1046752)"
     id="g3517" /><g
     transform="matrix(0.12795977,0,0,0.12333824,14.196944,1.1046752)"
     id="g3519" /><g
     transform="matrix(0.12795977,0,0,0.12333824,14.196944,1.1046752)"
     id="g3521" /><g
     transform="matrix(0.12795977,0,0,0.12333824,14.196944,1.1046752)"
     id="g3523" /><g
     transform="matrix(0.12795977,0,0,0.12333824,14.196944,1.1046752)"
     id="g3525" /><g
     transform="matrix(0.12795977,0,0,0.12333824,14.196944,1.1046752)"
     id="g3527" /><g
     transform="matrix(0.12795977,0,0,0.12333824,14.196944,1.1046752)"
     id="g3529" /></svg>