<?xml version="1.0" encoding="iso-8859-1"?>
<!-- Generator: Adobe Illustrator 18.1.1, SVG Export Plug-In . SVG Version: 6.00 Build 0)  -->
<svg version="1.1" id="Capa_1" xmlns="http://www.w3.org/2000/svg" xmlns:xlink="http://www.w3.org/1999/xlink" x="0px" y="0px"
	 viewBox="0 0 28 28" style="enable-background:new 0 0 28 28;" xml:space="preserve">
<g>
	<path style="fill:#010002;" d="M20,20v2.001L17.816,22c-0.303-0.85-0.969-1.518-1.818-1.816L15.999,18H18v-8h-8v2H7.817
		C7.516,11.151,6.849,10.485,6,10.184V8h2V0H0v8h4v2.184C2.837,10.597,2,11.695,2,13c0,1.304,0.837,2.402,2,2.816V24h8.185
		c0.413,1.163,1.512,2,2.816,2c1.306,0,2.403-0.838,2.815-2.001H20V28h8v-8H20z M13.999,20.184
		c-0.848,0.303-1.513,0.969-1.815,1.815L6,21.998v-6.182c0.849-0.303,1.516-0.969,1.817-1.818H10V18h3.999
		C13.999,18,13.999,20.184,13.999,20.184z"/>
</g>
<g>
</g>
<g>
</g>
<g>
</g>
<g>
</g>
<g>
</g>
<g>
</g>
<g>
</g>
<g>
</g>
<g>
</g>
<g>
</g>
<g>
</g>
<g>
</g>
<g>
</g>
<g>
</g>
<g>
</g>
</svg>
