<?xml version="1.0" encoding="UTF-8" standalone="no"?>
<!-- Generator: Adobe Illustrator 18.1.1, SVG Export Plug-In . SVG Version: 6.00 Build 0)  -->

<svg
   xmlns:dc="http://purl.org/dc/elements/1.1/"
   xmlns:cc="http://creativecommons.org/ns#"
   xmlns:rdf="http://www.w3.org/1999/02/22-rdf-syntax-ns#"
   xmlns:svg="http://www.w3.org/2000/svg"
   xmlns="http://www.w3.org/2000/svg"
   xmlns:sodipodi="http://sodipodi.sourceforge.net/DTD/sodipodi-0.dtd"
   xmlns:inkscape="http://www.inkscape.org/namespaces/inkscape"
   version="1.1"
   id="Capa_1"
   x="0px"
   y="0px"
   viewBox="0 0 28 28"
   style="enable-background:new 0 0 28 28;"
   xml:space="preserve"
   inkscape:version="0.91 r13725"
   sodipodi:docname="categoryfaw02.svg"><metadata
     id="metadata4175"><rdf:RDF><cc:Work
         rdf:about=""><dc:format>image/svg+xml</dc:format><dc:type
           rdf:resource="http://purl.org/dc/dcmitype/StillImage" /><dc:title></dc:title></cc:Work></rdf:RDF></metadata><defs
     id="defs4173" /><sodipodi:namedview
     pagecolor="#ffffff"
     bordercolor="#666666"
     borderopacity="1"
     objecttolerance="10"
     gridtolerance="10"
     guidetolerance="10"
     inkscape:pageopacity="0"
     inkscape:pageshadow="2"
     inkscape:window-width="1680"
     inkscape:window-height="987"
     id="namedview4171"
     showgrid="false"
     inkscape:zoom="28.214286"
     inkscape:cx="15.06667"
     inkscape:cy="14"
     inkscape:window-x="-8"
     inkscape:window-y="-8"
     inkscape:window-maximized="1"
     inkscape:current-layer="Capa_1" /><g
     id="g4137"><path
       style="fill:#010002;"
       d="M20,20v2.001L17.816,22c-0.303-0.85-0.969-1.518-1.818-1.816L15.999,18H18v-8h-8v2H7.817   C7.516,11.151,6.849,10.485,6,10.184V8h2V0H0v8h4v2.184C2.837,10.597,2,11.695,2,13c0,1.304,0.837,2.402,2,2.816V24h8.185   c0.413,1.163,1.512,2,2.816,2c1.306,0,2.403-0.838,2.815-2.001H20V28h8v-8H20z M13.999,20.184   c-0.848,0.303-1.513,0.969-1.815,1.815L6,21.998v-6.182c0.849-0.303,1.516-0.969,1.817-1.818H10V18h3.999   C13.999,18,13.999,20.184,13.999,20.184z"
       id="path4139" /></g><g
     id="g4141" /><g
     id="g4143" /><g
     id="g4145" /><g
     id="g4147" /><g
     id="g4149" /><g
     id="g4151" /><g
     id="g4153" /><g
     id="g4155" /><g
     id="g4157" /><g
     id="g4159" /><g
     id="g4161" /><g
     id="g4163" /><g
     id="g4165" /><g
     id="g4167" /><g
     id="g4169" /><path style="fill:#010002;"
     d="m 24.233957,0.09751277 c -0.77,0 -1.505,0.23799999 -2.121,0.67899999 -0.616,-0.448 -1.351,-0.68599999 -2.128,-0.68599999 -0.973,0 -1.883,0.37799999 -2.569,1.06400003 -0.686,0.686 -1.064,1.603 -1.064,2.576 0,0.973 0.378,1.883 1.071,2.576 l 3.787,3.7870002 c 0.245,0.245 0.567,0.378 0.91,0.378 0.343,0 0.665,-0.133 0.903,-0.378 l 3.787,-3.7870002 c 0.686,-0.686 1.064,-1.603 1.071,-2.576 0,-0.973 -0.378,-1.89 -1.064,-2.576 -0.693,-0.67900004 -1.61,-1.05700003 -2.583,-1.05700003 z m 1.358,5.00500003 -3.479,3.479 -3.486,-3.486 c -0.364,-0.364 -0.567,-0.847 -0.567,-1.365 0,-0.511 0.196,-1.001 0.56,-1.358 0.364,-0.364 0.847,-0.56 1.358,-0.56 0.518,0 1.001,0.203 1.365,0.567 l 0.154,0.154 c 0.161,0.161 0.378,0.252 0.609,0.252 l 0,0 c 0.231,0 0.448,-0.091 0.609,-0.252 l 0.154,-0.154 c 0.364,-0.364 0.847,-0.567 1.365,-0.567 0.511,0 0.994,0.203 1.358,0.567 0.364,0.364 0.567,0.847 0.56,1.365 0.007,0.511 -0.196,0.994 -0.56,1.358 z"
     id="path4184"
      /></svg>