<?xml version="1.0" encoding="iso-8859-1"?>
<!-- Generator: Adobe Illustrator 19.0.0, SVG Export Plug-In . SVG Version: 6.00 Build 0)  -->
<svg version="1.1" id="Capa_1" xmlns="http://www.w3.org/2000/svg" xmlns:xlink="http://www.w3.org/1999/xlink" x="0px" y="0px"
	 viewBox="0 0 512 512" style="enable-background:new 0 0 512 512;" xml:space="preserve">
<g>
	<g>
		<path d="M401.777,137.141H110.223c-4.146,0-7.506,3.36-7.506,7.506s3.36,7.506,7.506,7.506h291.554
			c4.146,0,7.506-3.36,7.506-7.506S405.923,137.141,401.777,137.141z"/>
	</g>
</g>
<g>
	<g>
		<path d="M401.777,218.869H110.223c-4.146,0-7.506,3.36-7.506,7.506c0,4.145,3.36,7.506,7.506,7.506h291.554
			c4.146,0,7.506-3.36,7.506-7.506S405.923,218.869,401.777,218.869z"/>
	</g>
</g>
<g>
	<g>
		<path d="M306.193,271.909H205.807c-4.146,0-7.506,3.36-7.506,7.506c0,4.145,3.36,7.506,7.506,7.506h100.386
			c4.146,0,7.506-3.36,7.506-7.506C313.699,275.269,310.339,271.909,306.193,271.909z"/>
	</g>
</g>
<g>
	<g>
		<path d="M401.777,177.838H184.303c-4.146,0-7.506,3.36-7.506,7.506c0,4.145,3.36,7.506,7.506,7.506h217.474
			c4.146,0,7.506-3.36,7.506-7.506S405.923,177.838,401.777,177.838z"/>
	</g>
</g>
<g>
	<g>
		<path d="M149.381,177.837h-39.158c-4.146,0-7.506,3.36-7.506,7.506s3.36,7.506,7.506,7.506h39.158c4.146,0,7.506-3.36,7.506-7.506
			C156.887,181.198,153.527,177.837,149.381,177.837z"/>
	</g>
</g>
<g>
	<g>
		<path d="M473.251,124.455c-1.746-1.715-4.057-2.659-6.522-2.659c-0.002,0-0.003,0-0.005,0c-15.213,0-27.664-11.892-28.349-27.078
			c-0.225-4.938-4.283-8.805-9.238-8.805H81.077c-4.956,0-9.015,3.868-9.239,8.81c-0.653,14.511-12.532,26.391-27.044,27.044
			c-4.94,0.222-8.809,4.281-8.809,9.239v194.021c0,4.958,3.869,9.016,8.809,9.238c14.512,0.654,26.391,12.533,27.044,27.049
			c0.225,4.938,4.284,8.805,9.239,8.805h221.577c4.146,0,7.506-3.36,7.506-7.506c0-4.145-3.36-7.506-7.506-7.506H86.239
			c-3.103-18.079-17.164-32.14-35.243-35.244V136.167c18.079-3.103,32.14-17.167,35.243-35.243h337.739
			c3.23,18.65,18.245,33.046,37.026,35.51v127.469c0,4.145,3.36,7.506,7.506,7.506c4.146,0,7.506-3.36,7.506-7.506V131.048
			C476.016,128.549,475.034,126.207,473.251,124.455z"/>
	</g>
</g>
<g>
	<g>
		<path d="M491.165,48.445H20.835C9.347,48.445,0,57.792,0,69.28v317.47c0,11.489,9.347,20.835,20.835,20.835h315.048
			l-11.154,23.373c-1.433,3.001-1.084,6.52,0.908,9.182c1.993,2.663,5.272,3.986,8.553,3.461l20.766-3.338l11.583,19.013
			c1.624,2.668,4.51,4.278,7.611,4.278c0.151,0,0.303-0.004,0.455-0.012c3.272-0.166,6.181-2.106,7.594-5.064l20.126-42.173
			l20.124,42.17c1.41,2.958,4.319,4.9,7.592,5.068c0.153,0.008,0.307,0.012,0.459,0.012c3.101,0,5.987-1.61,7.611-4.277
			l11.583-19.013l20.766,3.339c3.291,0.526,6.564-0.801,8.555-3.465c1.992-2.664,2.338-6.182,0.905-9.178l-11.154-23.373h22.399
			c11.488,0,20.835-9.346,20.835-20.835V69.28C512,57.792,502.653,48.445,491.165,48.445z M373.501,441.85l-7.857-12.895
			c-1.892-3.106-5.434-4.74-9.028-4.163l-13.334,2.144l14.046-29.432c5.536,5.649,13.423,8.701,21.61,7.93
			c2.799-0.268,5.605,0.486,7.898,2.115c0.756,0.538,1.541,1.015,2.336,1.465L373.501,441.85z M404.115,397.342
			c-0.023,0.003-0.046,0.005-0.07,0.009c-1.138,0.168-2.295,0.168-3.433,0.001c-0.029-0.004-0.058-0.007-0.086-0.011
			c-1.763-0.273-3.477-0.948-4.995-2.027c-4.54-3.228-9.961-4.944-15.491-4.944c-0.838,0-1.678,0.04-2.518,0.119
			c-4.969,0.469-9.69-2.26-11.764-6.792c-0.921-2.012-2.096-3.874-3.46-5.577c-0.06-0.085-0.126-0.165-0.189-0.247
			c-0.076-0.092-0.147-0.187-0.223-0.278c-0.087-0.102-0.178-0.199-0.271-0.296c-2.482-2.856-5.549-5.188-9.042-6.786
			c-4.533-2.074-7.262-6.802-6.792-11.765c0.604-6.386-1.109-12.782-4.825-18.009c-2.889-4.063-2.889-9.522-0.001-13.585
			c3.717-5.227,5.43-11.623,4.826-18.009c-0.47-4.963,2.26-9.691,6.792-11.765c5.833-2.669,10.515-7.351,13.184-13.184
			c2.075-4.533,6.813-7.263,11.765-6.792c6.393,0.603,12.783-1.11,18.01-4.826c4.064-2.888,9.523-2.888,13.585,0
			c5.228,3.716,11.619,5.425,18.01,4.826c4.967-0.472,9.692,2.26,11.766,6.792c2.669,5.833,7.351,10.515,13.183,13.183
			c4.533,2.075,7.263,6.803,6.793,11.765c-0.604,6.387,1.109,12.783,4.825,18.009c2.889,4.063,2.889,9.522,0,13.585
			c-3.716,5.228-5.429,11.624-4.825,18.009c0.47,4.963-2.26,9.691-6.794,11.766c-3.485,1.595-6.545,3.921-9.024,6.768
			c-0.102,0.106-0.202,0.213-0.296,0.324c-0.065,0.078-0.126,0.159-0.191,0.238c-0.075,0.096-0.151,0.19-0.221,0.289
			c-1.36,1.7-2.532,3.558-3.45,5.565c-2.075,4.532-6.803,7.263-11.766,6.792c-6.38-0.601-12.78,1.109-18.01,4.825
			C407.597,396.394,405.881,397.07,404.115,397.342z M448.033,424.791c-3.595-0.575-7.135,1.058-9.028,4.165l-7.856,12.895
			l-15.671-32.837c0.795-0.45,1.579-0.927,2.336-1.465c2.294-1.63,5.102-2.386,7.898-2.116c8.19,0.772,16.075-2.28,21.611-7.929
			l14.045,29.431L448.033,424.791z M496.989,386.751c0,3.211-2.612,5.824-5.824,5.824h-29.563l-3.87-8.11
			c0.195-0.103,0.389-0.211,0.591-0.303c10.336-4.731,16.561-15.513,15.49-26.829c-0.265-2.8,0.486-5.605,2.116-7.898
			c6.586-9.265,6.586-21.715-0.001-30.98c-1.629-2.292-2.38-5.096-2.115-7.897c1.071-11.316-5.154-22.098-15.491-26.829
			c-2.557-1.171-4.61-3.224-5.781-5.781c-4.73-10.337-15.517-16.56-26.83-15.49c-2.802,0.267-5.605-0.486-7.897-2.116
			c-9.265-6.586-21.716-6.587-30.98,0c-2.293,1.63-5.104,2.383-7.897,2.115c-11.33-1.066-22.1,5.154-26.829,15.49
			c-1.171,2.558-3.224,4.61-5.782,5.781c-10.336,4.731-16.561,15.512-15.49,26.829c0.265,2.801-0.486,5.605-2.116,7.898
			c-6.586,9.265-6.586,21.715,0,30.979c1.63,2.292,2.381,5.097,2.116,7.898c-1.071,11.317,5.154,22.099,15.49,26.829
			c0.202,0.092,0.395,0.2,0.59,0.303l-3.87,8.111H20.835c-3.211,0-5.824-2.612-5.824-5.824V69.28c0-3.211,2.612-5.824,5.824-5.824
			h470.33c3.211,0,5.824,2.613,5.824,5.824V386.751z"/>
	</g>
</g>
<g>
	<g>
		<path d="M401.777,287.312c-25.714,0-46.634,20.92-46.634,46.633c0,25.714,20.92,46.634,46.634,46.634s46.633-20.921,46.633-46.634
			C448.41,308.231,427.491,287.312,401.777,287.312z M401.777,365.567c-17.437,0-31.623-14.186-31.623-31.623
			c0-17.436,14.186-31.622,31.623-31.622c17.436,0,31.622,14.186,31.622,31.622C433.399,351.381,419.213,365.567,401.777,365.567z"
			/>
	</g>
</g>
<g>
</g>
<g>
</g>
<g>
</g>
<g>
</g>
<g>
</g>
<g>
</g>
<g>
</g>
<g>
</g>
<g>
</g>
<g>
</g>
<g>
</g>
<g>
</g>
<g>
</g>
<g>
</g>
<g>
</g>
</svg>
