<?xml version="1.0" encoding="utf-8"?>
<!-- Generator: Adobe Illustrator 18.0.0, SVG Export Plug-In . SVG Version: 6.00 Build 0)  -->
<!DOCTYPE svg PUBLIC "-//W3C//DTD SVG 1.1//EN" "http://www.w3.org/Graphics/SVG/1.1/DTD/svg11.dtd">
<svg version="1.1" id="Artwork" xmlns="http://www.w3.org/2000/svg" xmlns:xlink="http://www.w3.org/1999/xlink" x="0px" y="0px"
	 viewBox="0 0 512 512" enable-background="new 0 0 512 512" xml:space="preserve">
<g>
	<path d="M402.8,395.9h46.6c23.8,0,43.1-19.4,43.1-43.1V174.2c0-23.8-19.4-43.1-43.1-43.1h-46.6v-91c0-15.8-12.9-28.6-28.6-28.6
		H137.7c-15.8,0-28.6,12.8-28.6,28.6v91H62.6c-23.8,0-43.1,19.4-43.1,43.1v178.6c0,23.8,19.4,43.1,43.1,43.1h46.6v76
		c0,15.8,12.9,28.6,28.6,28.6h236.4c15.8,0,28.6-12.8,28.6-28.6V395.9z M133.6,40.1c0-2.3,1.9-4.1,4.1-4.1h236.4
		c2.3,0,4.1,1.9,4.1,4.1v91H133.6V40.1z M62.6,371.4c-10.3,0-18.6-8.4-18.6-18.6V174.2c0-10.3,8.4-18.6,18.6-18.6h386.8
		c10.3,0,18.6,8.4,18.6,18.6v178.6c0,10.3-8.4,18.6-18.6,18.6h-46.6V263.5c0-6.8-5.5-12.2-12.3-12.2H121.4
		c-6.8,0-12.3,5.5-12.3,12.2v107.9H62.6z M378.3,471.9c0,2.3-1.9,4.1-4.1,4.1H137.8c-2.3,0-4.1-1.9-4.1-4.1V275.7h244.7V471.9z"/>
	<path d="M82.8,194.4c-2.3,2.3-3.6,5.5-3.6,8.7c0,3.2,1.3,6.4,3.6,8.7c2.3,2.3,5.4,3.6,8.7,3.6c3.2,0,6.4-1.3,8.7-3.6
		c2.3-2.3,3.6-5.4,3.6-8.7c0-3.2-1.3-6.4-3.6-8.7C95.5,189.9,87.3,189.9,82.8,194.4z"/>
	<path d="M286.3,308.9c-11,0-21.5,3.4-30.3,9.7c-8.8-6.4-19.3-9.8-30.4-9.8c-13.9,0-26.9,5.4-36.7,15.2
		c-9.8,9.8-15.2,22.9-15.2,36.8c0,13.9,5.4,26.9,15.3,36.8l54.1,54.1c3.5,3.5,8.1,5.4,13,5.4c4.9,0,9.5-1.9,12.9-5.4l54.1-54.1
		c9.8-9.8,15.2-22.9,15.3-36.8c0-13.9-5.4-27-15.2-36.8C313.3,314.3,300.2,308.9,286.3,308.9z M305.7,380.4L256,430.1l-49.8-49.8
		c-5.2-5.2-8.1-12.1-8.1-19.5c0-7.3,2.8-14.3,8-19.4c5.2-5.2,12.1-8,19.4-8c7.4,0,14.3,2.9,19.5,8.1l2.2,2.2
		c2.3,2.3,5.4,3.6,8.7,3.6h0c3.3,0,6.4-1.3,8.7-3.6l2.2-2.2c5.2-5.2,12.1-8.1,19.5-8.1c7.3,0,14.2,2.9,19.4,8.1
		c5.2,5.2,8.1,12.1,8,19.5C313.8,368.3,310.9,375.2,305.7,380.4z"/>
</g>
</svg>
