<?xml version="1.0" encoding="iso-8859-1"?>
<!-- Generator: Adobe Illustrator 16.0.0, SVG Export Plug-In . SVG Version: 6.00 Build 0)  -->
<!DOCTYPE svg PUBLIC "-//W3C//DTD SVG 1.1//EN" "http://www.w3.org/Graphics/SVG/1.1/DTD/svg11.dtd">
<svg version="1.1" id="Capa_1" xmlns="http://www.w3.org/2000/svg" xmlns:xlink="http://www.w3.org/1999/xlink" x="0px" y="0px"
	 width="511.763px" height="511.763px" viewBox="0 0 511.763 511.763" style="enable-background:new 0 0 511.763 511.763;"
	 xml:space="preserve">
<g>
	<g>
		<path d="M504.542,369.513L359.788,255.885l144.751-113.648c5.328-3.802,7.706-9.128,7.139-15.986
			c-0.955-6.658-4.292-11.514-10-14.56l-36.545-18.271c-2.475-1.333-5.232-1.999-8.278-1.999c-3.23,0-6.184,0.761-8.847,2.281
			L251.01,204.196l-31.405-18.842c-1.524-0.76-2.666-1.234-3.427-1.427c2.667-9.323,3.617-18.558,2.856-27.693
			c-1.332-14.656-6.661-28.743-15.987-42.255c-9.324-13.512-21.886-25.22-37.685-35.117c-25.125-15.99-51.485-23.982-79.084-23.982
			c-26.075,0-47.204,7.521-63.382,22.557c-8.183,7.421-14.228,16.269-18.129,26.551c-3.903,10.279-5.375,21.035-4.425,32.261
			c1.331,14.465,6.661,28.459,15.986,41.971c9.324,13.516,21.792,25.319,37.401,35.404c25.122,15.99,51.581,23.984,79.369,23.984
			c15.798,0,30.168-2.948,43.11-8.85c1.709,2.474,3.806,4.57,6.28,6.283l34.833,20.841l-34.833,20.835
			c-2.474,1.719-4.567,3.812-6.28,6.283c-12.942-5.899-27.312-8.85-43.11-8.85c-27.788,0-54.247,8.001-79.369,23.986
			c-15.608,10.088-28.072,21.895-37.401,35.409c-9.325,13.514-14.655,27.5-15.986,41.969c-2.093,23.415,5.427,43.112,22.557,59.101
			c16.368,14.846,37.495,22.269,63.382,22.269c27.6,0,53.959-7.998,79.084-23.986c15.795-10.089,28.361-21.833,37.685-35.262
			c9.326-13.422,14.655-27.452,15.987-42.113c0.761-9.13-0.188-18.37-2.856-27.692c0.762-0.191,1.903-0.663,3.427-1.423
			l31.405-18.85l196.999,110.488c2.662,1.526,5.615,2.285,8.85,2.285c3.046,0,5.801-0.663,8.274-1.998l36.549-18.274
			c5.708-3.046,9.041-7.898,9.996-14.558C512.249,378.649,509.87,373.328,504.542,369.513z M165.362,181.649
			c-7.423,6.854-18.177,10.282-32.264,10.282c-19.036,0-37.307-5.618-54.818-16.846c-15.416-9.707-25.504-20.843-30.262-33.406
			c-4.759-12.559-2.762-22.841,5.996-30.835c7.426-6.849,18.18-10.278,32.264-10.278c19.036,0,37.307,5.619,54.818,16.846
			c15.415,9.707,25.503,20.841,30.262,33.404C176.116,163.378,174.119,173.657,165.362,181.649z M171.357,360.95
			c-4.759,12.56-14.847,23.695-30.262,33.407c-17.511,11.225-35.782,16.84-54.818,16.844c-14.084,0-24.838-3.429-32.264-10.28
			c-8.757-7.994-10.754-18.274-5.996-30.841c4.758-12.559,14.847-23.688,30.262-33.4c17.511-11.225,35.782-16.844,54.818-16.844
			c14.084,0,24.838,3.43,32.264,10.28C174.119,338.11,176.116,348.391,171.357,360.95z M191.914,219.338l2.565-2.562
			c0.193-0.188,0.476-0.428,0.859-0.71c0.382-0.288,0.763-0.621,1.142-1c0.953-0.765,2.096-1.906,3.427-3.431
			c1.333-1.521,2.286-2.568,2.856-3.14l7.422-7.422l22.557,13.418l-3.999,2.281c-6.28,3.805-9.419,9.135-9.419,15.986v3.14
			L191.914,219.338z M255.867,283.291l-45.686,27.404l-7.423-7.422c-0.76-0.76-1.807-1.903-3.14-3.43
			c-1.331-1.526-2.378-2.669-3.14-3.429c-0.95-0.763-1.615-1.335-1.997-1.711l-2.568-2.279l45.683-27.408v-32.264L456.861,109.7
			l36.542,18.274l-210.135,164.45L255.867,283.291z M456.864,402.064L290.698,308.7c2.102-0.759,3.34-1.423,3.717-1.998
			l50.538-39.396l148.46,116.483L456.864,402.064z"/>
		<path d="M274.139,237.61c-4.948,0-9.229,1.811-12.847,5.428c-3.616,3.614-5.425,7.898-5.425,12.847
			c0,4.946,1.809,9.231,5.425,12.845c3.617,3.621,7.898,5.428,12.847,5.428s9.229-1.807,12.85-5.428
			c3.614-3.613,5.421-7.898,5.421-12.845c0-4.948-1.807-9.233-5.421-12.847C283.368,239.421,279.087,237.61,274.139,237.61z"/>
	</g>
</g>
<g>
</g>
<g>
</g>
<g>
</g>
<g>
</g>
<g>
</g>
<g>
</g>
<g>
</g>
<g>
</g>
<g>
</g>
<g>
</g>
<g>
</g>
<g>
</g>
<g>
</g>
<g>
</g>
<g>
</g>
</svg>
