<?xml version="1.0" encoding="iso-8859-1"?>
<!-- Generator: Adobe Illustrator 16.0.0, SVG Export Plug-In . SVG Version: 6.00 Build 0)  -->
<!DOCTYPE svg PUBLIC "-//W3C//DTD SVG 1.1//EN" "http://www.w3.org/Graphics/SVG/1.1/DTD/svg11.dtd">
<svg version="1.1" id="Capa_1" xmlns="http://www.w3.org/2000/svg" xmlns:xlink="http://www.w3.org/1999/xlink" x="0px" y="0px"
	 width="500.267px" height="500.267px" viewBox="0 0 500.267 500.267" style="enable-background:new 0 0 500.267 500.267;"
	 xml:space="preserve">
<g>
	<g>
		<ellipse cx="231.39" cy="80.887" rx="225.715" ry="58.463"/>
		<path d="M71.445,201.519c45.102,13.252,101.904,21.06,159.945,20.551c128.078-1.123,187.947-31.016,187.949-31.018
			c24.361-10.313,38.244-21.743,38.244-32.15v-47.419c0-0.56-0.062-1.108-0.146-1.649c-7.918,13.171-27.504,23.042-45.553,29.713
			v30.067c0,4.142-3.357,7.5-7.5,7.5s-7.5-3.358-7.5-7.5v-25.067c-4.525,1.36-8.623,2.467-12,3.324v36.493c0,5.523-4.477,10-10,10
			c-5.521,0-10-4.477-10-10v-32.176c-37.459,7.073-83.588,11.25-133.494,11.25c-118.6,0-215.934-23.564-226.051-53.604
			c-0.086,0.541-0.145,1.09-0.145,1.649v48.453C5.195,173.783,29.962,189.327,71.445,201.519z"/>
		<path d="M500.122,238.918c-7.918,13.171-27.504,23.042-45.554,29.713v30.066c0,4.143-3.356,7.5-7.5,7.5
			c-4.143,0-7.5-3.357-7.5-7.5v-25.066c-4.524,1.359-8.622,2.467-12,3.324v36.492c0,5.523-4.477,10-10,10c-5.521,0-10-4.477-10-10
			v-32.176c-37.459,7.073-83.588,11.25-133.494,11.25c-118.6,0-215.934-23.564-226.05-53.604c-0.086,0.541-0.145,1.09-0.145,1.649
			v48.453c0,13.848,24.768,29.393,66.25,41.584c45.102,13.252,101.904,21.059,159.945,20.551
			c128.077-1.123,187.946-31.017,187.948-31.019c24.361-10.313,38.244-21.743,38.244-32.149v-47.419
			C500.269,240.008,500.208,239.459,500.122,238.918z"/>
		<path d="M226.193,419.188c-49.906,0-96.035-4.177-133.494-11.25v32.177c0,5.522-4.479,10-10,10c-5.523,0-10-4.478-10-10v-36.493
			c-3.377-0.857-7.475-1.964-12-3.324v25.066c0,4.143-3.357,7.5-7.5,7.5s-7.5-3.357-7.5-7.5v-30.066
			c-18.049-6.671-37.635-16.542-45.553-29.713C0.06,366.125,0,366.674,0,367.232v47.419c0,10.407,13.883,21.837,38.244,32.15
			c0.002,0.002,59.871,29.895,187.949,31.018c58.042,0.51,114.844-7.299,159.945-20.551c41.482-12.19,66.25-27.734,66.25-41.583
			v-48.451c0-0.561-0.059-1.108-0.145-1.649C442.126,395.622,344.792,419.188,226.193,419.188z"/>
		<path d="M238.841,244.166c-58.02,1.559-114.844-7.299-159.943-20.551c-11.277-3.314-21.309-6.878-29.953-10.586
			c4.43,31.278,103.705,56.283,225.545,56.283c124.659,0,225.715-26.175,225.715-58.464c0-11.534-12.902-22.288-35.168-31.349v1.498
			c0,10.931-15.306,22.991-41.99,33.699C423.046,214.697,364.335,240.796,238.841,244.166z"/>
		<path d="M226.779,396.084c121.84,0,221.115-25.006,225.545-56.283c-8.646,3.708-18.677,7.271-29.951,10.586
			c-45.104,13.252-101.924,22.109-159.945,20.551c-125.494-3.371-184.203-29.47-184.203-29.47
			c-26.686-10.708-41.992-22.769-41.992-33.698v-1.498c-22.264,9.061-35.17,19.813-35.17,31.35
			C1.062,369.908,102.118,396.084,226.779,396.084z"/>
	</g>
</g>
<g>
</g>
<g>
</g>
<g>
</g>
<g>
</g>
<g>
</g>
<g>
</g>
<g>
</g>
<g>
</g>
<g>
</g>
<g>
</g>
<g>
</g>
<g>
</g>
<g>
</g>
<g>
</g>
<g>
</g>
</svg>
