<?xml version="1.0" encoding="iso-8859-1"?>
<!-- Uploaded to: SVG Repo, www.svgrepo.com, Generator: SVG Repo Mixer Tools -->
<!DOCTYPE svg PUBLIC "-//W3C//DTD SVG 1.1//EN" "http://www.w3.org/Graphics/SVG/1.1/DTD/svg11.dtd">
<svg fill="#000000" height="800px" width="800px" version="1.1" id="Capa_1" xmlns="http://www.w3.org/2000/svg" xmlns:xlink="http://www.w3.org/1999/xlink" 
	 viewBox="0 0 266.939 266.939" xml:space="preserve">
<g>
	<path d="M257.939,45.439H9c-4.971,0-9,4.029-9,9V119.5c0,4.971,4.029,9,9,9h248.939c4.971,0,9-4.029,9-9V54.439
		C266.939,49.469,262.91,45.439,257.939,45.439z M248.939,110.5H18V63.439h230.939V110.5z"/>
	<path d="M257.939,138.439H9c-4.971,0-9,4.029-9,9V212.5c0,4.971,4.029,9,9,9h248.939c4.971,0,9-4.029,9-9v-65.061
		C266.939,142.469,262.91,138.439,257.939,138.439z M248.939,203.5H18v-47.061h230.939V203.5z"/>
</g>
</svg>