<?xml version="1.0" encoding="iso-8859-1"?>
<!-- Generator: Adobe Illustrator 18.1.1, SVG Export Plug-In . SVG Version: 6.00 Build 0)  -->
<svg version="1.1" id="Capa_1" xmlns="http://www.w3.org/2000/svg" xmlns:xlink="http://www.w3.org/1999/xlink" x="0px" y="0px"
	 viewBox="0 0 18.08 18.08" style="enable-background:new 0 0 18.08 18.08;" xml:space="preserve">
<g>
	<g>
		<path style="fill:#030104;" d="M6.504,10.283c-0.101,0-0.197,0.039-0.269,0.111c-0.071,0.07-0.111,0.167-0.111,0.269l0.008,2.55
			H1.026V2.245H8.54v1.36c0.151-0.102,0.334-0.162,0.53-0.162h0.547V1.729c0-0.188-0.153-0.342-0.342-0.342H0.342
			C0.154,1.387,0,1.54,0,1.729v12.046c0,0.189,0.153,0.343,0.342,0.343h6.664c0.097,0,0.19-0.042,0.255-0.114l0.853-0.956v-2.764
			L6.504,10.283L6.504,10.283z"/>
		<path style="fill:#030104;" d="M5.48,9.182l2.208-1.827c0,0,0.175-0.15,0.018-0.307c-0.216-0.216-2.279-1.77-2.279-1.77
			s-0.274-0.276-0.274,0.09c0,0.367,0,0.951,0,0.951s-0.159,0-0.403,0c-0.75,0-2.212,0-2.771,0c0,0-0.131-0.004-0.131,0.166
			c0,0.169,0,1.211,0,1.448S2.005,8.13,2.005,8.13c0.575,0,1.988,0,2.765,0c0.272,0,0.448,0,0.448,0s0,0.729,0,1.029
			C5.217,9.459,5.48,9.182,5.48,9.182z"/>
		<path style="fill:#030104;" d="M17.738,3.962H8.803c-0.188,0-0.341,0.153-0.341,0.342V16.35c0,0.188,0.153,0.342,0.341,0.342
			h6.664c0.098,0,0.19-0.042,0.255-0.114l2.271-2.542c0.057-0.063,0.087-0.144,0.087-0.227V4.305
			C18.08,4.116,17.926,3.962,17.738,3.962z M17.003,12.859l-2.037-0.001c-0.001,0-0.001,0-0.001,0c-0.101,0-0.196,0.04-0.268,0.11
			s-0.111,0.168-0.11,0.269l0.007,2.55H9.49V4.819h7.514L17.003,12.859L17.003,12.859z"/>
		<path style="fill:#030104;" d="M12.654,12.288c0,0,0.274,0.275,0.274-0.09c0-0.367,0-0.951,0-0.951s0.158,0,0.402,0
			c0.751,0,2.212,0,2.771,0c0,0,0.132,0.005,0.132-0.165s0-1.211,0-1.449c0-0.237-0.156-0.196-0.156-0.196c-0.575,0-1.989,0-2.766,0
			c-0.271,0-0.448,0-0.448,0s0-0.728,0-1.029c0-0.301-0.262-0.023-0.262-0.023l-2.209,1.826c0,0-0.175,0.15-0.018,0.308
			C10.59,10.733,12.654,12.288,12.654,12.288z"/>
	</g>
</g>
<g>
</g>
<g>
</g>
<g>
</g>
<g>
</g>
<g>
</g>
<g>
</g>
<g>
</g>
<g>
</g>
<g>
</g>
<g>
</g>
<g>
</g>
<g>
</g>
<g>
</g>
<g>
</g>
<g>
</g>
</svg>
