<?xml version="1.0" encoding="UTF-8" standalone="no"?>
<!-- Generator: Adobe Illustrator 19.0.0, SVG Export Plug-In . SVG Version: 6.00 Build 0)  -->

<svg
   xmlns:dc="http://purl.org/dc/elements/1.1/"
   xmlns:cc="http://creativecommons.org/ns#"
   xmlns:rdf="http://www.w3.org/1999/02/22-rdf-syntax-ns#"
   xmlns:svg="http://www.w3.org/2000/svg"
   xmlns="http://www.w3.org/2000/svg"
   xmlns:sodipodi="http://sodipodi.sourceforge.net/DTD/sodipodi-0.dtd"
   xmlns:inkscape="http://www.inkscape.org/namespaces/inkscape"
   version="1.1"
   id="Capa_1"
   x="0px"
   y="0px"
   viewBox="0 0 512 512"
   style="enable-background:new 0 0 512 512;"
   xml:space="preserve"
   sodipodi:docname="pencil.svg"
   inkscape:version="0.92.2 (5c3e80d, 2017-08-06)"><metadata
     id="metadata971"><rdf:RDF><cc:Work
         rdf:about=""><dc:format>image/svg+xml</dc:format><dc:type
           rdf:resource="http://purl.org/dc/dcmitype/StillImage" /></cc:Work></rdf:RDF></metadata><defs
     id="defs969" /><sodipodi:namedview
     pagecolor="#ffffff"
     bordercolor="#666666"
     borderopacity="1"
     objecttolerance="10"
     gridtolerance="10"
     guidetolerance="10"
     inkscape:pageopacity="0"
     inkscape:pageshadow="2"
     inkscape:window-width="1920"
     inkscape:window-height="1017"
     id="namedview967"
     showgrid="false"
     inkscape:zoom="1.6015625"
     inkscape:cx="256"
     inkscape:cy="256"
     inkscape:window-x="-8"
     inkscape:window-y="-8"
     inkscape:window-maximized="1"
     inkscape:current-layer="Capa_1" /><g
     id="g898"><g
       id="g896"><path
         d="M267,0h-70c-8.284,0-15,6.716-15,15v70c0,8.284,6.716,15,15,15s15-6.716,15-15V30h55c8.284,0,15-6.716,15-15    S275.284,0,267,0z"
         id="path894" /></g></g><g
     id="g904"><g
       id="g902"><path
         d="M497,0h-70c-8.284,0-15,6.716-15,15s6.716,15,15,15h55v55c0,8.284,6.716,15,15,15s15-6.716,15-15V15    C512,6.716,505.284,0,497,0z"
         id="path900" /></g></g><g
     id="g910"><g
       id="g908"><path
         d="M497,230c-8.284,0-15,6.716-15,15v55h-55c-8.284,0-15,6.716-15,15s6.716,15,15,15h70c8.284,0,15-6.716,15-15v-70    C512,236.716,505.284,230,497,230z"
         id="path906" /></g></g><g
     id="g916"><g
       id="g914"><path
         d="M497,120c-8.284,0-15,6.716-15,15v60c0,8.284,6.716,15,15,15s15-6.716,15-15v-60C512,126.716,505.284,120,497,120z"
         id="path912" /></g></g><g
     id="g922"><g
       id="g920"><path
         d="M377.001,0h-60c-8.284,0-15,6.716-15,15s6.716,15,15,15h60c8.284,0,15-6.716,15-15S385.285,0,377.001,0z"
         id="path918" /></g></g><g
     id="g928"><g
       id="g926"><path
         d="M377.001,300H330V197c0-8.284-6.716-15-15-15h-96.381v-47c0-8.284-6.716-15-15-15s-15,6.716-15,15v47H15    c-8.284,0-15,6.716-15,15v300c0,8.284,6.716,15,15,15h300c8.284,0,15-6.716,15-15V330h47.001c8.284,0,15-6.716,15-15    S385.285,300,377.001,300z M300,482H30V212h270C300,216.305,300,478.072,300,482z"
         id="path924" /></g></g><g
     id="g936" /><g
     id="g938" /><g
     id="g940" /><g
     id="g942" /><g
     id="g944" /><g
     id="g946" /><g
     id="g948" /><g
     id="g950" /><g
     id="g952" /><g
     id="g954" /><g
     id="g956" /><g
     id="g958" /><g
     id="g960" /><g
     id="g962" /><g
     id="g964" /></svg>