<?xml version="1.0" encoding="UTF-8" standalone="no"?>
<svg
   xmlns:dc="http://purl.org/dc/elements/1.1/"
   xmlns:cc="http://creativecommons.org/ns#"
   xmlns:rdf="http://www.w3.org/1999/02/22-rdf-syntax-ns#"
   xmlns:svg="http://www.w3.org/2000/svg"
   xmlns="http://www.w3.org/2000/svg"
   xmlns:sodipodi="http://sodipodi.sourceforge.net/DTD/sodipodi-0.dtd"
   xmlns:inkscape="http://www.inkscape.org/namespaces/inkscape"
   data-name="Layer 1"
   viewBox="0 0 128 160"
   x="0px"
   y="0px"
   version="1.1"
   id="svg6627"
   sodipodi:docname="cubes_6.svg"
   inkscape:version="0.92.2 (5c3e80d, 2017-08-06)">
  <metadata
     id="metadata6633">
    <rdf:RDF>
      <cc:Work
         rdf:about="">
        <dc:format>image/svg+xml</dc:format>
        <dc:type
           rdf:resource="http://purl.org/dc/dcmitype/StillImage" />
        <dc:title>Miscellaneous 42</dc:title>
      </cc:Work>
    </rdf:RDF>
  </metadata>
  <defs
     id="defs6631" />
  <sodipodi:namedview
     pagecolor="#ffffff"
     bordercolor="#666666"
     borderopacity="1"
     objecttolerance="10"
     gridtolerance="10"
     guidetolerance="10"
     inkscape:pageopacity="0"
     inkscape:pageshadow="2"
     inkscape:window-width="1920"
     inkscape:window-height="1017"
     id="namedview6629"
     showgrid="false"
     inkscape:zoom="5.9"
     inkscape:cx="64"
     inkscape:cy="100.33898"
     inkscape:window-x="-8"
     inkscape:window-y="-8"
     inkscape:window-maximized="1"
     inkscape:current-layer="svg6627" />
  <title
     id="title6603">Miscellaneous 42</title>
  <path
     d="M86.27,84.67,81.5,81.82l-3.91,2.33,5,3-18,11.21a2,2,0,0,0-.59-.1,2,2,0,0,0-.44.05L45.41,87.13l5-3L46.5,81.82l-4.78,2.85A4,4,0,0,0,40,87.74v24.52a4,4,0,0,0,1.73,3.07l20.54,12.24a3.72,3.72,0,0,0,3.45,0l20.54-12.24A4,4,0,0,0,88,112.26V87.74A4,4,0,0,0,86.27,84.67ZM44,91,62,102v20.71L44,112Zm22,31.79V102.19L84,91v21Z"
     id="path6611" />
  <path
     d="M1.73,55.33,22.27,67.57a3.72,3.72,0,0,0,3.45,0L36,61.45V56.8l-10,6V42.19L44,31v6.67l4-2.38V27.74a4,4,0,0,0-1.73-3.07L25.73,12.43a3.7,3.7,0,0,0-3.45,0L1.73,24.67A4,4,0,0,0,0,27.74V52.26A4,4,0,0,0,1.73,55.33ZM4,31,22,42V62.76L4,52ZM24,16.05,42.6,27.14l-18,11.21a1.83,1.83,0,0,0-1,0L5.41,27.13Z"
     id="path6613" />
  <path
     d="M126.27,24.67,105.73,12.43a3.7,3.7,0,0,0-3.45,0L81.73,24.67A4,4,0,0,0,80,27.74v7.52l4,2.38V31L102,42V62.76l-10-6v4.66l10.27,6.12a3.72,3.72,0,0,0,3.45,0l20.54-12.24A4,4,0,0,0,128,52.26V27.74A4,4,0,0,0,126.27,24.67ZM104,16.05l18.6,11.08-18,11.21a1.83,1.83,0,0,0-1,0L85.41,27.13Zm2,46.7V42.19L124,31V52Z"
     id="path6615" />
  <path
     d="M86.27,43.66,65.73,31.42a3.7,3.7,0,0,0-3.45,0L41.73,43.66A4,4,0,0,0,40,46.73V71.25a4,4,0,0,0,1.73,3.07L62.27,86.56a3.72,3.72,0,0,0,3.45,0L86.27,74.32A4,4,0,0,0,88,71.25V46.73A4,4,0,0,0,86.27,43.66ZM64,35,82.6,46.13l-18,11.21a2,2,0,0,0-.59-.1,2,2,0,0,0-.44.05L45.41,46.12ZM44,50,62,61V81.75L44,71ZM66,81.75V61.18L84,50V71Z"
     id="path6617" />
  <path
     d="M39.62,77.71a7.67,7.67,0,0,1-2.73-3l-12.3,7.66a2,2,0,0,0-.59-.1,2,2,0,0,0-.44.05L5.41,71.13,11,67.82,7.06,65.49,1.73,68.67A4,4,0,0,0,0,71.74V96.26a4,4,0,0,0,1.73,3.07l20.54,12.24a3.72,3.72,0,0,0,3.45,0L36,105.45V100.8l-10,6V86.19ZM4,75,22,86v20.71L4,96Z"
     id="path6619" />
  <path
     d="M126.27,68.67l-5.33-3.18L117,67.82l5.57,3.32-18,11.21a2,2,0,0,0-.59-.1,2,2,0,0,0-.44.05L91.12,74.65a7.67,7.67,0,0,1-2.71,3L102,86v20.71l-10-6v4.66l10.27,6.12a3.72,3.72,0,0,0,3.45,0l20.54-12.24A4,4,0,0,0,128,96.26V71.74A4,4,0,0,0,126.27,68.67ZM106,106.76V86.19L124,75V96Z"
     id="path6621" />
</svg>
