<?xml version="1.0" encoding="utf-8"?>
<!-- Svg Vector Icons : http://www.onlinewebfonts.com/icon -->
<!DOCTYPE svg PUBLIC "-//W3C//DTD SVG 1.1//EN" "http://www.w3.org/Graphics/SVG/1.1/DTD/svg11.dtd">
<svg version="1.1" xmlns="http://www.w3.org/2000/svg" xmlns:xlink="http://www.w3.org/1999/xlink" x="0px" y="0px" viewBox="0 0 1000 1000" enable-background="new 0 0 1000 1000" xml:space="preserve">
<metadata> Svg Vector Icons : http://www.onlinewebfonts.com/icon </metadata>
<g><path d="M855.8,928.7h-593v-61.2h474.5c32.7,0,59.3-27.5,59.3-61.2V193.7h59.2V928.7z M230.6,745c-16.3,0-29.7-13.7-29.7-30.6c0-16.9,13.3-30.6,29.7-30.6h417.6c16.3,0,29.7,13.8,29.7,30.6c0,16.9-13.3,30.6-29.7,30.6H230.6z M230.6,500h417.6c16.3,0,29.7,13.8,29.7,30.6c0,16.9-13.3,30.6-29.7,30.6H230.6c-16.3,0-29.7-13.7-29.7-30.6C201,513.7,214.3,500,230.6,500 M230.6,316.2h417.6c16.3,0,29.7,13.8,29.7,30.6c0,16.9-13.3,30.6-29.7,30.6H230.6c-16.3,0-29.7-13.7-29.7-30.6C201,330,214.3,316.2,230.6,316.2 M408.5,132.5h239.7c16.3,0,29.7,13.8,29.7,30.6c0,16.9-13.3,30.6-29.7,30.6H408.5c-16.3,0-29.7-13.7-29.7-30.6C378.9,146.3,392.2,132.5,408.5,132.5 M855.8,132.5h-59.2V71.3c0-33.7-26.7-61.3-59.3-61.3h-593c-32.8,0-59.4,27.5-59.4,61.3v735c0,33.8,26.5,61.2,59.4,61.2h59.2v61.2c0,33.8,26.7,61.3,59.3,61.3h593c32.8,0,59.3-27.5,59.3-61.3v-735C915.1,160,888.6,132.5,855.8,132.5"/></g>
</svg>