<?xml version="1.0" encoding="UTF-8" standalone="no"?>
<!-- Generator: Adobe Illustrator 18.1.1, SVG Export Plug-In . SVG Version: 6.00 Build 0)  -->

<svg
   xmlns:dc="http://purl.org/dc/elements/1.1/"
   xmlns:cc="http://creativecommons.org/ns#"
   xmlns:rdf="http://www.w3.org/1999/02/22-rdf-syntax-ns#"
   xmlns:svg="http://www.w3.org/2000/svg"
   xmlns="http://www.w3.org/2000/svg"
   xmlns:sodipodi="http://sodipodi.sourceforge.net/DTD/sodipodi-0.dtd"
   xmlns:inkscape="http://www.inkscape.org/namespaces/inkscape"
   version="1.1"
   id="Capa_1"
   x="0px"
   y="0px"
   viewBox="0 0 22.957 22.957"
   style="enable-background:new 0 0 22.957 22.957;"
   xml:space="preserve"
   sodipodi:docname="deleteall02.svg"
   inkscape:version="0.92.2 (5c3e80d, 2017-08-06)"><metadata
     id="metadata1103"><rdf:RDF><cc:Work
         rdf:about=""><dc:format>image/svg+xml</dc:format><dc:type
           rdf:resource="http://purl.org/dc/dcmitype/StillImage" /></cc:Work></rdf:RDF></metadata><defs
     id="defs1101" /><sodipodi:namedview
     pagecolor="#ffffff"
     bordercolor="#666666"
     borderopacity="1"
     objecttolerance="10"
     gridtolerance="10"
     guidetolerance="10"
     inkscape:pageopacity="0"
     inkscape:pageshadow="2"
     inkscape:window-width="1920"
     inkscape:window-height="1017"
     id="namedview1099"
     showgrid="false"
     inkscape:zoom="12.628556"
     inkscape:cx="11.4785"
     inkscape:cy="11.4785"
     inkscape:window-x="-8"
     inkscape:window-y="-8"
     inkscape:window-maximized="1"
     inkscape:current-layer="Capa_1" /><g
     id="g1066"><g
       id="g1064"><polygon
         points="16.947,0.42 5.019,0.42 0,4.908 0,22.502 9.1,22.502 9.1,20.924 1.778,20.924 1.778,6.628     6.927,6.628 6.927,1.998 15.17,1.998 15.17,9.981 16.947,9.981   "
         id="polygon1060" /><polygon
         points="16.433,13.266 20.212,9.486 22.957,12.231 19.178,16.01 22.957,19.794 20.212,22.538     16.433,18.759 12.649,22.538 9.905,19.794 13.685,16.01 9.905,12.231 12.649,9.486   "
         id="polygon1062" /></g></g><g
     id="g1068" /><g
     id="g1070" /><g
     id="g1072" /><g
     id="g1074" /><g
     id="g1076" /><g
     id="g1078" /><g
     id="g1080" /><g
     id="g1082" /><g
     id="g1084" /><g
     id="g1086" /><g
     id="g1088" /><g
     id="g1090" /><g
     id="g1092" /><g
     id="g1094" /><g
     id="g1096" /><g
     id="g1209"
     transform="matrix(0.03835619,0,0,0.03521364,8.2492889e-4,2.2489789)"
     style="fill:#e90000;fill-opacity:1"><g
       id="g1152"
       style="fill:#e90000;fill-opacity:1"><path
         id="path1148"
         d="m 244.709,389.496 c 18.736,0 34.332,-14.355 35.91,-33.026 L 304.978,65.543 C 306.396,48.67 300.675,31.99 289.222,19.532 277.783,7.09 261.629,0 244.709,0 227.789,0 211.635,7.09 200.195,19.532 188.74,31.99 183.022,48.67 184.44,65.543 l 24.359,290.927 c 1.578,18.671 17.174,33.026 35.91,33.026 z"
         inkscape:connector-curvature="0"
         style="fill:#e90000;fill-opacity:1" /><path
         id="path1150"
         d="m 244.709,410.908 c -21.684,0 -39.256,17.571 -39.256,39.256 0,21.683 17.572,39.254 39.256,39.254 21.684,0 39.256,-17.571 39.256,-39.254 0,-21.685 -17.572,-39.256 -39.256,-39.256 z"
         inkscape:connector-curvature="0"
         style="fill:#e90000;fill-opacity:1" /></g><g
       id="g1154"
       style="fill:#e90000;fill-opacity:1" /><g
       id="g1156"
       style="fill:#e90000;fill-opacity:1" /><g
       id="g1158"
       style="fill:#e90000;fill-opacity:1" /><g
       id="g1160"
       style="fill:#e90000;fill-opacity:1" /><g
       id="g1162"
       style="fill:#e90000;fill-opacity:1" /><g
       id="g1164"
       style="fill:#e90000;fill-opacity:1" /><g
       id="g1166"
       style="fill:#e90000;fill-opacity:1" /><g
       id="g1168"
       style="fill:#e90000;fill-opacity:1" /><g
       id="g1170"
       style="fill:#e90000;fill-opacity:1" /><g
       id="g1172"
       style="fill:#e90000;fill-opacity:1" /><g
       id="g1174"
       style="fill:#e90000;fill-opacity:1" /><g
       id="g1176"
       style="fill:#e90000;fill-opacity:1" /><g
       id="g1178"
       style="fill:#e90000;fill-opacity:1" /><g
       id="g1180"
       style="fill:#e90000;fill-opacity:1" /><g
       id="g1182"
       style="fill:#e90000;fill-opacity:1" /></g></svg>