<?xml version="1.0" encoding="iso-8859-1"?>
<!-- Generator: Adobe Illustrator 16.0.0, SVG Export Plug-In . SVG Version: 6.00 Build 0)  -->
<!DOCTYPE svg PUBLIC "-//W3C//DTD SVG 1.1//EN" "http://www.w3.org/Graphics/SVG/1.1/DTD/svg11.dtd">
<svg version="1.1" id="Capa_1" xmlns="http://www.w3.org/2000/svg" xmlns:xlink="http://www.w3.org/1999/xlink" x="0px" y="0px"
	 width="612px" height="612px" viewBox="0 0 612 612" style="enable-background:new 0 0 612 612;" xml:space="preserve">
<g>
	<path d="M391.897,259.865c-0.737-6.115-3.061-11.692-6.633-16.349l24.524-152.198c0.913-5.663-2.72-11.062-8.308-12.353
		l-0.274-0.062c-5.588-1.291-11.219,1.971-12.882,7.46l-44.676,147.543c-11.01,5.536-18.653,16.821-18.653,29.964
		c0,18.558,15.091,33.658,33.648,33.658c3.458,0,6.728-0.675,9.869-1.647l93.334,48.503c5.135,2.668,11.456,1.002,14.607-3.852
		l0.141-0.217c3.152-4.852,2.104-11.305-2.424-14.91L391.897,259.865z M342.023,263.87c0-9.163,7.458-16.621,16.621-16.621
		c9.171,0,16.629,7.458,16.629,16.621c0,9.17-7.458,16.629-16.629,16.629C349.481,280.499,342.023,273.041,342.023,263.87z
		 M612,263.87c0,112.658-73.93,208.333-175.809,241.169l-0.005-36.076c82.756-31.396,141.757-111.467,141.757-205.093
		c0-120.92-98.38-219.299-219.299-219.299c-120.92,0-219.299,98.379-219.299,219.299c0,12.13,1.034,24.019,2.938,35.62h-34.441
		c-1.646-11.646-2.554-23.527-2.554-35.62c0-139.703,113.653-253.356,253.356-253.356C498.347,10.514,612,124.167,612,263.87z
		 M402.81,444.398l-77.99-77.139c-4.938-4.939-11.664-7.664-18.561-7.664h-39.336v-14.729c0-10.984-8.939-19.838-19.923-19.838
		H19.841c-10.983,0-19.838,8.854-19.838,19.838v132.82h410.641v-14.473C410.643,456.148,407.833,449.336,402.81,444.398z
		 M368.838,446.953h-75.521c-1.703,0-3.065-1.363-3.065-3.066v-58.322c0-1.703,1.361-3.066,3.065-3.066h14.389
		c0.767,0,1.618,0.342,2.214,0.852l61.047,58.324C373.01,443.545,371.647,446.953,368.838,446.953z M410.652,488.66v43.941
		c0,10.961-8.886,19.848-19.848,19.848h-21.237c-3.837-26.332-26.53-46.576-53.919-46.576c-27.325,0-50.017,20.244-53.854,46.576
		H154.151c-3.837-26.332-26.53-46.576-53.854-46.576c-27.324,0-50.017,20.244-53.854,46.576H19.848
		C8.886,552.447,0,543.562,0,532.602V488.66H410.652z M315.709,519.152c-22.732,0-41.208,18.391-41.208,41.123
		c0,22.734,18.476,41.211,41.208,41.211c22.733,0,41.124-18.477,41.124-41.211C356.833,537.543,338.442,519.152,315.709,519.152z
		 M315.709,580.881c-11.408,0-20.604-9.195-20.604-20.605c0-11.324,9.195-20.604,20.604-20.604c11.324,0,20.52,9.279,20.52,20.604
		C336.229,571.686,327.033,580.881,315.709,580.881z M100.3,519.152c-22.732,0-41.209,18.391-41.209,41.123
		c0,22.734,18.477,41.211,41.209,41.211c22.733,0,41.124-18.477,41.124-41.211C141.424,537.543,123.033,519.152,100.3,519.152z
		 M100.3,580.881c-11.409,0-20.604-9.195-20.604-20.605c0-11.324,9.195-20.604,20.604-20.604c11.324,0,20.604,9.279,20.604,20.604
		C120.904,571.686,111.624,580.881,100.3,580.881z"/>
</g>
<g>
</g>
<g>
</g>
<g>
</g>
<g>
</g>
<g>
</g>
<g>
</g>
<g>
</g>
<g>
</g>
<g>
</g>
<g>
</g>
<g>
</g>
<g>
</g>
<g>
</g>
<g>
</g>
<g>
</g>
</svg>
