<?xml version="1.0"?>
<svg xmlns="http://www.w3.org/2000/svg" viewBox="0 0 50 50">
    <path style="text-indent:0;text-align:start;line-height:normal;text-transform:none;block-progression:tb;-inkscape-font-specification:Sans" d="M 25 2 C 16.17552 2 9 9.1755204 9 18 C 9 24.342762 12.863667 31.664606 16.65625 37.5 C 20.448833 43.335394 24.25 47.65625 24.25 47.65625 A 1.0001 1.0001 0 0 0 25.75 47.65625 C 25.75 47.65625 29.550761 43.326789 33.34375 37.5 C 37.136739 31.673211 41 24.376674 41 18 C 41 9.1755204 33.82448 2 25 2 z M 25 4 C 32.74352 4 39 10.25648 39 18 C 39 23.537326 35.363261 30.742789 31.65625 36.4375 C 28.548051 41.212315 25.922924 44.353676 25 45.4375 C 24.081348 44.35465 21.456261 41.195263 18.34375 36.40625 C 14.636333 30.701894 11 23.498238 11 18 C 11 10.25648 17.25648 4 25 4 z M 25 11.84375 L 24.5 12.15625 L 17 16.65625 L 18 18.34375 L 18 25 L 18 26 L 19 26 L 31 26 L 32 26 L 32 25 L 32 18.34375 L 33 16.65625 L 25.5 12.15625 L 25 11.84375 z M 25 14.15625 L 30 17.15625 L 30 24 L 27 24 L 27 19 L 23 19 L 23 24 L 20 24 L 20 17.15625 L 25 14.15625 z" overflow="visible" font-family="Sans"/>
</svg>
