<?xml version="1.0" encoding="UTF-8"?>
<svg width="700pt" height="700pt" version="1.1" viewBox="0 0 700 700" xmlns="http://www.w3.org/2000/svg">
 <g>
  <path d="m349.97 227.5c-28.902 0-52.469 23.629-52.469 52.531s23.566 52.469 52.469 52.469 52.531-23.566 52.531-52.469-23.629-52.531-52.531-52.531zm0 17.512c19.441 0 35.023 15.582 35.023 35.02 0 19.441-15.582 35.023-35.023 35.023s-34.957-15.582-34.957-35.023 15.516-35.02 34.957-35.02z"/>
  <path d="m332.53 350c-42.879 0-78.781 30.711-78.781 70v43.785c0.007812 2.3203 0.9375 4.543 2.5859 6.1758 1.6445 1.6367 3.875 2.5508 6.1953 2.543h174.94c2.3203 0.007812 4.5508-0.90625 6.1953-2.543 1.6484-1.6328 2.5781-3.8555 2.5859-6.1758v-43.781c0-39.289-35.902-70-78.781-70zm0 17.5h34.934c34.664 0 61.281 23.941 61.281 52.5v35h-157.5v-35c0-28.559 26.621-52.5 61.281-52.5z"/>
  <path d="m402.5 43.75c-2.332-0.011719-4.5742 0.91406-6.2227 2.5625s-2.5703 3.8867-2.5625 6.2188v43.699l-87.457 0.003906v-43.684c0.011719-2.332-0.91016-4.5742-2.5586-6.2227-1.6523-1.6484-3.8906-2.5703-6.2227-2.5625h-52.492c-2.3203 0.007813-4.543 0.94141-6.1797 2.5859-1.6328 1.6484-2.5469 3.8789-2.5352 6.1992v43.684h-96.242c-4.8281-0.019531-8.7617 3.8828-8.7812 8.7148v402.59c0.019531 4.832 3.9531 8.7344 8.7812 8.7148h419.94c4.8281 0.019531 8.7617-3.8828 8.7812-8.7148v-315.06c-0.007812-0.29297-0.03125-0.58203-0.066406-0.87109v-86.648c-0.019532-4.832-3.9531-8.7344-8.7812-8.7188h-96.172v-43.699c0.019531-4.832-3.8828-8.7656-8.7148-8.7852zm8.7305 17.5h34.996v70.02h-34.996zm-157.46 0.015625h34.996v70.004h-34.996zm-105 52.469h87.508v26.25c-0.011719 2.3242 0.90234 4.5508 2.5352 6.1992 1.6367 1.6484 3.8594 2.5781 6.1797 2.5859h52.492c2.332 0.011719 4.5703-0.91406 6.2227-2.5625 1.6484-1.6484 2.5703-3.8867 2.5586-6.2227v-26.25h87.457v26.25c-0.007812 2.332 0.91406 4.5742 2.5625 6.2227 1.6484 1.6484 3.8906 2.5742 6.2227 2.5625h52.512-0.003906c4.832-0.019531 8.7344-3.9531 8.7148-8.7852v-26.25h87.473v70.02h-402.43zm0 87.539h402.49v297.48h-402.49z"/>
 </g>
</svg>
