<?xml version="1.0" encoding="UTF-8" standalone="no"?>
<!-- Generator: Adobe Illustrator 16.0.0, SVG Export Plug-In . SVG Version: 6.00 Build 0)  -->

<svg
   xmlns:dc="http://purl.org/dc/elements/1.1/"
   xmlns:cc="http://creativecommons.org/ns#"
   xmlns:rdf="http://www.w3.org/1999/02/22-rdf-syntax-ns#"
   xmlns:svg="http://www.w3.org/2000/svg"
   xmlns="http://www.w3.org/2000/svg"
   xmlns:sodipodi="http://sodipodi.sourceforge.net/DTD/sodipodi-0.dtd"
   xmlns:inkscape="http://www.inkscape.org/namespaces/inkscape"
   version="1.1"
   id="Capa_1"
   x="0px"
   y="0px"
   width="256.61px"
   height="256.61px"
   viewBox="0 0 256.61 256.61"
   style="enable-background:new 0 0 256.61 256.61;"
   xml:space="preserve"
   sodipodi:docname="documents_draft.svg"
   inkscape:version="0.92.2 (5c3e80d, 2017-08-06)"><metadata
     id="metadata1049"><rdf:RDF><cc:Work
         rdf:about=""><dc:format>image/svg+xml</dc:format><dc:type
           rdf:resource="http://purl.org/dc/dcmitype/StillImage" /></cc:Work></rdf:RDF></metadata><defs
     id="defs1047" /><sodipodi:namedview
     pagecolor="#ffffff"
     bordercolor="#666666"
     borderopacity="1"
     objecttolerance="10"
     gridtolerance="10"
     guidetolerance="10"
     inkscape:pageopacity="0"
     inkscape:pageshadow="2"
     inkscape:window-width="1920"
     inkscape:window-height="1017"
     id="namedview1045"
     showgrid="false"
     inkscape:zoom="2.6012581"
     inkscape:cx="58.083276"
     inkscape:cy="141.54776"
     inkscape:window-x="-8"
     inkscape:window-y="-8"
     inkscape:window-maximized="1"
     inkscape:current-layer="Capa_1" /><g
     id="g1012"
     transform="translate(23.834621,0.38442937)"><g
       id="_x38_7_36_"><g
         id="g1009"><path
           d="m 60.859,112.533 c -6.853,0 -6.853,10.646 0,10.646 27.294,0 54.583,0 81.875,0 6.865,0 6.865,-10.646 0,-10.646 -27.292,0 -54.581,0 -81.875,0 z"
           id="path993"
           inkscape:connector-curvature="0" /><path
           d="m 142.734,161.018 c -27.292,0 -54.581,0 -81.875,0 -6.853,0 -6.853,10.633 0,10.633 27.294,0 54.583,0 81.875,0 6.866,-0.001 6.866,-10.633 0,-10.633 z"
           id="path997"
           inkscape:connector-curvature="0" /><path
           d="m 141.17,209.934 c -27.302,0 -54.601,0 -81.89,0 -6.848,0 -6.848,10.633 0,10.633 27.289,0 54.588,0 81.89,0 6.845,-0.001 6.845,-10.633 0,-10.633 z"
           id="path1001"
           inkscape:connector-curvature="0" /><path
           d="M 25.362,58.087 V 256.61 H 178.239 V 85.63 L 149.833,58.087 H 25.362 Z M 165.026,243.393 H 38.585 V 71.305 h 104.443 v 20.97 h 21.988 v 151.118 z"
           id="path1003"
           inkscape:connector-curvature="0" /><polygon
           points="51.204,50.645 64.427,50.645 64.427,40.88 168.875,40.88 168.875,61.85 190.868,61.85 190.868,212.971 185.059,212.971 185.059,226.188 204.086,226.188 204.086,55.205 175.68,27.667 51.204,27.667 "
           id="polygon1005" /><polygon
           points="78.363,0 78.363,22.983 91.581,22.983 91.581,13.218 196.032,13.218 196.032,34.188 218.025,34.188 218.025,185.306 212.221,185.306 212.221,198.523 231.248,198.523 231.248,27.543 202.837,0 "
           id="polygon1007" /></g></g></g><g
     id="g1014" /><g
     id="g1016" /><g
     id="g1018" /><g
     id="g1020" /><g
     id="g1022" /><g
     id="g1024" /><g
     id="g1026" /><g
     id="g1028" /><g
     id="g1030" /><g
     id="g1032" /><g
     id="g1034" /><g
     id="g1036" /><g
     id="g1038" /><g
     id="g1040" /><g
     id="g1042" /><path
     inkscape:connector-curvature="0"
     d="M 41.246112,7.9106055 C 29.773732,1.4762984 17.015692,1.6393735 9.4451419,9.3950985 1.9131319,17.110702 1.7103419,30.069914 7.8827719,41.767889 18.994402,39.387784 37.675952,31.824254 41.246112,7.9106055 Z"
     id="path3942"
     style="fill:#7c0000;fill-opacity:1;stroke-width:0.63940054" /><path
     inkscape:connector-curvature="0"
     d="m 120.85214,150.2911 40.94905,15.16652 -14.6439,-41.47775 c -5.44715,14.40488 -16.392,22.15347 -26.30515,26.31123 z"
     id="path3944"
     style="fill:#7c0000;fill-opacity:1;stroke-width:0.63940054" /><path
     inkscape:connector-curvature="0"
     d="m 142.3893,110.48484 -0.82383,-2.33157 -90.461788,-92.659072 c -0.88955,-0.911145 -1.80562,-1.762754 -2.73749,-2.574888 -1.80371,8.679164 -5.3966,15.403381 -9.84808,20.628222 l 95.259478,97.578478 c 4.19561,-5.03588 7.44293,-11.71934 8.61171,-20.64117 z"
     id="path3946"
     style="fill:#7c0000;fill-opacity:1;stroke-width:0.63940054" /><path
     inkscape:connector-curvature="0"
     d="m 12.890202,49.273179 c 0.78909,0.954501 1.61987,1.888941 2.50561,2.798143 l 90.463688,92.659068 1.93828,0.71895 c 5.56909,-1.07615 13.44858,-3.48215 20.33049,-8.85194 L 32.901642,39.049988 c -6.52306,5.371737 -13.87754,8.459143 -20.01144,10.223191 z"
     id="path3948"
     style="fill:#7c0000;fill-opacity:1;stroke-width:0.63940054" /></svg>