<?xml version="1.0" encoding="UTF-8" standalone="no"?>
<!-- Generator: Adobe Illustrator 16.0.0, SVG Export Plug-In . SVG Version: 6.00 Build 0)  -->

<svg
   xmlns:dc="http://purl.org/dc/elements/1.1/"
   xmlns:cc="http://creativecommons.org/ns#"
   xmlns:rdf="http://www.w3.org/1999/02/22-rdf-syntax-ns#"
   xmlns:svg="http://www.w3.org/2000/svg"
   xmlns="http://www.w3.org/2000/svg"
   xmlns:sodipodi="http://sodipodi.sourceforge.net/DTD/sodipodi-0.dtd"
   xmlns:inkscape="http://www.inkscape.org/namespaces/inkscape"
   version="1.1"
   id="Capa_1"
   x="0px"
   y="0px"
   width="256.61px"
   height="256.61px"
   viewBox="0 0 256.61 256.61"
   style="enable-background:new 0 0 256.61 256.61;"
   xml:space="preserve"
   sodipodi:docname="documents_goods.svg"
   inkscape:version="0.92.2 (5c3e80d, 2017-08-06)"><metadata
     id="metadata1049"><rdf:RDF><cc:Work
         rdf:about=""><dc:format>image/svg+xml</dc:format><dc:type
           rdf:resource="http://purl.org/dc/dcmitype/StillImage" /></cc:Work></rdf:RDF></metadata><defs
     id="defs1047" /><sodipodi:namedview
     pagecolor="#ffffff"
     bordercolor="#666666"
     borderopacity="1"
     objecttolerance="10"
     gridtolerance="10"
     guidetolerance="10"
     inkscape:pageopacity="0"
     inkscape:pageshadow="2"
     inkscape:window-width="1920"
     inkscape:window-height="1017"
     id="namedview1045"
     showgrid="false"
     inkscape:zoom="1.064382"
     inkscape:cx="37.968676"
     inkscape:cy="128.30499"
     inkscape:window-x="-8"
     inkscape:window-y="-8"
     inkscape:window-maximized="1"
     inkscape:current-layer="Capa_1" /><g
     id="g1012"
     transform="translate(23.834621,0.38442937)"><g
       id="_x38_7_36_"><g
         id="g1009"><path
           d="m 60.859,112.533 c -6.853,0 -6.853,10.646 0,10.646 27.294,0 54.583,0 81.875,0 6.865,0 6.865,-10.646 0,-10.646 -27.292,0 -54.581,0 -81.875,0 z"
           id="path993"
           inkscape:connector-curvature="0" /><path
           d="m 142.734,161.018 c -27.292,0 -54.581,0 -81.875,0 -6.853,0 -6.853,10.633 0,10.633 27.294,0 54.583,0 81.875,0 6.866,-0.001 6.866,-10.633 0,-10.633 z"
           id="path997"
           inkscape:connector-curvature="0" /><path
           d="m 141.17,209.934 c -27.302,0 -54.601,0 -81.89,0 -6.848,0 -6.848,10.633 0,10.633 27.289,0 54.588,0 81.89,0 6.845,-0.001 6.845,-10.633 0,-10.633 z"
           id="path1001"
           inkscape:connector-curvature="0" /><path
           d="M 25.362,58.087 V 256.61 H 178.239 V 85.63 L 149.833,58.087 H 25.362 Z M 165.026,243.393 H 38.585 V 71.305 h 104.443 v 20.97 h 21.988 v 151.118 z"
           id="path1003"
           inkscape:connector-curvature="0" /><polygon
           points="51.204,50.645 64.427,50.645 64.427,40.88 168.875,40.88 168.875,61.85 190.868,61.85 190.868,212.971 185.059,212.971 185.059,226.188 204.086,226.188 204.086,55.205 175.68,27.667 51.204,27.667 "
           id="polygon1005" /><polygon
           points="78.363,0 78.363,22.983 91.581,22.983 91.581,13.218 196.032,13.218 196.032,34.188 218.025,34.188 218.025,185.306 212.221,185.306 212.221,198.523 231.248,198.523 231.248,27.543 202.837,0 "
           id="polygon1007" /></g></g></g><g
     id="g1014" /><g
     id="g1016" /><g
     id="g1018" /><g
     id="g1020" /><g
     id="g1022" /><g
     id="g1024" /><g
     id="g1026" /><g
     id="g1028" /><g
     id="g1030" /><g
     id="g1032" /><g
     id="g1034" /><g
     id="g1036" /><g
     id="g1038" /><g
     id="g1040" /><g
     id="g1042" /><path
     style="fill:#7c0000;fill-opacity:1;stroke-width:0.22266667;stroke:#000000;stroke-opacity:1;stroke-miterlimit:4;stroke-dasharray:none"
     inkscape:connector-curvature="0"
     d="M 3.334399,2.8693533 C 2.526638,3.6013396 1.920813,17.509071 1.920813,33.368766 V 62.16021 h 10.904843 10.702907 l 1.211649,-10.247802 c 1.413586,-11.955769 7.875721,-20.7396 16.559202,-21.959577 l 6.058246,-0.731986 0.605825,42.699177 c 0.403888,23.423552 0,46.359098 -0.605825,50.507018 -1.211649,7.56386 -1.615537,8.05185 -10.097082,8.05185 h -9.08737 v 12.19976 12.19977 h 42.407724 42.407718 v -12.19977 -12.19976 h -10.09708 c -9.693188,0 -9.895128,-0.244 -11.106778,-8.05185 -0.60582,-4.14792 -1.00971,-27.083466 -0.60582,-50.507018 l 0.60582,-42.699177 6.05825,0.731986 c 8.683478,1.219977 15.145608,10.003808 16.559198,21.959577 l 1.21165,10.247802 h 10.90484 10.90484 L 136.81775,32.148789 136.21193,2.3813627 70.378996,1.649377 C 34.231455,1.4053815 4.142175,1.8933722 3.334399,2.8693533 Z"
     id="path855" /></svg>