<?xml version="1.0" encoding="UTF-8" standalone="no"?>
<!-- Generator: Adobe Illustrator 16.0.0, SVG Export Plug-In . SVG Version: 6.00 Build 0)  -->

<svg
   xmlns:dc="http://purl.org/dc/elements/1.1/"
   xmlns:cc="http://creativecommons.org/ns#"
   xmlns:rdf="http://www.w3.org/1999/02/22-rdf-syntax-ns#"
   xmlns:svg="http://www.w3.org/2000/svg"
   xmlns="http://www.w3.org/2000/svg"
   xmlns:sodipodi="http://sodipodi.sourceforge.net/DTD/sodipodi-0.dtd"
   xmlns:inkscape="http://www.inkscape.org/namespaces/inkscape"
   version="1.1"
   id="Capa_1"
   x="0px"
   y="0px"
   width="256.61px"
   height="256.61px"
   viewBox="0 0 256.61 256.61"
   style="enable-background:new 0 0 256.61 256.61;"
   xml:space="preserve"
   sodipodi:docname="documents_acc.svg"
   inkscape:version="0.92.2 (5c3e80d, 2017-08-06)"><metadata
     id="metadata1049"><rdf:RDF><cc:Work
         rdf:about=""><dc:format>image/svg+xml</dc:format><dc:type
           rdf:resource="http://purl.org/dc/dcmitype/StillImage" /></cc:Work></rdf:RDF></metadata><defs
     id="defs1047" /><sodipodi:namedview
     pagecolor="#ffffff"
     bordercolor="#666666"
     borderopacity="1"
     objecttolerance="10"
     gridtolerance="10"
     guidetolerance="10"
     inkscape:pageopacity="0"
     inkscape:pageshadow="2"
     inkscape:window-width="1920"
     inkscape:window-height="1017"
     id="namedview1045"
     showgrid="false"
     inkscape:zoom="2.128764"
     inkscape:cx="107.16596"
     inkscape:cy="128.30499"
     inkscape:window-x="-8"
     inkscape:window-y="-8"
     inkscape:window-maximized="1"
     inkscape:current-layer="Capa_1" /><g
     id="g1012"
     transform="translate(23.834621,0.38442937)"><g
       id="_x38_7_36_"><g
         id="g1009"><path
           d="m 60.859,112.533 c -6.853,0 -6.853,10.646 0,10.646 27.294,0 54.583,0 81.875,0 6.865,0 6.865,-10.646 0,-10.646 -27.292,0 -54.581,0 -81.875,0 z"
           id="path993"
           inkscape:connector-curvature="0" /><path
           d="m 142.734,161.018 c -27.292,0 -54.581,0 -81.875,0 -6.853,0 -6.853,10.633 0,10.633 27.294,0 54.583,0 81.875,0 6.866,-0.001 6.866,-10.633 0,-10.633 z"
           id="path997"
           inkscape:connector-curvature="0" /><path
           d="m 141.17,209.934 c -27.302,0 -54.601,0 -81.89,0 -6.848,0 -6.848,10.633 0,10.633 27.289,0 54.588,0 81.89,0 6.845,-0.001 6.845,-10.633 0,-10.633 z"
           id="path1001"
           inkscape:connector-curvature="0" /><path
           d="M 25.362,58.087 V 256.61 H 178.239 V 85.63 L 149.833,58.087 H 25.362 Z M 165.026,243.393 H 38.585 V 71.305 h 104.443 v 20.97 h 21.988 v 151.118 z"
           id="path1003"
           inkscape:connector-curvature="0" /><polygon
           points="51.204,50.645 64.427,50.645 64.427,40.88 168.875,40.88 168.875,61.85 190.868,61.85 190.868,212.971 185.059,212.971 185.059,226.188 204.086,226.188 204.086,55.205 175.68,27.667 51.204,27.667 "
           id="polygon1005" /><polygon
           points="78.363,0 78.363,22.983 91.581,22.983 91.581,13.218 196.032,13.218 196.032,34.188 218.025,34.188 218.025,185.306 212.221,185.306 212.221,198.523 231.248,198.523 231.248,27.543 202.837,0 "
           id="polygon1007" /></g></g></g><g
     id="g1014" /><g
     id="g1016" /><g
     id="g1018" /><g
     id="g1020" /><g
     id="g1022" /><g
     id="g1024" /><g
     id="g1026" /><g
     id="g1028" /><g
     id="g1030" /><g
     id="g1032" /><g
     id="g1034" /><g
     id="g1036" /><g
     id="g1038" /><g
     id="g1040" /><g
     id="g1042" /><path
     style="fill:#7c0000;fill-opacity:1;stroke-width:0.245794"
     inkscape:connector-curvature="0"
     d="M 40.99269,84.481595 C 30.695914,120.91778 20.39913,153.3055 18.160706,156.00446 c -2.238424,2.96889 -6.491452,5.39797 -9.401406,5.39797 -5.1483943,0 -5.596069,1.07958 -5.596069,13.49487 v 13.49488 H 35.620458 68.077693 V 174.8973 161.40243 h -7.834507 c -8.506031,0 -9.401405,-2.15919 -5.37223,-15.92397 l 2.462274,-8.36682 h 17.459753 17.459753 l 2.462272,8.36682 c 4.029173,14.03469 3.357643,15.92397 -6.491447,15.92397 h -8.953719 v 13.49487 13.49488 h 43.649388 43.64939 V 174.8973 161.40243 h -7.83452 c -10.07293,0 -10.07293,-0.2699 -30.2188,-79.080016 L 112.17476,18.356679 H 85.985131 59.7955 Z m 38.053309,1.349486 c 1.566902,6.747445 3.357645,14.304569 3.805329,16.733649 1.119217,4.04847 -0.223842,4.85816 -7.834502,4.85816 -5.14839,0 -9.177565,-0.80969 -9.177565,-1.61939 0,-5.937737 7.834506,-35.62648 8.953722,-34.007095 0.895371,1.079592 2.686116,7.287237 4.253016,14.034676 z"
     id="path821" /></svg>