<?xml version="1.0" encoding="UTF-8" standalone="no"?>
<!-- Generator: Adobe Illustrator 16.0.0, SVG Export Plug-In . SVG Version: 6.00 Build 0)  -->

<svg
   xmlns:dc="http://purl.org/dc/elements/1.1/"
   xmlns:cc="http://creativecommons.org/ns#"
   xmlns:rdf="http://www.w3.org/1999/02/22-rdf-syntax-ns#"
   xmlns:svg="http://www.w3.org/2000/svg"
   xmlns="http://www.w3.org/2000/svg"
   xmlns:sodipodi="http://sodipodi.sourceforge.net/DTD/sodipodi-0.dtd"
   xmlns:inkscape="http://www.inkscape.org/namespaces/inkscape"
   version="1.1"
   id="Capa_1"
   x="0px"
   y="0px"
   width="256.61px"
   height="256.61px"
   viewBox="0 0 256.61 256.61"
   style="enable-background:new 0 0 256.61 256.61;"
   xml:space="preserve"
   sodipodi:docname="documents_order.svg"
   inkscape:version="0.92.2 (5c3e80d, 2017-08-06)"><metadata
     id="metadata1049"><rdf:RDF><cc:Work
         rdf:about=""><dc:format>image/svg+xml</dc:format><dc:type
           rdf:resource="http://purl.org/dc/dcmitype/StillImage" /></cc:Work></rdf:RDF></metadata><defs
     id="defs1047" /><sodipodi:namedview
     pagecolor="#ffffff"
     bordercolor="#666666"
     borderopacity="1"
     objecttolerance="10"
     gridtolerance="10"
     guidetolerance="10"
     inkscape:pageopacity="0"
     inkscape:pageshadow="2"
     inkscape:window-width="1920"
     inkscape:window-height="1017"
     id="namedview1045"
     showgrid="false"
     inkscape:zoom="2.128764"
     inkscape:cx="-31.22861"
     inkscape:cy="128.30499"
     inkscape:window-x="-8"
     inkscape:window-y="-8"
     inkscape:window-maximized="1"
     inkscape:current-layer="Capa_1" /><g
     id="g1012"
     transform="translate(23.834621,0.38442937)"><g
       id="_x38_7_36_"><g
         id="g1009"><path
           d="m 60.859,112.533 c -6.853,0 -6.853,10.646 0,10.646 27.294,0 54.583,0 81.875,0 6.865,0 6.865,-10.646 0,-10.646 -27.292,0 -54.581,0 -81.875,0 z"
           id="path993"
           inkscape:connector-curvature="0" /><path
           d="m 142.734,161.018 c -27.292,0 -54.581,0 -81.875,0 -6.853,0 -6.853,10.633 0,10.633 27.294,0 54.583,0 81.875,0 6.866,-0.001 6.866,-10.633 0,-10.633 z"
           id="path997"
           inkscape:connector-curvature="0" /><path
           d="m 141.17,209.934 c -27.302,0 -54.601,0 -81.89,0 -6.848,0 -6.848,10.633 0,10.633 27.289,0 54.588,0 81.89,0 6.845,-0.001 6.845,-10.633 0,-10.633 z"
           id="path1001"
           inkscape:connector-curvature="0" /><path
           d="M 25.362,58.087 V 256.61 H 178.239 V 85.63 L 149.833,58.087 H 25.362 Z M 165.026,243.393 H 38.585 V 71.305 h 104.443 v 20.97 h 21.988 v 151.118 z"
           id="path1003"
           inkscape:connector-curvature="0" /><polygon
           points="51.204,50.645 64.427,50.645 64.427,40.88 168.875,40.88 168.875,61.85 190.868,61.85 190.868,212.971 185.059,212.971 185.059,226.188 204.086,226.188 204.086,55.205 175.68,27.667 51.204,27.667 "
           id="polygon1005" /><polygon
           points="78.363,0 78.363,22.983 91.581,22.983 91.581,13.218 196.032,13.218 196.032,34.188 218.025,34.188 218.025,185.306 212.221,185.306 212.221,198.523 231.248,198.523 231.248,27.543 202.837,0 "
           id="polygon1007" /></g></g></g><g
     id="g1014" /><g
     id="g1016" /><g
     id="g1018" /><g
     id="g1020" /><g
     id="g1022" /><g
     id="g1024" /><g
     id="g1026" /><g
     id="g1028" /><g
     id="g1030" /><g
     id="g1032" /><g
     id="g1034" /><g
     id="g1036" /><g
     id="g1038" /><g
     id="g1040" /><g
     id="g1042" /><path
     style="fill:#7c0000;fill-opacity:1;stroke-width:0.23066667;stroke:#000000;stroke-opacity:1;stroke-miterlimit:4;stroke-dasharray:none"
     inkscape:connector-curvature="0"
     d="M 64.67415,2.4444023 C 38.140152,6.0226467 17.134067,21.289817 6.2993564,45.144772 2.0981295,54.209664 1.4347795,59.934855 1.2136684,80.927216 c 0,22.662214 0.6633499,26.240464 5.9701488,37.213744 14.3725878,29.3416 40.4643448,42.93892 78.9386418,41.03052 34.715321,-1.90839 54.173591,-13.83587 66.998341,-41.74618 6.19126,-13.59732 7.07573,-17.891219 7.07573,-35.066787 0,-24.332061 -4.86457,-40.31488 -16.58373,-54.8664 C 133.44142,15.08752 115.53096,5.0684352 100.27392,3.1600505 94.524896,2.4444023 87.228047,1.728753 84.132409,1.2516479 81.03677,1.0131037 72.413221,1.4901921 64.67415,2.4444023 Z M 94.303769,33.69439 c 6.854631,6.679401 9.729141,20.038169 9.729141,45.801528 0,39.837792 -6.412391,53.912222 -24.32284,53.912222 -10.17136,0 -18.794909,-9.30344 -21.448308,-23.37787 C 54.945012,93.093241 56.271712,56.833716 60.69405,44.429123 66.885311,26.776463 82.142359,21.766922 94.303769,33.69439 Z"
     id="path845" /></svg>