<?xml version="1.0" encoding="iso-8859-1"?>
<!-- Generator: Adobe Illustrator 18.1.1, SVG Export Plug-In . SVG Version: 6.00 Build 0)  -->
<svg version="1.1" id="Capa_1" xmlns="http://www.w3.org/2000/svg" xmlns:xlink="http://www.w3.org/1999/xlink" x="0px" y="0px"
	 viewBox="0 0 25.525 25.525" style="enable-background:new 0 0 25.525 25.525;" xml:space="preserve">
<g>
	
		<path d="M8.602,15.186l-1.466,5.119l5.12-1.465l9.878-9.877l-3.653-3.655L8.602,15.186z M18.979,7.539
			c0.217,0.217,0.217,0.571,0,0.787l-7.723,7.722c-0.217,0.217-0.57,0.217-0.786,0c-0.217-0.217-0.217-0.57,0-0.787l7.721-7.722
			C18.409,7.323,18.764,7.323,18.979,7.539z M25.525,5.552l-2.416,2.417l-3.646-3.645l2.418-2.417L25.525,5.552z M15.471,17.891
			l1.813-1.813v7.539H0V6.563l5.122-4.35h12.163v2.288l-1.813,1.844V3.744H7.064v4.487H1.811v13.856H15.47L15.471,17.891
			L15.471,17.891z"/>
	
</g>
<g>
</g>
<g>
</g>
<g>
</g>
<g>
</g>
<g>
</g>
<g>
</g>
<g>
</g>
<g>
</g>
<g>
</g>
<g>
</g>
<g>
</g>
<g>
</g>
<g>
</g>
<g>
</g>
<g>
</g>
</svg>
