<?xml version="1.0" encoding="iso-8859-1"?>
<!-- Generator: Adobe Illustrator 16.0.0, SVG Export Plug-In . SVG Version: 6.00 Build 0)  -->
<!DOCTYPE svg PUBLIC "-//W3C//DTD SVG 1.1//EN" "http://www.w3.org/Graphics/SVG/1.1/DTD/svg11.dtd">
<svg version="1.1" id="Capa_1" xmlns="http://www.w3.org/2000/svg" xmlns:xlink="http://www.w3.org/1999/xlink" x="0px" y="0px"
	 width="507.177px" height="507.177px" viewBox="0 0 507.177 507.177" style="enable-background:new 0 0 507.177 507.177;"
	 xml:space="preserve">
<g>
	<path d="M382.237,420.524c11.278,0,24.519-7.294,29.342-17.236l93.815-177.539c5.615-10.802-2.548-17.239-17.236-17.239H393.42
		v-42.421c0-14.641-11.91-26.551-26.551-26.551H134.943l-17.207-45.167c-1.791-4.69-6.289-7.793-11.313-7.793H12.335
		c-3.218,0-6.312,1.283-8.588,3.57c-2.27,2.288-3.535,5.379-3.517,8.606l0.23,67.335L0,394.049C0,408.69,11.913,420.6,26.554,420.6
		 M369.209,208.516H162.634c-9.522,0-18.527,7.696-23.291,17.239L54.994,396.39H26.554c-1.289,0-2.344-1.052-2.344-2.341V166.024
		l-0.012-55.23h73.884l17.209,45.164c1.791,4.69,6.286,7.796,11.31,7.796H366.87c1.288,0,2.34,1.052,2.34,2.341V208.516z"/>
</g>
<g>
</g>
<g>
</g>
<g>
</g>
<g>
</g>
<g>
</g>
<g>
</g>
<g>
</g>
<g>
</g>
<g>
</g>
<g>
</g>
<g>
</g>
<g>
</g>
<g>
</g>
<g>
</g>
<g>
</g>
</svg>
