<?xml version="1.0" encoding="utf-8"?>
<!-- Generator: Adobe Illustrator 19.1.0, SVG Export Plug-In . SVG Version: 6.00 Build 0)  -->
<svg version="1.1" id="Layer_1" xmlns="http://www.w3.org/2000/svg" xmlns:xlink="http://www.w3.org/1999/xlink" x="0px" y="0px"
	 viewBox="0 0 64 64" enable-background="new 0 0 64 64" xml:space="preserve">
<path id="Folder-open" d="M63.3723412,25.6000996c-0.6543007-0.9403992-1.7304001-1.5028992-2.877903-1.5028992h-6.2128983
	v-2.7520008c0-2.5429993-2.0693016-4.6112995-4.6133003-4.6112995H26.5403404v-2.1787004
	c0-1.6728992-0.6787014-3.3114996-1.8623009-4.4960995c-1.1835995-1.1826-2.8223-1.8613005-4.4951-1.8613005H4.2366395
	c-2.336,0-4.2364001,1.9003-4.2364001,4.2363005v38.5878983c0,2.2423019,1.6084,4.1114998,3.7309,4.5242004
	c0.4443998,0.1665993,0.9203,0.2560005,1.4077997,0.2560005H48.089138c0.5276031,0,1.0423012-0.0681,1.5486031-0.1669006h0.0304985
	c0.1590996,0,0.3040009-0.0449982,0.4375-0.1109009c2.5597992-0.6592979,4.7182007-2.5197983,5.6621017-5.0668983
	l8.0136986-21.6366997C64.1799393,27.7446003,64.0266418,26.5405006,63.3723412,25.6000996z M4.2366395,10.1977997h15.9463005
	c1.1464996,0,2.2695007,0.4647999,3.0809994,1.2753c0.8106003,0.8116007,1.2764015,1.9356003,1.2764015,3.0820999v3.1787004
	c0,0.5527,0.4473,1,1,1h24.1278992c1.4413986,0,2.6133003,1.1718998,2.6133003,2.6112995v2.7520008H13.5676394
	c-1.4667997,0-2.7938995,0.9237995-3.3007002,2.2978001L2.0002396,48.7131996V12.4341002
	C2.0002396,11.2006998,3.0032396,10.1977997,4.2366395,10.1977997z M61.9065399,28.1254997l-8.0136986,21.6366997
	c-0.7358017,1.9860001-2.4468002,3.4191017-4.4609032,3.8731003H4.6116395c-0.1128001,0-0.2202997-0.0194016-0.3294001-0.0334015
	c-0.3133998-0.148098-0.5909998-0.3694-0.7945998-0.6619987c-0.3760002-0.5410004-0.4639001-1.2313995-0.2364001-1.847599
	l8.8915997-24.0029011c0.2188005-0.5937996,0.7910004-0.9921989,1.4247999-0.9921989h46.9267998
	c0.4932022,0,0.955101,0.2411995,1.2363014,0.6455002C62.0120392,27.1469994,62.0774384,27.6636009,61.9065399,28.1254997z"/>
<g>
</g>
<g>
</g>
<g>
</g>
<g>
</g>
<g>
</g>
<g>
</g>
<g>
</g>
<g>
</g>
<g>
</g>
<g>
</g>
<g>
</g>
<g>
</g>
<g>
</g>
<g>
</g>
<g>
</g>
</svg>
