<?xml version="1.0" encoding="iso-8859-1"?>
<!-- Generator: Adobe Illustrator 19.0.0, SVG Export Plug-In . SVG Version: 6.00 Build 0)  -->
<svg version="1.1" id="Capa_1" xmlns="http://www.w3.org/2000/svg" xmlns:xlink="http://www.w3.org/1999/xlink" x="0px" y="0px"
	 viewBox="0 0 512 512" style="enable-background:new 0 0 512 512;" xml:space="preserve">
<g>
	<g>
		<rect x="76" y="132" width="360" height="138"/>
	</g>
</g>
<g>
	<g>
		<path d="M482,302v13h-21v-25H51v25H30v-13H0v56h30v-13h21v25h17.927c8.628-28.881,35.424-50,67.073-50s58.445,21.119,67.073,50
			h105.853c8.628-28.881,35.424-50,67.073-50s58.445,21.119,67.073,50H461v-25h21v13h30v-56H482z"/>
	</g>
</g>
<g>
	<g>
		<path d="M136,340c-27.57,0-50,22.43-50,50s22.43,50,50,50s50-22.43,50-50S163.57,340,136,340z"/>
	</g>
</g>
<g>
	<g>
		<path d="M376,340c-27.57,0-50,22.43-50,50s22.43,50,50,50s50-22.43,50-50S403.57,340,376,340z"/>
	</g>
</g>
<g>
	<g>
		<path d="M256,72c-46,0-89.844,14.008-126.657,40h253.313C345.844,86.008,302,72,256,72z"/>
	</g>
</g>
<g>
</g>
<g>
</g>
<g>
</g>
<g>
</g>
<g>
</g>
<g>
</g>
<g>
</g>
<g>
</g>
<g>
</g>
<g>
</g>
<g>
</g>
<g>
</g>
<g>
</g>
<g>
</g>
<g>
</g>
</svg>
