<?xml version="1.0" encoding="iso-8859-1"?>
<!-- Generator: Adobe Illustrator 17.1.0, SVG Export Plug-In . SVG Version: 6.00 Build 0)  -->
<!DOCTYPE svg PUBLIC "-//W3C//DTD SVG 1.1//EN" "http://www.w3.org/Graphics/SVG/1.1/DTD/svg11.dtd">
<svg version="1.1" id="Capa_1" xmlns="http://www.w3.org/2000/svg" xmlns:xlink="http://www.w3.org/1999/xlink" x="0px" y="0px"
	 viewBox="0 0 459.378 459.378" style="enable-background:new 0 0 459.378 459.378;" xml:space="preserve">
<g>
	<path d="M192.186,259.367h52.232c8.271,0,15-6.729,15-15v-19.873c0-8.271-6.728-15-15-15h-52.232c-8.271,0-15,6.729-15,15v19.873
		C177.186,252.638,183.915,259.367,192.186,259.367z"/>
	<path d="M285.17,209.494c-8.271,0-15,6.729-15,15v19.873c0,8.271,6.729,15,15,15h52.232c8.271,0,15-6.729,15-15v-19.873
		c0-8.271-6.729-15-15-15H285.17z"/>
	<path d="M363.155,224.494v19.873c0,8.271,6.729,15,15,15h52.232c8.271,0,15-6.729,15-15v-19.873c0-8.271-6.729-15-15-15h-52.232
		C369.883,209.494,363.155,216.222,363.155,224.494z"/>
	<path d="M285.17,143.503h52.232c8.271,0,15-6.729,15-15v-19.873c0-8.271-6.729-15-15-15H285.17c-8.271,0-15,6.729-15,15v19.873
		C270.17,136.774,276.899,143.503,285.17,143.503z"/>
	<path d="M238.678,201.435h52.232c8.271,0,15-6.729,15-15v-19.873c0-8.271-6.729-15-15-15h-52.232c-8.271,0-15,6.729-15,15v19.873
		C223.678,194.707,230.407,201.435,238.678,201.435z"/>
	<path d="M316.663,166.562v19.873c0,8.271,6.729,15,15,15h52.232c8.272,0,15-6.729,15-15v-19.873c0-8.271-6.728-15-15-15h-52.232
		C323.391,151.562,316.663,158.291,316.663,166.562z"/>
	<path d="M441.227,274.004H169.048c-2.958,0-4.585-0.645-5.121-1.248c-0.174-0.196-0.241-0.409-0.268-0.554v-147.39l-0.156-0.609
		c-1.712-6.697-7.723-11.375-14.616-11.375h-7.767c-5.511,0-10.021-0.056-10.096-0.057H83.424c-14.224,0-20.401,8.142-24.918,16.863
		C52.518,140.715,0,238.47,0,258.309v36.557c0,13.366,10.875,24.24,24.242,24.24h20.666c-0.026,0.618-0.047,1.238-0.047,1.862
		c0,24.692,20.087,44.78,44.777,44.78s44.777-20.088,44.777-44.78c0-0.624-0.022-1.244-0.047-1.862h97.98
		c-0.026,0.618-0.047,1.238-0.047,1.862c0,24.692,20.088,44.78,44.779,44.78c24.689,0,44.776-20.088,44.776-44.78
		c0-0.624-0.022-1.244-0.047-1.862h0.947c-0.026,0.618-0.047,1.238-0.047,1.862c0,24.692,20.088,44.78,44.779,44.78
		c24.689,0,44.776-20.088,44.776-44.78c0-0.624-0.022-1.244-0.047-1.862h29.008c10.179,0,18.151-6.183,18.151-14.075v-16.952
		C459.378,280.186,451.405,274.004,441.227,274.004z M89.638,342.439c-11.857,0-21.47-9.613-21.47-21.47
		c0-11.857,9.613-21.468,21.47-21.468c11.857,0,21.47,9.611,21.47,21.468C111.108,332.826,101.495,342.439,89.638,342.439z
		 M137.484,153.748c-0.109,2.143-0.223,4.358-0.223,6.422v46.031c0,5.732-4.662,10.394-10.393,10.394H54.604
		c-2.197,0-3.327-0.484-3.651-0.938c-0.471-0.657-0.621-2.593,0.502-5.881c8.326-24.372,21.055-55.257,23.979-61.23
		c5.633-11.509,12.05-12.398,20.501-12.398h35.091c3.243,0,4.256,1.065,4.589,1.416
		C138.172,140.255,137.791,147.737,137.484,153.748z M277.081,342.439c-11.857,0-21.468-9.613-21.468-21.47
		c0-11.857,9.612-21.468,21.468-21.468c11.857,0,21.469,9.611,21.469,21.468C298.55,332.826,288.938,342.439,277.081,342.439z
		 M367.489,342.439c-11.857,0-21.469-9.613-21.469-21.47c0-11.857,9.612-21.468,21.469-21.468c11.857,0,21.468,9.611,21.468,21.468
		C388.957,332.826,379.346,342.439,367.489,342.439z"/>
</g>
<g>
</g>
<g>
</g>
<g>
</g>
<g>
</g>
<g>
</g>
<g>
</g>
<g>
</g>
<g>
</g>
<g>
</g>
<g>
</g>
<g>
</g>
<g>
</g>
<g>
</g>
<g>
</g>
<g>
</g>
</svg>
