<svg id="_x31_px" enable-background="new 0 0 24 24" height="512" viewBox="0 0 24 24" width="512" xmlns="http://www.w3.org/2000/svg"><path d="m2 17.84c-.117 0-.235-.041-.33-.125-1.062-.934-1.67-2.288-1.67-3.715 0-2.642 2.059-4.812 4.656-4.988.692-3.455 3.777-6.012 7.344-6.012 2.801 0 5.381 1.578 6.653 4.044 3.022.317 5.347 2.878 5.347 5.956 0 1.539-.585 3.004-1.646 4.124-.191.2-.506.208-.707.02-.2-.19-.209-.507-.02-.707.886-.934 1.373-2.155 1.373-3.437 0-2.647-2.063-4.835-4.697-4.981-.185-.01-.348-.12-.426-.288-1.058-2.266-3.364-3.731-5.877-3.731-3.215 0-5.978 2.395-6.425 5.569-.035.247-.246.431-.495.431-2.286 0-4.08 1.794-4.08 4 0 1.14.485 2.221 1.33 2.965.208.182.228.498.045.705-.099.112-.236.17-.375.17z"/><path d="m5 21c-.276 0-.5-.224-.5-.5v-4c0-.827.673-1.5 1.5-1.5h2c.276 0 .5.224.5.5s-.224.5-.5.5h-2c-.275 0-.5.225-.5.5v4c0 .276-.224.5-.5.5z"/><path d="m16 21c-.276 0-.5-.224-.5-.5v-5c0-.276.224-.5.5-.5h1.5c1.103 0 2 .897 2 2s-.897 2-2 2h-1v1.5c0 .276-.224.5-.5.5zm.5-3h1c.552 0 1-.448 1-1s-.448-1-1-1h-1z"/><path d="m8 19h-3c-.276 0-.5-.224-.5-.5s.224-.5.5-.5h3c.276 0 .5.224.5.5s-.224.5-.5.5z"/><path d="m12 21c-.276 0-.5-.224-.5-.5v-5c0-.276.224-.5.5-.5s.5.224.5.5v5c0 .276-.224.5-.5.5z"/><path d="m14 16h-4c-.276 0-.5-.224-.5-.5s.224-.5.5-.5h4c.276 0 .5.224.5.5s-.224.5-.5.5z"/></svg>