<?xml version="1.0" standalone="no"?>
<!DOCTYPE svg PUBLIC "-//W3C//DTD SVG 20010904//EN"
 "http://www.w3.org/TR/2001/REC-SVG-20010904/DTD/svg10.dtd">
<svg version="1.0" xmlns="http://www.w3.org/2000/svg"
 width="1182.000000pt" height="1280.000000pt" viewBox="0 0 1182.000000 1280.000000"
 preserveAspectRatio="xMidYMid meet">
<metadata>
Created by potrace 1.15, written by Peter Selinger 2001-2017
</metadata>
<g transform="translate(0.000000,1280.000000) scale(0.100000,-0.100000)"
fill="#000000" stroke="none">
<path d="M3480 12794 c-211 -36 -277 -85 -330 -244 -29 -87 -36 -271 -21 -518
20 -302 19 -303 -247 -361 -66 -15 -151 -47 -295 -112 -198 -90 -323 -139
-351 -139 -8 0 -67 62 -132 138 -390 456 -569 527 -818 325 -32 -27 -132 -129
-222 -227 -200 -219 -237 -281 -237 -400 0 -140 75 -250 354 -519 l170 -164
-60 -94 c-113 -174 -229 -434 -306 -691 -17 -55 -36 -95 -52 -110 l-25 -23
-306 -1 c-253 0 -315 -3 -354 -16 -147 -49 -212 -135 -238 -317 -15 -100 -7
-511 11 -586 30 -128 92 -211 190 -257 102 -48 143 -53 468 -53 l303 0 24 -83
c61 -211 205 -515 309 -654 100 -132 110 -109 -169 -383 -319 -314 -341 -344
-341 -485 0 -76 3 -90 30 -137 51 -88 151 -207 284 -335 200 -195 304 -260
410 -259 134 0 237 69 444 296 56 61 156 168 223 238 l122 128 99 -49 c177
-89 407 -170 650 -232 22 -6 51 -18 63 -28 l22 -17 -11 -222 c-29 -589 -11
-729 103 -830 62 -55 147 -81 303 -94 137 -11 454 2 551 23 168 36 262 177
281 420 9 103 1 326 -20 576 -10 122 -9 135 7 153 10 11 74 37 148 60 204 63
308 104 485 190 l165 80 45 -53 c105 -120 353 -388 417 -449 181 -173 343
-218 495 -138 62 33 285 228 397 347 199 211 229 351 115 532 -41 65 -228 251
-405 404 -70 61 -132 122 -139 138 -16 39 -6 68 70 198 112 194 178 335 235
508 16 45 39 96 52 111 56 67 154 80 429 56 307 -26 428 -8 521 77 86 79 116
218 116 543 -1 224 -15 329 -58 424 -14 33 -38 70 -52 84 -41 40 -134 77 -230
94 -87 15 -112 15 -507 -2 -186 -8 -207 9 -256 205 -34 136 -37 141 -157 370
-44 85 -89 183 -98 217 -28 103 -21 115 167 287 177 164 266 268 313 366 27
57 31 76 31 151 0 132 -33 191 -233 410 -245 268 -325 324 -463 324 -67 0 -83
-4 -150 -37 -103 -52 -193 -133 -363 -323 -80 -90 -161 -175 -178 -188 -69
-51 -111 -44 -262 47 -63 37 -132 68 -208 92 -62 19 -158 50 -212 67 -110 35
-189 78 -219 119 -19 25 -19 33 -7 248 14 233 9 381 -14 467 -47 177 -138 267
-299 298 -70 13 -525 28 -577 19z m465 -2700 c331 -54 621 -257 757 -529 75
-150 102 -272 102 -465 1 -219 -33 -354 -133 -524 -140 -239 -406 -414 -726
-477 -101 -20 -377 -18 -483 4 -389 80 -687 325 -792 653 -43 136 -53 217 -47
394 4 128 9 170 31 243 97 325 339 562 681 665 199 61 388 72 610 36z"/>
<path d="M7505 7440 c-22 -5 -107 -20 -190 -35 -412 -71 -533 -152 -551 -368
-10 -119 11 -241 92 -525 49 -169 54 -230 25 -279 -19 -31 -46 -46 -213 -121
-37 -17 -146 -89 -245 -163 -210 -157 -289 -209 -315 -209 -10 0 -81 47 -157
104 -315 238 -448 306 -599 306 -104 0 -199 -60 -287 -184 -60 -85 -222 -357
-261 -441 -65 -135 -60 -259 13 -363 54 -78 166 -165 393 -307 106 -66 197
-123 202 -126 6 -4 -4 -46 -26 -104 -76 -202 -123 -419 -150 -694 -16 -162
-26 -185 -91 -208 -22 -8 -123 -29 -225 -48 -290 -55 -377 -84 -453 -154 -106
-98 -119 -241 -51 -531 14 -58 34 -143 45 -190 30 -125 87 -238 149 -293 72
-65 129 -82 265 -81 114 2 189 15 495 88 79 19 145 34 146 33 140 -270 332
-523 522 -687 84 -73 89 -56 -139 -397 -152 -226 -197 -305 -219 -386 -16 -60
-8 -151 18 -203 67 -130 443 -395 689 -484 107 -39 203 -19 305 61 57 45 138
160 252 356 85 146 219 366 232 382 2 2 38 -6 81 -17 189 -51 380 -79 606 -91
200 -10 201 -11 211 -109 11 -104 104 -599 127 -677 42 -139 96 -217 183 -263
47 -25 60 -27 171 -26 139 0 256 22 494 90 180 52 219 70 277 130 69 72 88
133 88 289 -1 116 -4 146 -37 275 -20 80 -60 222 -88 315 -28 94 -53 182 -56
196 -6 34 25 60 154 129 127 69 326 201 431 287 46 37 94 77 107 87 l24 19
213 -154 c355 -255 434 -302 566 -334 128 -31 238 2 333 102 55 57 269 367
316 458 108 210 98 332 -39 469 -73 72 -173 139 -383 256 -231 128 -261 147
-273 175 -17 37 -16 42 23 157 65 189 104 357 130 558 17 131 31 166 77 200
58 43 131 61 379 95 98 13 198 29 221 35 183 48 271 120 299 247 35 154 -67
649 -169 823 -104 177 -274 194 -721 69 -284 -79 -309 -73 -397 103 -66 133
-98 179 -214 313 -116 132 -167 208 -186 271 -19 67 -15 76 115 259 206 288
268 435 241 575 -23 123 -97 204 -340 374 -243 169 -338 216 -446 216 -165 0
-278 -112 -494 -492 -129 -226 -150 -248 -228 -248 -25 0 -99 17 -166 39 -108
35 -142 41 -311 55 -237 20 -316 37 -361 80 -33 30 -34 34 -60 206 -53 364
-99 502 -201 611 -67 72 -133 101 -241 105 -48 2 -105 -1 -127 -6z m821 -2656
c219 -39 408 -142 556 -303 174 -191 269 -473 255 -756 -7 -128 -32 -233 -81
-339 -149 -324 -495 -562 -893 -616 -127 -17 -364 -8 -463 19 -313 83 -528
259 -656 537 -96 206 -124 501 -68 708 52 192 183 384 346 509 285 217 649
305 1004 241z"/>
</g>
</svg>
