<?xml version="1.0" encoding="UTF-8" standalone="no"?>
<svg
   xmlns:dc="http://purl.org/dc/elements/1.1/"
   xmlns:cc="http://creativecommons.org/ns#"
   xmlns:rdf="http://www.w3.org/1999/02/22-rdf-syntax-ns#"
   xmlns:svg="http://www.w3.org/2000/svg"
   xmlns="http://www.w3.org/2000/svg"
   xmlns:sodipodi="http://sodipodi.sourceforge.net/DTD/sodipodi-0.dtd"
   xmlns:inkscape="http://www.inkscape.org/namespaces/inkscape"
   width="512"
   height="512"
   viewBox="0 0 512 512"
   version="1.1"
   id="svg825"
   sodipodi:docname="generic_server_unavailable.svg"
   inkscape:version="0.92.4 (5da689c313, 2019-01-14)">
  <metadata
     id="metadata831">
    <rdf:RDF>
      <cc:Work
         rdf:about="">
        <dc:format>image/svg+xml</dc:format>
        <dc:type
           rdf:resource="http://purl.org/dc/dcmitype/StillImage" />
      </cc:Work>
    </rdf:RDF>
  </metadata>
  <defs
     id="defs829" />
  <sodipodi:namedview
     pagecolor="#ffffff"
     bordercolor="#666666"
     borderopacity="1"
     objecttolerance="10"
     gridtolerance="10"
     guidetolerance="10"
     inkscape:pageopacity="0"
     inkscape:pageshadow="2"
     inkscape:window-width="1920"
     inkscape:window-height="1017"
     id="namedview827"
     showgrid="false"
     inkscape:zoom="1.6015625"
     inkscape:cx="256"
     inkscape:cy="256"
     inkscape:window-x="-8"
     inkscape:window-y="-8"
     inkscape:window-maximized="1"
     inkscape:current-layer="svg825" />
  <title
     id="title815">ionicons-v5-l</title>
  <ellipse
     cx="256"
     cy="128"
     rx="192"
     ry="80"
     style="fill:none;stroke:#000;stroke-linecap:round;stroke-miterlimit:10;stroke-width:32px"
     id="ellipse817" />
  <path
     d="M448,214c0,44.18-86,80-192,80S64,258.18,64,214"
     style="fill:none;stroke:#000;stroke-linecap:round;stroke-miterlimit:10;stroke-width:32px"
     id="path819" />
  <path
     d="M448,300c0,44.18-86,80-192,80S64,344.18,64,300"
     style="fill:none;stroke:#000;stroke-linecap:round;stroke-miterlimit:10;stroke-width:32px"
     id="path821" />
  <path
     d="M64,127.24V384.76C64,428.52,150,464,256,464s192-35.48,192-79.24V127.24"
     style="fill:none;stroke:#000;stroke-linecap:round;stroke-miterlimit:10;stroke-width:32px"
     id="path823" />
  <polygon
     transform="matrix(18.126242,0,0,18.269758,78.675038,87.093903)"
     points="20.212,9.486 22.957,12.231 19.178,16.01 22.957,19.794 20.212,22.538 16.433,18.759 12.649,22.538 9.905,19.794 13.685,16.01 9.905,12.231 12.649,9.486 16.433,13.266 "
     id="polygon2461"
     style="fill:#e30000;fill-opacity:1;stroke-width:0.05495152" />
</svg>
