<?xml version="1.0" encoding="iso-8859-1"?>
<!-- Generator: Adobe Illustrator 19.0.0, SVG Export Plug-In . SVG Version: 6.00 Build 0)  -->
<svg version="1.1" id="Capa_1" xmlns="http://www.w3.org/2000/svg" xmlns:xlink="http://www.w3.org/1999/xlink" x="0px" y="0px"
	 viewBox="0 0 64 64" style="enable-background:new 0 0 64 64;" xml:space="preserve">
<g>
	<path d="M63,57v-6c0-1.302-0.839-2.402-2-2.816V46h-2v2.184c-1.162,0.414-2,1.514-2,2.816v6h-2v-6c0-1.302-0.839-2.402-2-2.816V46
		h-2v2.184c-1.162,0.414-2,1.514-2,2.816v6h-2v-6c0-1.302-0.839-2.402-2-2.816V46h-2v2.184c-1.162,0.414-2,1.514-2,2.816v6h-2v-6
		c0-1.302-0.839-2.402-2-2.816V46h-2v2.184c-1.162,0.414-2,1.514-2,2.816v6h-2v-3v-4c0-0.552-0.448-1-1-1h-7h-7H9H2
		c-0.552,0-1,0.448-1,1v4v3c-0.552,0-1,0.448-1,1v4c0,0.552,0.448,1,1,1h3v1h2v-1h52v1h2v-1h3c0.552,0,1-0.448,1-1v-4
		C64,57.448,63.552,57,63,57z M59,51c0-0.551,0.449-1,1-1s1,0.449,1,1v6h-2V51z M51,51c0-0.551,0.449-1,1-1s1,0.449,1,1v6h-2V51z
		 M43,51c0-0.551,0.449-1,1-1s1,0.449,1,1v6h-2V51z M35,51c0-0.551,0.449-1,1-1s1,0.449,1,1v6h-2V51z M17,57v-2h5v2H17z M10,57v-2h5
		v2H10z M24,55h5v2h-5V55z M29,53h-5v-2h5V53z M22,53h-5v-2h5V53z M15,53h-5v-2h5V53z M3,51h5v2H3V51z M3,55h5v2H3V55z M62,61H2v-2
		h7h7h7h7h4h4h4h4h4h4h4h4V61z"/>
	<path d="M63,38h-1v-5c0-0.266-0.106-0.52-0.294-0.708L61,31.586V28c0-0.552-0.448-1-1-1h-4c-0.552,0-1,0.448-1,1v3.586
		l-0.707,0.706C54.105,32.479,54,32.734,54,33v5h-2v-5c0-0.266-0.106-0.52-0.294-0.708L51,31.586V28c0-0.552-0.448-1-1-1h-4
		c-0.552,0-1,0.448-1,1v3.586l-0.707,0.706C44.105,32.479,44,32.734,44,33v5h-2v-5c0-0.266-0.106-0.52-0.294-0.708L41,31.586V28
		c0-0.552-0.448-1-1-1h-4c-0.552,0-1,0.448-1,1v3.586l-0.707,0.706C34.105,32.479,34,32.734,34,33v5h-8v-4c0-1.103-0.897-2-2-2v-4
		h-2v4c-0.366,0-0.705,0.106-1,0.278C20.705,32.106,20.366,32,20,32v-4h-2v4c-0.366,0-0.705,0.106-1,0.278
		C16.705,32.106,16.366,32,16,32v-4h-2v4c-0.366,0-0.705,0.106-1,0.278C12.705,32.106,12.366,32,12,32v-4h-2v4c-1.103,0-2,0.897-2,2
		v4H1c-0.552,0-1,0.448-1,1v4c0,0.552,0.448,1,1,1h62c0.552,0,1-0.448,1-1v-4C64,38.448,63.552,38,63,38z M56,33.414l0.706-0.706
		C56.894,32.521,57,32.266,57,32v-3h2v3c0,0.266,0.105,0.52,0.293,0.708L60,33.414V38h-4V33.414z M46,33.414l0.706-0.706
		C46.894,32.521,47,32.266,47,32v-3h2v3c0,0.266,0.105,0.52,0.293,0.708L50,33.414V38h-4V33.414z M36,33.414l0.706-0.706
		C36.894,32.521,37,32.266,37,32v-3h2v3c0,0.266,0.105,0.52,0.293,0.708L40,33.414V38h-4V33.414z M24,34v4h-2v-4H24z M20,34v4h-2v-4
		H20z M16,34v4h-2v-4H16z M10,34h2v4h-2V34z M62,42H2v-2h7h4h4h4h4h10h6h4h6h4h6h1V42z"/>
	<path d="M63,19h-2V9c0-0.552-0.448-1-1-1h-5h-5h-5c-0.552,0-1,0.448-1,1v10h-7v-7c0-0.552-0.448-1-1-1h-6h-6h-6h-6H6
		c-0.552,0-1,0.448-1,1v7H1c-0.552,0-1,0.448-1,1v4c0,0.552,0.448,1,1,1h62c0.552,0,1-0.448,1-1v-4C64,19.448,63.552,19,63,19z
		 M59,19h-3v-9h3V19z M54,19h-3v-9h3V19z M46,10h3v9h-3V10z M35,19h-4v-6h4V19z M29,19h-4v-6h4V19z M23,19h-4v-6h4V19z M17,19h-4v-6
		h4V19z M7,13h4v6H7V13z M62,23H2v-2h4h6h6h6h6h6h9h5h5h5h2V23z"/>
	<path d="M63,0H1C0.448,0,0,0.448,0,1v4c0,0.552,0.448,1,1,1h62c0.552,0,1-0.448,1-1V1C64,0.448,63.552,0,63,0z M62,4H2V2h60V4z"/>
</g>
<g>
</g>
<g>
</g>
<g>
</g>
<g>
</g>
<g>
</g>
<g>
</g>
<g>
</g>
<g>
</g>
<g>
</g>
<g>
</g>
<g>
</g>
<g>
</g>
<g>
</g>
<g>
</g>
<g>
</g>
</svg>
