<?xml version="1.0" encoding="UTF-8" standalone="no"?>
<svg
   xmlns:dc="http://purl.org/dc/elements/1.1/"
   xmlns:cc="http://creativecommons.org/ns#"
   xmlns:rdf="http://www.w3.org/1999/02/22-rdf-syntax-ns#"
   xmlns:svg="http://www.w3.org/2000/svg"
   xmlns="http://www.w3.org/2000/svg"
   xmlns:sodipodi="http://sodipodi.sourceforge.net/DTD/sodipodi-0.dtd"
   xmlns:inkscape="http://www.inkscape.org/namespaces/inkscape"
   width="20"
   height="20.792259"
   viewBox="0 0 20 20.792259"
   version="1.1"
   id="svg825"
   sodipodi:docname="goodsrest.svg"
   inkscape:version="0.92.2 (5c3e80d, 2017-08-06)"
   style="fill:none">
  <metadata
     id="metadata831">
    <rdf:RDF>
      <cc:Work
         rdf:about="">
        <dc:format>image/svg+xml</dc:format>
        <dc:type
           rdf:resource="http://purl.org/dc/dcmitype/StillImage" />
        <dc:title />
      </cc:Work>
    </rdf:RDF>
  </metadata>
  <defs
     id="defs829" />
  <sodipodi:namedview
     pagecolor="#ffffff"
     bordercolor="#666666"
     borderopacity="1"
     objecttolerance="10"
     gridtolerance="10"
     guidetolerance="10"
     inkscape:pageopacity="0"
     inkscape:pageshadow="2"
     inkscape:window-width="1920"
     inkscape:window-height="1017"
     id="namedview827"
     showgrid="false"
     inkscape:zoom="3.4289258"
     inkscape:cx="-6.6675457"
     inkscape:cy="-1.3292812"
     inkscape:window-x="-8"
     inkscape:window-y="-8"
     inkscape:window-maximized="1"
     inkscape:current-layer="svg825"
     fit-margin-top="0"
     fit-margin-left="0"
     fit-margin-right="0"
     fit-margin-bottom="0" />
  <path
     d="M 4,5 C 4,4.44772 4.44772,4 5,4 h 10 c 0.5523,0 1,0.44772 1,1 0,0.55228 -0.4477,1 -1,1 H 5 C 4.44771,6 4,5.55228 4,5 Z"
     id="path815"
     inkscape:connector-curvature="0"
     style="fill:currentColor" />
  <path
     d="M 4,9 C 4,8.44771 4.44772,8 5,8 h 10 c 0.5523,0 1,0.44771 1,1 0,0.5523 -0.4477,1 -1,1 H 5 C 4.44771,10 4,9.5523 4,9 Z"
     id="path817"
     inkscape:connector-curvature="0"
     style="fill:currentColor" />
  <path
     d="m 5,12 c -0.55228,0 -1,0.4477 -1,1 0,0.5523 0.44771,1 1,1 h 10 c 0.5523,0 1,-0.4477 1,-1 0,-0.5523 -0.4477,-1 -1,-1 z"
     id="path819"
     inkscape:connector-curvature="0"
     style="fill:currentColor" />
  <path
     d="m 4,17 c 0,-0.5523 0.44772,-1 1,-1 h 4 c 0.5523,0 1,0.4477 1,1 0,0.5523 -0.4477,1 -1,1 H 5 C 4.44772,18 4,17.5523 4,17 Z"
     id="path821"
     inkscape:connector-curvature="0"
     style="fill:currentColor" />
  <path
     d="M 0,0.40343 C 0,0.18062 1.34315,0 3,0 h 14 c 1.6569,0 3,0.18062 3,0.40343 v 2.15158 c 0,0.22282 -1.3431,0.40343 -3,0.40343 H 3 c -1.65685,0 -3,-0.18061 -3,-0.40343 z M 3,0.26895 h 14 c 0.5523,0 1,0.0602 1,0.13448 v 2.15158 c 0,0.0743 -0.4477,0.13448 -1,0.13448 H 3 c -0.55228,0 -1,-0.0602 -1,-0.13448 V 0.40343 C 2,0.32913 2.44771,0.26895 3,0.26895 Z"
     id="path823"
     inkscape:connector-curvature="0"
     style="clip-rule:evenodd;fill:currentColor;fill-rule:evenodd;stroke-width:0.36670741" />
  <path
     style="fill:#fffd00;fill-opacity:1;stroke:#000000;stroke-width:0.152;stroke-miterlimit:4;stroke-dasharray:none;stroke-opacity:1"
     inkscape:connector-curvature="0"
     d="M 0.1342725,9.0171104 C 0.0647914,9.0739706 0.01268371,10.154309 0.01268371,11.386275 v 2.236492 H 0.95065642 1.8712598 l 0.1042183,-0.796039 c 0.1215896,-0.928714 0.6774245,-1.611033 1.4243286,-1.7058 l 0.5210966,-0.05685 0.052108,3.31683 c 0.034743,1.819518 0,3.60113 -0.052108,3.923336 -0.1042195,0.587553 -0.1389588,0.62546 -0.8684938,0.62546 H 2.2707661 v 0.947666 0.947665 H 5.9184379 9.5661091 V 19.877361 18.929695 H 8.6976168 c -0.8337537,0 -0.8511244,-0.01895 -0.9553433,-0.62546 -0.052109,-0.322207 -0.086849,-2.103818 -0.052109,-3.923336 l 0.052108,-3.31683 0.5210965,0.05685 c 0.7469042,0.09477 1.3027391,0.777086 1.4243293,1.705799 l 0.1042205,0.79604 h 0.9379712 0.937973 l -0.05211,-2.331251 -0.05211,-2.3123054 -5.662575,-0.05686 C 2.7918625,8.9033855 0.20375222,8.9412946 0.1342725,9.0171104 Z"
     id="path855-7" />
</svg>
