<?xml version="1.0" encoding="iso-8859-1"?>
<!-- Uploaded to: SVG Repo, www.svgrepo.com, Generator: SVG Repo Mixer Tools -->
<!DOCTYPE svg PUBLIC "-//W3C//DTD SVG 1.1//EN" "http://www.w3.org/Graphics/SVG/1.1/DTD/svg11.dtd">
<svg fill="#000000" height="800px" width="800px" version="1.1" id="Capa_1" xmlns="http://www.w3.org/2000/svg" xmlns:xlink="http://www.w3.org/1999/xlink" 
	 viewBox="0 0 297 297" xml:space="preserve">
<path d="M187.144,216.366l4.622-32.482l19.482-12.094c3.263-2.024,5.02-5.786,4.477-9.587l-7.478-52.448
	c-3.053-20.09-20.811-36.466-39.77-36.839c10.833-7.076,18.019-19.339,18.019-33.264C186.496,17.788,168.795,0,147.037,0
	s-39.458,17.788-39.458,39.652c0,13.925,7.186,26.187,18.019,33.264c-18.959,0.375-36.718,16.751-39.781,36.927l-7.466,52.36
	c-0.543,3.801,1.214,7.563,4.476,9.587l19.48,12.094l4.683,32.9c-35.192,5.326-63.97,17.865-63.97,38.605
	C43.019,283.978,97.697,297,148.5,297s105.48-13.022,105.48-41.611C253.981,234.09,223.627,221.438,187.144,216.366z
	 M147.037,19.354c11.086,0,20.104,9.105,20.104,20.298c0,11.192-9.019,20.299-20.104,20.299c-11.085,0-20.104-9.106-20.104-20.299
	C126.934,28.46,135.952,19.354,147.037,19.354z M98.402,158.679l6.561-46.018c1.681-11.063,11.435-20.408,21.298-20.408h41.555
	c9.862,0,19.615,9.346,21.283,20.32l6.573,46.105l-17.953,11.145c-2.435,1.512-4.074,4.023-4.478,6.858l-10.3,72.378
	c-0.005,0.037-0.011,0.075-0.016,0.112c-0.243,1.863-1.899,3.226-2.67,3.226h-26.437c-0.771,0-2.428-1.362-2.671-3.226
	c-0.005-0.037-0.011-0.075-0.016-0.112l-10.302-72.378c-0.403-2.836-2.043-5.347-4.477-6.858L98.402,158.679z M213.183,268.789
	c-17.133,5.712-40.106,8.857-64.683,8.857c-24.577,0-47.549-3.146-64.683-8.857c-16.203-5.4-21.443-11.36-21.443-13.4
	c0-2.04,5.24-8,21.443-13.4c7.604-2.535,16.365-4.559,25.901-6.029l2.246,15.779c1.496,11.227,11.084,20.014,21.854,20.014h26.437
	c10.77,0,20.357-8.785,21.854-20.013l2.305-16.2c10.648,1.496,20.41,3.663,28.769,6.449c16.203,5.4,21.443,11.36,21.443,13.4
	C234.626,257.429,229.386,263.389,213.183,268.789z"/>
</svg>