<?xml version="1.0" encoding="iso-8859-1"?>
<!-- Uploaded to: SVG Repo, www.svgrepo.com, Generator: SVG Repo Mixer Tools -->
<!DOCTYPE svg PUBLIC "-//W3C//DTD SVG 1.1//EN" "http://www.w3.org/Graphics/SVG/1.1/DTD/svg11.dtd">
<svg fill="#000000" height="800px" width="800px" version="1.1" id="Capa_1" xmlns="http://www.w3.org/2000/svg" xmlns:xlink="http://www.w3.org/1999/xlink" 
	 viewBox="0 0 297 297" xml:space="preserve">
<g>
	<path d="M148.5,0C87.431,0,37.747,49.703,37.747,110.797c0,91.026,99.729,179.905,103.975,183.645
		c1.938,1.705,4.357,2.559,6.778,2.559s4.841-0.853,6.778-2.559c4.244-3.739,103.975-92.618,103.975-183.645
		C259.253,49.703,209.569,0,148.5,0z M148.5,272.689c-22.049-21.366-90.243-93.029-90.243-161.892
		c0-49.784,40.483-90.287,90.243-90.287s90.243,40.503,90.243,90.287C238.743,179.659,170.549,251.322,148.5,272.689z"/>
	<path d="M215.744,86.502c-1.207-3.709-4.414-6.412-8.273-6.975l-34.386-5.009L157.7,43.267c-1.726-3.506-5.293-5.726-9.2-5.726
		s-7.475,2.22-9.2,5.726l-15.385,31.252l-34.386,5.009c-3.859,0.563-7.066,3.266-8.273,6.975c-1.208,3.709-0.205,7.782,2.584,10.508
		l24.9,24.333l-5.88,34.36c-0.658,3.849,0.926,7.737,4.086,10.031c3.161,2.292,7.349,2.593,10.804,0.77l30.75-16.208l30.75,16.208
		c1.503,0.792,3.145,1.183,4.78,1.183c2.125,0,4.237-0.658,6.023-1.953c3.16-2.294,4.744-6.183,4.086-10.031l-5.88-34.36
		l24.9-24.333C215.949,94.284,216.951,90.211,215.744,86.502z M170.077,110.434c-2.409,2.355-3.509,5.743-2.94,9.064l3.279,19.167
		l-17.134-9.032c-1.496-0.788-3.14-1.183-4.782-1.183s-3.286,0.395-4.782,1.183l-17.134,9.032l3.278-19.167
		c0.569-3.321-0.53-6.709-2.939-9.064l-13.918-13.6l19.206-2.798c3.343-0.487,6.231-2.589,7.723-5.618l8.566-17.402l8.566,17.402
		c1.491,3.029,4.38,5.131,7.723,5.618l19.206,2.798L170.077,110.434z"/>
</g>
</svg>