<?xml version="1.0" encoding="utf-8"?><svg version="1.1" id="Layer_1" xmlns="http://www.w3.org/2000/svg" xmlns:xlink="http://www.w3.org/1999/xlink" x="0px" y="0px" viewBox="0 0 96.03 122.88" style="enable-background:new 0 0 96.03 122.88" xml:space="preserve"><g><path d="M63.31,0.72C62.83,0.29,62.15,0,61.48,0c-0.15,0-0.29,0-0.43,0.05l-54.95,0c-1.64,0-3.19,0.68-4.3,1.79 C0.68,2.95,0,4.45,0,6.14V48h5.41V6.14c0-0.19,0.05-0.34,0.19-0.43c0.1-0.1,0.24-0.19,0.43-0.19h52.63h0.05v23.83 c0,2.27,0.92,4.35,2.42,5.85c1.5,1.5,3.58,2.42,5.85,2.42h23.39v79.19c0,0.15-0.05,0.34-0.19,0.43c-0.1,0.1-0.24,0.19-0.44,0.19 c-24.57,0-59.81,0-83.71,0c-0.15,0-0.34-0.05-0.43-0.19c-0.1-0.1-0.19-0.29-0.19-0.43v-42.9H0v42.9c0,1.69,0.68,3.19,1.79,4.3 c1.11,1.11,2.61,1.79,4.3,1.79c31.03,0,52.88,0,83.76,0c1.69,0,3.19-0.68,4.3-1.79c1.11-1.11,1.79-2.61,1.79-4.3V35.52 c0.05-0.24,0.1-0.43,0.1-0.68c0-0.82-0.39-1.55-0.92-2.08L63.65,0.92c-0.1-0.1-0.14-0.14-0.24-0.19H63.31L63.31,0.72z M43.56,63.98 H0v-6.04h43.53L31.42,44.07c-1.09-1.23-0.98-3.12,0.25-4.21c1.23-1.09,3.09-0.98,4.18,0.25L52.3,58.96c1.02,1.16,0.98,2.88-0.04,4 L35.84,81.77c-1.09,1.23-2.95,1.37-4.18,0.25c-1.23-1.09-1.33-2.98-0.25-4.21l12.11-13.87L43.56,63.98L43.56,63.98z M64.18,29.34 V9.38l22.47,22.76H66.99c-0.77,0-1.45-0.34-1.98-0.82C64.52,30.83,64.18,30.11,64.18,29.34L64.18,29.34z"/></g></svg>