<?xml version="1.0" encoding="UTF-8" standalone="no"?>
<svg
   xmlns:dc="http://purl.org/dc/elements/1.1/"
   xmlns:cc="http://creativecommons.org/ns#"
   xmlns:rdf="http://www.w3.org/1999/02/22-rdf-syntax-ns#"
   xmlns:svg="http://www.w3.org/2000/svg"
   xmlns="http://www.w3.org/2000/svg"
   xmlns:sodipodi="http://sodipodi.sourceforge.net/DTD/sodipodi-0.dtd"
   xmlns:inkscape="http://www.inkscape.org/namespaces/inkscape"
   version="1.1"
   viewBox="0 0 463 463"
   enable-background="new 0 0 463 463"
   id="svg839"
   sodipodi:docname="invitationqr01.svg"
   inkscape:version="0.92.2 (5c3e80d, 2017-08-06)">
  <metadata
     id="metadata845">
    <rdf:RDF>
      <cc:Work
         rdf:about="">
        <dc:format>image/svg+xml</dc:format>
        <dc:type
           rdf:resource="http://purl.org/dc/dcmitype/StillImage" />
      </cc:Work>
    </rdf:RDF>
  </metadata>
  <defs
     id="defs843" />
  <sodipodi:namedview
     pagecolor="#ffffff"
     bordercolor="#666666"
     borderopacity="1"
     objecttolerance="10"
     gridtolerance="10"
     guidetolerance="10"
     inkscape:pageopacity="0"
     inkscape:pageshadow="2"
     inkscape:window-width="1920"
     inkscape:window-height="1017"
     id="namedview841"
     showgrid="false"
     inkscape:zoom="1.7710583"
     inkscape:cx="231.5"
     inkscape:cy="231.5"
     inkscape:window-x="-8"
     inkscape:window-y="-8"
     inkscape:window-maximized="1"
     inkscape:current-layer="g837" />
  <g
     id="g837">
    <path
       d="m 456.21831,247.493 -0.004,-4.024 c -0.012,-9.833 -5.68585,-19.233 -15.17715,-25.144 l -33.1264,-20.627 V 15.5 C 407.91033,6.953 399.5132,0 389.19099,0 H 80.019992 C 69.697787,0 61.300654,6.953 61.300654,15.5 v 182.198 l -33.125982,20.627 c -9.491308,5.911 -15.165079,15.31 -15.177156,25.144 l -0.0049,4.024 v 0.004 0.004 192 c 0,12.958 12.731566,23.5 28.380933,23.5 H 427.83737 c 15.64937,0 28.38094,-10.542 28.38094,-23.5 v -192 -0.004 z m -26.07061,-17.18 c 1.15214,0.717 2.19076,1.536 3.11586,2.429 l -25.35323,15.996 V 216.467 Z M 80.019992,15 H 389.19099 c 0.33333,0 0.60386,0.224 0.60386,0.5 v 244.666 l -15.75686,9.941 c -3.97937,2.51 -39.40066,28.25607 -36.36812,31.55107 1.78256,1.937 39.13375,-18.08507 41.86436,-18.08507 1.913,0 3.8429,-0.5 5.48295,-1.535 l 53.08563,-33.49 V 438.452 L 336.69593,374.478 c -3.97816,-2.51 -17.96595,-8.20783 -20.99849,-4.91283 -3.03132,3.295 6.03993,14.33383 10.0193,16.84383 L 423.34594,448 H 45.865051 L 204.96251,347.63 c 17.45368,-11.011 41.8335,-11.01 59.28475,0 l 32.54508,20.532 c 3.97816,2.51 15.87258,4.69817 18.9051,1.40317 3.03134,-3.295 -3.94653,-10.82417 -7.92591,-13.33417 l -20.17824,-12.73 20.12994,-12.699 c 3.97816,-2.51 32.97918,-25.84893 29.94664,-29.14393 -3.03132,-3.294 -36.94526,14.70293 -40.92583,17.21293 l -24.16969,15.248 c -22.79412,-12.972 -53.14601,-12.972 -75.93892,0 l -62.8064,-39.623 c -3.97816,-2.51 -17.46533,-6.55593 -20.49786,-3.26093 -3.03132,3.295 5.5393,12.68193 9.51867,15.19193 l 58.76664,37.074 -150.508307,94.951 V 248.548 l 62.75326,39.59 c 1.640056,1.035 3.568752,1.535 5.482954,1.535 2.729403,0 12.204223,3.49907 13.986783,1.56207 3.03132,-3.295 -4.51117,-12.51807 -8.49054,-15.02807 L 79.416142,260.166 V 15.5 c 0,-0.276 0.270525,-0.5 0.60385,-0.5 z M 39.063289,230.313 61.300654,216.466 v 32.271 l -25.35323,-15.995 c 0.925098,-0.893 1.96372,-1.711 3.115865,-2.429 z"
       id="path831"
       inkscape:connector-curvature="0"
       style="stroke-width:1"
       sodipodi:nodetypes="cccccsssccccccssssccccccccssscccsccccccccscccccccccccccccccscccssccacc" />
    <path
       id="path863"
       d="m 135.79345,60.320731 h 74.32072 V 123.06646 H 135.79345 V 60.320731 m 198.18854,0 V 123.06646 H 259.66131 V 60.320731 h 74.32068 M 259.66131,175.35458 h 24.77356 v -20.91524 h -24.77356 v -20.91525 h 24.77356 v 20.91525 h 24.77356 v -20.91525 h 24.77356 v 20.91525 h -24.77356 v 20.91524 h 24.77356 v 31.37287 h -24.77356 v 20.91524 h -24.77356 v -20.91524 h -37.16035 v 20.91524 H 222.50095 V 185.8122 h 37.16036 v -10.45762 m 24.77356,0 v 31.37287 h 24.77356 v -31.37287 h -24.77356 m -148.64142,52.28811 v -62.74574 h 74.32072 v 62.74574 H 135.79345 M 160.56701,81.235974 v 20.915246 h 24.77358 V 81.235974 h -24.77358 m 123.86786,0 v 20.915246 h 24.77356 V 81.235974 H 284.43487 M 160.56701,185.8122 v 20.91525 h 24.77358 V 185.8122 h -24.77358 m -24.77356,-52.28811 h 24.77356 v 20.91525 h -24.77356 v -20.91525 m 61.93392,0 h 49.54715 v 41.83049 h -24.77357 v -20.91524 h -24.77358 v -20.91525 m 24.77358,-52.288116 h 24.77357 V 123.06646 H 222.50095 V 81.235974 M 111.01989,39.405488 V 81.235974 H 86.246327 V 39.405488 A 24.773569,20.915244 0 0 1 111.01989,18.490244 h 49.54712 V 39.405488 H 111.01989 M 358.75557,18.490244 a 24.773569,20.915244 0 0 1 24.7737,20.915244 v 41.830486 h -24.7737 V 39.405488 H 309.20843 V 18.490244 h 49.54714 M 111.01989,206.72745 v 41.83048 h 49.54712 v 20.91525 H 111.01989 A 24.773569,20.915244 0 0 1 86.246327,248.55793 v -41.83048 h 24.773563 m 247.73568,41.83048 v -41.83048 h 24.7737 v 41.83048 a 24.773569,20.915244 0 0 1 -24.7737,20.91525 h -49.54714 v -20.91525 z"
       inkscape:connector-curvature="0"
       style="stroke-width:0.99999994" />
  </g>
</svg>
