<?xml version="1.0" encoding="iso-8859-1"?>
<!-- Generator: Adobe Illustrator 17.1.0, SVG Export Plug-In . SVG Version: 6.00 Build 0)  -->
<!DOCTYPE svg PUBLIC "-//W3C//DTD SVG 1.1//EN" "http://www.w3.org/Graphics/SVG/1.1/DTD/svg11.dtd">
<svg version="1.1" id="Capa_1" xmlns="http://www.w3.org/2000/svg" xmlns:xlink="http://www.w3.org/1999/xlink" x="0px" y="0px"
	 viewBox="0 0 442 442" style="enable-background:new 0 0 442 442;" xml:space="preserve">
<g>
	<path d="M216.011,211.814L96.043,331.781c-3.905,3.905-3.905,10.237,0,14.143c1.953,1.952,4.512,2.929,7.071,2.929
		s5.118-0.977,7.071-2.929l119.968-119.967c3.905-3.905,3.905-10.237,0-14.142C226.248,207.909,219.916,207.91,216.011,211.814z"/>
	<path d="M403.206,38.769C378.206,13.768,344.966,0,309.61,0s-68.595,13.768-93.596,38.769
		c-38.658,38.658-49.441,96.599-27.877,146.252L3.13,370.033c-1.87,1.87-2.923,4.405-2.929,7.05l-0.113,54.775
		c0,0.095,0.001,0.191,0.004,0.286c0,0.002,0,0.005,0,0.007c0,0.001,0,0.003,0,0.004c0.068,2.466,1.043,4.912,2.925,6.794
		c1.906,1.906,4.39,2.881,6.888,2.927c0,0,0.001,0,0.002,0c0.004,0,0.007,0,0.017,0c0.036-0.016,0.103,0.001,0.153,0.001
		L116.302,442c0.004,0,0.008,0,0.012,0c2.649,0,5.192-1.052,7.067-2.925c1.878-1.876,2.933-4.421,2.933-7.075v-41.665h41.664
		c5.522,0,10-4.477,10-10l0.001-41.665h41.664c5.522,0,10-4.477,10-10v-47.523l27.311-27.311
		c16.953,7.363,34.865,10.955,52.653,10.954c34.31-0.002,68.14-13.372,93.6-38.831C454.814,174.351,454.814,90.377,403.206,38.769z
		 M389.063,211.817c-34.282,34.285-86.426,42.745-129.753,21.055c-3.852-1.929-8.504-1.174-11.548,1.871l-35.191,35.191
		c-1.875,1.875-2.929,4.419-2.929,7.071v41.665h-41.664c-5.522,0-10,4.477-10,10l-0.001,41.665h-41.664c-5.522,0-10,4.477-10,10
		v41.653l-72.111-0.083l47.699-47.699c3.905-3.905,3.905-10.237,0-14.142c-3.906-3.905-10.236-3.905-14.143,0l-47.621,47.621
		l0.055-26.433l187.039-187.043c3.045-3.045,3.799-7.697,1.871-11.547c-21.691-43.326-13.229-95.469,21.055-129.752
		C251.38,31.688,279.597,20,309.61,20s58.23,11.688,79.453,32.911c21.223,21.223,32.911,49.439,32.911,79.453
		S410.286,190.595,389.063,211.817z"/>
	<path d="M303.38,72.125C303.38,72.125,303.38,72.125,303.38,72.125c-18.324,18.326-18.324,48.143,0,66.469
		c9.163,9.163,21.199,13.743,33.234,13.743c12.036,0,24.072-4.581,33.234-13.744c18.324-18.325,18.324-48.143,0-66.468
		C351.522,53.801,321.706,53.801,303.38,72.125z M355.706,124.452c-10.527,10.526-27.656,10.526-38.184,0
		c-10.527-10.527-10.527-27.657,0-38.185v0c10.527-10.527,27.658-10.526,38.184,0C366.233,96.795,366.233,113.925,355.706,124.452z"
		/>
</g>
<g>
</g>
<g>
</g>
<g>
</g>
<g>
</g>
<g>
</g>
<g>
</g>
<g>
</g>
<g>
</g>
<g>
</g>
<g>
</g>
<g>
</g>
<g>
</g>
<g>
</g>
<g>
</g>
<g>
</g>
</svg>
