<svg height="512pt" viewBox="0 0 512 511" width="512pt" xmlns="http://www.w3.org/2000/svg"><path d="m221.867188 444.234375c-122.335938 0-221.867188-99.535156-221.867188-221.867187 0-122.335938 99.53125-221.867188 221.867188-221.867188 122.332031 0 221.867187 99.53125 221.867187 221.867188 0 122.332031-99.535156 221.867187-221.867187 221.867187zm0-426.667969c-112.921876 0-204.800782 91.878906-204.800782 204.800782 0 112.921874 91.878906 204.800781 204.800782 204.800781 112.929687 0 204.800781-91.878907 204.800781-204.800781 0-112.921876-91.871094-204.800782-204.800781-204.800782zm0 0"/><path d="m477.867188 512.484375c-8.738282 0-17.476563-3.328125-24.132813-9.976563l-106.28125-106.28125c-1.726563-1.726562-2.628906-4.105468-2.484375-6.546874.144531-2.441407 1.332031-4.691407 3.242188-6.203126 12.929687-10.148437 24.617187-21.847656 34.765624-34.765624 1.5-1.917969 3.761719-3.097657 6.203126-3.242188 2.476562-.152344 4.820312.757812 6.546874 2.484375l106.28125 106.28125c6.441407 6.441406 9.992188 15.019531 9.992188 24.132813 0 9.113281-3.550781 17.6875-9.992188 24.140624-6.65625 6.648438-15.402343 9.976563-24.140624 9.976563zm-111.691407-121.667969 99.617188 99.625c6.65625 6.648438 17.484375 6.648438 24.140625 0 3.214844-3.226562 4.992187-7.507812 4.992187-12.074218 0-4.566407-1.777343-8.839844-4.992187-12.066407l-99.628906-99.625c-7.40625 8.640625-15.476563 16.722657-24.128907 24.140625zm0 0"/><path d="m221.867188 393.035156c-94.105469 0-170.667969-76.5625-170.667969-170.667968 0-94.105469 76.5625-170.667969 170.667969-170.667969 94.105468 0 170.667968 76.5625 170.667968 170.667969 0 94.105468-76.5625 170.667968-170.667968 170.667968zm0-324.269531c-84.695313 0-153.601563 68.90625-153.601563 153.601563 0 84.691406 68.90625 153.597656 153.601563 153.597656 84.691406 0 153.597656-68.90625 153.597656-153.597656 0-84.695313-68.90625-153.601563-153.597656-153.601563zm0 0"/><path d="m185.285156 388.585938c-4.421875 0-10.589844-1.695313-20.363281-5.324219l-.894531-.332031c-8.269532-2.976563-16.402344-6.648438-24.164063-10.90625-7.648437-4.199219-15.046875-9.035157-21.984375-14.378907-3.351562-2.585937-6.613281-5.289062-9.769531-8.113281l-1.273437-1.015625c-5.648438-4.4375-9.367188-7.707031-9.710938-12.585937-.707031-10.105469.28125-21.148438 2.945312-32.8125 3.832032-16.84375 12.253907-33.269532 25.019532-48.828126 5.65625-6.886718 12.398437-18.472656 12.398437-34.558593 0-3.558594-1.132812-6.289063-3.566406-8.621094-6.707031-6.398437-23.296875-9.625-44.347656-8.667969-11.785157.589844-22.902344-3.070312-31.199219-10.199218-2.40625-2.0625-3.472656-5.296876-2.753906-8.386719 10.152344-44.023438 38.109375-82.945313 76.6875-106.769531 4.257812-2.644532 9.738281-2.132813 19.550781 1.785156 4.410156 1.757812 8.40625 4.265625 11.878906 7.441406 5.835938 5.332031 10.246094 12.664062 13.113281 21.785156 3.304688 10.503906 7.410157 32.359375 1.90625 47.640625-.480468 1.324219-1.109374 2.59375-1.757812 3.855469l-.488281.957031c-3.121094 6.375-2.722657 13.644531 1.09375 19.925781 4.144531 6.816407 11.542969 11.179688 19.300781 11.359376 16.707031.390624 40.082031 7.789062 56.5 40.804687 1.390625 2.800781 2.585938 5.613281 3.550781 8.378906 14.191407 40.703125-16.351562 67.421875-40.894531 88.894531-6.132812 5.367188-11.917969 10.433594-16.910156 15.503907-2.851563 2.910156-4.507813 5.613281-4.90625 8.019531-.335938 2.007812.050781 4.617188.457031 7.390625l.191406 1.289063c.765625 5.402343 1.203125 10.898437 1.285157 16.339843.054687 3.21875-1.476563 6.238281-4.085938 8.089844-1.867188 1.347656-3.984375 2.039063-6.808594 2.039063zm-71.253906-56.214844c1.082031.953125 2.636719 2.175781 3.34375 2.730468.929688.722657 1.691406 1.339844 2.117188 1.722657 2.839843 2.542969 5.777343 4.976562 8.796874 7.304687 6.246094 4.8125 12.910157 9.164063 19.789063 12.945313 6.980469 3.832031 14.292969 7.125 21.726563 9.804687l1.058593.382813c3.25 1.210937 5.792969 2.074219 7.78125 2.6875-.167969-1.816407-.382812-3.625-.640625-5.425781l-.179687-1.210938c-.554688-3.765625-1.175781-8.023438-.40625-12.65625.980469-5.9375 4.207031-11.734375 9.574219-17.195312 5.433593-5.535157 11.46875-10.808594 17.851562-16.390626 23.859375-20.882812 46.402344-40.601562 36.007812-70.425781-.757812-2.195312-1.679687-4.328125-2.710937-6.402343-10.003906-20.09375-24.390625-30.929688-41.625-31.339844-13.507813-.316406-26.34375-7.808594-33.484375-19.558594-6.90625-11.359375-7.570312-24.585938-1.84375-36.292969l.648438-1.28125c.304687-.597656.640624-1.183593.859374-1.808593 3.269532-9.0625 1.347657-25.683594-2.125-36.734376-1.953124-6.214843-4.761718-11.027343-8.351562-14.3125-1.945312-1.78125-4.199219-3.191406-6.691406-4.179687-3.054688-1.230469-4.964844-1.765625-6.023438-2.007813-32.195312 20.515626-55.917968 52.78125-65.859375 89.429688 4.359375 2.363281 9.554688 3.527344 15.136719 3.242188 18.660156-.851563 43.714844.761718 56.925781 13.382812 5.785157 5.527344 8.847657 12.773438 8.847657 20.957031 0 21.136719-8.847657 36.34375-16.273438 45.390625-11.074219 13.488282-18.328125 27.550782-21.570312 41.777344-2.074219 9.113281-2.96875 17.65625-2.679688 25.464844zm-1.023438-.992188"/><path d="m271.292969 385.335938c-2.9375 0-5.746094-1.519532-7.3125-4.136719l-13.398438-22.324219c-4.667969-7.730469-3.558593-14.429688-1.800781-18.679688 6.144531-14.925781 29.839844-22.109374 36.300781-23.816406 2.011719-.980468 10.828125-5.847656 10.828125-15.632812 0-.554688.050782-1.101563.164063-1.648438.390625-2.003906 10.035156-49.226562 41.65625-49.226562 9.105469 0 20.542969.953125 28.214843 8.421875l14.128907 14.128906c2.347656 2.355469 3.125 5.863281 1.972656 8.988281-18.050781 48.9375-58.480469 87.644532-108.144531 103.523438-.871094.265625-1.75.402344-2.609375.402344zm41.667969-83.667969c-.574219 21.707031-20.925782 30.308593-21.804688 30.675781-.367188.152344-.757812.28125-1.140625.375-9.234375 2.339844-23.222656 8.5-25.457031 13.960938-.214844.511718-.5625 1.375.648437 3.378906l9.847657 16.410156c40.089843-14.832031 72.765624-46.351562 89.003906-85.929688l-10.113282-10.113281c-2.433593-2.363281-7.613281-3.507812-16.214843-3.507812-14.207031.007812-22.652344 24.976562-24.769531 34.75zm0 0"/><path d="m337.269531 201.5625c-34.132812 0-62.1875-26.992188-72.25-41.25-7.304687-10.351562-28.996093-41.105469-3.652343-68.179688-.425782-9.941406 1.945312-17.425781 7.765624-25.0625.367188-.496093.800782-.941406 1.261719-1.339843l2.296875-1.949219c2.355469-1.984375 5.597656-2.558594 8.480469-1.484375 50.230469 18.621094 89.25 60.410156 104.390625 111.769531.953125 3.253906-.101562 6.761719-2.6875 8.945313l-5.265625 4.222656c-11.785156 9.378906-25.738281 14.328125-40.339844 14.328125zm-56.582031-121.113281c-2.195312 3.925781-2.707031 7.902343-2.03125 14.027343.296875 2.6875-.699219 5.359376-2.6875 7.195313-15.789062 14.609375-10.214844 30.078125 2.996094 48.800781 9.640625 13.679688 33.132812 34.03125 58.304687 34.03125 10.710938 0 20.976563-3.667968 29.707031-10.613281l.503907-.402344c-14.074219-41.898437-45.960938-76.09375-86.792969-93.039062zm0 0"/></svg>