<!DOCTYPE svg PUBLIC "-//W3C//DTD SVG 20010904//EN" "http://www.w3.org/TR/2001/REC-SVG-20010904/DTD/svg10.dtd">
<svg version="1.0" xmlns="http://www.w3.org/2000/svg" width="225px" height="225px" viewBox="0 0 2250 2250" preserveAspectRatio="xMidYMid meet">
<g id="layer101" fill="#b41e1f" stroke="none">
<path d="M0 1125 l0 -1125 1125 0 1125 0 0 1125 0 1125 -1125 0 -1125 0 0 -1125z"/>
</g>
<g id="layer102" fill="#c7211f" stroke="none">
<path d="M0 1125 l0 -1125 1125 0 1125 0 0 1125 0 1125 -1125 0 -1125 0 0 -1125z m430 33 c57 -95 122 -206 146 -247 49 -82 50 -84 31 -103 -15 -14 -51 -77 -102 -173 -28 -54 -76 -133 -127 -207 -10 -15 -18 -31 -18 -36 0 -4 -6 -17 -14 -28 -13 -17 -15 -14 -15 36 0 30 -5 84 -10 120 -15 97 -32 210 -37 250 -11 79 -6 75 -88 74 -115 -1 -135 -28 -83 -110 37 -60 60 -107 47 -99 -6 4 -16 17 -21 28 -5 12 -18 36 -29 52 -11 17 -24 39 -30 50 -6 11 -17 31 -25 44 -11 21 -11 27 1 47 8 12 26 25 40 28 13 4 24 11 24 16 0 5 18 22 41 37 22 14 47 39 54 54 22 41 45 111 45 136 0 12 5 25 10 28 15 9 12 25 -5 25 -8 0 -15 4 -15 8 0 20 65 142 75 142 2 0 49 -78 105 -172z m777 115 c-4 -3 -10 -3 -14 0 -3 4 0 7 7 7 7 0 10 -3 7 -7z m190 -85 c17 -18 52 -69 78 -113 26 -44 58 -94 71 -112 13 -17 29 -42 34 -55 6 -13 17 -34 25 -48 17 -29 13 -35 -12 -21 -10 6 -38 15 -63 20 -25 5 -72 16 -105 25 -33 8 -73 15 -89 16 l-28 0 7 66 c4 36 10 78 15 94 5 16 11 58 15 94 4 37 10 66 14 66 4 0 21 -15 38 -32z m-1166 -41 c-10 -9 -11 -8 -5 6 3 10 9 15 12 12 3 -3 0 -11 -7 -18z m1066 -39 c-3 -7 -5 -2 -5 12 0 14 2 19 5 13 2 -7 2 -19 0 -25z m-1121 -50 c-9 -12 -16 -19 -16 -15 0 11 24 47 28 42 2 -2 -3 -14 -12 -27z m18 -478 c-6 -5 -24 21 -24 34 0 6 6 1 14 -10 8 -10 12 -21 10 -24z"/>
<path d="M60 824 c0 -14 3 -14 15 -4 8 7 15 14 15 16 0 2 -7 4 -15 4 -8 0 -15 -7 -15 -16z"/>
</g>
<g id="layer103" fill="#1c63a4" stroke="none">
<path d="M0 1125 l0 -1125 1125 0 1125 0 0 1125 0 1125 -1125 0 -1125 0 0 -1125z m430 33 c57 -95 122 -206 146 -247 24 -40 44 -78 44 -83 0 -5 -13 -29 -30 -53 -16 -24 -30 -47 -30 -50 0 -7 -69 -128 -105 -185 -13 -19 -37 -62 -55 -95 -18 -33 -39 -68 -48 -78 -14 -16 -17 -15 -39 17 -22 34 -34 67 -12 36 9 -13 10 -13 6 0 -2 8 -10 15 -18 15 -8 0 -13 8 -13 18 1 9 -3 14 -9 10 -7 -4 -8 0 -3 13 4 10 4 15 0 11 -8 -8 -83 100 -124 178 -6 11 -19 34 -30 50 -11 17 -24 39 -30 50 -6 11 -17 31 -25 44 -12 21 -11 28 9 60 13 20 43 74 68 121 24 47 60 110 80 140 19 30 45 78 57 105 24 52 49 95 55 95 2 0 50 -78 106 -172z m777 115 c-4 -3 -10 -3 -14 0 -3 4 0 7 7 7 7 0 10 -3 7 -7z m196 -92 c20 -22 44 -55 53 -73 9 -18 40 -69 68 -113 74 -117 75 -118 86 -143 8 -18 2 -34 -32 -90 -22 -37 -47 -82 -55 -100 -8 -18 -25 -37 -39 -43 -19 -7 -25 -15 -21 -29 3 -11 1 -18 -4 -14 -9 5 -13 -9 -10 -34 1 -8 -4 -20 -11 -29 -14 -17 -31 -46 -50 -83 -7 -14 -19 -35 -28 -46 -16 -21 -16 -21 -16 15 1 20 5 42 9 49 5 7 4 18 -2 26 -7 8 -13 88 -17 197 -3 101 -10 200 -16 220 -7 25 -7 55 2 105 6 38 16 104 22 147 7 42 15 77 19 77 3 0 23 -18 42 -39z m-106 -68 c-3 -10 -5 -2 -5 17 0 19 2 27 5 18 2 -10 2 -26 0 -35z m-87 -187 c0 -3 -5 -8 -12 -12 -7 -4 -8 -3 -4 4 7 12 16 16 16 8z"/>
</g>
<g id="layer104" fill="#cb2e2d" stroke="none">
<path d="M0 1125 l0 -1125 1125 0 1125 0 0 1125 0 1125 -1125 0 -1125 0 0 -1125z m951 848 c16 -29 25 -53 20 -53 -6 0 -12 4 -16 10 -3 5 -12 7 -20 3 -11 -4 -15 3 -16 28 0 32 -1 33 -10 10 -5 -13 -17 -30 -27 -37 -14 -11 -18 -9 -25 9 -6 16 -10 18 -16 8 -12 -19 -21 48 -21 159 l0 95 51 -90 c27 -49 63 -114 80 -142z m-521 -815 c57 -95 122 -206 146 -247 24 -40 44 -78 44 -83 0 -5 -13 -29 -30 -53 -16 -24 -30 -47 -30 -50 0 -7 -69 -128 -105 -185 -13 -19 -37 -62 -55 -95 -18 -33 -39 -68 -48 -78 -14 -16 -17 -15 -39 17 -22 34 -34 67 -12 36 9 -13 10 -13 6 0 -2 8 -10 15 -18 15 -8 0 -13 8 -13 18 1 9 -3 14 -9 10 -7 -4 -8 0 -3 13 4 10 4 15 0 11 -8 -8 -83 100 -124 178 -6 11 -19 34 -30 50 -11 17 -24 39 -30 50 -6 11 -17 31 -25 44 -12 21 -11 28 9 60 13 20 43 74 68 121 24 47 60 110 80 140 19 30 45 78 57 105 24 52 49 95 55 95 2 0 50 -78 106 -172z m777 115 c-4 -3 -10 -3 -14 0 -3 4 0 7 7 7 7 0 10 -3 7 -7z m196 -92 c20 -22 44 -55 53 -73 9 -18 40 -69 68 -113 74 -117 75 -118 86 -143 8 -18 2 -34 -32 -90 -22 -37 -47 -82 -55 -100 -8 -18 -25 -37 -39 -43 -19 -7 -25 -15 -21 -29 3 -11 1 -18 -4 -14 -9 5 -13 -9 -10 -34 1 -8 -4 -20 -11 -29 -14 -17 -31 -46 -50 -83 -7 -14 -19 -35 -28 -46 -16 -21 -16 -21 -16 15 1 20 5 42 9 49 5 7 4 18 -2 26 -7 8 -13 88 -17 197 -3 101 -10 200 -16 220 -7 25 -7 55 2 105 6 38 16 104 22 147 7 42 15 77 19 77 3 0 23 -18 42 -39z m-106 -68 c-3 -10 -5 -2 -5 17 0 19 2 27 5 18 2 -10 2 -26 0 -35z m-87 -187 c0 -3 -5 -8 -12 -12 -7 -4 -8 -3 -4 4 7 12 16 16 16 8z"/>
</g>
<g id="layer105" fill="#e33131" stroke="none">
<path d="M0 1125 l0 -1125 1125 0 1125 0 0 1125 0 1125 -1125 0 -1125 0 0 -1125z m951 848 c16 -29 25 -53 20 -53 -6 0 -12 4 -16 10 -3 5 -12 7 -20 3 -11 -4 -15 3 -16 28 0 32 -1 33 -10 10 -5 -13 -17 -30 -27 -37 -14 -11 -18 -9 -25 9 -6 16 -10 18 -16 8 -12 -19 -21 48 -21 159 l0 95 51 -90 c27 -49 63 -114 80 -142z m-496 -858 c65 -110 130 -220 146 -245 27 -43 28 -46 11 -70 -9 -14 -26 -43 -37 -65 -12 -23 -36 -62 -53 -87 -18 -26 -32 -50 -32 -55 0 -5 -11 -25 -25 -45 -14 -20 -41 -68 -59 -105 -19 -38 -43 -76 -54 -86 -18 -16 -20 -15 -46 30 -32 57 -40 70 -87 143 -19 30 -68 110 -108 177 l-73 123 61 106 c34 58 61 108 61 111 0 3 8 17 19 31 10 15 42 72 71 127 60 114 70 129 81 118 4 -4 60 -98 124 -208z m870 125 c70 -40 113 -89 182 -205 121 -205 120 -201 102 -232 -9 -15 -72 -124 -140 -240 -110 -189 -141 -232 -140 -198 0 6 -8 19 -18 30 -10 11 -39 57 -65 102 -26 44 -57 88 -69 96 -23 15 -122 16 -135 1 -4 -4 -1 -4 7 1 10 6 12 4 7 -4 -6 -9 -11 -9 -24 1 -10 8 -13 9 -9 1 4 -6 3 -14 -3 -18 -6 -4 -10 7 -10 27 0 18 -9 48 -20 66 l-20 32 25 22 c14 12 32 33 41 46 13 20 14 26 3 33 -11 7 -11 9 1 9 8 0 21 9 28 20 7 11 19 20 26 20 23 0 120 94 141 137 11 21 26 45 33 54 7 9 15 38 18 65 5 41 1 57 -21 97 -15 26 -39 54 -53 63 -27 15 -26 15 18 9 24 -3 67 -19 95 -35z"/>
</g>
<g id="layer106" fill="#2d76b1" stroke="none">
<path d="M0 1125 l0 -1125 1125 0 1125 0 0 1125 0 1125 -1125 0 -1125 0 0 -1125z m951 848 c16 -29 25 -53 20 -53 -6 0 -12 4 -16 10 -3 5 -12 7 -20 3 -11 -4 -15 3 -16 28 0 32 -1 33 -10 10 -5 -13 -17 -30 -27 -37 -14 -11 -18 -9 -25 9 -6 16 -10 18 -16 8 -12 -19 -21 48 -21 159 l0 95 51 -90 c27 -49 63 -114 80 -142z m-496 -858 c65 -110 131 -221 147 -247 l30 -48 155 0 154 0 -3 -22 c-3 -22 2 -33 28 -60 18 -20 -35 -67 -121 -108 -44 -20 -132 -66 -195 -102 -63 -36 -154 -88 -202 -115 -47 -27 -93 -54 -101 -61 -11 -10 -19 -3 -41 36 -32 56 -40 69 -87 142 -19 30 -68 110 -108 177 l-73 123 61 106 c34 58 61 108 61 111 0 3 8 17 19 31 10 15 42 72 71 127 60 114 70 129 81 118 4 -4 60 -98 124 -208z m870 125 c70 -40 113 -89 182 -205 121 -205 120 -201 102 -232 -9 -15 -72 -124 -140 -240 -110 -189 -141 -232 -140 -198 0 6 -8 19 -18 30 -10 11 -39 57 -65 102 -26 44 -57 88 -69 96 -23 15 -122 16 -135 1 -4 -4 -1 -4 7 1 10 6 12 4 7 -4 -6 -9 -11 -9 -24 1 -10 8 -13 9 -9 1 4 -6 3 -14 -3 -18 -6 -4 -10 7 -10 27 0 18 -9 47 -19 64 -12 19 -16 36 -11 45 5 7 6 17 4 21 -3 5 2 11 10 14 9 3 16 17 16 30 0 13 6 24 13 25 6 0 3 5 -8 10 -16 7 -13 8 13 4 18 -2 31 -1 28 4 -3 4 15 19 39 31 51 26 129 104 147 147 7 15 18 35 25 44 8 9 16 38 19 65 5 41 1 57 -21 97 -15 26 -39 54 -53 63 -27 15 -26 15 18 9 24 -3 67 -19 95 -35z"/>
</g>
<g id="layer107" fill="#da4b4a" stroke="none">
<path d="M0 1125 l0 -1125 1125 0 1125 0 0 1125 0 1125 -1125 0 -1125 0 0 -1125z m855 1028 c15 -27 44 -77 63 -113 19 -36 68 -119 107 -186 82 -137 89 -159 70 -194 -16 -29 -20 -19 -5 11 10 17 7 20 -19 25 -17 4 -29 9 -27 13 2 3 -35 5 -82 5 -55 -1 -90 3 -95 10 -5 8 -11 6 -21 -7 -12 -16 -14 -15 -20 14 -3 17 -6 94 -6 170 0 121 -2 139 -16 139 -12 0 -15 6 -10 28 6 26 6 26 -26 -10 -18 -20 -41 -47 -51 -60 -9 -12 -3 4 15 37 42 77 93 165 95 165 1 0 13 -21 28 -47z m-501 -848 c6 -11 22 -37 36 -60 14 -22 25 -45 25 -50 0 -6 10 -26 22 -45 13 -19 27 -42 32 -50 5 -8 34 -57 63 -109 29 -51 63 -110 74 -130 l22 -36 157 -3 c155 -2 156 -3 153 -25 -3 -21 3 -32 28 -59 18 -20 -35 -67 -121 -108 -44 -20 -132 -66 -195 -102 -63 -36 -154 -88 -202 -115 -47 -27 -93 -54 -101 -61 -11 -10 -19 -3 -41 36 -32 56 -40 69 -87 142 -19 30 -68 110 -108 177 l-73 123 61 106 c34 58 61 108 61 111 0 3 8 17 19 31 10 15 42 72 71 127 72 137 79 144 104 100z m971 -65 c70 -40 113 -89 182 -205 121 -205 120 -201 102 -232 -9 -15 -72 -124 -140 -240 -110 -189 -141 -232 -140 -198 0 6 -8 19 -18 30 -10 11 -39 57 -65 102 -26 44 -57 88 -69 96 -23 15 -122 16 -135 1 -4 -4 -1 -4 7 1 10 6 12 4 7 -4 -6 -9 -11 -9 -24 1 -10 8 -13 9 -9 1 4 -6 3 -14 -3 -18 -6 -4 -10 7 -10 27 0 18 -9 47 -19 64 -12 19 -16 36 -11 45 5 7 6 17 4 21 -3 5 2 11 10 14 9 3 16 17 16 30 0 13 6 24 13 25 6 0 3 5 -8 10 -16 7 -13 8 13 4 18 -2 31 -1 28 4 -3 4 15 19 39 31 51 26 129 104 147 147 7 15 18 35 25 44 8 9 16 38 19 65 5 41 1 57 -21 97 -15 26 -39 54 -53 63 -27 15 -26 15 18 9 24 -3 67 -19 95 -35z"/>
</g>
<g id="layer108" fill="#fc7b05" stroke="none">
<path d="M0 1125 l0 -1125 1125 0 1125 0 0 1125 0 1125 -1125 0 -1125 0 0 -1125z m855 1028 c15 -27 44 -77 63 -113 19 -36 68 -119 107 -186 82 -137 89 -159 70 -194 -16 -29 -20 -19 -5 11 10 17 7 20 -19 25 -17 4 -29 9 -27 13 2 3 -35 5 -82 5 -55 -1 -90 3 -95 10 -5 8 -11 6 -21 -7 -12 -16 -14 -15 -20 14 -3 17 -6 94 -6 170 0 121 -2 139 -16 139 -12 0 -15 6 -10 28 6 26 6 26 -26 -10 -18 -20 -41 -47 -51 -60 -9 -12 -3 4 15 37 42 77 93 165 95 165 1 0 13 -21 28 -47z m-501 -848 c6 -11 22 -37 36 -60 14 -22 25 -45 25 -50 0 -6 12 -28 25 -50 14 -22 42 -71 64 -110 21 -38 50 -88 65 -110 14 -22 32 -52 40 -67 l14 -28 199 0 c242 0 271 6 343 72 58 53 125 175 125 226 -1 39 -41 109 -75 133 l-30 21 45 -7 c55 -7 133 -52 181 -102 33 -34 103 -145 184 -290 28 -50 29 -54 14 -80 -9 -15 -72 -124 -140 -240 -110 -189 -141 -232 -140 -198 0 6 -8 19 -18 30 -10 11 -40 58 -66 104 -36 62 -56 87 -79 96 -58 24 -115 0 -143 -60 -7 -16 -27 -52 -43 -80 -16 -27 -36 -65 -45 -83 -15 -31 -17 -32 -75 -32 -33 0 -60 4 -60 10 0 6 10 10 23 10 18 0 19 2 7 10 -8 5 -12 10 -9 10 4 0 -8 15 -27 34 -19 19 -34 43 -34 54 0 35 -11 52 -34 52 -12 0 -27 5 -33 11 -9 9 -33 0 -95 -36 -46 -26 -119 -68 -163 -92 -44 -25 -84 -49 -89 -53 -8 -8 -52 42 -69 80 -4 8 -16 29 -27 45 -11 17 -23 37 -27 45 -5 8 -48 81 -96 162 l-88 146 20 39 c11 21 29 56 41 78 11 22 31 58 45 80 14 22 32 54 40 70 8 17 25 47 38 67 12 21 35 61 51 90 46 85 58 93 80 53z"/>
</g>
<g id="layer109" fill="#358dbd" stroke="none">
<path d="M0 1125 l0 -1125 1125 0 1125 0 0 1125 0 1125 -1125 0 -1125 0 0 -1125z m855 1028 c15 -27 44 -77 63 -113 19 -36 68 -119 107 -186 40 -67 75 -132 78 -146 6 -24 6 -25 -27 -14 -19 6 -33 13 -31 16 2 3 -36 4 -83 4 -55 -1 -90 3 -95 10 -5 8 -11 6 -21 -7 -12 -16 -14 -15 -20 14 -3 17 -6 94 -6 170 0 121 -2 139 -16 139 -12 0 -15 6 -10 28 6 26 6 26 -26 -10 -18 -20 -41 -47 -51 -60 -9 -12 -3 4 15 37 42 77 93 165 95 165 1 0 13 -21 28 -47z m781 -462 c-6 -9 -65 -30 -141 -50 -54 -14 -124 -81 -85 -81 13 0 130 -118 130 -131 0 -10 -17 -27 -79 -81 -35 -30 -47 -36 -62 -28 -26 14 -39 42 -39 84 0 20 -4 36 -8 36 -5 0 -20 27 -35 60 -19 45 -29 58 -41 54 -9 -3 -16 -10 -16 -15 0 -5 -17 -20 -37 -33 -21 -13 -81 -65 -133 -115 -52 -51 -106 -99 -119 -108 -22 -16 -24 -16 -37 2 -8 10 -14 25 -14 32 0 15 40 97 84 173 14 25 29 52 32 60 4 8 13 22 20 30 6 8 17 34 23 58 7 23 14 42 17 42 4 0 3 -8 0 -17 -3 -10 3 -6 15 10 l21 27 254 0 c145 0 253 -4 250 -9z m-1282 -386 c6 -11 22 -37 36 -60 14 -22 25 -45 25 -50 0 -6 12 -28 25 -50 14 -22 42 -71 64 -110 21 -38 50 -88 65 -110 14 -22 32 -52 40 -67 l14 -28 199 0 c242 0 271 6 343 72 58 53 125 175 125 226 -1 39 -41 109 -75 133 l-30 21 44 -6 c90 -13 201 -92 241 -173 8 -15 26 -46 41 -68 14 -22 33 -53 41 -70 23 -45 41 -77 61 -106 17 -26 17 -28 -4 -60 -24 -38 -204 -345 -240 -408 -21 -38 -41 -50 -40 -26 0 6 -8 19 -18 30 -10 11 -40 58 -66 104 -36 62 -56 87 -79 96 -58 24 -115 0 -143 -60 -7 -16 -27 -52 -43 -80 -16 -27 -36 -65 -45 -83 -15 -31 -17 -32 -75 -32 -33 0 -60 4 -60 10 0 6 10 10 23 10 18 0 19 2 7 10 -8 5 -12 10 -9 10 4 0 -8 15 -27 34 -19 19 -34 43 -34 54 0 35 -11 52 -34 52 -12 0 -27 5 -33 11 -9 9 -33 0 -95 -36 -46 -26 -119 -68 -163 -92 -44 -25 -84 -49 -89 -53 -8 -8 -52 42 -69 80 -4 8 -16 29 -27 45 -11 17 -23 37 -27 45 -5 8 -48 81 -96 162 l-88 146 20 39 c11 21 29 56 41 78 11 22 31 58 45 80 14 22 32 54 40 70 8 17 25 47 38 67 12 21 35 61 51 90 46 85 58 93 80 53z m563 -62 c-4 -3 -7 0 -7 7 0 7 3 10 7 7 3 -4 3 -10 0 -14z"/>
</g>
<g id="layer110" fill="#e95352" stroke="none">
<path d="M0 1125 l0 -1125 1125 0 1125 0 0 1125 0 1125 -1125 0 -1125 0 0 -1125z m885 983 c28 -51 90 -162 139 -247 83 -145 88 -157 78 -186 l-11 -30 20 28 21 27 254 0 c145 0 253 -4 250 -9 -6 -9 -65 -30 -141 -50 -54 -14 -124 -81 -85 -81 13 0 130 -118 130 -131 0 -10 -17 -27 -79 -81 -35 -30 -47 -36 -62 -28 -26 14 -39 42 -39 84 0 20 -4 36 -8 36 -5 0 -20 27 -35 60 -19 45 -29 58 -41 54 -9 -3 -16 -10 -16 -15 0 -5 -17 -20 -37 -33 -21 -13 -81 -65 -133 -115 -52 -51 -106 -99 -119 -108 -22 -16 -24 -16 -37 2 -8 10 -14 25 -14 32 0 20 90 197 111 217 5 6 9 16 9 24 0 23 -27 -4 -34 -34 l-7 -26 -19 22 c-10 12 -24 19 -29 15 -6 -3 -11 -1 -11 4 0 15 -63 14 -78 -1 -20 -20 -35 40 -43 185 -8 146 -15 165 -59 163 -15 -1 -24 4 -23 11 5 21 -55 9 -78 -15 -29 -32 -34 -27 -11 11 10 17 54 94 97 170 42 75 80 137 84 137 3 0 29 -42 56 -92z m579 26 c20 -36 35 -68 32 -71 -2 -3 -14 13 -26 36 -11 23 -22 41 -24 41 -17 0 -35 -14 -29 -24 4 -6 -2 -4 -13 4 -10 8 -16 10 -12 6 5 -5 -1 -15 -12 -23 -14 -10 -20 -26 -20 -52 0 -20 -5 -42 -11 -48 -8 -8 -7 -17 2 -31 7 -12 10 -24 7 -28 -12 -11 -75 6 -104 28 -15 13 -34 23 -43 25 -8 1 -26 10 -41 21 -14 11 -49 31 -78 46 -29 14 -52 31 -52 36 0 6 -5 10 -12 10 -19 0 -88 33 -88 43 0 5 -11 6 -25 3 -14 -4 -25 -2 -25 3 0 5 -7 17 -16 25 -14 15 10 16 268 16 l284 0 38 -66z m66 -126 c0 -4 -6 -8 -12 -8 -7 0 -13 11 -13 25 0 23 1 24 13 8 6 -9 12 -20 12 -25z m-40 -9 c0 -5 -7 -6 -15 -3 -8 4 -15 13 -15 21 0 13 3 13 15 3 8 -7 15 -16 15 -21z m84 -61 c15 -27 23 -48 18 -48 -8 0 -52 80 -52 95 0 11 1 9 34 -47z m-39 13 c3 -5 2 -12 -3 -15 -5 -3 -9 1 -9 9 0 17 3 19 12 6z m-68 -48 c-4 -3 -10 -3 -14 0 -3 4 0 7 7 7 7 0 10 -3 7 -7z m158 -53 c9 -16 13 -30 11 -30 -3 0 -12 14 -21 30 -9 17 -13 30 -11 30 3 0 12 -13 21 -30z m-125 -1 c7 -11 17 -18 24 -16 7 3 13 -1 13 -8 0 -10 -9 -9 -38 6 -45 23 -58 39 -30 39 11 0 25 -9 31 -21z m-890 -39 c-6 -11 -13 -20 -16 -20 -2 0 0 9 6 20 6 11 13 20 16 20 2 0 0 -9 -6 -20z m1007 -28 c26 -15 46 -16 38 -2 -3 6 -4 10 -1 10 3 0 12 -13 21 -30 9 -16 13 -30 10 -30 -7 0 -115 61 -115 65 0 6 25 -1 47 -13z m-1030 -19 c-4 -3 -7 0 -7 7 0 7 3 10 7 7 3 -4 3 -10 0 -14z m-40 -70 c-4 -3 -7 0 -7 7 0 7 3 10 7 7 3 -4 3 -10 0 -14z m-143 -411 c33 -26 73 -56 89 -65 20 -13 27 -26 27 -48 0 -17 4 -28 9 -25 4 3 6 -17 4 -44 -3 -38 0 -50 10 -50 16 0 32 -74 21 -92 -4 -6 -2 -8 4 -4 6 3 13 2 17 -4 3 -5 2 -10 -3 -10 -5 0 2 -22 15 -48 l24 -49 136 -6 c292 -14 328 -9 408 65 58 53 125 175 125 226 -1 39 -41 109 -75 133 l-30 21 44 -6 c90 -13 201 -92 241 -173 8 -15 26 -46 41 -68 14 -22 33 -53 41 -70 23 -45 41 -77 61 -106 17 -26 17 -28 -4 -60 -24 -38 -204 -345 -240 -408 -21 -38 -41 -50 -40 -26 0 6 -8 19 -18 30 -10 11 -40 58 -66 104 -36 62 -56 87 -79 96 -58 24 -115 0 -143 -60 -7 -16 -27 -52 -43 -80 -16 -27 -36 -65 -45 -83 -15 -31 -17 -32 -75 -32 -33 0 -60 4 -60 10 0 6 10 10 23 10 18 0 19 2 7 10 -8 5 -12 10 -9 10 4 0 -8 15 -27 34 -19 19 -34 43 -34 54 0 35 -11 52 -34 52 -12 0 -27 5 -33 11 -9 9 -33 0 -95 -36 -46 -26 -119 -68 -163 -92 -44 -25 -84 -49 -89 -53 -8 -8 -52 42 -69 80 -4 8 -16 29 -27 45 -11 17 -23 37 -27 45 -5 8 -48 81 -96 162 l-88 146 20 39 c11 21 29 56 41 78 11 22 31 58 45 80 14 22 32 54 40 70 8 17 25 47 38 67 12 21 35 61 51 90 34 63 45 78 58 78 6 0 38 -22 72 -48z m513 -39 c-4 -3 -7 0 -7 7 0 7 3 10 7 7 3 -4 3 -10 0 -14z"/>
<path d="M715 560 c-3 -6 1 -7 9 -4 18 7 21 14 7 14 -6 0 -13 -4 -16 -10z"/>
</g>
<g id="layer111" fill="#3891c8" stroke="none">
<path d="M0 1125 l0 -1125 1125 0 1125 0 0 1125 0 1125 -1125 0 -1125 0 0 -1125z m885 983 c28 -51 90 -162 139 -247 83 -145 88 -157 78 -186 l-11 -30 20 28 21 27 254 0 c145 0 253 -4 250 -9 -6 -9 -65 -30 -141 -50 -54 -14 -124 -81 -85 -81 13 0 130 -118 130 -131 0 -10 -17 -27 -79 -81 -35 -30 -47 -36 -62 -28 -26 14 -39 42 -39 84 0 20 -4 36 -8 36 -5 0 -20 27 -35 60 -19 45 -29 58 -41 54 -9 -3 -16 -10 -16 -15 0 -5 -17 -20 -37 -33 -21 -13 -81 -65 -133 -115 -52 -51 -106 -99 -119 -108 -22 -16 -24 -16 -37 2 -19 25 -18 34 8 91 12 27 21 52 21 55 -1 3 9 18 23 34 13 15 24 34 24 40 0 7 7 18 15 25 8 7 15 19 15 27 0 24 -27 -2 -34 -33 l-7 -26 -19 22 c-10 12 -24 19 -29 15 -6 -3 -11 -1 -11 4 0 15 -63 14 -78 -1 -20 -20 -35 40 -43 185 -8 146 -15 165 -59 163 -15 -1 -24 4 -23 11 5 21 -55 9 -78 -15 -29 -32 -34 -27 -11 11 10 17 54 94 97 170 42 75 80 137 84 137 3 0 29 -42 56 -92z m579 26 c20 -36 35 -68 32 -71 -2 -3 -14 13 -26 36 -11 23 -22 41 -24 41 -17 0 -35 -14 -29 -24 4 -6 -2 -4 -13 4 -10 8 -16 10 -12 6 5 -5 -1 -15 -12 -23 -14 -10 -20 -26 -20 -52 0 -20 -5 -42 -11 -48 -8 -8 -7 -17 2 -31 7 -12 10 -24 7 -28 -12 -11 -75 6 -104 28 -15 13 -34 23 -43 25 -8 1 -26 10 -41 21 -14 11 -49 31 -78 46 -29 14 -52 31 -52 36 0 6 -5 10 -12 10 -19 0 -88 33 -88 43 0 5 -11 6 -25 3 -14 -4 -25 -2 -25 3 0 5 -7 17 -16 25 -14 15 10 16 268 16 l284 0 38 -66z m66 -126 c0 -4 -6 -8 -12 -8 -7 0 -13 11 -13 25 0 23 1 24 13 8 6 -9 12 -20 12 -25z m-40 -9 c0 -5 -7 -6 -15 -3 -8 4 -15 13 -15 21 0 13 3 13 15 3 8 -7 15 -16 15 -21z m84 -61 c15 -27 23 -48 18 -48 -8 0 -52 80 -52 95 0 11 1 9 34 -47z m-39 13 c3 -5 2 -12 -3 -15 -5 -3 -9 1 -9 9 0 17 3 19 12 6z m-68 -48 c-4 -3 -10 -3 -14 0 -3 4 0 7 7 7 7 0 10 -3 7 -7z m158 -53 c9 -16 13 -30 11 -30 -3 0 -12 14 -21 30 -9 17 -13 30 -11 30 3 0 12 -13 21 -30z m-125 -1 c7 -11 17 -18 24 -16 7 3 13 -1 13 -8 0 -10 -9 -9 -38 6 -45 23 -58 39 -30 39 11 0 25 -9 31 -21z m-890 -39 c-6 -11 -13 -20 -16 -20 -2 0 0 9 6 20 6 11 13 20 16 20 2 0 0 -9 -6 -20z m1007 -28 c26 -15 46 -16 38 -2 -3 6 -4 10 -1 10 3 0 12 -13 21 -30 9 -16 13 -30 10 -30 -7 0 -115 61 -115 65 0 6 25 -1 47 -13z m-1030 -19 c-4 -3 -7 0 -7 7 0 7 3 10 7 7 3 -4 3 -10 0 -14z m-40 -70 c-4 -3 -7 0 -7 7 0 7 3 10 7 7 3 -4 3 -10 0 -14z m-143 -411 c33 -26 73 -56 89 -65 20 -13 27 -26 27 -48 0 -17 4 -28 9 -25 4 3 6 -17 4 -44 -3 -38 0 -50 10 -50 16 0 32 -74 21 -92 -4 -6 -2 -8 4 -4 6 3 13 2 17 -4 3 -5 2 -10 -3 -10 -5 0 2 -22 15 -48 l24 -49 136 -6 c292 -14 328 -9 408 65 52 47 95 119 116 192 13 46 -7 105 -52 149 l-39 40 41 -7 c89 -14 199 -94 239 -173 8 -15 26 -46 41 -68 14 -22 33 -53 41 -70 23 -45 41 -77 61 -106 17 -26 17 -28 -4 -60 -24 -38 -204 -345 -240 -408 -12 -23 -26 -41 -30 -41 -4 0 -38 52 -74 115 -37 64 -75 120 -85 125 -32 17 -98 12 -119 -9 -11 -11 -47 -69 -81 -130 l-62 -111 -296 1 -297 0 -144 245 c-128 219 -142 248 -133 269 11 24 232 411 258 453 8 12 19 22 25 22 6 0 39 -22 73 -48z m513 -39 c-4 -3 -7 0 -7 7 0 7 3 10 7 7 3 -4 3 -10 0 -14z"/>
<path d="M963 2153 c4 -3 10 -3 14 0 3 4 0 7 -7 7 -7 0 -10 -3 -7 -7z"/>
<path d="M480 1090 c0 -7 3 -10 7 -7 3 4 3 10 0 14 -4 3 -7 0 -7 -7z"/>
<path d="M500 1090 c0 -5 5 -10 10 -10 6 0 10 5 10 10 0 6 -4 10 -10 10 -5 0 -10 -4 -10 -10z"/>
</g>
<g id="layer112" fill="#fd8e0a" stroke="none">
<path d="M0 1125 l0 -1125 1125 0 1125 0 0 1125 0 1125 -1125 0 -1125 0 0 -1125z m1501 943 c40 -73 99 -178 131 -232 32 -55 56 -102 54 -104 -3 -2 -44 18 -93 45 -48 27 -160 89 -248 138 -88 48 -171 95 -185 105 -29 19 -128 66 -183 86 -70 25 -84 -2 -43 -84 23 -45 109 -196 147 -257 31 -50 33 -57 21 -89 l-11 -31 20 28 21 27 254 0 c145 0 253 -4 250 -9 -6 -9 -65 -30 -141 -50 -54 -14 -124 -81 -85 -81 13 0 130 -118 130 -131 0 -10 -17 -27 -79 -81 -35 -30 -47 -36 -62 -28 -26 14 -39 42 -39 84 0 20 -4 36 -8 36 -5 0 -20 27 -35 60 -19 45 -29 58 -41 54 -9 -3 -16 -10 -16 -15 0 -5 -17 -20 -37 -33 -21 -13 -81 -65 -133 -115 -52 -51 -106 -99 -119 -108 -22 -16 -24 -16 -37 2 -19 25 -18 34 8 91 12 27 21 52 21 55 -1 3 9 18 23 34 13 15 24 34 24 40 0 7 7 18 15 25 8 7 15 19 15 27 0 24 -27 -2 -34 -33 l-7 -26 -19 23 c-11 12 -20 17 -20 11 0 -8 -21 -12 -58 -12 l-59 0 -11 38 c-6 20 -14 65 -18 99 -6 58 -8 61 -28 54 -11 -5 -51 -11 -87 -15 -55 -6 -67 -5 -72 8 -4 9 -13 16 -20 16 -17 0 -42 -44 -33 -59 14 -23 -2 -10 -18 14 -16 24 -14 29 125 275 l141 250 302 0 303 0 74 -132z m-789 -665 c46 -80 52 -97 32 -89 -19 7 -104 -28 -104 -43 0 -6 -20 -16 -45 -23 -25 -7 -45 -18 -45 -26 0 -15 70 -82 86 -82 16 0 47 -37 40 -49 -3 -5 7 -12 24 -16 31 -7 47 -22 35 -33 -3 -3 -10 -1 -14 7 -5 8 -10 -1 -13 -26 -7 -50 -4 -105 6 -122 6 -9 4 -17 -5 -22 -34 -21 -43 -28 -38 -33 3 -3 79 -8 170 -12 211 -9 249 -1 324 68 52 47 95 119 116 192 13 46 -7 105 -52 149 l-39 40 41 -7 c89 -14 199 -94 239 -173 8 -15 26 -46 41 -68 14 -22 33 -53 41 -70 23 -45 41 -77 61 -106 17 -26 17 -28 -4 -60 -24 -38 -204 -345 -240 -408 -12 -23 -26 -41 -30 -41 -4 0 -38 52 -74 115 -37 64 -75 120 -85 125 -32 17 -98 12 -119 -9 -11 -11 -47 -69 -81 -130 l-62 -111 -296 1 -297 0 -143 244 c-96 163 -142 250 -138 262 4 10 66 122 139 248 l132 230 145 5 c86 3 154 10 166 17 26 15 56 76 48 97 -13 34 6 13 38 -41z m205 -160 c-4 -3 -7 0 -7 7 0 7 3 10 7 7 3 -4 3 -10 0 -14z"/>
</g>
<g id="layer113" fill="#faaa06" stroke="none">
<path d="M0 1125 l0 -1125 1125 0 1125 0 0 1125 0 1125 -1125 0 -1125 0 0 -1125z m1501 943 c40 -73 99 -178 131 -232 32 -55 56 -102 54 -104 -3 -2 -44 18 -93 45 -48 27 -160 89 -248 138 -88 48 -171 95 -185 105 -29 19 -128 66 -183 86 -70 25 -84 -2 -43 -84 23 -45 109 -196 147 -257 31 -50 33 -57 21 -89 l-11 -31 20 28 21 27 256 0 c232 -1 255 -2 237 -16 -11 -8 -49 -24 -85 -35 -101 -31 -102 -31 -52 -81 23 -24 43 -53 43 -63 1 -16 2 -17 6 -3 2 9 13 16 23 15 18 -1 19 -7 14 -52 -5 -42 -2 -56 18 -85 27 -40 58 -48 198 -49 59 -1 80 -4 70 -11 -13 -9 -13 -10 0 -10 11 -1 9 -4 -5 -13 -11 -7 -20 -16 -20 -22 -1 -17 -62 -130 -77 -141 -30 -23 -67 -15 -141 30 -42 25 -86 50 -99 55 -13 5 -38 21 -57 35 -66 49 -66 37 -1 -95 27 -56 47 -105 44 -110 -3 -5 -1 -9 4 -9 6 0 25 -28 42 -62 18 -35 44 -80 56 -100 28 -43 30 -64 9 -72 -8 -3 -12 -12 -9 -21 4 -8 0 -17 -9 -21 -9 -3 -20 -18 -26 -32 -11 -29 -20 -43 -63 -105 -16 -22 -28 -45 -28 -50 0 -6 -6 -18 -14 -26 -8 -9 -25 -36 -38 -61 -35 -67 -82 -140 -90 -140 -3 0 -37 52 -73 115 -37 64 -75 120 -85 125 -32 17 -98 12 -119 -9 -11 -11 -47 -69 -81 -130 l-62 -111 -296 1 -297 0 -143 244 c-96 163 -142 250 -138 262 4 10 66 122 139 248 l132 230 145 5 c86 3 154 10 166 17 26 15 56 76 48 97 -13 34 6 13 38 -41 46 -80 52 -97 32 -89 -19 7 -104 -28 -104 -43 0 -6 -20 -16 -45 -23 -25 -7 -45 -18 -45 -26 0 -15 70 -82 86 -82 16 0 47 -37 40 -49 -3 -5 7 -12 24 -16 31 -7 47 -22 35 -33 -3 -3 -10 -1 -14 7 -5 8 -10 -1 -13 -26 -7 -49 -4 -105 6 -122 8 -13 4 -18 -34 -41 -8 -4 -12 -11 -9 -14 3 -3 79 -8 170 -12 211 -9 249 -1 324 68 52 47 95 119 116 192 13 45 -7 105 -51 148 -33 33 -35 38 -16 38 11 -1 38 -7 60 -15 21 -7 43 -12 50 -11 6 2 8 1 3 -1 -8 -5 1 -23 12 -23 11 0 6 67 -6 82 -6 7 -14 28 -18 47 -4 19 -17 51 -28 70 -11 20 -20 47 -19 60 2 23 1 23 -16 8 -10 -10 -28 -17 -39 -17 -20 0 -49 -25 -210 -181 -57 -55 -83 -74 -86 -64 -9 21 7 104 28 150 10 22 18 43 17 46 0 3 10 18 24 34 13 15 24 34 24 40 0 7 7 18 15 25 8 7 15 19 15 27 0 24 -27 -2 -34 -33 l-7 -26 -19 23 c-11 12 -20 17 -20 11 0 -8 -21 -12 -58 -12 l-59 0 -11 38 c-6 20 -14 65 -18 99 -6 58 -8 61 -28 54 -11 -5 -51 -11 -87 -15 -55 -6 -67 -5 -72 8 -4 9 -13 16 -20 16 -17 0 -42 -44 -33 -59 14 -23 -2 -10 -18 14 -16 24 -14 29 125 275 l141 250 302 0 303 0 74 -132z m603 -1196 c26 -16 35 -27 28 -34 -11 -11 -52 6 -52 22 0 6 -17 10 -37 11 -21 0 -47 4 -57 8 -18 7 -18 8 -3 14 9 3 17 2 17 -3 0 -6 9 -10 21 -10 14 0 19 5 16 14 -7 19 13 12 67 -22z"/>
</g>
<g id="layer114" fill="#489acd" stroke="none">
<path d="M0 1125 l0 -1125 1125 0 1125 0 0 1125 0 1125 -1125 0 -1125 0 0 -1125z m1501 943 c40 -73 99 -178 131 -232 32 -55 56 -102 54 -104 -3 -2 -44 18 -93 45 -48 27 -160 89 -248 138 -88 48 -171 95 -185 105 -29 19 -128 66 -183 86 -70 25 -84 -2 -43 -84 23 -45 109 -196 147 -257 31 -50 33 -57 21 -89 l-11 -31 20 28 21 27 256 0 c232 -1 255 -2 237 -16 -11 -8 -49 -24 -85 -35 -101 -31 -102 -31 -52 -81 23 -24 43 -53 43 -63 1 -16 2 -17 6 -3 2 9 13 16 23 15 18 -1 19 -7 14 -52 -5 -42 -2 -56 18 -85 29 -43 69 -51 213 -43 113 6 108 9 157 -80 66 -121 64 -112 40 -156 -12 -21 -22 -44 -22 -51 0 -7 -8 -19 -17 -26 -14 -10 -16 -17 -7 -31 15 -24 128 -100 187 -125 26 -12 47 -26 47 -33 0 -6 -66 -49 -147 -95 -173 -97 -270 -153 -333 -191 -25 -15 -74 -42 -110 -61 -36 -19 -83 -45 -105 -58 -114 -66 -125 -72 -125 -58 -1 9 -5 8 -14 -4 -7 -10 -16 -18 -19 -18 -3 0 -36 52 -72 115 -37 64 -75 120 -85 125 -32 17 -98 12 -119 -9 -11 -11 -47 -69 -81 -130 l-62 -111 -296 1 -297 0 -143 244 c-96 163 -142 250 -138 262 4 10 66 122 139 248 l132 230 145 5 c86 3 154 10 166 17 26 15 56 76 48 97 -13 34 6 13 38 -41 46 -80 52 -97 32 -89 -19 7 -104 -28 -104 -43 0 -6 -20 -16 -45 -23 -25 -7 -45 -18 -45 -26 0 -15 70 -82 86 -82 16 0 47 -37 40 -49 -3 -5 7 -12 24 -16 31 -7 47 -22 35 -33 -3 -3 -10 -1 -14 7 -5 8 -10 -1 -13 -26 -7 -49 -4 -105 6 -122 8 -13 4 -18 -34 -41 -8 -4 -12 -11 -9 -14 3 -3 79 -8 170 -12 211 -9 249 -1 324 68 52 47 95 119 116 192 13 45 -7 105 -51 148 -33 33 -35 38 -16 38 11 -1 38 -7 60 -15 21 -7 43 -12 50 -11 6 2 8 1 3 -1 -8 -5 1 -23 12 -23 11 0 6 67 -6 82 -6 7 -14 28 -18 47 -4 19 -17 51 -28 70 -11 20 -20 47 -19 60 2 23 1 23 -16 8 -10 -10 -28 -17 -39 -17 -20 0 -49 -25 -210 -181 -57 -55 -83 -74 -86 -64 -9 21 7 104 28 150 10 22 18 43 17 46 0 3 10 18 24 34 13 15 24 34 24 40 0 7 7 18 15 25 8 7 15 19 15 27 0 24 -27 -2 -34 -33 l-7 -26 -19 23 c-11 12 -20 17 -20 11 0 -8 -21 -12 -58 -12 l-59 0 -11 38 c-6 20 -14 65 -18 99 -6 58 -8 61 -28 54 -11 -5 -51 -11 -87 -15 -55 -6 -67 -5 -72 8 -4 9 -13 16 -20 16 -17 0 -42 -44 -33 -59 14 -23 -2 -10 -18 14 -16 24 -14 29 125 275 l141 250 302 0 303 0 74 -132z"/>
<path d="M876 2137 c3 -10 9 -15 12 -12 3 3 0 11 -7 18 -10 9 -11 8 -5 -6z"/>
</g>
<g id="layer115" fill="#fb8f28" stroke="none">
<path d="M0 1125 l0 -1125 1125 0 1125 0 0 1125 0 1125 -1125 0 -1125 0 0 -1125z m1527 898 c182 -321 169 -296 144 -288 -13 4 -64 30 -114 59 -228 130 -405 224 -455 242 -36 13 -55 3 -67 -36 -3 -11 -11 -20 -16 -20 -5 0 -9 -6 -9 -14 0 -8 -7 -16 -14 -18 -11 -2 2 -33 50 -117 67 -119 70 -129 53 -164 -7 -16 -4 -14 11 6 l22 27 256 0 c232 -1 255 -2 237 -16 -11 -8 -49 -24 -85 -35 -101 -31 -102 -31 -52 -81 23 -24 43 -53 43 -63 1 -16 2 -17 6 -3 2 9 13 16 23 15 18 -1 19 -7 14 -52 -5 -42 -2 -56 18 -85 29 -43 69 -51 213 -43 113 6 108 9 157 -80 66 -121 64 -112 40 -156 -12 -21 -22 -44 -22 -51 0 -7 -8 -19 -17 -26 -14 -10 -16 -17 -7 -31 15 -24 128 -100 187 -125 26 -12 47 -26 47 -33 0 -6 -66 -49 -147 -95 -173 -97 -270 -153 -333 -191 -25 -15 -74 -42 -110 -61 -36 -19 -83 -45 -105 -58 -114 -66 -125 -72 -125 -58 -1 9 -5 8 -14 -4 -7 -10 -16 -18 -19 -18 -3 0 -36 52 -72 115 -37 64 -75 120 -85 125 -32 17 -98 12 -119 -9 -11 -11 -47 -69 -81 -130 l-62 -111 -296 1 -297 0 -143 244 c-96 163 -142 250 -138 262 4 10 66 122 139 248 l132 230 149 5 148 5 29 33 c45 50 41 104 -14 190 -24 37 -54 84 -66 105 l-23 37 142 250 142 250 303 0 302 0 100 -177z m-442 -13 c3 -5 1 -10 -4 -10 -6 0 -11 5 -11 10 0 6 2 10 4 10 3 0 8 -4 11 -10z"/>
<path d="M1056 1593 c-6 -14 -5 -15 5 -6 7 7 10 15 7 18 -3 3 -9 -2 -12 -12z"/>
<path d="M1023 1559 c-6 -8 -14 -24 -18 -37 -3 -12 -22 -39 -40 -59 -20 -21 -31 -42 -27 -51 4 -11 1 -13 -8 -7 -9 5 -11 4 -6 -3 6 -11 -6 -16 -26 -13 -5 0 -8 -7 -8 -16 -1 -17 -1 -17 -14 -1 -9 13 -16 14 -24 6 -8 -8 -13 -3 -17 18 -22 96 -25 99 -92 95 -26 -2 -33 1 -34 16 0 14 -2 15 -6 3 -3 -8 -10 -18 -16 -21 -11 -8 6 -43 72 -151 28 -45 45 -86 47 -110 2 -34 0 -38 -22 -38 -13 0 -24 -5 -24 -10 0 -6 -16 -18 -35 -27 -19 -9 -35 -20 -35 -24 0 -4 15 -16 33 -27 17 -12 59 -40 92 -64 33 -24 76 -52 97 -62 25 -14 38 -28 42 -49 5 -23 10 -28 25 -24 17 4 19 2 10 -21 -14 -36 -20 -38 -92 -41 -98 -4 -80 -11 27 -11 53 0 117 5 142 11 86 22 181 134 215 253 13 45 -7 105 -51 148 -33 33 -35 38 -16 38 11 -1 38 -7 60 -15 21 -7 43 -12 50 -11 6 2 8 1 3 -1 -8 -5 1 -23 12 -23 11 0 6 67 -6 82 -6 7 -14 28 -18 47 -4 19 -17 51 -28 70 -11 20 -20 47 -19 60 2 23 1 23 -16 8 -10 -10 -28 -17 -39 -17 -20 0 -49 -25 -210 -181 -57 -55 -83 -74 -86 -64 -9 21 7 104 28 150 10 22 18 43 17 46 0 3 10 18 24 34 13 15 24 33 24 38 0 6 7 18 16 28 9 10 14 23 12 30 -3 8 -7 7 -15 -2z"/>
<path d="M1365 1220 c3 -5 8 -10 11 -10 3 0 2 5 -1 10 -3 6 -8 10 -11 10 -3 0 -2 -4 1 -10z"/>
<path d="M1445 1140 c3 -5 8 -10 11 -10 3 0 2 5 -1 10 -3 6 -8 10 -11 10 -3 0 -2 -4 1 -10z"/>
<path d="M1485 1070 c3 -5 8 -10 11 -10 3 0 2 5 -1 10 -3 6 -8 10 -11 10 -3 0 -2 -4 1 -10z"/>
<path d="M1604 798 c-4 -7 -3 -8 4 -4 12 7 16 16 8 16 -3 0 -8 -5 -12 -12z"/>
<path d="M1514 638 c-4 -7 -3 -8 4 -4 7 4 12 9 12 12 0 8 -9 4 -16 -8z"/>
<path d="M1494 608 c-4 -7 -3 -8 4 -4 7 4 12 9 12 12 0 8 -9 4 -16 -8z"/>
<path d="M1424 488 c-4 -7 -3 -8 4 -4 12 7 16 16 8 16 -3 0 -8 -5 -12 -12z"/>
</g>
<g id="layer116" fill="#56a5d0" stroke="none">
<path d="M0 1125 l0 -1125 1125 0 1125 0 0 1125 0 1125 -1125 0 -1125 0 0 -1125z m1527 898 c182 -321 169 -296 144 -288 -13 4 -64 30 -114 59 -228 130 -405 224 -455 242 -36 13 -55 3 -67 -36 -3 -11 -11 -20 -16 -20 -5 0 -9 -6 -9 -14 0 -8 -7 -16 -14 -18 -11 -2 2 -33 50 -117 35 -62 64 -120 64 -128 0 -8 4 -12 9 -9 12 8 572 8 580 1 10 -11 -30 -34 -46 -28 -11 4 -14 2 -11 -8 3 -8 11 -13 17 -12 20 5 12 -19 -36 -100 -49 -83 -56 -119 -32 -163 20 -38 46 -44 188 -44 144 0 135 4 183 -83 66 -121 64 -112 40 -156 -12 -21 -22 -44 -22 -51 0 -7 -8 -19 -17 -26 -14 -10 -16 -17 -7 -31 15 -24 128 -100 187 -125 26 -12 47 -26 47 -33 0 -6 -66 -49 -147 -95 -173 -97 -270 -153 -333 -191 -25 -15 -74 -42 -110 -61 -36 -19 -83 -45 -105 -58 -100 -59 -125 -71 -125 -64 0 4 -6 -1 -14 -11 -15 -21 -18 -17 -110 143 -27 45 -56 87 -66 92 -32 17 -98 12 -119 -9 -11 -11 -47 -69 -81 -130 l-62 -111 -296 1 -297 0 -143 244 c-96 163 -142 250 -138 262 4 10 66 122 139 248 l132 230 149 5 148 5 29 33 c45 50 41 104 -14 190 -24 37 -54 84 -66 105 l-23 37 142 250 142 250 303 0 302 0 100 -177z m-442 -13 c3 -5 1 -10 -4 -10 -6 0 -11 5 -11 10 0 6 2 10 4 10 3 0 8 -4 11 -10z"/>
<path d="M1023 1558 c-12 -16 -34 -68 -29 -68 7 0 47 72 43 77 -2 2 -8 -2 -14 -9z"/>
<path d="M701 1508 c0 -9 -6 -18 -13 -20 -13 -5 3 -39 71 -150 28 -45 45 -86 47 -110 2 -34 0 -38 -22 -38 -13 0 -24 -5 -24 -10 0 -6 -16 -18 -35 -27 -19 -9 -35 -20 -35 -24 0 -4 15 -16 33 -27 17 -12 59 -40 92 -64 33 -24 76 -52 97 -62 25 -14 38 -28 42 -49 5 -23 10 -28 25 -24 17 4 19 2 10 -21 -14 -36 -20 -38 -92 -41 -98 -4 -80 -11 27 -11 53 0 117 5 142 11 86 22 181 134 215 253 22 75 -48 177 -128 191 -85 14 -165 -42 -188 -132 l-12 -48 -19 40 c-12 27 -18 65 -18 120 -1 74 2 85 36 148 21 37 36 67 33 67 -14 0 -52 -55 -47 -68 4 -11 2 -13 -8 -7 -9 5 -11 4 -6 -3 6 -11 -6 -16 -26 -13 -5 0 -8 -7 -8 -16 -1 -17 -1 -17 -14 -1 -9 13 -16 14 -24 6 -8 -8 -13 -3 -17 18 -22 96 -25 99 -92 95 -23 -2 -33 2 -36 16 -4 15 -5 15 -6 1z"/>
</g>
<g id="layer117" fill="#f5bb34" stroke="none">
<path d="M0 1125 l0 -1125 1125 0 1125 0 0 1125 0 1125 -1125 0 -1125 0 0 -1125z m1531 895 c137 -238 171 -300 161 -300 -4 0 -47 23 -97 51 -253 142 -287 157 -345 157 -30 -1 -50 -3 -43 -5 15 -5 -1 -47 -30 -79 -10 -12 -26 -37 -35 -55 -12 -24 -23 -33 -37 -31 -17 3 -17 2 -4 -15 33 -43 34 -43 318 -42 150 0 276 -3 280 -6 10 -11 -30 -34 -46 -28 -11 4 -14 2 -11 -8 3 -8 11 -13 17 -12 20 5 12 -19 -36 -100 -49 -83 -56 -119 -32 -163 20 -38 46 -44 188 -44 144 0 135 4 183 -83 66 -121 64 -112 40 -156 -12 -21 -22 -44 -22 -51 0 -7 -8 -19 -17 -26 -14 -10 -16 -17 -7 -31 15 -24 128 -100 187 -125 26 -12 47 -26 47 -33 0 -6 -66 -49 -148 -95 -172 -97 -269 -153 -332 -191 -25 -15 -74 -42 -110 -61 -36 -19 -83 -45 -105 -58 -100 -59 -125 -71 -125 -64 0 4 -6 -1 -14 -11 -15 -21 -18 -17 -110 143 -27 45 -56 87 -66 92 -32 17 -98 12 -119 -9 -11 -11 -47 -69 -81 -130 l-62 -111 -296 1 -297 0 -143 244 c-96 163 -142 250 -138 262 4 10 66 122 139 248 l132 230 154 10 c150 10 153 11 177 38 41 48 33 88 -41 211 -36 59 -65 111 -65 116 0 7 64 128 90 170 25 39 140 242 140 246 0 2 12 22 26 44 17 26 35 40 52 42 15 2 151 4 302 4 l275 -1 106 -185z"/>
</g>
<g id="layer118" fill="#6db2d5" stroke="none">
<path d="M0 1125 l0 -1125 1125 0 1125 0 0 1125 0 1125 -1125 0 -1125 0 0 -1125z m1531 895 c137 -238 171 -300 161 -300 -4 0 -47 23 -97 51 -253 142 -287 157 -345 157 -30 -1 -50 -3 -43 -5 15 -5 -1 -47 -30 -79 -10 -12 -26 -37 -35 -55 -12 -24 -23 -33 -37 -31 -17 3 -17 2 -4 -15 33 -43 34 -43 318 -42 150 0 276 -2 279 -5 3 -3 -2 -14 -11 -24 -10 -10 -17 -25 -17 -33 0 -8 -20 -48 -45 -89 -25 -41 -45 -88 -45 -103 0 -35 24 -83 49 -97 11 -5 82 -10 158 -10 l138 0 40 -77 c22 -43 46 -85 52 -94 10 -12 8 -24 -12 -62 -14 -25 -25 -51 -25 -58 0 -6 -8 -18 -17 -25 -14 -10 -16 -17 -7 -31 15 -24 127 -99 193 -129 71 -32 71 -32 -124 -139 -80 -44 -135 -78 -145 -90 -7 -8 -18 -15 -24 -15 -21 0 -106 -59 -105 -72 0 -10 2 -10 6 0 2 6 14 12 25 12 12 0 19 -2 16 -5 -8 -8 53 -75 68 -75 10 0 54 -103 54 -129 0 -8 -75 -11 -292 -9 l-293 3 -67 115 c-37 63 -75 121 -85 128 -27 19 -100 15 -122 -7 -11 -11 -47 -69 -81 -130 l-62 -111 -296 1 -297 0 -143 244 c-96 163 -142 250 -138 262 4 10 66 122 139 248 l132 230 154 10 c150 10 153 11 177 38 41 48 33 88 -41 211 -36 59 -65 111 -65 116 0 7 64 128 90 170 25 39 140 242 140 246 0 2 12 22 26 44 17 26 35 40 52 42 15 2 151 4 302 4 l275 -1 106 -185z m557 -985 c-3 -3 -9 2 -12 12 -6 14 -5 15 5 6 7 -7 10 -15 7 -18z m59 -112 c-4 -3 -7 0 -7 7 0 7 3 10 7 7 3 -4 3 -10 0 -14z m-187 -497 c0 -3 -5 -8 -12 -12 -7 -4 -8 -3 -4 4 7 12 16 16 16 8z"/>
<path d="M790 1320 c0 -7 3 -10 7 -7 3 4 3 10 0 14 -4 3 -7 0 -7 -7z"/>
<path d="M1065 1276 c-46 -20 -94 -80 -101 -127 -8 -47 -16 -42 -37 21 l-15 45 -7 -36 c-4 -22 -2 -45 4 -57 14 -27 14 -65 -1 -80 -9 -9 -9 -12 0 -12 8 0 10 -8 7 -23 -5 -19 3 -27 47 -54 30 -18 81 -44 115 -57 l62 -24 46 49 c71 76 111 179 94 241 -26 97 -129 151 -214 114z"/>
</g>
<g id="layer119" fill="#f9c928" stroke="none">
<path d="M0 1125 l0 -1125 1125 0 1125 0 0 1125 0 1125 -1125 0 -1125 0 0 -1125z m1448 1050 c12 -19 22 -37 22 -40 0 -4 69 -127 199 -354 l43 -74 -21 -28 c-12 -15 -21 -34 -21 -41 0 -7 -20 -47 -45 -88 -25 -41 -45 -88 -45 -103 0 -35 24 -83 49 -97 11 -5 82 -10 158 -10 l138 0 40 -77 c22 -43 46 -85 52 -94 10 -12 8 -24 -12 -62 -14 -25 -25 -51 -25 -58 0 -6 -8 -18 -17 -25 -14 -10 -16 -17 -7 -31 15 -24 127 -99 193 -129 71 -32 71 -32 -124 -139 -80 -44 -135 -78 -145 -90 -7 -8 -18 -15 -24 -15 -21 0 -106 -59 -105 -72 0 -10 2 -10 6 0 2 6 14 12 25 12 12 0 19 -2 16 -5 -8 -8 53 -75 68 -75 10 0 54 -103 54 -129 0 -8 -75 -11 -292 -9 l-293 3 -67 115 c-37 63 -75 121 -85 128 -27 19 -100 15 -122 -7 -11 -11 -47 -69 -81 -130 l-62 -111 -296 1 -297 0 -143 245 c-98 167 -142 250 -137 262 10 28 257 456 273 475 13 15 34 17 154 17 l140 0 29 29 c46 46 40 85 -27 197 -30 52 -59 96 -65 99 -15 10 -10 55 9 83 11 15 32 52 49 82 17 30 39 71 50 90 12 19 45 78 75 130 31 52 64 110 74 127 l19 33 300 0 300 0 23 -35z m640 -1140 c-3 -3 -9 2 -12 12 -6 14 -5 15 5 6 7 -7 10 -15 7 -18z m59 -112 c-4 -3 -7 0 -7 7 0 7 3 10 7 7 3 -4 3 -10 0 -14z m-187 -497 c0 -3 -5 -8 -12 -12 -7 -4 -8 -3 -4 4 7 12 16 16 16 8z"/>
</g>
<g id="layer120" fill="#7bbee4" stroke="none">
<path d="M0 1125 l0 -1125 1125 0 1125 0 0 1125 0 1125 -1125 0 -1125 0 0 -1125z m1448 1050 c12 -19 22 -37 22 -40 0 -4 69 -127 199 -354 l43 -74 -21 -28 c-12 -15 -21 -34 -21 -41 0 -7 -20 -47 -45 -88 -25 -41 -45 -88 -45 -103 0 -35 24 -83 49 -97 11 -5 82 -10 158 -10 l138 0 49 -88 c106 -188 226 -410 226 -417 0 -4 -24 -48 -52 -97 -29 -49 -57 -97 -63 -106 -5 -10 -46 -80 -90 -155 l-80 -137 -290 2 -290 3 -67 115 c-37 63 -75 121 -85 128 -27 19 -100 15 -122 -7 -11 -11 -47 -69 -81 -130 l-62 -111 -296 1 -297 0 -143 245 c-98 167 -142 250 -137 262 10 28 257 456 273 475 13 15 34 17 154 17 l140 0 29 29 c46 46 40 85 -27 197 -30 52 -59 96 -65 99 -15 10 -10 55 9 83 11 15 32 52 49 82 17 30 39 71 50 90 12 19 45 78 75 130 31 52 64 110 74 127 l19 33 300 0 300 0 23 -35z"/>
<path d="M1449 1783 c-12 -15 -12 -16 3 -10 10 3 20 1 24 -4 4 -7 -3 -10 -17 -9 -63 5 -81 1 -76 -20 3 -13 0 -20 -10 -20 -8 0 -11 -5 -8 -10 7 -11 302 -13 318 -3 5 3 -26 25 -70 49 -85 47 -140 57 -164 27z"/>
<path d="M1065 1276 c-40 -17 -91 -77 -100 -116 -11 -49 3 -117 27 -134 11 -8 27 -25 36 -38 15 -21 15 -22 -1 -9 -13 10 -17 10 -17 1 0 -9 -4 -9 -16 1 -15 12 -16 11 -9 -11 10 -36 15 -39 90 -66 l67 -24 35 35 c20 20 33 38 30 41 -3 3 -22 1 -44 -5 -48 -14 -83 -14 -83 -1 0 6 21 10 48 10 59 0 90 16 119 59 52 77 49 151 -8 216 -45 50 -115 67 -174 41z"/>
</g>
<g id="layer121" fill="#ffffff" stroke="none">
<path d="M0 1125 l0 -1125 1125 0 1125 0 0 1125 0 1125 -1125 0 -1125 0 0 -1125z m1501 958 c40 -71 103 -184 142 -252 l69 -123 -21 -29 c-12 -15 -21 -34 -21 -41 0 -7 -20 -47 -45 -88 -25 -41 -45 -88 -45 -103 0 -35 24 -83 49 -97 11 -5 82 -10 158 -10 l138 0 49 -88 c106 -188 226 -410 226 -417 0 -4 -24 -48 -52 -97 -29 -49 -57 -97 -63 -106 -5 -10 -46 -80 -90 -155 l-80 -137 -290 2 -290 3 -67 115 c-37 63 -75 121 -85 128 -27 19 -100 15 -122 -7 -11 -11 -47 -69 -81 -130 l-62 -111 -296 1 -297 0 -143 245 c-98 167 -142 250 -137 262 10 28 257 456 273 475 13 15 34 17 148 17 133 0 134 0 166 29 52 47 46 84 -35 218 l-67 112 146 256 147 255 303 0 303 0 72 -127z"/>
<path d="M1065 1276 c-84 -38 -128 -142 -91 -214 72 -138 265 -122 305 24 34 123 -100 241 -214 190z"/>
</g>


</svg>