<?xml version="1.0" encoding="UTF-8" standalone="no"?>
<!-- Created with Inkscape (http://www.inkscape.org/) -->

<svg
   xmlns:dc="http://purl.org/dc/elements/1.1/"
   xmlns:cc="http://creativecommons.org/ns#"
   xmlns:rdf="http://www.w3.org/1999/02/22-rdf-syntax-ns#"
   xmlns:svg="http://www.w3.org/2000/svg"
   xmlns="http://www.w3.org/2000/svg"
   xmlns:sodipodi="http://sodipodi.sourceforge.net/DTD/sodipodi-0.dtd"
   xmlns:inkscape="http://www.inkscape.org/namespaces/inkscape"
   width="97.140335mm"
   height="31.626802mm"
   viewBox="0 0 97.140335 31.626802"
   version="1.1"
   id="svg8"
   inkscape:version="0.92.2 (5c3e80d, 2017-08-06)"
   sodipodi:docname="styloq-logo-draft-2.svg">
  <defs
     id="defs2" />
  <sodipodi:namedview
     id="base"
     pagecolor="#ffffff"
     bordercolor="#666666"
     borderopacity="1.0"
     inkscape:pageopacity="0.0"
     inkscape:pageshadow="2"
     inkscape:zoom="1.4"
     inkscape:cx="224.1773"
     inkscape:cy="53.306228"
     inkscape:document-units="mm"
     inkscape:current-layer="layer1"
     showgrid="false"
     inkscape:window-width="1920"
     inkscape:window-height="1017"
     inkscape:window-x="-8"
     inkscape:window-y="-8"
     inkscape:window-maximized="1"
     fit-margin-top="0"
     fit-margin-left="0"
     fit-margin-right="0"
     fit-margin-bottom="0" />
  <metadata
     id="metadata5">
    <rdf:RDF>
      <cc:Work
         rdf:about="">
        <dc:format>image/svg+xml</dc:format>
        <dc:type
           rdf:resource="http://purl.org/dc/dcmitype/StillImage" />
        <dc:title></dc:title>
      </cc:Work>
    </rdf:RDF>
  </metadata>
  <g
     inkscape:label="Layer 1"
     inkscape:groupmode="layer"
     id="layer1"
     style="display:inline"
     transform="translate(-16.188786,-46.445344)">
    <g
       aria-label="Stylo Q"
       transform="matrix(0.57981396,0,0,0.6494878,-90.145248,-19.52303)"
       style="font-style:normal;font-variant:normal;font-weight:800;font-stretch:normal;font-size:40px;line-height:125%;font-family:Orbitron;-inkscape-font-specification:'Orbitron, Ultra-Bold';font-variant-ligatures:normal;font-variant-caps:normal;font-variant-numeric:normal;font-feature-settings:normal;text-align:start;letter-spacing:0px;word-spacing:0px;writing-mode:lr-tb;text-anchor:start;fill:#009999;fill-opacity:1;stroke:#009999;stroke-width:0.43183321;stroke-linecap:butt;stroke-linejoin:miter;stroke-miterlimit:4;stroke-dasharray:none;stroke-opacity:1"
       id="flowRoot832">
      <path
         d="m 192.16516,132.62576 q -2.36,0 -4.04,-1.68 -1.68,-1.68 -1.68,-4.08 v -2.44 h 5.72 v 1.08 q 0,1.2 0.08,1.28 0.08,0.08 1.28,0.08 h 14.52 q 1.24,0 1.28,-0.08 0.08,-0.08 0.08,-1.28 v -3.04 q 0,-1.2 -0.08,-1.28 -0.04,-0.08 -1.28,-0.08 h -15.88 q -2.36,0 -4.04,-1.68 -1.68,-1.68 -1.68,-4.04 v -5.8 q 0,-2.4 1.68,-4.08 1.68,-1.68 4.04,-1.68 h 17.32 q 2.32,0 4.04,1.68 1.72,1.68 1.72,4.08 v 2.44 h -5.84 v -1.08 q 0,-1.2 -0.08,-1.28 -0.04,-0.08 -1.28,-0.08 h -14.52 q -1.2,0 -1.28,0.08 -0.08,0.08 -0.08,1.28 v 3.04 q 0,1.2 0.08,1.28 0.08,0.08 1.28,0.08 h 15.96 q 2.32,0 4.04,1.68 1.72,1.68 1.72,4.04 v 5.8 q 0,2.4 -1.72,4.08 -1.72,1.68 -4.04,1.68 z"
         style="fill:#009999;fill-opacity:1;stroke:#009999;stroke-width:0.43183321;stroke-miterlimit:4;stroke-dasharray:none;stroke-opacity:1"
         id="path835"
         inkscape:connector-curvature="0" />
      <path
         d="m 225.13203,132.62576 q -2.32,0 -4,-1.68 -1.68,-1.68 -1.68,-3.96 v -24.56 h 5.68 v 7 h 8.84 v 5.68 h -8.84 v 10.48 q 0,1.2 0.08,1.28 0.08,0.08 1.28,0.08 h 7.48 v 5.68 z"
         style="fill:#009999;fill-opacity:1;stroke:#009999;stroke-width:0.43183321;stroke-miterlimit:4;stroke-dasharray:none;stroke-opacity:1"
         id="path837"
         inkscape:connector-curvature="0" />
      <path
         d="m 240.89703,141.06576 v -5.72 h 12.76 q 1.24,0 1.28,-0.08 0.08,-0.04 0.08,-1.24 v -1.4 h -12.2 q -2.32,0 -4,-1.68 -1.68,-1.68 -1.68,-3.96 v -17.48 h 5.68 v 16.08 q 0,1.2 0.08,1.28 0.08,0.08 1.28,0.08 h 9.48 q 1.24,0 1.28,-0.08 0.08,-0.08 0.08,-1.28 v -16.08 h 5.68 v 25.92 q 0,2.36 -1.68,4 -1.64,1.64 -3.96,1.64 z"
         style="fill:#009999;fill-opacity:1;stroke:#009999;stroke-width:0.43183321;stroke-miterlimit:4;stroke-dasharray:none;stroke-opacity:1"
         id="path839"
         inkscape:connector-curvature="0" />
      <path
         d="m 270.28641,132.62576 q -2.28,0 -3.96,-1.68 -1.68,-1.68 -1.68,-3.96 v -25.2 h 5.72 v 23.8 q 0,1.2 0.04,1.28 0.08,0.08 1.32,0.08 h 3.44 v 5.68 z"
         style="fill:#009999;fill-opacity:1;stroke:#009999;stroke-width:0.43183321;stroke-miterlimit:4;stroke-dasharray:none;stroke-opacity:1"
         id="path841"
         inkscape:connector-curvature="0" />
      <path
         d="m 283.84016,132.62576 q -2.28,0 -3.96,-1.68 -1.68,-1.68 -1.68,-3.96 v -11.92 q 0,-2.28 1.68,-3.96 1.68,-1.68 3.96,-1.68 h 12.24 q 2.36,0 4,1.68 1.64,1.68 1.64,3.96 v 11.92 q 0,2.28 -1.64,3.96 -1.64,1.68 -4,1.68 z m 1.4,-5.68 h 9.44 q 1.24,0 1.28,-0.08 0.08,-0.08 0.08,-1.28 v -9.12 q 0,-1.2 -0.08,-1.28 -0.04,-0.08 -1.28,-0.08 h -9.44 q -1.2,0 -1.28,0.08 -0.08,0.08 -0.08,1.28 v 9.12 q 0,1.2 0.08,1.28 0.08,0.08 1.28,0.08 z"
         style="fill:#009999;fill-opacity:1;stroke:#009999;stroke-width:0.43183321;stroke-miterlimit:4;stroke-dasharray:none;stroke-opacity:1"
         id="path843"
         inkscape:connector-curvature="0" />
      <path
         d="m 324.31453,132.62576 q -2.4,0 -4.08,-1.68 -1.68,-1.68 -1.68,-4.08 v -17.28 q 0,-2.4 1.68,-4.08 1.68,-1.68 4.08,-1.68 h 17.28 q 2.36,0 4.04,1.68 1.72,1.68 1.72,4.08 v 17.28 h 3.36 v 5.76 z m 1.32,-5.76 h 14.56 q 1.2,0 1.28,-0.08 0.08,-0.08 0.08,-1.28 v -14.56 q 0,-1.2 -0.08,-1.28 -0.08,-0.08 -1.28,-0.08 h -14.56 q -1.2,0 -1.28,0.08 -0.04,0.08 -0.04,1.28 v 14.56 q 0,1.2 0.04,1.28 0.08,0.08 1.28,0.08 z"
         style="fill:#009999;fill-opacity:1;stroke:#009999;stroke-width:0.43183321;stroke-miterlimit:4;stroke-dasharray:none;stroke-opacity:1"
         id="path845"
         inkscape:connector-curvature="0" />
    </g>
    <path
       style="fill:none;fill-rule:evenodd;stroke:#009999;stroke-width:4;stroke-linecap:butt;stroke-linejoin:miter;stroke-miterlimit:4;stroke-dasharray:none;stroke-opacity:1"
       d="m 49.425923,70.214926 -30.692865,0.0082 -0.401214,5.799731 93.482836,0.04929"
       id="path826"
       inkscape:connector-curvature="0"
       sodipodi:nodetypes="cccc" />
    <path
       style="fill:none;fill-rule:evenodd;stroke:#009999;stroke-width:4;stroke-linecap:butt;stroke-linejoin:miter;stroke-miterlimit:4;stroke-dasharray:none;stroke-opacity:1"
       d="m 109.82225,66.492518 -0.0403,4.986688"
       id="path871"
       inkscape:connector-curvature="0" />
  </g>
</svg>
