<svg width="192" height="192" viewBox="0 0 192 192" xmlns="http://www.w3.org/2000/svg"><title>VK Logo 192dp</title><g fill="none" fill-rule="evenodd"><rect fill="#5181B8" width="192" height="192" rx="32"/><path d="M157.234 66.146c.89-2.966 0-5.146-4.234-5.146h-14c-3.56 0-5.2 1.883-6.09 3.96 0 0-7.12 17.353-17.206 28.625-3.263 3.263-4.746 4.3-6.526 4.3-.89 0-2.178-1.037-2.178-4.003V66.146c0-3.56-1.033-5.146-4-5.146H81c-2.224 0-3.562 1.652-3.562 3.218 0 3.375 5.042 4.153 5.562 13.645V98.48c0 4.52-.816 5.34-2.596 5.34-4.746 0-16.29-17.432-23.138-37.377C55.924 62.566 54.578 61 51 61H37c-4 0-4.8 1.883-4.8 3.96 0 3.708 4.747 22.1 22.1 46.424C65.87 127.994 82.168 137 97 137c8.9 0 10-2 10-5.445V119c0-4 .843-4.798 3.66-4.798 2.078 0 5.637 1.038 13.944 9.047C134.096 132.74 135.66 137 141 137h14c4 0 6-2 4.846-5.947-1.262-3.934-5.794-9.64-11.808-16.406-3.263-3.857-8.158-8.01-9.64-10.086-2.077-2.67-1.484-3.856 0-6.228 0 0 17.056-24.028 18.836-32.186z" fill="#FFF"/></g></svg>