<?xml version="1.0" encoding="UTF-8" standalone="no"?>
<svg
   xmlns:dc="http://purl.org/dc/elements/1.1/"
   xmlns:cc="http://creativecommons.org/ns#"
   xmlns:rdf="http://www.w3.org/1999/02/22-rdf-syntax-ns#"
   xmlns:svg="http://www.w3.org/2000/svg"
   xmlns="http://www.w3.org/2000/svg"
   xmlns:sodipodi="http://sodipodi.sourceforge.net/DTD/sodipodi-0.dtd"
   xmlns:inkscape="http://www.inkscape.org/namespaces/inkscape"
   version="1.0"
   width="120px"
   height="135px"
   viewBox="0 0 1200 1350"
   preserveAspectRatio="xMidYMid meet"
   id="svg4136"
   inkscape:version="0.91 r13725"
   sodipodi:docname="logo-papyrus.svg"
   inkscape:export-filename="D:\Papyrus\Src\Rsrc\SVG\logo-papyrus-256.png"
   inkscape:export-xdpi="170.66415"
   inkscape:export-ydpi="170.66415">
  <metadata
     id="metadata4194">
    <rdf:RDF>
      <cc:Work
         rdf:about="">
        <dc:format>image/svg+xml</dc:format>
        <dc:type
           rdf:resource="http://purl.org/dc/dcmitype/StillImage" />
      </cc:Work>
    </rdf:RDF>
  </metadata>
  <defs
     id="defs4192" />
  <sodipodi:namedview
     pagecolor="#ffffff"
     bordercolor="#666666"
     borderopacity="1"
     objecttolerance="10"
     gridtolerance="10"
     guidetolerance="10"
     inkscape:pageopacity="0"
     inkscape:pageshadow="2"
     inkscape:window-width="1680"
     inkscape:window-height="987"
     id="namedview4190"
     showgrid="false"
     inkscape:zoom="5.6568542"
     inkscape:cx="31.05585"
     inkscape:cy="67.5"
     inkscape:window-x="-8"
     inkscape:window-y="-8"
     inkscape:window-maximized="1"
     inkscape:current-layer="svg4136" />
  <g
     id="layer1"
     fill="#a4e2f9"
     stroke="none">
    <path
       d="M458 3 c7 -3 16 -2 19 1 4 3 -2 6 -13 5 -11 0 -14 -3 -6 -6z"
       id="path4139" />
  </g>
  <g
     id="layer2"
     fill="#2455ff"
     stroke="none">
    <path
       d="M1120 156 c0 -11 40 -26 71 -26 19 0 8 28 -13 34 -37 10 -58 7 -58 -8z"
       id="path4142" />
  </g>
  <g
     id="layer3"
     fill="#94ddf8"
     stroke="none">
    <path
       d="M1083 746 c-15 -13 -24 -28 -20 -32 11 -11 61 21 65 40 5 23 -13 20 -45 -8z"
       id="path4145" />
  </g>
  <g
     id="layer4"
     fill="#58acf8"
     stroke="none">
    <path
       d="M1103 164 c-8 -20 4 -29 55 -42 42 -10 42 -10 42 18 0 30 -15 40 -61 40 -18 0 -32 -6 -36 -16z"
       id="path4148" />
  </g>
  <g
     id="layer5"
     fill="#804000"
     stroke="none" />
  <g
     id="layer6"
     fill="#d9f3fd"
     stroke="none">
    <path
       d="M1165 787 c-57 -17 -95 -37 -95 -48 0 -7 7 -8 18 -4 9 4 34 11 55 15 21 4 43 12 49 18 18 18 4 28 -27 19z"
       id="path4158" />
    <path
       d="M786 488 c-53 -56 -96 -110 -96 -120 0 -11 4 -18 9 -16 16 5 211 216 211 227 0 29 -36 2 -124 -91z"
       id="path4160" />
    <path
       d="M547 183 c-4 -3 -7 -14 -7 -24 0 -10 -11 -29 -25 -43 -24 -24 -34 -66 -16 -66 11 0 51 53 51 68 0 5 7 15 15 22 19 15 20 50 2 50 -8 0 -17 -3 -20 -7z"
       id="path4162" />
    <path
       d="M450 19 c-10 -18 -9 -20 7 -17 10 2 19 11 21 21 5 24 -15 21 -28 -4z"
       id="path4164" />
  </g>
  <g
     id="layer7"
     fill="#58caf5"
     stroke="none">
    <path
       d="M1159 773 c-14 -2 -41 -17 -60 -32 l-34 -29 24 -146 c24 -143 41 -188 61 -156 7 11 12 11 23 2 12 -10 16 -9 21 4 9 23 7 364 -1 363 -5 -1 -20 -4 -34 -6z"
       id="path4167" />
    <path
       d="M839 516 c-65 -62 -129 -139 -129 -153 0 -11 99 -23 188 -23 35 0 52 4 51 13 -2 47 -36 211 -44 214 -6 1 -35 -21 -66 -51z"
       id="path4169" />
    <path
       d="M537 125 c-25 -42 -35 -75 -22 -75 3 0 23 12 45 26 39 26 47 45 34 78 -10 27 -28 18 -57 -29z"
       id="path4171" />
  </g>
  <g
     id="layer8"
     fill="#6ed1f5"
     stroke="none">
    <path
       d="M1125 409 c-7 -30 10 -113 27 -135 8 -11 -14 -68 -24 -59 -2 3 -40 1 -84 -3 l-79 -7 -2 34 c-1 18 -5 37 -10 42 -9 9 -216 39 -268 39 -44 0 -44 -6 0 -122 38 -100 42 -126 23 -133 -7 -2 -59 -8 -116 -14 -96 -9 -132 -21 -132 -42 0 -5 165 -9 370 -9 l371 0 -3 67 -3 66 -40 13 -40 14 43 -4 42 -4 0 146 c0 99 -3 142 -10 132 -6 -10 -10 -11 -10 -2 0 6 -11 12 -24 12 -19 0 -26 -7 -31 -31z"
       id="path4174" />
  </g>
  <g
     id="layer9"
     fill="#800000"
     stroke="none"
     style="fill:#f5821f;fill-opacity:1">
    <path
       d="m 30,1344 c 0,-20 27,-46 74,-73 30,-17 71,-45 92,-63 56,-50 123,-200 188,-423 30,-104 69,-230 86,-279 16,-50 30,-96 30,-104 0,-11 -14,-13 -77,-7 -62,5 -82,3 -98,-9 -30,-22 -11,-33 80,-45 69,-10 81,-9 91,4 14,19 24,19 24,1 0,-7 15,-63 33,-123 L 586,113 553,92 C 535,80 511,70 500,70 477,70 462,44 476,30 c 14,-14 226,10 247,28 24,21 22,33 -19,141 -19,51 -32,96 -29,99 6,7 255,-24 263,-32 3,-3 6,-23 7,-43 1,-31 5,-38 21,-36 10,1 57,4 104,6 74,4 85,7 89,23 2,10 8,25 13,32 7,8 7,16 1,25 -15,18 -20,42 -58,267 -56,323 -73,398 -111,467 -21,37 -47,70 -68,82 -44,27 -118,27 -205,0 -75,-24 -237,-96 -264,-118 -20,-17 -19,-19 -42,44 -67,185 -151,271 -316,324 -38,12 -79,15 -79,5 z m 130,-64 c 0,-5 -13.53553,14.7487 -13.53553,14.7487 C 142.13434,1292.2487 140,1275 140,1280 c 6.12269,15.2206 20,0 20,0 z M 550,953 c 0,-16 10,-18 102,-15 101,3 104,3 136,-25 27,-23 37,-46 61,-133 16,-58 39,-168 51,-245 12,-77 24,-148 27,-159 5,-18 0,-18 -118,-11 -67,4 -132,10 -143,14 -15,6 -30,40 -62,142 -23,74 -62,192 -88,262 -25,71 -44,133 -41,138 4,5 17,9 31,9 17,0 24,5 24,20 0,11 6.76777,4.0901 11.76777,4.0901 6,0 8.23223,7.9099 8.23223,-1.0901 z"
       id="path4177"
       inkscape:connector-curvature="0"
       sodipodi:nodetypes="sccccsccccssccsscccscccccccccccccscsccsccssccccccssss"
       style="fill:#f5821f;fill-opacity:1" />
    <path
       d="M359 250 l-24 -20 24 -20 c17 -15 38 -20 81 -20 43 0 64 5 81 20 l24 20 -24 20 c-17 15 -38 20 -81 20 -43 0 -64 -5 -81 -20z"
       id="path4181"
       style="fill:#f5821f;fill-opacity:1" />
    <path
       d="M470 165 c-21 -25 0 -50 40 -50 36 0 62 27 44 45 -19 19 -69 23 -84 5z"
       id="path4183"
       style="fill:#f5821f;fill-opacity:1" />
  </g>
  <g
     id="layer10"
     fill="#ffffff"
     stroke="none"
     style="opacity:0">
    <path
       d="M0 675 l0 -675 229 0 229 0 31 48 c36 57 40 82 11 82 -12 0 -20 7 -20 16 0 13 7 15 34 10 28 -5 36 -3 50 19 16 24 15 29 -2 88 -22 71 -38 83 -122 92 -101 12 -110 25 -12 18 l92 -6 0 25 c0 13 -14 64 -30 114 -17 49 -56 175 -86 279 -70 241 -130 372 -201 436 -28 25 -72 56 -97 70 -25 13 -49 32 -52 42 -3 10 -15 17 -30 17 l-24 0 0 -675z m510 -435 c25 -16 -7 -30 -70 -30 -63 0 -95 14 -70 30 8 5 40 10 70 10 30 0 62 -5 70 -10z"
       id="path4186"
       style="" />
    <path
       d="M86 1335 c10 -8 24 -15 29 -15 23 -1 119 -52 159 -85 23 -19 55 -57 70 -85 54 -100 167 -395 241 -632 24 -75 46 -142 50 -148 12 -20 62 -11 79 15 9 13 57 67 107 119 l90 95 -10 53 c-5 29 -21 94 -35 143 -22 78 -32 95 -67 128 -42 37 -42 37 -128 36 -47 0 -112 -4 -143 -8 -74 -9 -64 3 49 55 171 81 291 104 352 68 42 -25 86 -116 110 -229 12 -54 24 -101 26 -104 5 -4 68 12 113 30 l22 9 0 285 0 285 -567 0 c-501 0 -565 -2 -547 -15z"
       id="path4188"
       style="" />
  </g>
</svg>
