<!DOCTYPE svg PUBLIC "-//W3C//DTD SVG 20010904//EN" "http://www.w3.org/TR/2001/REC-SVG-20010904/DTD/svg10.dtd">
<svg version="1.0" xmlns="http://www.w3.org/2000/svg" width="472px" height="567px" viewBox="0 0 4720 5670" preserveAspectRatio="xMidYMid meet">
<g id="layer101" fill="#161020" stroke="none">
<path d="M620 5663 c-80 -8 -189 -37 -255 -68 -140 -64 -234 -156 -295 -287 -57 -121 -60 -154 -60 -695 l0 -493 200 0 199 0 3 478 3 477 28 57 c50 102 128 149 257 156 103 5 175 -18 233 -75 92 -89 97 -121 97 -653 l0 -440 201 0 200 0 -4 508 c-4 564 -3 554 -75 702 -112 230 -412 366 -732 333z"/>
<path d="M2215 5660 c-174 -28 -324 -116 -436 -257 -101 -128 -149 -250 -170 -432 -46 -409 181 -773 541 -867 91 -24 275 -24 355 0 83 25 162 69 220 121 27 25 50 45 52 45 2 0 3 -135 3 -300 l0 -300 200 0 200 0 0 980 0 980 -195 0 -195 0 0 -80 c0 -44 -3 -80 -6 -80 -4 0 -33 24 -65 54 -63 59 -136 99 -220 122 -71 19 -209 25 -284 14z m358 -402 c324 -150 289 -686 -52 -785 -81 -23 -209 -15 -283 19 -190 87 -272 336 -187 563 31 85 131 183 214 213 88 31 227 27 308 -10z"/>
<path d="M3843 5659 c-50 -5 -135 -20 -189 -34 -102 -26 -281 -106 -290 -130 -5 -12 109 -248 140 -290 10 -13 21 -10 86 24 41 22 116 52 165 67 82 25 104 28 255 28 158 1 168 0 215 -24 65 -33 92 -82 75 -136 -22 -64 -90 -91 -314 -124 -176 -26 -243 -43 -331 -85 -162 -78 -245 -205 -245 -378 0 -176 78 -314 230 -405 204 -122 667 -113 957 18 37 17 69 32 71 34 2 3 -26 74 -63 159 l-67 155 -68 -29 c-155 -66 -233 -82 -390 -83 -136 -1 -148 1 -187 23 -73 42 -91 115 -40 169 28 30 92 48 272 76 194 31 264 49 354 93 90 45 158 109 196 188 40 82 47 220 17 322 -84 275 -389 405 -849 362z"/>
<path d="M2075 2934 c-336 -50 -611 -188 -845 -423 -212 -214 -338 -446 -402 -745 -29 -136 -32 -426 -5 -560 120 -597 546 -1032 1147 -1172 60 -13 139 -18 403 -21 l327 -5 0 340 0 340 -277 4 c-266 5 -282 6 -368 32 -278 84 -480 295 -546 573 -18 73 -20 109 -16 208 8 211 77 367 226 516 97 97 189 155 301 193 285 94 577 27 790 -183 102 -101 159 -191 203 -323 l31 -93 4 -282 4 -283 345 0 345 0 -5 298 c-3 220 -9 320 -21 387 -70 365 -274 694 -572 919 -94 70 -304 181 -414 217 -153 50 -227 61 -430 64 -107 2 -208 1 -225 -1z"/>
</g>
<g id="layer102" fill="#cc00ff" stroke="none">
<path d="M3264 670 c-75 -30 -137 -89 -176 -168 -30 -59 -33 -76 -33 -152 0 -76 3 -93 33 -152 40 -81 102 -139 181 -169 76 -28 205 -24 272 9 74 36 125 87 161 159 28 57 33 77 33 142 0 103 -24 167 -87 237 -74 81 -132 107 -243 111 -72 2 -100 -1 -141 -17z"/>
</g>


</svg>