<!DOCTYPE svg PUBLIC "-//W3C//DTD SVG 20010904//EN" "http://www.w3.org/TR/2001/REC-SVG-20010904/DTD/svg10.dtd">
<svg version="1.0" xmlns="http://www.w3.org/2000/svg" width="298px" height="298px" viewBox="0 0 2980 2980" preserveAspectRatio="xMidYMid meet">
<g id="layer101" fill="#63666b" stroke="none">
 <path d="M0 1490 l0 -1490 1490 0 1490 0 0 1490 0 1490 -1490 0 -1490 0 0 -1490z"/>
 </g>
<g id="layer102" fill="#ebe60e" stroke="none">
 <path d="M0 1490 l0 -1490 1490 0 1490 0 0 1490 0 1490 -1490 0 -1490 0 0 -1490z m1100 1035 c0 -80 -3 -145 -7 -145 -5 -1 -94 -2 -200 -3 -176 -2 -194 -4 -219 -23 -66 -49 -69 -58 -71 -257 -2 -100 -3 -190 -3 -199 0 -16 -14 -18 -145 -18 l-145 0 0 213 c0 188 2 221 20 272 29 85 62 136 124 192 107 98 159 111 434 112 l212 1 0 -145z m1313 108 c93 -44 169 -119 215 -212 l37 -75 3 -233 3 -233 -148 0 -148 0 0 199 c0 186 -1 201 -21 227 -29 39 -65 64 -100 69 -16 2 -107 4 -201 4 l-173 1 0 146 0 146 233 -4 232 -3 68 -32z m-603 -918 l485 -485 -108 -107 -107 -108 -383 382 -382 381 -209 -210 -209 -210 -103 103 c-57 57 -102 104 -101 106 7 11 623 632 627 632 3 1 223 -217 490 -484z m-1205 -814 c0 -219 1 -225 69 -275 26 -20 41 -21 227 -21 l199 0 0 -147 0 -148 -209 0 c-227 0 -282 9 -373 63 -53 31 -129 111 -156 163 -45 88 -52 137 -52 356 l0 208 148 0 147 0 0 -199z m2063 -33 l-3 -233 -32 -67 c-38 -81 -114 -164 -184 -203 -88 -47 -136 -55 -361 -55 l-208 0 0 145 c0 109 3 145 13 145 6 0 95 1 197 2 176 3 187 4 218 26 67 48 68 59 72 450 0 22 1 22 146 22 l145 0 -3 -232z"/>
 </g>
<g id="layer103" fill="#fefefa" stroke="none">
 <path d="M1 2683 c1 -164 3 -287 6 -273 32 212 123 368 266 457 88 55 154 81 238 93 40 6 75 13 78 15 2 3 -129 5 -292 5 l-297 0 1 -297z"/>
 <path d="M2460 2965 c86 -15 94 -17 175 -56 85 -41 148 -90 199 -155 73 -93 111 -179 131 -294 12 -70 13 -55 14 223 l1 297 -297 -1 c-278 -1 -293 -2 -223 -14z"/>
 <path d="M2967 558 c-15 -204 -142 -393 -320 -481 -85 -42 -101 -47 -192 -62 -63 -11 -39 -13 228 -14 l297 -1 0 315 c0 173 -2 315 -4 315 -2 0 -6 -33 -9 -72z"/>
 <path d="M1 298 l-1 -298 307 0 c168 0 304 2 302 4 -2 2 -31 6 -65 9 -143 14 -301 96 -392 205 -78 94 -116 187 -145 352 -2 14 -5 -109 -6 -272z"/>
 <path d="M633 3 c4 -3 10 -3 14 0 3 4 0 7 -7 7 -7 0 -10 -3 -7 -7z"/>
 </g>

</svg>