<?xml version="1.0" encoding="utf-8"?>
<!-- Generator: Adobe Illustrator 26.0.3, SVG Export Plug-In . SVG Version: 6.00 Build 0)  -->
<svg version="1.0" id="Layer_1" xmlns="http://www.w3.org/2000/svg" xmlns:xlink="http://www.w3.org/1999/xlink" x="0px" y="0px"
	 viewBox="0 0 614 425.4" style="enable-background:new 0 0 614 425.4;" xml:space="preserve">
<style type="text/css">
	.st0{fill:#BE11A5;}
</style>
<path fill="#BE11A5" d="M78.8,240L64,185.3h9.8l11.4,42l12.2-42h9.1l12.2,42.2l11.4-42.2h9.7L125,240h-11.3l-11.9-40.8L90,240L78.8,240
	z"/>
<path fill="#BE11A5" d="M146.6,185.3h9.3V240h-9.3V185.3z"/>
<path fill="#BE11A5" d="M175.6,231.4h22.5v8.6h-31.6v-54.6h9.1V231.4z"/>
<path fill="#BE11A5" d="M226.7,185.4c7.1-0.2,14,2.7,18.9,7.9c10.1,10.9,10.1,27.9,0,38.8c-4.9,5.2-11.8,8.1-18.9,7.9h-21.8v-54.6
	L226.7,185.4L226.7,185.4z M226.7,231.4c5.2,0,9.5-1.8,12.7-5.3c3.4-3.6,5.2-8.5,5-13.4c0.2-5-1.6-9.8-5-13.4
	c-3.3-3.5-7.9-5.5-12.7-5.3H214v37.4H226.7z"/>
<path fill="#BE11A5" d="M302,224.4c0.1,4.2-1.7,8.3-4.8,11.1c-3.2,3-7.4,4.6-11.8,4.5h-23.7v-54.6h22c4.2-0.1,8.3,1.5,11.5,4.3
	c3.1,2.7,4.8,6.7,4.7,10.8c0.2,4.4-2,8.6-5.6,11.1C299.1,214,302.1,219,302,224.4z M270.8,193.8v14.4h12.9c4,0,7.2-3.2,7.2-7.2
	s-3.2-7.2-7.2-7.2l0,0H270.8z M285.4,231.5c4.2-0.2,7.5-3.7,7.3-7.9c-0.1-4-3.4-7.2-7.3-7.3h-14.6v15.3L285.4,231.5L285.4,231.5z"/>
<path fill="#BE11A5" d="M319.8,231.4h24.5v8.6h-33.6v-54.6h33.2v8.6h-24.1v14.2h22.2v8.5h-22.2V231.4z"/>
<path fill="#BE11A5" d="M384,240l-11.8-19.9h-10.7V240h-9.1v-54.7h22.2c4.7-0.1,9.3,1.8,12.6,5.2c3.4,3.2,5.3,7.7,5.2,12.4
	c-0.1,7-4.4,13.3-11,15.8L394,240H384z M361.5,193.8v18.3h13c5-0.2,8.9-4.5,8.7-9.6c-0.2-4.7-4-8.5-8.7-8.7H361.5z"/>
<path fill="#BE11A5" d="M432.5,240l-11.7-19.9h-10.7V240H401v-54.7h22.2c4.7-0.1,9.3,1.8,12.6,5.2c3.4,3.2,5.3,7.7,5.2,12.4
	c-0.1,7-4.4,13.3-11,15.8l12.6,21.3H432.5z M410.1,193.8v18.3h13c5.1-0.3,8.9-4.6,8.6-9.7c-0.3-4.6-4-8.4-8.6-8.6L410.1,193.8z"/>
<path fill="#BE11A5" d="M449.2,185.3h9.1V240h-9.1V185.3z"/>
<path fill="#BE11A5" d="M478.1,231.4h24.5v8.6H469v-54.6h33.2v8.6h-24.1v14.2h22.2v8.5h-22.2V231.4z"/>
<path fill="#BE11A5" d="M509,227.6l7.9-4.5c2.2,6.2,6.8,9.2,13.7,9.2s10.3-2.9,10.3-7.2c0.1-2-1-4-2.8-5c-1.8-1.2-5.1-2.5-9.8-3.9
	c-5.3-1.6-7.9-2.6-11.6-5s-5.4-6.1-5.4-11c-0.2-4.4,1.8-8.7,5.2-11.5c3.5-2.9,8-4.4,12.6-4.3c8.3-0.3,15.9,4.5,19.3,12l-7.6,4.3
	c-2.3-5-6.2-7.6-11.6-7.6s-8.7,2.6-8.7,6.8s2.7,5.9,11.2,8.5c2.1,0.7,3.6,1.2,4.6,1.6c1,0.4,2.4,0.9,4.1,1.6c1.4,0.5,2.8,1.3,4,2.2
	c2.9,2.3,6.1,6,5.7,11.2c0.2,4.6-1.8,8.9-5.4,11.8c-3.6,2.9-8.3,4.3-14.2,4.3C519.6,241,511.8,235.9,509,227.6z"/>
</svg>
