<?xml version="1.0" encoding="UTF-8" standalone="no"?>
<!-- Created with Inkscape (http://www.inkscape.org/) -->

<svg
   xmlns:dc="http://purl.org/dc/elements/1.1/"
   xmlns:cc="http://creativecommons.org/ns#"
   xmlns:rdf="http://www.w3.org/1999/02/22-rdf-syntax-ns#"
   xmlns:svg="http://www.w3.org/2000/svg"
   xmlns="http://www.w3.org/2000/svg"
   xmlns:sodipodi="http://sodipodi.sourceforge.net/DTD/sodipodi-0.dtd"
   xmlns:inkscape="http://www.inkscape.org/namespaces/inkscape"
   version="1.1"
   id="svg815"
   xml:space="preserve"
   width="1145.3333"
   height="241.33333"
   viewBox="0 0 1145.3333 241.33333"
   sodipodi:docname="apteka_ru_.svg"
   inkscape:version="0.92.4 (5da689c313, 2019-01-14)"><metadata
     id="metadata821"><rdf:RDF><cc:Work
         rdf:about=""><dc:format>image/svg+xml</dc:format><dc:type
           rdf:resource="http://purl.org/dc/dcmitype/StillImage" /><dc:title></dc:title></cc:Work></rdf:RDF></metadata><defs
     id="defs819" /><sodipodi:namedview
     pagecolor="#ffffff"
     bordercolor="#666666"
     borderopacity="1"
     objecttolerance="10"
     gridtolerance="10"
     guidetolerance="10"
     inkscape:pageopacity="0"
     inkscape:pageshadow="2"
     inkscape:window-width="1920"
     inkscape:window-height="1017"
     id="namedview817"
     showgrid="false"
     inkscape:zoom="1.1979046"
     inkscape:cx="572.66663"
     inkscape:cy="120.66666"
     inkscape:window-x="-8"
     inkscape:window-y="-8"
     inkscape:window-maximized="1"
     inkscape:current-layer="g823" /><g
     id="g823"
     inkscape:groupmode="layer"
     inkscape:label="ink_ext_XXXXXX"
     transform="matrix(1.3333333,0,0,-1.3333333,0,241.33333)"><g
       id="g825"
       transform="scale(0.1)"><path
         d="m 4034.38,1809.45 c 96.9,0 193.8,0 290.8,0 0.5,-274.4 -1.1,-548.8 0.8,-823.2 112.2,132.5 217.2,271.2 326.9,405.9 108.3,-0.4 216.6,0 325,-0.3 -117.8,-138.3 -235.8,-276.5 -353.7,-414.702 126.4,-197.796 253.5,-395 380.1,-592.699 -107.5,-0.301 -215.1,0.399 -322.6,-0.301 -76.9,130.5 -152.1,262 -228.4,392.801 -42.7,-48.5 -85.9,-96.601 -128.3,-145.402 0.4,-82.297 0.1,-164.699 0.2,-247.098 -97,0 -193.9,0 -290.8,0 0,475 0,950.001 0,1425.001 z m -1704.1,-147.5 c 82.7,0.1 165.4,0 248.1,0 0.1,-90 0,-180 0,-270 80.7,0 161.4,0.1 242.1,0 0,-77.5 0,-155 0,-232.5 -80.7,-0.1 -161.4,0.1 -242.1,0 0.4,-139.2 -0.7,-278.302 0.5,-417.501 1.8,-48.101 12.1,-105.801 58.8,-130.699 51,-32.801 113.9,-15.703 166.7,2.898 15.2,-72.5 31.1,-144.796 46.5,-217.3 -102.8,-31.797 -212.5,-49.797 -319.5,-30.2 -80.2,18.2 -158.5,64.602 -198.1,138.801 -43.5,73 -52.9,159.899 -53.7,243.203 -0.4,136.899 0,273.898 -0.2,410.798 -46.1,0 -92.3,-0.2 -138.4,0.4 0.3,73.2 0.1,146.3 0.1,219.5 51.5,4.3 103,8.4 154.5,12.6 11.6,90 23.2,180 34.7,270 z M 290.375,1393.75 c 106.402,26.2 219.703,32.3 326.5,4.6 92.402,-24.2 169.805,-93.2 209.203,-179.6 39,-83.9 46.098,-178.1 47.399,-269.301 0.101,-188.398 0.203,-376.699 0,-565.097 -81.399,0.195 -162.7,-0.102 -244,0.195 -6.899,35.402 -13.7,70.801 -21.497,106.004 C 540.379,440.949 471.977,384.949 387.379,368.949 287.176,345.852 172.477,367.848 96.6758,440.047 c -123.6953,118.402 -121.3008,346 17.6012,452.101 131.602,99.399 302,120.602 461,140.002 -4.898,44.8 -17.597,93.1 -56.597,120.3 -49.301,34.3 -113.403,28 -169.903,21.1 -71.8,-14 -135.5,-52.5 -199.398,-86.3 -35.902,65.7 -71.6993,131.5 -107.6993,197.1 79.4963,43.7 161.4963,83.8 248.6953,109.4 z M 333.578,771.547 C 292.68,736.551 279.977,670.551 312.18,625.848 c 28.199,-31.098 73.597,-34.602 113,-32.598 59.199,1.301 106.597,42.699 146.996,81.602 6.101,59.597 0.601,119.996 2.5,179.898 C 491.578,839.848 398.977,830.551 333.578,771.547 Z M 1643.58,1413.75 c 98,12 202,-14.9 276.6,-81.1 92.7,-76.6 133.8,-197.1 151.7,-312.3 22.6,-166.303 0.4,-347.202 -99.4,-486.401 -75.1,-107.097 -204.1,-180.597 -336.6,-173.199 -84,4 -159.5,48.297 -220.6,103.398 13.9,-151.199 9.7,-303 10.2,-454.69878 -99.7,0 -199.4,0 -299.1,0 0,460.80078 -0.1,921.70278 0.1,1382.50078 81.3,0.1 162.6,0 244,0 6.9,-34.8 13.9,-69.7 22.4,-104.3 73.1,58.7 155.3,114.7 250.7,126.1 z m -217.1,-333.8 c -2.6,-137.001 0.1,-274.2 -1.3,-411.302 61,-55.199 153.1,-84.3 231.1,-49.097 79.8,41.597 109.2,135.097 114.4,219.297 4.5,84.203 3.8,173.602 -34,251.002 -25.6,55.9 -89.8,88.3 -150,81.1 -63.9,-3.6 -120,-44.1 -160.2,-91 z m 1606.8,152.6 c 85.4,111.2 221.8,184.1 363,184 91.6,0.9 185.5,-21.9 258.9,-78.7 94,-64.9 144.7,-175.7 162.5,-285.8 13.7,-83.503 12.6,-169.202 -1.7,-252.601 -201.6,0 -403.2,0.102 -604.7,-0.101 13.6,-73.598 52,-148.399 122.3,-181.801 114.6,-55.996 252.9,-27.797 357.8,36.805 33.3,-60.704 66.4,-121.602 99.6,-182.403 -116.2,-77 -256.3,-116.902 -395.6,-110.898 -94.7,7.996 -191.6,31.398 -268.9,89.297 -131.2,90.703 -200.7,252.101 -203,408.8 -7.5,132.204 30.6,266.902 109.8,373.402 z m 253.5,-84.5 c -46.4,-36.6 -66.7,-95 -77.8,-150.999 121.6,-0.102 243.3,-0.102 364.9,0 -1.4,63.799 -16.9,138.499 -77.5,172.199 -65.8,33.8 -151.9,25.6 -209.6,-21.2 z m 2085.2,247.6 c 105.6,24.4 217.5,30.2 323,1.9 92,-25.4 168.8,-94.9 207.3,-181.7 37.9,-83.2 44.7,-176.1 46,-266.202 0.1,-188.398 0,-376.8 0,-565.199 -81.3,0 -162.7,-0.097 -244,0.098 -6.9,35.601 -13.7,71.301 -22.4,106.601 -67.4,-52.5 -138.6,-107.8 -224.9,-123.199 -102.1,-22.203 -218.7,2.899 -292.9,79.403 -65.8,68.796 -92,168.296 -79.2,261.597 10.7,92.899 74.1,173.199 154.5,217.699 125.8,68.704 270.2,89.302 410.6,105.502 -4.7,45.7 -18.4,95.2 -58.8,122.2 -50.3,32.4 -113.9,26 -170.3,18.8 -70.7,-14.8 -133.6,-52.3 -196.6,-86 -36,65.7 -71.8,131.5 -107.8,197.2 81.4,45 165.8,85.8 255.5,111.3 z m 34.4,-626.099 c -38.7,-34.5 -50.5,-97.004 -21.3,-140.903 28.5,-35.097 78.5,-37.898 120.3,-35 58.6,2.903 103.2,46.102 144.4,83.2 -0.8,59.3 -0.2,118.703 -0.4,178.004 -83.9,-15.301 -177.9,-24.301 -243,-85.301"
         style="fill:#1c257b;fill-opacity:1;fill-rule:nonzero;stroke:none"
         id="path827"
         inkscape:connector-curvature="0" /><path
         d="m 7247.88,1337.65 c 83.2,77.1 209.2,100.8 314.5,57.7 -18.3,-84.6 -32.5,-170 -49.2,-255 -62.9,11.3 -131.5,25.3 -191.4,-5 -69.4,-29.3 -114.6,-96.1 -138.9,-164.901 -3.6,-195.5 0,-391.301 -1.8,-586.902 -99.5,-0.598 -199.1,-0.297 -298.6,-0.199 0.2,336.203 0.1,672.402 0.1,1008.602 81.4,-0.1 162.7,0.1 244.1,-0.1 6.9,-60.7 12.9,-121.5 21.1,-182.1 31.8,43.8 57.7,92.8 100.1,127.9 z m 434.7,54.3 c 99.6,-0.1 199.1,0 298.7,0 0.3,-174.3 0.1,-348.5 0.1,-522.7 0.2,-54.801 -2,-110.203 9.5,-164.102 6.3,-31 22.9,-62.699 52.2,-77.398 55.6,-24.301 124.9,-15.703 172.3,22.699 25.8,20.699 48.3,45.598 68.3,72 5.2,25.301 2.1,51.5 2.8,77.199 -0.2,197.403 -0.1,394.802 0,592.302 99.5,0.1 199.1,-0.2 298.7,0.1 -0.2,-336.2 0.2,-672.402 -0.3,-1008.702 -81.3,-0.2 -162.7,-0.2 -244,0 -6.5,48.3 -14.7,96.3 -23.1,144.3 -53.5,-53.699 -107.4,-110.699 -177.9,-141.898 -91.1,-33.902 -196.1,-36.301 -286.1,2.199 -65.1,27.598 -111.9,87.301 -134.5,153 -31.1,78.903 -36.2,164.602 -36.7,248.5 0,200.801 0,401.701 0,602.501 z M 6380.18,723.852 c 68.3,24.996 153,7.796 199.6,-50 66.2,-73.704 60.5,-198.602 -11.4,-266.204 -74.4,-75.3 -218.1,-60.5 -272.9,31.102 -64,94.398 -26.4,245.5 84.7,285.102"
         style="fill:#ff465c;fill-opacity:1;fill-rule:nonzero;stroke:none"
         id="path829"
         inkscape:connector-curvature="0" /></g></g></svg>