<?xml version="1.0" encoding="UTF-8" standalone="no"?>
<!-- Generator: Adobe Illustrator 18.1.0, SVG Export Plug-In . SVG Version: 6.00 Build 0)  -->

<svg
   xmlns:dc="http://purl.org/dc/elements/1.1/"
   xmlns:cc="http://creativecommons.org/ns#"
   xmlns:rdf="http://www.w3.org/1999/02/22-rdf-syntax-ns#"
   xmlns:svg="http://www.w3.org/2000/svg"
   xmlns="http://www.w3.org/2000/svg"
   xmlns:sodipodi="http://sodipodi.sourceforge.net/DTD/sodipodi-0.dtd"
   xmlns:inkscape="http://www.inkscape.org/namespaces/inkscape"
   version="1.1"
   id="Documents"
   x="0px"
   y="0px"
   viewBox="0 0 20 20"
   enable-background="new 0 0 20 20"
   xml:space="preserve"
   sodipodi:docname="lot_pl01.svg"
   inkscape:version="0.92.2 (5c3e80d, 2017-08-06)"><metadata
     id="metadata97328"><rdf:RDF><cc:Work
         rdf:about=""><dc:format>image/svg+xml</dc:format><dc:type
           rdf:resource="http://purl.org/dc/dcmitype/StillImage" /><dc:title></dc:title></cc:Work></rdf:RDF></metadata><defs
     id="defs97326" /><sodipodi:namedview
     pagecolor="#ffffff"
     bordercolor="#666666"
     borderopacity="1"
     objecttolerance="10"
     gridtolerance="10"
     guidetolerance="10"
     inkscape:pageopacity="0"
     inkscape:pageshadow="2"
     inkscape:window-width="1920"
     inkscape:window-height="1017"
     id="namedview97324"
     showgrid="false"
     inkscape:zoom="20.5"
     inkscape:cx="10"
     inkscape:cy="2.3517053"
     inkscape:window-x="-8"
     inkscape:window-y="-8"
     inkscape:window-maximized="1"
     inkscape:current-layer="Documents" /><path
     d="M19.398,7.415l-7.444-1.996l-1.303-4.861c-0.109-0.406-0.545-0.642-0.973-0.529L0.602,2.461  C0.174,2.575-0.084,2.999,0.025,3.405l3.23,12.051c0.109,0.406,0.544,0.643,0.971,0.527l3.613-0.967l-0.492,1.838  c-0.109,0.406,0.149,0.83,0.577,0.943l8.11,2.174c0.428,0.115,0.862-0.121,0.972-0.529l2.97-11.084  C20.084,7.952,19.826,7.528,19.398,7.415z M1.633,3.631l7.83-2.096l2.898,10.818l-7.83,2.096L1.633,3.631z M15.678,18.463  L8.864,16.6L9.4,14.598l3.901-1.047c0.428-0.113,0.688-0.537,0.578-0.943l-1.508-5.627l5.947,1.631L15.678,18.463z"
     id="path97321" /><g
     transform="matrix(0.01373924,0,0,0.01376002,3.3820765,4.4840169)"
     id="g98149"><g
       id="g98147"><path
         inkscape:connector-curvature="0"
         d="m 327.72,197.831 c -0.083,-0.246 -0.182,-0.486 -0.296,-0.72 -0.133,-0.404 -0.296,-0.797 -0.488,-1.176 -0.17,-0.256 -0.354,-0.501 -0.552,-0.736 -0.209,-0.318 -0.442,-0.621 -0.696,-0.904 -0.237,-0.21 -0.486,-0.408 -0.744,-0.592 -0.254,-0.231 -0.521,-0.447 -0.8,-0.648 l -80,-48 c -2.535,-1.523 -5.705,-1.523 -8.24,0 l -80,48 c -0.296,0.195 -0.577,0.411 -0.84,0.648 -0.261,0.184 -0.512,0.382 -0.752,0.592 -0.249,0.283 -0.479,0.582 -0.688,0.896 -0.203,0.236 -0.39,0.484 -0.56,0.744 -0.188,0.369 -0.348,0.751 -0.48,1.144 -0.114,0.248 -0.216,0.502 -0.304,0.76 -0.187,0.675 -0.281,1.372 -0.28,2.072 v 80 c 0.001,2.808 1.473,5.41 3.88,6.856 l 80,48 0.088,0.04 0.088,0.064 c 0.42,0.218 0.859,0.398 1.312,0.536 0.184,0.064 0.36,0.168 0.552,0.224 1.362,0.373 2.799,0.373 4.16,0 0.192,-0.056 0.368,-0.16 0.552,-0.224 0.453,-0.138 0.892,-0.318 1.312,-0.536 l 0.088,-0.064 0.088,-0.04 80,-48 c 2.407,-1.446 3.879,-4.048 3.88,-6.856 v -80 c 10e-4,-0.702 -0.094,-1.402 -0.28,-2.08 z M 240,161.239 264.448,175.911 200,214.583 175.552,199.911 Z m -8,152.536 -64,-38.4 v -61.336 l 64,38.4 z m 8,-75.192 -24.448,-14.672 64.448,-38.672 24.448,14.672 z m 72,36.8 -64,38.4 v -61.344 l 64,-38.4 z"
         id="path98145" /></g></g><g
     transform="matrix(0.01373924,0,0,0.01376002,3.3820765,4.4840169)"
     id="g98155"><g
       id="g98153"><path
         inkscape:connector-curvature="0"
         d="m 246.4,3.111 c -2.908,-3.535 -8.131,-4.042 -11.666,-1.134 -0.414,0.34 -0.794,0.72 -1.134,1.134 l -24,32 12.8,9.6 9.6,-12.8 v 64 h 16 v -64 l 9.6,12.8 12.8,-9.6 z"
         id="path98151" /></g></g><g
     transform="matrix(0.01373924,0,0,0.01376002,3.3820765,4.4840169)"
     id="g98161"><g
       id="g98159"><path
         inkscape:connector-curvature="0"
         d="m 257.6,435.111 -9.6,12.8 v -64 h -16 v 64 l -9.6,-12.8 -12.8,9.6 24,32 c 2.651,3.535 7.665,4.251 11.2,1.6 0.606,-0.455 1.145,-0.994 1.6,-1.6 l 24,-32 z"
         id="path98157" /></g></g><g
     transform="matrix(0.01373924,0,0,0.01376002,3.3820765,4.4840169)"
     id="g98167"><g
       id="g98165"><rect
         x="232"
         y="111.911"
         width="16"
         height="16"
         id="rect98163" /></g></g><g
     transform="matrix(0.01373924,0,0,0.01376002,3.3820765,4.4840169)"
     id="g98173"><g
       id="g98171"><rect
         x="232"
         y="351.91101"
         width="16"
         height="16"
         id="rect98169" /></g></g><g
     transform="matrix(0.01373924,0,0,0.01376002,3.3820765,4.4840169)"
     id="g98179"><g
       id="g98177"><path
         inkscape:connector-curvature="0"
         d="M 96,231.911 H 32 l 12.8,-9.6 -9.6,-12.8 -32,24 c -3.535,2.651 -4.251,7.665 -1.6,11.2 0.455,0.606 0.994,1.145 1.6,1.6 l 32,24 9.6,-12.8 -12.8,-9.6 h 64 z"
         id="path98175" /></g></g><g
     transform="matrix(0.01373924,0,0,0.01376002,3.3820765,4.4840169)"
     id="g98185"><g
       id="g98183"><path
         inkscape:connector-curvature="0"
         d="m 478.4,235.111 c -0.455,-0.606 -0.994,-1.145 -1.6,-1.6 l -32,-24 -9.6,12.8 12.8,9.6 h -64 v 16 h 64 l -12.8,9.6 9.6,12.8 32,-24 c 3.535,-2.651 4.251,-7.665 1.6,-11.2 z"
         id="path98181" /></g></g><g
     transform="matrix(0.01373924,0,0,0.01376002,3.3820765,4.4840169)"
     id="g98191"><g
       id="g98189"><rect
         x="112"
         y="231.911"
         width="16"
         height="16"
         id="rect98187" /></g></g><g
     transform="matrix(0.01373924,0,0,0.01376002,3.3820765,4.4840169)"
     id="g98197"><g
       id="g98195"><rect
         x="352"
         y="231.911"
         width="16"
         height="16"
         id="rect98193" /></g></g><g
     transform="matrix(0.01373924,0,0,0.01376002,3.3820765,4.4840169)"
     id="g98203"><g
       id="g98201"><path
         inkscape:connector-curvature="0"
         d="m 143.832,132.431 -45.248,-45.248 15.832,2.256 2.264,-15.84 -39.592,-5.688 c -4.37,-0.649 -8.439,2.368 -9.088,6.739 -0.116,0.779 -0.116,1.571 0,2.349 l 5.656,39.592 15.84,-2.264 -2.256,-15.832 45.248,45.248 z"
         id="path98199" /></g></g><g
     transform="matrix(0.01373924,0,0,0.01376002,3.3820765,4.4840169)"
     id="g98209"><g
       id="g98207"><path
         inkscape:connector-curvature="0"
         d="m 411.984,402.823 -5.656,-39.592 -15.856,2.28 2.256,15.832 -45.248,-45.248 -11.312,11.312 45.248,45.248 -15.816,-2.272 -2.264,15.84 39.592,5.656 c 0.376,0.054 0.756,0.081 1.136,0.08 4.418,10e-4 8,-3.581 8.001,-7.999 10e-4,-0.38 -0.027,-0.76 -0.081,-1.137 z"
         id="path98205" /></g></g><g
     transform="matrix(0.01373924,0,0,0.01376002,3.3820765,4.4840169)"
     id="g98215"><g
       id="g98213"><rect
         x="147.151"
         y="147.063"
         transform="matrix(0.7071,-0.7071,0.7071,0.7071,-64.2037,155.1248)"
         width="16"
         height="16"
         id="rect98211" /></g></g><g
     transform="matrix(0.01373924,0,0,0.01376002,3.3820765,4.4840169)"
     id="g98221"><g
       id="g98219"><rect
         x="316.862"
         y="316.759"
         transform="matrix(0.7071,-0.7071,0.7071,0.7071,-134.4897,324.8318)"
         width="16"
         height="16"
         id="rect98217" /></g></g><g
     transform="matrix(0.01373924,0,0,0.01376002,3.3820765,4.4840169)"
     id="g98227"><g
       id="g98225"><path
         inkscape:connector-curvature="0"
         d="M 98.552,392.639 143.8,347.391 132.52,336.079 87.272,381.327 89.528,365.495 73.688,363.231 68,402.823 c -0.627,4.373 2.409,8.427 6.783,9.055 0.377,0.054 0.757,0.081 1.137,0.081 0.38,10e-4 0.76,-0.026 1.136,-0.08 l 39.592,-5.656 -2.264,-15.84 z"
         id="path98223" /></g></g><g
     transform="matrix(0.01373924,0,0,0.01376002,3.3820765,4.4840169)"
     id="g98233"><g
       id="g98231"><path
         inkscape:connector-curvature="0"
         d="m 409.704,70.207 c -1.774,-1.793 -4.297,-2.634 -6.792,-2.264 l -39.592,5.656 2.264,15.84 15.832,-2.256 -45.248,45.248 11.312,11.312 45.248,-45.248 -2.256,15.816 15.84,2.28 5.656,-39.592 c 0.358,-2.494 -0.481,-5.01 -2.264,-6.792 z"
         id="path98229" /></g></g><g
     transform="matrix(0.01373924,0,0,0.01376002,3.3820765,4.4840169)"
     id="g98239"><g
       id="g98237"><rect
         x="147.158"
         y="316.767"
         transform="matrix(0.7071,-0.7071,0.7071,0.7071,-184.1999,204.8355)"
         width="16"
         height="16"
         id="rect98235" /></g></g><g
     transform="matrix(0.01373924,0,0,0.01376002,3.3820765,4.4840169)"
     id="g98245"><g
       id="g98243"><rect
         x="316.862"
         y="147.032"
         transform="matrix(0.7071,-0.7071,0.7071,0.7071,-14.4738,275.1211)"
         width="16"
         height="16"
         id="rect98241" /></g></g></svg>