<?xml version="1.0" encoding="UTF-8" standalone="no"?>
<svg
   xmlns:dc="http://purl.org/dc/elements/1.1/"
   xmlns:cc="http://creativecommons.org/ns#"
   xmlns:rdf="http://www.w3.org/1999/02/22-rdf-syntax-ns#"
   xmlns:svg="http://www.w3.org/2000/svg"
   xmlns="http://www.w3.org/2000/svg"
   xmlns:sodipodi="http://sodipodi.sourceforge.net/DTD/sodipodi-0.dtd"
   xmlns:inkscape="http://www.inkscape.org/namespaces/inkscape"
   width="20"
   height="20.792259"
   viewBox="0 0 20 20.792259"
   version="1.1"
   id="svg825"
   sodipodi:docname="lots.svg"
   inkscape:version="0.92.2 (5c3e80d, 2017-08-06)"
   style="fill:none">
  <metadata
     id="metadata831">
    <rdf:RDF>
      <cc:Work
         rdf:about="">
        <dc:format>image/svg+xml</dc:format>
        <dc:type
           rdf:resource="http://purl.org/dc/dcmitype/StillImage" />
        <dc:title />
      </cc:Work>
    </rdf:RDF>
  </metadata>
  <defs
     id="defs829" />
  <sodipodi:namedview
     pagecolor="#ffffff"
     bordercolor="#666666"
     borderopacity="1"
     objecttolerance="10"
     gridtolerance="10"
     guidetolerance="10"
     inkscape:pageopacity="0"
     inkscape:pageshadow="2"
     inkscape:window-width="1920"
     inkscape:window-height="1017"
     id="namedview827"
     showgrid="false"
     inkscape:zoom="22.448748"
     inkscape:cx="3.3767452"
     inkscape:cy="12.5804"
     inkscape:window-x="-8"
     inkscape:window-y="-8"
     inkscape:window-maximized="1"
     inkscape:current-layer="svg825"
     fit-margin-top="0"
     fit-margin-left="0"
     fit-margin-right="0"
     fit-margin-bottom="0" />
  <path
     d="M 4,5 C 4,4.44772 4.44772,4 5,4 h 10 c 0.5523,0 1,0.44772 1,1 0,0.55228 -0.4477,1 -1,1 H 5 C 4.44771,6 4,5.55228 4,5 Z"
     id="path815"
     inkscape:connector-curvature="0"
     style="fill:currentColor" />
  <path
     d="M 4,9 C 4,8.44771 4.44772,8 5,8 h 10 c 0.5523,0 1,0.44771 1,1 0,0.5523 -0.4477,1 -1,1 H 5 C 4.44771,10 4,9.5523 4,9 Z"
     id="path817"
     inkscape:connector-curvature="0"
     style="fill:currentColor" />
  <path
     d="m 5,12 c -0.55228,0 -1,0.4477 -1,1 0,0.5523 0.44771,1 1,1 h 10 c 0.5523,0 1,-0.4477 1,-1 0,-0.5523 -0.4477,-1 -1,-1 z"
     id="path819"
     inkscape:connector-curvature="0"
     style="fill:currentColor" />
  <path
     d="m 4,17 c 0,-0.5523 0.44772,-1 1,-1 h 4 c 0.5523,0 1,0.4477 1,1 0,0.5523 -0.4477,1 -1,1 H 5 C 4.44772,18 4,17.5523 4,17 Z"
     id="path821"
     inkscape:connector-curvature="0"
     style="fill:currentColor" />
  <path
     d="M 0,0.40343 C 0,0.18062 1.34315,0 3,0 h 14 c 1.6569,0 3,0.18062 3,0.40343 v 2.15158 c 0,0.22282 -1.3431,0.40343 -3,0.40343 H 3 c -1.65685,0 -3,-0.18061 -3,-0.40343 z M 3,0.26895 h 14 c 0.5523,0 1,0.0602 1,0.13448 v 2.15158 c 0,0.0743 -0.4477,0.13448 -1,0.13448 H 3 c -0.55228,0 -1,-0.0602 -1,-0.13448 V 0.40343 C 2,0.32913 2.44771,0.26895 3,0.26895 Z"
     id="path823"
     inkscape:connector-curvature="0"
     style="clip-rule:evenodd;fill:currentColor;fill-rule:evenodd;stroke-width:0.36670741" />
  <path
     style="fill:#ffff00;fill-opacity:1;stroke:#000000;stroke-width:0.1610397;stroke-miterlimit:4;stroke-dasharray:none;stroke-opacity:1"
     inkscape:connector-curvature="0"
     d="m 0.49972103,7.1966782 c -0.0525815,0.173727 -0.0701082,0.673192 -0.0350547,1.1075095 0.0525815,0.7600555 0.10516186,0.8252027 0.64848807,0.9120664 0.333007,0.043433 0.6484881,0.1302956 0.7010681,0.195444 0.140214,0.1737263 0.2453739,7.4268279 0.105163,8.2737479 -0.087635,0.673192 -0.1577399,0.716623 -0.7887009,0.716623 H 0.42961638 v 1.085794 1.085794 H 5.6876265 10.945636 V 17.642013 14.710371 H 9.9991946 9.0352254 l -0.122687,1.020647 c -0.2278457,2.063006 -0.753648,2.671051 -2.278471,2.671051 H 5.8628935 V 13.863451 9.3248332 l 0.701068,-0.1520109 0.701068,-0.152011 V 7.9567337 6.8926561 h -3.330073 c -2.6991121,0 -3.36512603,0.065147 -3.43523306,0.3040221 z"
     id="path839" />
</svg>
