<svg id="Capa_1" enable-background="new 0 0 512 512" height="512" viewBox="0 0 512 512" width="512" xmlns="http://www.w3.org/2000/svg"><g><path d="m0 60v392h512v-392zm149.934 196-119.934 119.934v-239.868zm-106.754 149.18 127.967-127.967 31.82 31.82c14.166 14.166 33 21.967 53.033 21.967s38.867-7.801 53.033-21.967l31.82-31.82 127.966 127.967c4.829 4.829 8.421 10.564 10.627 16.82h-446.893c2.206-6.256 5.798-11.991 10.627-16.82zm318.886-149.18 119.934-119.934v239.868zm106.754-149.18-181 181c-8.5 8.499-19.8 13.18-31.82 13.18s-23.32-4.681-31.82-13.18l-181-181c-4.829-4.829-8.421-10.564-10.627-16.82h446.893c-2.205 6.256-5.797 11.991-10.626 16.82z"/><path d="m241 120h30v30h-30z"/><path d="m301 120h30v30h-30z"/><path d="m181 120h30v30h-30z"/></g></svg>