<svg height="512pt" viewBox="0 0 512 512" width="512pt" xmlns="http://www.w3.org/2000/svg"><path d="m54.855469 146.285156h18.289062v27.429688h-18.289062zm0 0"/><path d="m18.285156 192h91.429688c10.097656 0 18.285156 8.1875 18.285156 18.285156v91.429688c0 10.097656-8.1875 18.285156-18.285156 18.285156h-91.429688c-10.097656 0-18.285156-8.1875-18.285156-18.285156v-91.429688c0-10.097656 8.1875-18.285156 18.285156-18.285156zm0 0"/><path d="m54.855469 338.285156h18.289062v27.429688h-18.289062zm0 0"/><path d="m18.285156 384h91.429688c10.097656 0 18.285156 8.1875 18.285156 18.285156v91.429688c0 10.097656-8.1875 18.285156-18.285156 18.285156h-91.429688c-10.097656 0-18.285156-8.1875-18.285156-18.285156v-91.429688c0-10.097656 8.1875-18.285156 18.285156-18.285156zm0 0"/><path d="m146.285156 438.855469h27.429688v18.289062h-27.429688zm0 0"/><path d="m0 109.714844c.03125 10.085937 8.199219 18.253906 18.285156 18.285156h91.429688c10.085937-.03125 18.253906-8.199219 18.285156-18.285156v-91.429688c-.03125-10.085937-8.199219-18.253906-18.285156-18.285156h-91.429688c-10.085937.03125-18.253906 8.199219-18.285156 18.285156zm18.285156-82.285156c0-5.050782 4.09375-9.144532 9.144532-9.144532h27.425781c5.050781 0 9.144531 4.09375 9.144531 9.144532 0 5.046874-4.09375 9.140624-9.144531 9.140624h-18.285157v18.285157c0 5.050781-4.09375 9.144531-9.140624 9.144531-5.050782 0-9.144532-4.09375-9.144532-9.144531zm0 0"/><path d="m210.285156 384h91.429688c10.097656 0 18.285156 8.1875 18.285156 18.285156v91.429688c0 10.097656-8.1875 18.285156-18.285156 18.285156h-91.429688c-10.097656 0-18.285156-8.1875-18.285156-18.285156v-91.429688c0-10.097656 8.1875-18.285156 18.285156-18.285156zm0 0"/><path d="m338.285156 54.855469h27.429688v18.289062h-27.429688zm0 0"/><path d="m210.285156 0h91.429688c10.097656 0 18.285156 8.1875 18.285156 18.285156v91.429688c0 10.097656-8.1875 18.285156-18.285156 18.285156h-91.429688c-10.097656 0-18.285156-8.1875-18.285156-18.285156v-91.429688c0-10.097656 8.1875-18.285156 18.285156-18.285156zm0 0"/><path d="m146.285156 54.855469h27.429688v18.289062h-27.429688zm0 0"/><path d="m402.285156 0h91.429688c10.097656 0 18.285156 8.1875 18.285156 18.285156v91.429688c0 10.097656-8.1875 18.285156-18.285156 18.285156h-91.429688c-10.097656 0-18.285156-8.1875-18.285156-18.285156v-91.429688c0-10.097656 8.1875-18.285156 18.285156-18.285156zm0 0"/><path d="m512 402.285156c-.03125-10.085937-8.199219-18.253906-18.285156-18.285156h-91.429688c-10.085937.03125-18.253906 8.199219-18.285156 18.285156v91.429688c.03125 10.085937 8.199219 18.253906 18.285156 18.285156h91.429688c10.085937-.03125 18.253906-8.199219 18.285156-18.285156zm-18.285156 82.285156c0 5.050782-4.09375 9.144532-9.144532 9.144532h-27.425781c-5.050781 0-9.144531-4.09375-9.144531-9.144532 0-5.046874 4.09375-9.140624 9.144531-9.140624h18.285157v-18.285157c0-5.050781 4.09375-9.144531 9.140624-9.144531 5.050782 0 9.144532 4.09375 9.144532 9.144531zm0 0"/><path d="m338.285156 438.855469h27.429688v18.289062h-27.429688zm0 0"/><path d="m438.855469 146.285156h18.289062v27.429688h-18.289062zm0 0"/><path d="m438.855469 338.285156h18.289062v27.429688h-18.289062zm0 0"/><path d="m173.714844 109.714844v-18.285156h-27.429688v18.285156c0 20.199218-16.371094 36.570312-36.570312 36.570312h-18.285156v27.429688h18.285156c20.199218 0 36.570312 16.371094 36.570312 36.570312v91.429688c0 20.199218-16.371094 36.570312-36.570312 36.570312h-18.285156v27.429688h18.285156c20.199218 0 36.570312 16.371094 36.570312 36.570312v18.285156h27.429688v-18.285156c0-20.199218 16.371094-36.570312 36.570312-36.570312h91.429688c20.199218 0 36.570312 16.371094 36.570312 36.570312v18.285156h27.429688v-18.285156c0-20.199218 16.371094-36.570312 36.570312-36.570312h18.285156v-27.429688h-18.285156c-20.199218 0-36.570312-16.371094-36.570312-36.570312v-91.429688c0-20.199218 16.371094-36.570312 36.570312-36.570312h18.285156v-27.429688h-18.285156c-20.199218 0-36.570312-16.371094-36.570312-36.570312v-18.285156h-27.429688v18.285156c0 20.199218-16.371094 36.570312-36.570312 36.570312h-91.429688c-20.199218 0-36.570312-16.371094-36.570312-36.570312zm128 64c20.199218 0 36.570312 16.371094 36.570312 36.570312v91.429688c0 20.199218-16.371094 36.570312-36.570312 36.570312h-91.429688c-20.199218 0-36.570312-16.371094-36.570312-36.570312v-91.429688c0-20.199218 16.371094-36.570312 36.570312-36.570312zm0 0"/><path d="m210.285156 192h91.429688c10.097656 0 18.285156 8.1875 18.285156 18.285156v91.429688c0 10.097656-8.1875 18.285156-18.285156 18.285156h-91.429688c-10.097656 0-18.285156-8.1875-18.285156-18.285156v-91.429688c0-10.097656 8.1875-18.285156 18.285156-18.285156zm0 0"/><path d="m402.285156 192h91.429688c10.097656 0 18.285156 8.1875 18.285156 18.285156v91.429688c0 10.097656-8.1875 18.285156-18.285156 18.285156h-91.429688c-10.097656 0-18.285156-8.1875-18.285156-18.285156v-91.429688c0-10.097656 8.1875-18.285156 18.285156-18.285156zm0 0"/></svg>