<?xml version="1.0" encoding="iso-8859-1"?>
<!-- Generator: Adobe Illustrator 18.1.1, SVG Export Plug-In . SVG Version: 6.00 Build 0)  -->
<svg version="1.1" id="Capa_1" xmlns="http://www.w3.org/2000/svg" xmlns:xlink="http://www.w3.org/1999/xlink" x="0px" y="0px"
	 viewBox="0 0 20 20" style="enable-background:new 0 0 20 20;" xml:space="preserve">
<g>
	<g>
		<path style="fill:#030104;" d="M4,14H2c-1.104,0-2,0.896-2,2v2c0,1.104,0.896,2,2,2h2c1.104,0,2-0.896,2-2v-2
			C6,14.896,5.104,14,4,14z M4,18H2v-2h2V18z"/>
		<path style="fill:#030104;" d="M4,7H2C0.896,7,0,7.896,0,9v2c0,1.104,0.896,2,2,2h2c1.104,0,2-0.896,2-2V9C6,7.896,5.104,7,4,7z
			 M4,11H2V9h2V11z"/>
		<path style="fill:#030104;" d="M4,0H2C0.896,0,0,0.896,0,2v2c0,1.104,0.896,2,2,2h2c1.104,0,2-0.896,2-2V2C6,0.896,5.104,0,4,0z
			 M4,4H2V2h2V4z"/>
		<path style="fill:#030104;" d="M11,14H9c-1.104,0-2,0.896-2,2v2c0,1.104,0.896,2,2,2h2c1.104,0,2-0.896,2-2v-2
			C13,14.896,12.104,14,11,14z M11,18H9v-2h2V18z"/>
		<path style="fill:#030104;" d="M11,7H9C7.896,7,7,7.896,7,9v2c0,1.104,0.896,2,2,2h2c1.104,0,2-0.896,2-2V9
			C13,7.896,12.104,7,11,7z M11,11H9V9h2V11z"/>
		<path style="fill:#030104;" d="M11,0H9C7.896,0,7,0.896,7,2v2c0,1.104,0.896,2,2,2h2c1.104,0,2-0.896,2-2V2
			C13,0.896,12.104,0,11,0z M11,4H9V2h2V4z"/>
		<path style="fill:#030104;" d="M18,14h-2c-1.104,0-2,0.896-2,2v2c0,1.104,0.896,2,2,2h2c1.104,0,2-0.896,2-2v-2
			C20,14.896,19.104,14,18,14z M18,18h-2v-2h2V18z"/>
		<path style="fill:#030104;" d="M18,7h-2c-1.104,0-2,0.896-2,2v2c0,1.104,0.896,2,2,2h2c1.104,0,2-0.896,2-2V9
			C20,7.896,19.104,7,18,7z M18,11h-2V9h2V11z"/>
		<path style="fill:#030104;" d="M18,0h-2c-1.104,0-2,0.896-2,2v2c0,1.104,0.896,2,2,2h2c1.104,0,2-0.896,2-2V2
			C20,0.896,19.104,0,18,0z M18,4h-2V2h2V4z"/>
	</g>
</g>
<g>
</g>
<g>
</g>
<g>
</g>
<g>
</g>
<g>
</g>
<g>
</g>
<g>
</g>
<g>
</g>
<g>
</g>
<g>
</g>
<g>
</g>
<g>
</g>
<g>
</g>
<g>
</g>
<g>
</g>
</svg>
