<svg id="Capa_1" enable-background="new 0 0 512.164 512.164" height="512" viewBox="0 0 512.164 512.164" width="512" xmlns="http://www.w3.org/2000/svg"><path d="m476.137 256.082 36.027-89.082h-126.877c-28.355-41-75.692-67.918-129.205-67.918s-100.85 26.918-129.205 67.918h-126.877l36.027 89.082-36.027 89.082h126.877c28.355 41 75.692 67.918 129.205 67.918s100.85-26.918 129.205-67.918h126.877zm-365.505-59.082c-5.637 13.828-9.358 28.63-10.83 44.082h-37.48l-17.828-44.082zm-66.138 118.164 17.828-44.082h37.48c1.471 15.451 5.193 30.254 10.83 44.082zm211.588 67.918c-70.028 0-127-56.972-127-127s56.972-127 127-127 127 56.972 127 127-56.972 127-127 127zm145.45-67.918c5.637-13.828 9.358-28.63 10.83-44.082h37.48l17.828 44.082zm48.31-74.082h-37.48c-1.471-15.451-5.193-30.254-10.83-44.082h66.138z"/><path d="m256.082 162c-51.877 0-94.082 42.205-94.082 94.082s42.205 94.082 94.082 94.082 94.082-42.205 94.082-94.082-42.205-94.082-94.082-94.082zm0 158.164c-35.335 0-64.082-28.747-64.082-64.082s28.747-64.082 64.082-64.082 64.082 28.747 64.082 64.082-28.747 64.082-64.082 64.082z"/></svg>