<svg id="Capa_1" enable-background="new 0 0 512 512" height="512" viewBox="0 0 512 512" width="512" xmlns="http://www.w3.org/2000/svg"><path d="m452.635 156.771-33.986-33.458-5-47.41-45.112-15.386-25.015-40.593-47.347 5.716-40.175-25.64-40.173 25.64-47.347-5.716-25.015 40.593-45.113 15.386-5.001 47.41-33.986 33.458 16.143 44.866-16.143 44.865 33.986 33.458 5 47.411 45.112 15.385 13.701 22.233v147.011l98.836-35.358 98.835 35.358v-147.013l13.701-22.232 45.112-15.385 5.001-47.411 33.986-33.458-16.143-44.865zm-265.443 224.318 28.635-3.457 25.16 16.058v56.433l-53.795 19.245zm83.821 69.034v-56.433l25.16-16.058 28.635 3.457v88.279zm146.863-211.538-27.96 27.525-4.117 39.033-37.166 12.675-20.593 33.417-38.95-4.702-33.09 21.119-33.09-21.119-38.95 4.702-20.593-33.417-37.166-12.675-4.117-39.033-27.96-27.525 13.295-36.949-13.295-36.949 27.96-27.525 4.117-39.033 37.166-12.675 20.593-33.417 38.95 4.702 33.09-21.118 33.09 21.119 38.95-4.702 20.593 33.417 37.166 12.675 4.117 39.033 27.96 27.525-13.295 36.949z"/><path d="m256 84.791c-64.429 0-116.845 52.417-116.845 116.845s52.416 116.845 116.845 116.845 116.845-52.416 116.845-116.845-52.416-116.845-116.845-116.845zm0 203.664c-47.872 0-86.818-38.947-86.818-86.818 0-47.872 38.947-86.819 86.818-86.819s86.818 38.947 86.818 86.819c0 47.871-38.946 86.818-86.818 86.818z"/></svg>