<?xml version="1.0" encoding="iso-8859-1"?>
<!-- Generator: Adobe Illustrator 16.0.0, SVG Export Plug-In . SVG Version: 6.00 Build 0)  -->
<!DOCTYPE svg PUBLIC "-//W3C//DTD SVG 1.1//EN" "http://www.w3.org/Graphics/SVG/1.1/DTD/svg11.dtd">
<svg version="1.1" id="Capa_1" xmlns="http://www.w3.org/2000/svg" xmlns:xlink="http://www.w3.org/1999/xlink" x="0px" y="0px"
	 width="512px" height="512px" viewBox="0 0 512 512" style="enable-background:new 0 0 512 512;" xml:space="preserve">
<g>
	<path d="M256,0C114.609,0,0,114.609,0,256c0,141.391,114.609,256,256,256c141.391,0,256-114.609,256-256
		C512,114.609,397.391,0,256,0z M256,472c-119.297,0-216-96.703-216-216S136.703,40,256,40s216,96.703,216,216S375.297,472,256,472z
		"/>
	<g>
		<path d="M208.594,317.016c3.188,13.517,9.125,23.422,17.875,29.422c8.672,6.017,17.656,9.017,26.688,9.017
			c9.672,0,17.766-2.438,24.344-7.172c6.547-4.578,11.812-11,15.875-18.845c4.078-7.953,6.858-16.969,8.642-27.172
			c1.688-10.062,2.547-20.578,2.547-31.5c-7.359,10.922-15.734,18.234-24.875,22.017c-9.094,3.922-17.969,5.733-26.531,5.733
			c-9.031,0-18.219-1.983-27.281-5.969c-9.094-3.984-17.375-9.516-24.781-16.703c-7.312-7.203-13.375-15.719-18.031-25.562
			c-4.69-9.813-7.065-20.782-7.065-32.813c0-12.062,1.719-23.5,5.031-34.375c3.375-10.859,8.266-20.344,14.672-28.438
			c6.484-8.062,14.469-14.531,24.141-19.391c9.594-4.797,20.688-7.266,33.312-7.266c26.031,0,46.328,10,60.938,29.984
			C328.688,177.969,336,206.625,336,243.875c0,15.875-1.156,32.141-3.438,48.672c-2.298,16.688-6.548,31.719-12.703,45.203
			c-6.188,13.516-14.625,24.688-25.312,33.266C283.844,379.734,270.031,384,253.156,384c-8.781,0-17.469-1.234-26.125-3.734
			c-8.547-2.5-16.156-6.312-22.891-11.703c-6.703-5.28-12.297-12.108-16.859-20.625c-4.562-8.5-7.203-18.905-8.094-30.922H208.594z
			 M253.016,269.875c6.391,0,12.546-1.406,18.266-4.375c5.844-2.969,10.766-6.984,15.016-12.125
			c4.156-5.125,7.531-11.141,10.048-18.094c2.53-6.891,3.858-14.281,3.858-22.25c0-7.906-1.328-15.266-3.858-22.031
			c-2.517-6.734-5.892-12.719-10.048-17.844c-4.25-5.125-9.172-9.156-15.016-12.125c-5.72-2.906-11.875-4.406-18.266-4.406
			c-6.234,0-12.031,1.5-17.422,4.406c-5.344,2.969-10.109,7-14.125,12.125c-4,5.125-7.281,11.109-9.688,17.844
			c-2.406,6.766-3.625,14.125-3.625,22.031c0,7.969,1.219,15.359,3.625,22.25c2.406,6.953,5.688,12.969,9.688,18.094
			c4.016,5.141,8.781,9.156,14.125,12.125C240.984,268.469,246.781,269.875,253.016,269.875z"/>
	</g>
</g>
<g>
</g>
<g>
</g>
<g>
</g>
<g>
</g>
<g>
</g>
<g>
</g>
<g>
</g>
<g>
</g>
<g>
</g>
<g>
</g>
<g>
</g>
<g>
</g>
<g>
</g>
<g>
</g>
<g>
</g>
</svg>
