<?xml version="1.0" encoding="utf-8"?>
<!-- Svg Vector Icons : http://www.onlinewebfonts.com/icon -->
<!DOCTYPE svg PUBLIC "-//W3C//DTD SVG 1.1//EN" "http://www.w3.org/Graphics/SVG/1.1/DTD/svg11.dtd">
<svg version="1.1" xmlns="http://www.w3.org/2000/svg" xmlns:xlink="http://www.w3.org/1999/xlink" x="0px" y="0px" viewBox="0 0 1000 1000" enable-background="new 0 0 1000 1000" xml:space="preserve">
<metadata> Svg Vector Icons : http://www.onlinewebfonts.com/icon </metadata>
<g><path d="M990,500c0-270.7-219.3-490-490-490C229.4,10,10,229.4,10,500c0,270.7,219.4,490,490,490C611.1,990,712.8,952.2,795,890c3.4-3.9,5.6-8.7,5.6-14.2c0-12-9.7-21.7-21.7-21.7c-6.2,0-11.8,2.4-15.8,6.6h-0.2c-73.6,54.1-164.1,86.5-262.5,86.5c-245,0-443.7-198.7-443.7-443.7c0-245.1,198.7-443.8,443.7-443.8c245.1,0,443.7,198.7,443.7,443.8c0,74.9-17.5,145.3-50.3,207.2v0.4c-0.6,2.1-1.3,4.1-1.3,6.3c0,12,9.8,21.7,21.7,21.7c9.4,0,17.2-6,20.3-14.3v0.2C969.4,657.4,990,581.1,990,500L990,500z"/><path d="M334.1,773.5l-5.6-0.4c-8.4-1.3-15.5-4.1-21.8-8.5c-6.7-4.7-11.8-10.7-15.2-17.9c-3.7-7.9-4.8-16.8-2.9-25.6l3.1-12c1.4-5.8,3.1-12.5,5-20.5c1.9-8.1,4.1-17.3,6.6-27.3l23.3-94.6l-3.1-2.6c-16.5-14.2-31.7-27.3-45.5-38.9l-22.4-19c-7.5-6.4-14.3-12.1-20.2-17.3c-5.6-4.9-10.3-8.9-13.9-11.9c-5.4-4.6-8.1-7.1-8.5-7.6c-4.7-4.2-10-10.5-14.4-17.4c-6.4-10.1-8.9-21.3-7.2-32.4c1.5-10.9,6.4-20.4,14.2-27.3c6.8-6,14.6-9.9,23.1-11.5L391.7,366l59.4-138.5c3.2-8.3,8.2-16.3,14.5-22.9c6.1-6.4,17.2-14,34.7-14c8.1,0,15.7,2,22.3,5.9c5.3,3.2,9.7,6.9,13.4,11.3c3,3.6,5.4,7.1,7.4,10.5l3,5.4l59.4,141.3L766.5,380c15.2,3.5,23.4,7.3,29.6,12.6c5.9,5.1,13.1,14.7,13.1,31.1c0,10.8-3.5,20.9-10.2,29.3c-3.5,4.3-7.7,9.3-12.8,15.2l-109,98.1c5.2,24.4,9.9,47,14,67.4c2.3,10,4.4,20.5,6.3,31l9.7,48.9c0.9,4.9,1.5,8.1,1.9,9.4c3.3,20.3-3.3,35.4-17.2,42.8c-11.5,6.4-23,10.6-43.4,3.2l-9.3-3.5l-138.7-80.4c-22.1,13-42.6,24.8-61.2,35.4l-28.1,15.8c-9.1,5.2-17.4,10-24.9,14.5c-7.7,4.6-14.5,8.6-20.2,11.7c-7,3.8-11.6,6-13.9,7C347.5,772,340.9,773.5,334.1,773.5z M498.7,239.5c0.5,1-1,3.4-2.1,6.4l-71.4,166.2L242,428.8c1.7,1.9,3.5,3.9,5.5,5.8l5.5,4.8c3.7,3,8.7,7.3,14.8,12.7l42.2,36c13.7,11.5,28.9,24.7,45.6,39l25.9,22.2l-30.5,124.1c-2.4,9.8-4.6,18.6-6.4,26.6c-2,8.4-3.7,15.5-5.3,21.5c1.1-0.6,2.2-1.2,3.5-1.8c5-2.8,11.4-6.5,18.6-10.8c7.8-4.6,16.3-9.6,25.7-15l28.3-15.9c21.7-12.3,45.9-26.4,72.7-42.2l12.4-7.4l158.2,92l-9.2-46.6c-1.9-9.9-3.8-19.9-6-29.7c-5-24.6-10.7-51.6-17.1-81.3l-3-13.9l128-115c1.3-1.7,3-3.7,4.7-5.8l-184-17l-69.3-165.5"/></g>
</svg>