<?xml version="1.0" encoding="UTF-8" standalone="no"?>
<!-- Svg Vector Icons : http://www.onlinewebfonts.com/icon -->

<svg
   xmlns:dc="http://purl.org/dc/elements/1.1/"
   xmlns:cc="http://creativecommons.org/ns#"
   xmlns:rdf="http://www.w3.org/1999/02/22-rdf-syntax-ns#"
   xmlns:svg="http://www.w3.org/2000/svg"
   xmlns="http://www.w3.org/2000/svg"
   xmlns:sodipodi="http://sodipodi.sourceforge.net/DTD/sodipodi-0.dtd"
   xmlns:inkscape="http://www.inkscape.org/namespaces/inkscape"
   version="1.1"
   x="0px"
   y="0px"
   viewBox="0 0 1000 1000"
   enable-background="new 0 0 1000 1000"
   xml:space="preserve"
   id="svg821"
   sodipodi:docname="op_draft.svg"
   inkscape:version="0.92.2 (5c3e80d, 2017-08-06)"><defs
     id="defs825" /><sodipodi:namedview
     pagecolor="#ffffff"
     bordercolor="#666666"
     borderopacity="1"
     objecttolerance="10"
     gridtolerance="10"
     guidetolerance="10"
     inkscape:pageopacity="0"
     inkscape:pageshadow="2"
     inkscape:window-width="1920"
     inkscape:window-height="1017"
     id="namedview823"
     showgrid="false"
     inkscape:zoom="0.82"
     inkscape:cx="500"
     inkscape:cy="500"
     inkscape:window-x="-8"
     inkscape:window-y="-8"
     inkscape:window-maximized="1"
     inkscape:current-layer="g2586" /><metadata
     id="metadata815"> Svg Vector Icons : http://www.onlinewebfonts.com/icon <rdf:RDF><cc:Work
     rdf:about=""><dc:format>image/svg+xml</dc:format><dc:type
       rdf:resource="http://purl.org/dc/dcmitype/StillImage" /><dc:title></dc:title></cc:Work></rdf:RDF></metadata><g
     id="g819"><path
       d="M920.1,990H248.9c-38.6,0-69.9-31.3-69.9-69.9V248.9c0-38.6,31.3-69.9,69.9-69.9h671.2c38.6,0,69.9,31.3,69.9,69.9v671.2C990,958.7,958.7,990,920.1,990L920.1,990L920.1,990z M922.4,304.8c0-32.2-26.1-58.3-58.3-58.3H304.8c-32.2,0-58.3,26.1-58.3,58.3v559.3c0,32.2,26.1,58.3,58.3,58.3h559.3c32.2,0,58.3-26.1,58.3-58.3V304.8L922.4,304.8z M685.9,77.6h-550c-32.2,0-58.3,26.1-58.3,58.2V669c0,18.7-15.1,33.8-33.8,33.8C25.1,702.8,10,687.6,10,669v-589C10,41.3,41.3,10,79.9,10h605.9c18.7,0,33.8,15.1,33.8,33.8C719.7,62.5,704.5,77.6,685.9,77.6L685.9,77.6L685.9,77.6z"
       id="path817" /></g><g
     id="g2586"
     transform="translate(409.73135,412.77398)"><g
       id="g1014" /><g
       id="g1016" /><g
       id="g1018" /><g
       id="g1020" /><g
       id="g1022" /><g
       id="g1024" /><g
       id="g1026" /><g
       id="g1028" /><g
       id="g1030" /><g
       id="g1032" /><g
       id="g1034" /><g
       id="g1036" /><g
       id="g1038" /><g
       id="g1040" /><g
       id="g1042" /><path
       style="fill:#7c0000;fill-opacity:1;stroke-width:0.63940054"
       id="path3942"
       d="M 41.246112,7.9106055 C 29.773732,1.4762984 17.015692,1.6393735 9.4451419,9.3950985 1.9131319,17.110702 1.7103419,30.069914 7.8827719,41.767889 18.994402,39.387784 37.675952,31.824254 41.246112,7.9106055 Z"
       inkscape:connector-curvature="0" /><path
       style="fill:#7c0000;fill-opacity:1;stroke-width:0.63940054"
       id="path3944"
       d="m 120.85214,150.2911 40.94905,15.16652 -14.6439,-41.47775 c -5.44715,14.40488 -16.392,22.15347 -26.30515,26.31123 z"
       inkscape:connector-curvature="0" /><path
       style="fill:#7c0000;fill-opacity:1;stroke-width:0.63940054"
       id="path3946"
       d="m 142.3893,110.48484 -0.82383,-2.33157 -90.461788,-92.659072 c -0.88955,-0.911145 -1.80562,-1.762754 -2.73749,-2.574888 -1.80371,8.679164 -5.3966,15.403381 -9.84808,20.628222 l 95.259478,97.578478 c 4.19561,-5.03588 7.44293,-11.71934 8.61171,-20.64117 z"
       inkscape:connector-curvature="0" /><path
       style="fill:#7c0000;fill-opacity:1;stroke-width:0.63940054"
       id="path3948"
       d="m 12.890202,49.273179 c 0.78909,0.954501 1.61987,1.888941 2.50561,2.798143 l 90.463688,92.659068 1.93828,0.71895 c 5.56909,-1.07615 13.44858,-3.48215 20.33049,-8.85194 L 32.901642,39.049988 c -6.52306,5.371737 -13.87754,8.459143 -20.01144,10.223191 z"
       inkscape:connector-curvature="0" /></g></svg>