<?xml version="1.0" encoding="UTF-8" standalone="no"?>
<!-- Svg Vector Icons : http://www.onlinewebfonts.com/icon -->

<svg
   xmlns:dc="http://purl.org/dc/elements/1.1/"
   xmlns:cc="http://creativecommons.org/ns#"
   xmlns:rdf="http://www.w3.org/1999/02/22-rdf-syntax-ns#"
   xmlns:svg="http://www.w3.org/2000/svg"
   xmlns="http://www.w3.org/2000/svg"
   xmlns:sodipodi="http://sodipodi.sourceforge.net/DTD/sodipodi-0.dtd"
   xmlns:inkscape="http://www.inkscape.org/namespaces/inkscape"
   version="1.1"
   x="0px"
   y="0px"
   viewBox="0 0 1000 1000"
   enable-background="new 0 0 1000 1000"
   xml:space="preserve"
   id="svg821"
   sodipodi:docname="op_goodsexpend.svg"
   inkscape:version="0.92.2 (5c3e80d, 2017-08-06)"><defs
     id="defs825" /><sodipodi:namedview
     pagecolor="#ffffff"
     bordercolor="#666666"
     borderopacity="1"
     objecttolerance="10"
     gridtolerance="10"
     guidetolerance="10"
     inkscape:pageopacity="0"
     inkscape:pageshadow="2"
     inkscape:window-width="1920"
     inkscape:window-height="1017"
     id="namedview823"
     showgrid="false"
     inkscape:zoom="0.82"
     inkscape:cx="500"
     inkscape:cy="500"
     inkscape:window-x="-8"
     inkscape:window-y="-8"
     inkscape:window-maximized="1"
     inkscape:current-layer="svg821" /><metadata
     id="metadata815"> Svg Vector Icons : http://www.onlinewebfonts.com/icon <rdf:RDF><cc:Work
     rdf:about=""><dc:format>image/svg+xml</dc:format><dc:type
       rdf:resource="http://purl.org/dc/dcmitype/StillImage" /><dc:title></dc:title></cc:Work></rdf:RDF></metadata><g
     id="g819"><path
       d="M920.1,990H248.9c-38.6,0-69.9-31.3-69.9-69.9V248.9c0-38.6,31.3-69.9,69.9-69.9h671.2c38.6,0,69.9,31.3,69.9,69.9v671.2C990,958.7,958.7,990,920.1,990L920.1,990L920.1,990z M922.4,304.8c0-32.2-26.1-58.3-58.3-58.3H304.8c-32.2,0-58.3,26.1-58.3,58.3v559.3c0,32.2,26.1,58.3,58.3,58.3h559.3c32.2,0,58.3-26.1,58.3-58.3V304.8L922.4,304.8z M685.9,77.6h-550c-32.2,0-58.3,26.1-58.3,58.2V669c0,18.7-15.1,33.8-33.8,33.8C25.1,702.8,10,687.6,10,669v-589C10,41.3,41.3,10,79.9,10h605.9c18.7,0,33.8,15.1,33.8,33.8C719.7,62.5,704.5,77.6,685.9,77.6L685.9,77.6L685.9,77.6z"
       id="path817" /></g><g
     id="g1380"
     transform="matrix(13.456446,0,0,15.634146,299.7317,263.14635)"
     style="stroke-width:0.0689442"><rect
       id="rect1325"
       height="4"
       width="42"
       y="19"
       x="0"
       style="stroke-width:0.0689442" /><g
       id="g1327"
       style="stroke-width:0.0689442" /><g
       id="g1329"
       style="stroke-width:0.0689442" /><g
       id="g1331"
       style="stroke-width:0.0689442" /><g
       id="g1333"
       style="stroke-width:0.0689442" /><g
       id="g1335"
       style="stroke-width:0.0689442" /><g
       id="g1337"
       style="stroke-width:0.0689442" /><g
       id="g1339"
       style="stroke-width:0.0689442" /><g
       id="g1341"
       style="stroke-width:0.0689442" /><g
       id="g1343"
       style="stroke-width:0.0689442" /><g
       id="g1345"
       style="stroke-width:0.0689442" /><g
       id="g1347"
       style="stroke-width:0.0689442" /><g
       id="g1349"
       style="stroke-width:0.0689442" /><g
       id="g1351"
       style="stroke-width:0.0689442" /><g
       id="g1353"
       style="stroke-width:0.0689442" /><g
       id="g1355"
       style="stroke-width:0.0689442" /></g></svg>