<?xml version="1.0" encoding="UTF-8" standalone="no"?>
<!-- Svg Vector Icons : http://www.onlinewebfonts.com/icon -->

<svg
   xmlns:dc="http://purl.org/dc/elements/1.1/"
   xmlns:cc="http://creativecommons.org/ns#"
   xmlns:rdf="http://www.w3.org/1999/02/22-rdf-syntax-ns#"
   xmlns:svg="http://www.w3.org/2000/svg"
   xmlns="http://www.w3.org/2000/svg"
   xmlns:sodipodi="http://sodipodi.sourceforge.net/DTD/sodipodi-0.dtd"
   xmlns:inkscape="http://www.inkscape.org/namespaces/inkscape"
   version="1.1"
   x="0px"
   y="0px"
   viewBox="0 0 1000 1000"
   enable-background="new 0 0 1000 1000"
   xml:space="preserve"
   id="svg821"
   sodipodi:docname="op_goodsreturn.svg"
   inkscape:version="0.92.2 (5c3e80d, 2017-08-06)"><defs
     id="defs825" /><sodipodi:namedview
     pagecolor="#ffffff"
     bordercolor="#666666"
     borderopacity="1"
     objecttolerance="10"
     gridtolerance="10"
     guidetolerance="10"
     inkscape:pageopacity="0"
     inkscape:pageshadow="2"
     inkscape:window-width="1920"
     inkscape:window-height="1017"
     id="namedview823"
     showgrid="false"
     inkscape:zoom="0.82"
     inkscape:cx="500"
     inkscape:cy="500"
     inkscape:window-x="-8"
     inkscape:window-y="-8"
     inkscape:window-maximized="1"
     inkscape:current-layer="svg821" /><metadata
     id="metadata815"> Svg Vector Icons : http://www.onlinewebfonts.com/icon <rdf:RDF><cc:Work
     rdf:about=""><dc:format>image/svg+xml</dc:format><dc:type
       rdf:resource="http://purl.org/dc/dcmitype/StillImage" /><dc:title></dc:title></cc:Work></rdf:RDF></metadata><g
     id="g819"><path
       d="M920.1,990H248.9c-38.6,0-69.9-31.3-69.9-69.9V248.9c0-38.6,31.3-69.9,69.9-69.9h671.2c38.6,0,69.9,31.3,69.9,69.9v671.2C990,958.7,958.7,990,920.1,990L920.1,990L920.1,990z M922.4,304.8c0-32.2-26.1-58.3-58.3-58.3H304.8c-32.2,0-58.3,26.1-58.3,58.3v559.3c0,32.2,26.1,58.3,58.3,58.3h559.3c32.2,0,58.3-26.1,58.3-58.3V304.8L922.4,304.8z M685.9,77.6h-550c-32.2,0-58.3,26.1-58.3,58.2V669c0,18.7-15.1,33.8-33.8,33.8C25.1,702.8,10,687.6,10,669v-589C10,41.3,41.3,10,79.9,10h605.9c18.7,0,33.8,15.1,33.8,33.8C719.7,62.5,704.5,77.6,685.9,77.6L685.9,77.6L685.9,77.6z"
       id="path817" /></g><g
     id="g2098"
     transform="matrix(5.6579767,0,0,5.2223,322.43522,340.14719)"
     style="stroke-width:0.1839664"><g
       id="g2042"
       style="stroke-width:0.1839664"><path
         id="path2040"
         d="m 5.39,31.904 h 12.793 c 1.021,0 1.849,0.829 1.849,1.849 v 28.423 h -0.007 v 1.333 c 0,8.453 6.876,15.33 15.33,15.33 8.452,0 15.33,-6.877 15.33,-15.33 L 50.71,29.112 37.46,42.414 c -0.687,0.687 -1.902,0.687 -2.588,0 l -8.266,-8.267 c -0.343,-0.343 -0.536,-0.81 -0.536,-1.294 0,-0.485 0.193,-0.951 0.536,-1.294 L 57.626,0.538 c 0.715,-0.717 1.873,-0.717 2.588,0 l 31.022,31.02 c 0.714,0.715 0.714,1.873 0,2.588 l -8.265,8.267 c -0.342,0.343 -0.809,0.536 -1.293,0.536 -0.485,0 -0.951,-0.193 -1.295,-0.536 L 67.181,29.111 67.159,63.508 c 0,17.537 -14.267,31.805 -31.804,31.805 C 17.818,95.313 3.55,81.046 3.55,63.509 L 3.541,33.753 c 0,-1.02 0.827,-1.849 1.849,-1.849 z"
         inkscape:connector-curvature="0"
         style="stroke-width:0.1839664" /></g><g
       id="g2044"
       style="stroke-width:0.1839664" /><g
       id="g2046"
       style="stroke-width:0.1839664" /><g
       id="g2048"
       style="stroke-width:0.1839664" /><g
       id="g2050"
       style="stroke-width:0.1839664" /><g
       id="g2052"
       style="stroke-width:0.1839664" /><g
       id="g2054"
       style="stroke-width:0.1839664" /><g
       id="g2056"
       style="stroke-width:0.1839664" /><g
       id="g2058"
       style="stroke-width:0.1839664" /><g
       id="g2060"
       style="stroke-width:0.1839664" /><g
       id="g2062"
       style="stroke-width:0.1839664" /><g
       id="g2064"
       style="stroke-width:0.1839664" /><g
       id="g2066"
       style="stroke-width:0.1839664" /><g
       id="g2068"
       style="stroke-width:0.1839664" /><g
       id="g2070"
       style="stroke-width:0.1839664" /><g
       id="g2072"
       style="stroke-width:0.1839664" /></g></svg>