<?xml version="1.0" encoding="UTF-8" standalone="no"?>
<!-- Svg Vector Icons : http://www.onlinewebfonts.com/icon -->

<svg
   xmlns:dc="http://purl.org/dc/elements/1.1/"
   xmlns:cc="http://creativecommons.org/ns#"
   xmlns:rdf="http://www.w3.org/1999/02/22-rdf-syntax-ns#"
   xmlns:svg="http://www.w3.org/2000/svg"
   xmlns="http://www.w3.org/2000/svg"
   xmlns:sodipodi="http://sodipodi.sourceforge.net/DTD/sodipodi-0.dtd"
   xmlns:inkscape="http://www.inkscape.org/namespaces/inkscape"
   version="1.1"
   x="0px"
   y="0px"
   viewBox="0 0 1000 1000"
   enable-background="new 0 0 1000 1000"
   xml:space="preserve"
   id="svg821"
   sodipodi:docname="op_goodsmodif.svg"
   inkscape:version="0.92.2 (5c3e80d, 2017-08-06)"><defs
     id="defs825" /><sodipodi:namedview
     pagecolor="#ffffff"
     bordercolor="#666666"
     borderopacity="1"
     objecttolerance="10"
     gridtolerance="10"
     guidetolerance="10"
     inkscape:pageopacity="0"
     inkscape:pageshadow="2"
     inkscape:window-width="1920"
     inkscape:window-height="1017"
     id="namedview823"
     showgrid="false"
     inkscape:zoom="0.82"
     inkscape:cx="500"
     inkscape:cy="500"
     inkscape:window-x="-8"
     inkscape:window-y="-8"
     inkscape:window-maximized="1"
     inkscape:current-layer="svg821" /><metadata
     id="metadata815"> Svg Vector Icons : http://www.onlinewebfonts.com/icon <rdf:RDF><cc:Work
     rdf:about=""><dc:format>image/svg+xml</dc:format><dc:type
       rdf:resource="http://purl.org/dc/dcmitype/StillImage" /><dc:title></dc:title></cc:Work></rdf:RDF></metadata><g
     id="g819"><path
       d="M920.1,990H248.9c-38.6,0-69.9-31.3-69.9-69.9V248.9c0-38.6,31.3-69.9,69.9-69.9h671.2c38.6,0,69.9,31.3,69.9,69.9v671.2C990,958.7,958.7,990,920.1,990L920.1,990L920.1,990z M922.4,304.8c0-32.2-26.1-58.3-58.3-58.3H304.8c-32.2,0-58.3,26.1-58.3,58.3v559.3c0,32.2,26.1,58.3,58.3,58.3h559.3c32.2,0,58.3-26.1,58.3-58.3V304.8L922.4,304.8z M685.9,77.6h-550c-32.2,0-58.3,26.1-58.3,58.2V669c0,18.7-15.1,33.8-33.8,33.8C25.1,702.8,10,687.6,10,669v-589C10,41.3,41.3,10,79.9,10h605.9c18.7,0,33.8,15.1,33.8,33.8C719.7,62.5,704.5,77.6,685.9,77.6L685.9,77.6L685.9,77.6z"
       id="path817" /></g><g
     id="g1497"
     transform="matrix(1.2343732,0,0,1.1885187,294.79493,308.20978)"
     style="stroke-width:0.82560772"><g
       id="g1439"
       style="stroke-width:0.82560772"><g
         id="g1437"
         style="stroke-width:0.82560772"><path
           id="path1433"
           d="m 454.2,189.101 -33.6,-5.7 c -3.5,-11.3 -8,-22.2 -13.5,-32.6 l 19.8,-27.7 c 8.4,-11.8 7.1,-27.9 -3.2,-38.1 l -29.8,-29.8 c -5.6,-5.6 -13,-8.7 -20.9,-8.7 -6.2,0 -12.1,1.9 -17.1,5.5 l -27.8,19.8 c -10.8,-5.7 -22.1,-10.4 -33.8,-13.9 l -5.6,-33.2 c -2.4,-14.3 -14.7,-24.7 -29.2,-24.7 h -42.1 c -14.5,0 -26.8,10.4 -29.2,24.7 l -5.8,34 c -11.2,3.5 -22.1,8.1 -32.5,13.7 l -27.5,-19.8 c -5,-3.6 -11,-5.5 -17.2,-5.5 -7.9,0 -15.4,3.1 -20.9,8.7 l -29.9,29.8 c -10.2,10.2 -11.6,26.3 -3.2,38.1 l 20,28.1 c -5.5,10.5 -9.9,21.4 -13.3,32.7 l -33.2,5.6 c -14.3,2.4 -24.7,14.7 -24.7,29.2 v 42.1 c 0,14.5 10.4,26.8 24.7,29.2 l 34,5.8 c 3.5,11.2 8.1,22.1 13.7,32.5 l -19.7,27.4 c -8.4,11.8 -7.1,27.9 3.2,38.1 l 29.8,29.8 c 5.6,5.6 13,8.7 20.9,8.7 6.2,0 12.1,-1.9 17.1,-5.5 l 28.1,-20 c 10.1,5.3 20.7,9.6 31.6,13 l 5.6,33.6 c 2.4,14.3 14.7,24.7 29.2,24.7 h 42.2 c 14.5,0 26.8,-10.4 29.2,-24.7 l 5.7,-33.6 c 11.3,-3.5 22.2,-8 32.6,-13.5 l 27.7,19.8 c 5,3.6 11,5.5 17.2,5.5 v 0 c 7.9,0 15.3,-3.1 20.9,-8.7 l 29.8,-29.8 c 10.2,-10.2 11.6,-26.3 3.2,-38.1 l -19.8,-27.8 c 5.5,-10.5 10.1,-21.4 13.5,-32.6 l 33.6,-5.6 c 14.3,-2.4 24.7,-14.7 24.7,-29.2 v -42.1 c 0.2,-14.5 -10.2,-26.8 -24.5,-29.2 z m -2.3,71.3 c 0,1.3 -0.9,2.4 -2.2,2.6 l -42,7 c -5.3,0.9 -9.5,4.8 -10.8,9.9 -3.8,14.7 -9.6,28.8 -17.4,41.9 -2.7,4.6 -2.5,10.3 0.6,14.7 l 24.7,34.8 c 0.7,1 0.6,2.5 -0.3,3.4 l -29.8,29.8 c -0.7,0.7 -1.4,0.8 -1.9,0.8 -0.6,0 -1.1,-0.2 -1.5,-0.5 l -34.7,-24.7 c -4.3,-3.1 -10.1,-3.3 -14.7,-0.6 -13.1,7.8 -27.2,13.6 -41.9,17.4 -5.2,1.3 -9.1,5.6 -9.9,10.8 l -7.1,42 c -0.2,1.3 -1.3,2.2 -2.6,2.2 h -42.1 c -1.3,0 -2.4,-0.9 -2.6,-2.2 l -7,-42 c -0.9,-5.3 -4.8,-9.5 -9.9,-10.8 -14.3,-3.7 -28.1,-9.4 -41,-16.8 -2.1,-1.2 -4.5,-1.8 -6.8,-1.8 -2.7,0 -5.5,0.8 -7.8,2.5 l -35,24.9 c -0.5,0.3 -1,0.5 -1.5,0.5 -0.4,0 -1.2,-0.1 -1.9,-0.8 L 75,375.601 c -0.9,-0.9 -1,-2.3 -0.3,-3.4 l 24.6,-34.5 c 3.1,-4.4 3.3,-10.2 0.6,-14.8 -7.8,-13 -13.8,-27.1 -17.6,-41.8 -1.4,-5.1 -5.6,-9 -10.8,-9.9 l -42.3,-7.2 c -1.3,-0.2 -2.2,-1.3 -2.2,-2.6 v -42.1 c 0,-1.3 0.9,-2.4 2.2,-2.6 l 41.7,-7 c 5.3,-0.9 9.6,-4.8 10.9,-10 3.7,-14.7 9.4,-28.9 17.1,-42 2.7,-4.6 2.4,-10.3 -0.7,-14.6 l -24.9,-35 c -0.7,-1 -0.6,-2.5 0.3,-3.4 l 29.8,-29.8 c 0.7,-0.7 1.4,-0.8 1.9,-0.8 0.6,0 1.1,0.2 1.5,0.5 l 34.5,24.6 c 4.4,3.1 10.2,3.3 14.8,0.6 13,-7.8 27.1,-13.8 41.8,-17.6 5.1,-1.4 9,-5.6 9.9,-10.8 l 7.2,-42.3 c 0.2,-1.3 1.3,-2.2 2.6,-2.2 h 42.1 c 1.3,0 2.4,0.9 2.6,2.2 l 7,41.7 c 0.9,5.3 4.8,9.6 10,10.9 15.1,3.8 29.5,9.7 42.9,17.6 4.6,2.7 10.3,2.5 14.7,-0.6 l 34.5,-24.8 c 0.5,-0.3 1,-0.5 1.5,-0.5 0.4,0 1.2,0.1 1.9,0.8 l 29.8,29.8 c 0.9,0.9 1,2.3 0.3,3.4 l -24.7,34.7 c -3.1,4.3 -3.3,10.1 -0.6,14.7 7.8,13.1 13.6,27.2 17.4,41.9 1.3,5.2 5.6,9.1 10.8,9.9 l 42,7.1 c 1.3,0.2 2.2,1.3 2.2,2.6 v 42.1 z"
           inkscape:connector-curvature="0"
           style="stroke-width:0.82560772" /><path
           id="path1435"
           d="m 239.4,136.001 c -57,0 -103.3,46.3 -103.3,103.3 0,57 46.3,103.3 103.3,103.3 57,0 103.3,-46.3 103.3,-103.3 0,-57 -46.3,-103.3 -103.3,-103.3 z m 0,179.6 c -42.1,0 -76.3,-34.2 -76.3,-76.3 0,-42.1 34.2,-76.3 76.3,-76.3 42.1,0 76.3,34.2 76.3,76.3 0,42.1 -34.2,76.3 -76.3,76.3 z"
           inkscape:connector-curvature="0"
           style="stroke-width:0.82560772" /></g></g><g
       id="g1441"
       style="stroke-width:0.82560772" /><g
       id="g1443"
       style="stroke-width:0.82560772" /><g
       id="g1445"
       style="stroke-width:0.82560772" /><g
       id="g1447"
       style="stroke-width:0.82560772" /><g
       id="g1449"
       style="stroke-width:0.82560772" /><g
       id="g1451"
       style="stroke-width:0.82560772" /><g
       id="g1453"
       style="stroke-width:0.82560772" /><g
       id="g1455"
       style="stroke-width:0.82560772" /><g
       id="g1457"
       style="stroke-width:0.82560772" /><g
       id="g1459"
       style="stroke-width:0.82560772" /><g
       id="g1461"
       style="stroke-width:0.82560772" /><g
       id="g1463"
       style="stroke-width:0.82560772" /><g
       id="g1465"
       style="stroke-width:0.82560772" /><g
       id="g1467"
       style="stroke-width:0.82560772" /><g
       id="g1469"
       style="stroke-width:0.82560772" /></g></svg>