<?xml version="1.0" encoding="UTF-8" standalone="no"?>
<!-- Svg Vector Icons : http://www.onlinewebfonts.com/icon -->

<svg
   xmlns:dc="http://purl.org/dc/elements/1.1/"
   xmlns:cc="http://creativecommons.org/ns#"
   xmlns:rdf="http://www.w3.org/1999/02/22-rdf-syntax-ns#"
   xmlns:svg="http://www.w3.org/2000/svg"
   xmlns="http://www.w3.org/2000/svg"
   xmlns:sodipodi="http://sodipodi.sourceforge.net/DTD/sodipodi-0.dtd"
   xmlns:inkscape="http://www.inkscape.org/namespaces/inkscape"
   version="1.1"
   x="0px"
   y="0px"
   viewBox="0 0 1000 1000"
   enable-background="new 0 0 1000 1000"
   xml:space="preserve"
   id="svg821"
   sodipodi:docname="op_goodsreceipt.svg"
   inkscape:version="0.92.2 (5c3e80d, 2017-08-06)"><defs
     id="defs825" /><sodipodi:namedview
     pagecolor="#ffffff"
     bordercolor="#666666"
     borderopacity="1"
     objecttolerance="10"
     gridtolerance="10"
     guidetolerance="10"
     inkscape:pageopacity="0"
     inkscape:pageshadow="2"
     inkscape:window-width="1920"
     inkscape:window-height="1017"
     id="namedview823"
     showgrid="false"
     inkscape:zoom="0.82"
     inkscape:cx="500"
     inkscape:cy="500"
     inkscape:window-x="-8"
     inkscape:window-y="-8"
     inkscape:window-maximized="1"
     inkscape:current-layer="svg821" /><metadata
     id="metadata815"> Svg Vector Icons : http://www.onlinewebfonts.com/icon <rdf:RDF><cc:Work
     rdf:about=""><dc:format>image/svg+xml</dc:format><dc:type
       rdf:resource="http://purl.org/dc/dcmitype/StillImage" /><dc:title></dc:title></cc:Work></rdf:RDF></metadata><g
     id="g819"><path
       d="M920.1,990H248.9c-38.6,0-69.9-31.3-69.9-69.9V248.9c0-38.6,31.3-69.9,69.9-69.9h671.2c38.6,0,69.9,31.3,69.9,69.9v671.2C990,958.7,958.7,990,920.1,990L920.1,990L920.1,990z M922.4,304.8c0-32.2-26.1-58.3-58.3-58.3H304.8c-32.2,0-58.3,26.1-58.3,58.3v559.3c0,32.2,26.1,58.3,58.3,58.3h559.3c32.2,0,58.3-26.1,58.3-58.3V304.8L922.4,304.8z M685.9,77.6h-550c-32.2,0-58.3,26.1-58.3,58.2V669c0,18.7-15.1,33.8-33.8,33.8C25.1,702.8,10,687.6,10,669v-589C10,41.3,41.3,10,79.9,10h605.9c18.7,0,33.8,15.1,33.8,33.8C719.7,62.5,704.5,77.6,685.9,77.6L685.9,77.6L685.9,77.6z"
       id="path817" /></g><g
     id="g1155"
     transform="matrix(12.875726,0,0,11.627178,313.14634,322.90243)"
     style="stroke-width:0.08172914"><polygon
       id="polygon1100"
       points="19,0 19,19 0,19 0,23 19,23 19,42 23,42 23,23 42,23 42,19 23,19 23,0 "
       style="stroke-width:0.08172914" /><g
       id="g1102"
       style="stroke-width:0.08172914" /><g
       id="g1104"
       style="stroke-width:0.08172914" /><g
       id="g1106"
       style="stroke-width:0.08172914" /><g
       id="g1108"
       style="stroke-width:0.08172914" /><g
       id="g1110"
       style="stroke-width:0.08172914" /><g
       id="g1112"
       style="stroke-width:0.08172914" /><g
       id="g1114"
       style="stroke-width:0.08172914" /><g
       id="g1116"
       style="stroke-width:0.08172914" /><g
       id="g1118"
       style="stroke-width:0.08172914" /><g
       id="g1120"
       style="stroke-width:0.08172914" /><g
       id="g1122"
       style="stroke-width:0.08172914" /><g
       id="g1124"
       style="stroke-width:0.08172914" /><g
       id="g1126"
       style="stroke-width:0.08172914" /><g
       id="g1128"
       style="stroke-width:0.08172914" /><g
       id="g1130"
       style="stroke-width:0.08172914" /></g></svg>