<?xml version="1.0" encoding="UTF-8" standalone="no"?>
<!-- Generator: Adobe Illustrator 16.0.0, SVG Export Plug-In . SVG Version: 6.00 Build 0)  -->

<svg
   xmlns:dc="http://purl.org/dc/elements/1.1/"
   xmlns:cc="http://creativecommons.org/ns#"
   xmlns:rdf="http://www.w3.org/1999/02/22-rdf-syntax-ns#"
   xmlns:svg="http://www.w3.org/2000/svg"
   xmlns="http://www.w3.org/2000/svg"
   xmlns:sodipodi="http://sodipodi.sourceforge.net/DTD/sodipodi-0.dtd"
   xmlns:inkscape="http://www.inkscape.org/namespaces/inkscape"
   version="1.1"
   id="Capa_1"
   x="0px"
   y="0px"
   width="256.61px"
   height="256.61px"
   viewBox="0 0 256.61 256.61"
   style="enable-background:new 0 0 256.61 256.61;"
   xml:space="preserve"
   sodipodi:docname="opgrouping.svg"
   inkscape:version="0.92.4 (5da689c313, 2019-01-14)"><metadata
   id="metadata871"><rdf:RDF><cc:Work
       rdf:about=""><dc:format>image/svg+xml</dc:format><dc:type
         rdf:resource="http://purl.org/dc/dcmitype/StillImage" /></cc:Work></rdf:RDF></metadata><defs
   id="defs869" /><sodipodi:namedview
   pagecolor="#ffffff"
   bordercolor="#666666"
   borderopacity="1"
   objecttolerance="10"
   gridtolerance="10"
   guidetolerance="10"
   inkscape:pageopacity="0"
   inkscape:pageshadow="2"
   inkscape:window-width="1920"
   inkscape:window-height="1017"
   id="namedview867"
   showgrid="false"
   inkscape:zoom="3.1955109"
   inkscape:cx="62.118391"
   inkscape:cy="128.30499"
   inkscape:window-x="-8"
   inkscape:window-y="-8"
   inkscape:window-maximized="1"
   inkscape:current-layer="Capa_1" />
<g
   id="g834"
   transform="translate(22.844547)">
	<g
   id="_x38_7_36_">
		<g
   id="g831">
			<path
   d="m 60.859,112.533 c -6.853,0 -6.853,10.646 0,10.646 27.294,0 54.583,0 81.875,0 6.865,0 6.865,-10.646 0,-10.646 -27.292,0 -54.581,0 -81.875,0 z"
   id="path815"
   inkscape:connector-curvature="0" />
			<path
   d="m 142.734,137.704 c -27.292,0 -54.581,0 -81.875,0 -6.853,0 -6.853,10.634 0,10.634 27.294,0 54.583,0 81.875,0 6.866,0 6.866,-10.634 0,-10.634 z"
   id="path817"
   inkscape:connector-curvature="0" />
			<path
   d="m 142.734,161.018 c -27.292,0 -54.581,0 -81.875,0 -6.853,0 -6.853,10.633 0,10.633 27.294,0 54.583,0 81.875,0 6.866,-0.001 6.866,-10.633 0,-10.633 z"
   id="path819"
   inkscape:connector-curvature="0" />
			<path
   d="m 142.734,186.184 c -27.292,0 -54.581,0 -81.875,0 -6.853,0 -6.853,10.629 0,10.629 27.294,0 54.583,0 81.875,0 6.866,-10e-4 6.866,-10.629 0,-10.629 z"
   id="path821"
   inkscape:connector-curvature="0" />
			<path
   d="m 141.17,209.934 c -27.302,0 -54.601,0 -81.89,0 -6.848,0 -6.848,10.633 0,10.633 27.289,0 54.588,0 81.89,0 6.845,-0.001 6.845,-10.633 0,-10.633 z"
   id="path823"
   inkscape:connector-curvature="0" />
			<path
   d="M 25.362,58.087 V 256.61 H 178.239 V 85.63 L 149.833,58.087 Z M 165.026,243.393 H 38.585 V 71.305 h 104.443 v 20.97 h 21.988 v 151.118 z"
   id="path825"
   inkscape:connector-curvature="0" />
			<polygon
   points="204.086,226.188 204.086,55.205 175.68,27.667 51.204,27.667 51.204,50.645 64.427,50.645 64.427,40.88 168.875,40.88 168.875,61.85 190.868,61.85 190.868,212.971 185.059,212.971 185.059,226.188 "
   id="polygon827" />
			<polygon
   points="212.221,198.523 231.248,198.523 231.248,27.543 202.837,0 78.363,0 78.363,22.983 91.581,22.983 91.581,13.218 196.032,13.218 196.032,34.188 218.025,34.188 218.025,185.306 212.221,185.306 "
   id="polygon829" />
		</g>
	</g>
</g>
<g
   id="g836"
   transform="translate(22.844547)">
</g>
<g
   id="g838"
   transform="translate(22.844547)">
</g>
<g
   id="g840"
   transform="translate(22.844547)">
</g>
<g
   id="g842"
   transform="translate(22.844547)">
</g>
<g
   id="g844"
   transform="translate(22.844547)">
</g>
<g
   id="g846"
   transform="translate(22.844547)">
</g>
<g
   id="g848"
   transform="translate(22.844547)">
</g>
<g
   id="g850"
   transform="translate(22.844547)">
</g>
<g
   id="g852"
   transform="translate(22.844547)">
</g>
<g
   id="g854"
   transform="translate(22.844547)">
</g>
<g
   id="g856"
   transform="translate(22.844547)">
</g>
<g
   id="g858"
   transform="translate(22.844547)">
</g>
<g
   id="g860"
   transform="translate(22.844547)">
</g>
<g
   id="g862"
   transform="translate(22.844547)">
</g>
<g
   id="g864"
   transform="translate(22.844547)">
</g>
<path
   d="M 45.004439,7.4367814 H 36.191985 A 17.624899,26.894374 0 0 0 18.567089,34.331156 V 101.56708 A 17.624899,26.894374 0 0 1 0.94218759,128.46147 17.624899,26.894374 0 0 1 18.567089,155.35585 v 67.23592 c 0,14.79191 7.931206,26.89438 17.624896,26.89438 h 8.812454"
   id="path873"
   style="fill:none;stroke:#000000;stroke-width:14;stroke-miterlimit:4;stroke-dasharray:none;stroke-opacity:1"
   inkscape:connector-curvature="0" /></svg>