<?xml version="1.0" encoding="UTF-8" standalone="no"?>
<!-- Generator: Adobe Illustrator 16.0.0, SVG Export Plug-In . SVG Version: 6.00 Build 0)  -->

<svg
   xmlns:dc="http://purl.org/dc/elements/1.1/"
   xmlns:cc="http://creativecommons.org/ns#"
   xmlns:rdf="http://www.w3.org/1999/02/22-rdf-syntax-ns#"
   xmlns:svg="http://www.w3.org/2000/svg"
   xmlns="http://www.w3.org/2000/svg"
   xmlns:sodipodi="http://sodipodi.sourceforge.net/DTD/sodipodi-0.dtd"
   xmlns:inkscape="http://www.inkscape.org/namespaces/inkscape"
   version="1.1"
   id="Capa_1"
   x="0px"
   y="0px"
   width="344.52814"
   height="446.70627"
   viewBox="0 0 344.52814 446.70627"
   xml:space="preserve"
   sodipodi:docname="oplist2.svg"
   inkscape:version="0.92.2 (5c3e80d, 2017-08-06)"><metadata
     id="metadata11471"><rdf:RDF><cc:Work
         rdf:about=""><dc:format>image/svg+xml</dc:format><dc:type
           rdf:resource="http://purl.org/dc/dcmitype/StillImage" /><dc:title></dc:title></cc:Work></rdf:RDF></metadata><defs
     id="defs11469" /><sodipodi:namedview
     pagecolor="#ffffff"
     bordercolor="#666666"
     borderopacity="1"
     objecttolerance="10"
     gridtolerance="10"
     guidetolerance="10"
     inkscape:pageopacity="0"
     inkscape:pageshadow="2"
     inkscape:window-width="1920"
     inkscape:window-height="1017"
     id="namedview11467"
     showgrid="false"
     inkscape:zoom="1.5088501"
     inkscape:cx="75.056524"
     inkscape:cy="195.36203"
     inkscape:window-x="-8"
     inkscape:window-y="-8"
     inkscape:window-maximized="1"
     inkscape:current-layer="Capa_1"
     width="256px"
     fit-margin-top="0"
     fit-margin-left="0"
     fit-margin-right="0"
     fit-margin-bottom="0" /><g
     id="g11436"
     transform="translate(-162.85587,-4.6557777)" /><g
     id="g11438"
     transform="translate(-162.85587,-4.6557777)" /><g
     id="g11440"
     transform="translate(-162.85587,-4.6557777)" /><g
     id="g11442"
     transform="translate(-162.85587,-4.6557777)" /><g
     id="g11444"
     transform="translate(-162.85587,-4.6557777)" /><g
     id="g11446"
     transform="translate(-162.85587,-4.6557777)" /><g
     id="g11448"
     transform="translate(-162.85587,-4.6557777)" /><g
     id="g11450"
     transform="translate(-162.85587,-4.6557777)" /><g
     id="g11452"
     transform="translate(-162.85587,-4.6557777)" /><g
     id="g11454"
     transform="translate(-162.85587,-4.6557777)" /><g
     id="g11456"
     transform="translate(-162.85587,-4.6557777)" /><g
     id="g11458"
     transform="translate(-162.85587,-4.6557777)" /><g
     id="g11460"
     transform="translate(-162.85587,-4.6557777)" /><g
     id="g11462"
     transform="translate(-162.85587,-4.6557777)" /><g
     id="g11464"
     transform="translate(-162.85587,-4.6557777)" /><path
     inkscape:connector-curvature="0"
     d="m 181.15133,279.85548 -18.67501,-10.97599 -15.30799,8.97335 19.57546,11.55368 -70.47168,43.17215 a 7.8301848,7.7024395 0 0 0 -2.30989,-0.38511 7.8301848,7.7024395 0 0 0 -1.72263,0.19263 L 21.18064,289.32956 40.75612,277.7759 25.44811,268.87957 6.73395,279.85557 A 15.66037,15.404879 0 0 0 0,291.6788 v 94.43191 a 15.66037,15.404879 0 0 0 6.77312,11.82326 l 80.416,47.13891 a 14.564144,14.326538 0 0 0 13.50705,0 l 80.41601,-47.13891 a 15.66037,15.404879 0 0 0 6.81225,-11.82326 V 291.6788 a 15.66037,15.404879 0 0 0 -6.7731,-11.82323 z M 15.66037,304.2337 86.13204,346.59712 v 79.75876 L 15.66037,385.10931 Z m 86.13204,122.43027 v -79.33511 l 70.47167,-43.09516 v 80.87561 z"
     id="path6611"
     style="fill:#000000;fill-opacity:1;stroke-width:3.88302469" /><path
     inkscape:connector-curvature="0"
     d="m 337.75502,48.782302 -80.416,-47.1389197 a 14.485843,14.249513 0 0 0 -13.50706,0 L 163.37681,48.782302 a 15.66037,15.404879 0 0 0 -6.77311,11.82323 v 28.96119 l 15.66038,9.16589 v -25.57209 l 70.47165,42.363418 v 79.9513 L 203.5848,172.36792 v 17.9467 l 40.208,23.56946 a 14.564144,14.326538 0 0 0 13.50708,0 l 80.41599,-47.13892 a 15.66037,15.404879 0 0 0 6.81226,-11.70771 V 60.605532 a 15.66037,15.404879 0 0 0 -6.77311,-11.82323 z m -87.1891,-33.19752 72.82071,42.67152 -70.47165,43.172178 a 7.1646191,7.0477321 0 0 0 -3.91511,0 L 177.78435,58.256302 Z m 7.83017,179.851968 v -79.18109 l 70.47168,-43.095138 v 80.875608 z"
     id="path6615"
     style="fill:#000000;fill-opacity:1;stroke-width:10;stroke-miterlimit:4;stroke-dasharray:none" /><path
     inkscape:connector-curvature="0"
     d="M 181.15133,121.91696 100.73534,74.778032 a 14.485843,14.249513 0 0 0 -13.50708,0 L 6.77312,121.91696 A 15.66037,15.404879 0 0 0 0,133.74019 v 94.43191 a 15.66037,15.404879 0 0 0 6.77312,11.82326 l 80.416,47.13892 a 14.564144,14.326538 0 0 0 13.50705,0 l 80.45516,-47.13892 a 15.66037,15.404879 0 0 0 6.7731,-11.82326 v -94.43191 a 15.66037,15.404879 0 0 0 -6.7731,-11.82323 z M 93.96222,88.565392 166.78294,131.42946 96.31128,174.60164 a 7.8301848,7.7024395 0 0 0 -2.3099,-0.38512 7.8301848,7.7024395 0 0 0 -1.72265,0.19263 L 21.18064,131.39103 Z M 15.66037,146.3337 86.13204,188.69711 v 79.91281 L 15.66037,227.2093 Z m 86.13204,122.27622 v -79.21961 l 70.47167,-43.05661 v 80.8756 z"
     id="path6617"
     style="fill:#000000;fill-opacity:1;stroke-width:5;stroke-miterlimit:4;stroke-dasharray:none" /><path
     d="m 337.75502,218.23596 -20.86745,-12.24688 -15.42544,8.97336 21.80705,12.78603 -70.47166,43.17218 a 7.8301848,7.7024395 0 0 0 -2.3099,-0.38513 7.8301848,7.7024395 0 0 0 -1.72265,0.19264 l -48.62545,-29.46184 a 30.028758,29.538856 0 0 1 -10.6099,11.55366 l 53.20611,32.15767 v 79.75877 L 203.5848,341.6291 v 17.94669 l 40.208,23.56946 a 14.564144,14.326538 0 0 0 13.50708,0 l 80.41599,-47.13892 a 15.66037,15.404879 0 0 0 6.81226,-11.51517 v -94.43189 a 15.66037,15.404879 0 0 0 -6.77311,-11.82323 z m -79.35893,146.69296 v -79.2196 l 70.47168,-43.09512 v 80.8756 z"
     id="path6621"
     style="display:inline;fill:#000000;fill-opacity:1;stroke-width:5;stroke-miterlimit:4;stroke-dasharray:none"
     inkscape:connector-curvature="0" /></svg>