<?xml version="1.0" encoding="UTF-8" standalone="no"?>
<!-- Generator: Adobe Illustrator 19.1.0, SVG Export Plug-In . SVG Version: 6.00 Build 0)  -->

<svg
   xmlns:dc="http://purl.org/dc/elements/1.1/"
   xmlns:cc="http://creativecommons.org/ns#"
   xmlns:rdf="http://www.w3.org/1999/02/22-rdf-syntax-ns#"
   xmlns:svg="http://www.w3.org/2000/svg"
   xmlns="http://www.w3.org/2000/svg"
   xmlns:sodipodi="http://sodipodi.sourceforge.net/DTD/sodipodi-0.dtd"
   xmlns:inkscape="http://www.inkscape.org/namespaces/inkscape"
   version="1.1"
   id="Capa_1"
   x="0px"
   y="0px"
   viewBox="0 0 483.2 483.2"
   style="enable-background:new 0 0 483.2 483.2;"
   xml:space="preserve"
   sodipodi:docname="paymbankdisabled01.svg"
   inkscape:version="0.92.2 (5c3e80d, 2017-08-06)"><metadata
     id="metadata915"><rdf:RDF><cc:Work
         rdf:about=""><dc:format>image/svg+xml</dc:format><dc:type
           rdf:resource="http://purl.org/dc/dcmitype/StillImage" /></cc:Work></rdf:RDF></metadata><defs
     id="defs913" /><sodipodi:namedview
     pagecolor="#ffffff"
     bordercolor="#666666"
     borderopacity="1"
     objecttolerance="10"
     gridtolerance="10"
     guidetolerance="10"
     inkscape:pageopacity="0"
     inkscape:pageshadow="2"
     inkscape:window-width="1680"
     inkscape:window-height="987"
     id="namedview911"
     showgrid="false"
     inkscape:zoom="1.6349337"
     inkscape:cx="172.43418"
     inkscape:cy="237.67431"
     inkscape:window-x="-8"
     inkscape:window-y="-8"
     inkscape:window-maximized="1"
     inkscape:current-layer="Capa_1" /><g
     id="g878"><g
       id="g876"><g
         id="g868"><path
           d="M143.15,172.5h16.7V34c0-7.5,6.1-13.6,13.6-13.6h78.6v152.1h16.6h15h20.9V20.4h5.1c7.5,0,13.6,6.1,13.6,13.6v138.5h16.7     c3.8,0,6.8-3.1,6.8-6.8v-128c0-20.7-16.9-37.7-37.7-37.7h-135c-20.7,0-37.7,16.9-37.7,37.7v127.9     C136.35,169.4,139.45,172.5,143.15,172.5z"
           id="path866" /></g><g
         id="g874"><g
           id="g872"><path
             d="M367.05,130v7.5V174c0,10.1-8.2,18.3-18.3,18.3h-214.2c-10.1,0-18.3-8.2-18.3-18.3v-36.4v-7.5      c-19.5,3.3-34.4,20.2-34.4,40.7V442c0,22.8,18.5,41.2,41.2,41.2h237.1c22.8,0,41.2-18.5,41.2-41.2V170.7      C401.45,150.2,386.55,133.3,367.05,130z M169.65,442.3c-10.4,0-18.8-8.4-18.8-18.8s8.4-18.8,18.8-18.8      c10.4,0,18.8,8.4,18.8,18.8C188.35,433.9,179.95,442.3,169.65,442.3z M169.65,385.5c-10.4,0-18.8-8.4-18.8-18.8      s8.4-18.8,18.8-18.8c10.4,0,18.8,8.4,18.8,18.8C188.35,377.1,179.95,385.5,169.65,385.5z M169.65,328.8      c-10.4,0-18.8-8.4-18.8-18.8s8.4-18.8,18.8-18.8c10.4,0,18.8,8.4,18.8,18.8C188.35,320.4,179.95,328.8,169.65,328.8z       M241.65,442.3c-10.4,0-18.8-8.4-18.8-18.8s8.4-18.8,18.8-18.8c10.4,0,18.8,8.4,18.8,18.8      C260.45,433.9,252.05,442.3,241.65,442.3z M241.65,385.5c-10.4,0-18.8-8.4-18.8-18.8s8.4-18.8,18.8-18.8      c10.4,0,18.8,8.4,18.8,18.8S252.05,385.5,241.65,385.5z M241.65,328.8c-10.4,0-18.8-8.4-18.8-18.8s8.4-18.8,18.8-18.8      c10.4,0,18.8,8.4,18.8,18.8C260.45,320.4,252.05,328.8,241.65,328.8z M313.65,442.3c-10.4,0-18.8-8.4-18.8-18.8      s8.4-18.8,18.8-18.8s18.8,8.4,18.8,18.8C332.45,433.9,324.05,442.3,313.65,442.3z M313.65,385.5c-10.4,0-18.8-8.4-18.8-18.8      s8.4-18.8,18.8-18.8s18.8,8.4,18.8,18.8S324.05,385.5,313.65,385.5z M313.65,328.8c-10.4,0-18.8-8.4-18.8-18.8      s8.4-18.8,18.8-18.8s18.8,8.4,18.8,18.8C332.45,320.4,324.05,328.8,313.65,328.8z M334.55,262.1c0,5.8-4.7,10.4-10.4,10.4      h-164.9c-5.8,0-10.4-4.7-10.4-10.4v-28.3c0-5.8,4.7-10.4,10.4-10.4h164.9c5.8,0,10.4,4.7,10.4,10.4V262.1z"
             id="path870" /></g></g></g></g><g
     id="g880" /><g
     id="g882" /><g
     id="g884" /><g
     id="g886" /><g
     id="g888" /><g
     id="g890" /><g
     id="g892" /><g
     id="g894" /><g
     id="g896" /><g
     id="g898" /><g
     id="g900" /><g
     id="g902" /><g
     id="g904" /><g
     id="g906" /><g
     id="g908" /><path
     style="fill:#e62800;fill-rule:evenodd;stroke:#dc0000;stroke-width:41.44251969;stroke-linecap:round;stroke-linejoin:miter;stroke-opacity:1;fill-opacity:1;stroke-miterlimit:4;stroke-dasharray:none"
     d="M 40.368609,418.36558 445.27799,118.65924"
     id="path917"
     inkscape:connector-curvature="0" /><path
     style="fill:#e62800;fill-opacity:1;fill-rule:evenodd;stroke:#dc0000;stroke-width:41.44252014;stroke-linecap:round;stroke-linejoin:miter;stroke-miterlimit:4;stroke-dasharray:none;stroke-opacity:1"
     d="M 407.96761,448.33622 108.26126,43.426834"
     id="path917-6"
     inkscape:connector-curvature="0" /></svg>