<?xml version="1.0" encoding="iso-8859-1"?>
<!-- Generator: Adobe Illustrator 19.1.0, SVG Export Plug-In . SVG Version: 6.00 Build 0)  -->
<svg version="1.1" id="Capa_1" xmlns="http://www.w3.org/2000/svg" xmlns:xlink="http://www.w3.org/1999/xlink" x="0px" y="0px"
	 viewBox="0 0 481.8 481.8" style="enable-background:new 0 0 481.8 481.8;" xml:space="preserve">
<g>
	<g>
		<g>
			<path d="M384.759,213.6c-4.7-3.7-46.2-49.4-69.7-70.7c-0.1-0.1-0.1-0.1-0.1-0.2V44.3c0-24.4-19.9-44.3-44.3-44.3h-145.1
				c-22.7,0-41.2,18.6-41.2,41.2V272c0,24.4,19.9,44.3,44.3,44.3h42.2h10.7c1.8,0,3.3-1.6,3.1-3.4l-2.3-19.6
				c-0.2-1.6-1.5-2.7-3.1-2.7h-3.9h-2.4c-1.7,0-3.1-1.4-3.1-3.1V25.3c0-1.7,1.4-3.1,3.1-3.1h98c9.9,0,18,8.1,18,18v214.2v21.1
				c0,6.8-4.7,12.6-11,14.4c-0.1,0-0.1,0-0.2,0c-10.7-5.8-23.3-30.6-25.2-34.5c-0.2-0.3-0.3-0.7-0.3-1c-0.7-6.3-7.8-67.3-40.3-67.3
				c-0.9,0-1.8,0-2.7,0.1c0,0-26,2.2-4.5,76.3c0,0.2,0.1,0.3,0.1,0.5l9.5,82.1c0,0.1,0,0.2,0.1,0.4c0.8,3.1,11.6,45,39.5,74.7
				c0.5,0.6,0.8,1.3,0.8,2.1v7.1c0,0.2-0.1,0.3-0.3,0.3h-2.5c-6.1,0-11.1,5-11.1,11.1v28.9c0,6.1,5,11.1,11.1,11.1h117.7
				c6.1,0,11.1-5,11.1-11.1V442c0-6.1-5-11.1-11.1-11.1c-0.2,0-0.3-0.1-0.3-0.3c3.9-36.2,17.9-160,25.4-169.7c0.2-0.3,0.4-0.6,0.5-1
				C396.559,255.4,403.059,227.9,384.759,213.6z M130.659,287.7c0,1.6-1.3,2.8-2.8,2.8c-9.8,0-17.8-8-17.8-17.8V40
				c0-9.8,8-17.8,17.8-17.8c1.6,0,2.8,1.3,2.8,2.8V287.7z"/>
		</g>
	</g>
</g>
<g>
</g>
<g>
</g>
<g>
</g>
<g>
</g>
<g>
</g>
<g>
</g>
<g>
</g>
<g>
</g>
<g>
</g>
<g>
</g>
<g>
</g>
<g>
</g>
<g>
</g>
<g>
</g>
<g>
</g>
</svg>
