<?xml version="1.0" encoding="iso-8859-1"?>
<!-- Generator: Adobe Illustrator 19.1.0, SVG Export Plug-In . SVG Version: 6.00 Build 0)  -->
<svg version="1.1" id="Capa_1" xmlns="http://www.w3.org/2000/svg" xmlns:xlink="http://www.w3.org/1999/xlink" x="0px" y="0px"
	 viewBox="0 0 489.9 489.9" style="enable-background:new 0 0 489.9 489.9;" xml:space="preserve">
<g>
	<g>
		<g>
			<path d="M386.458,272.6c-5.5-4.3-62.9-68-78.4-77V30.3c0-16.8-13.6-30.3-30.3-30.3h-156.1c-16.8,0-30.3,13.6-30.3,30.3v289.4
				c0,16.8,13.6,30.3,30.3,30.3h50.1h17.9l-2.8-23.8c-0.9-0.8-1.5-1.3-2.4-2.1h-10h-20c1-4,1.3-8.4,0.5-12.9
				c-2.2-12.5-12.1-22.6-24.6-24.9c-4.6-0.9-9.1-0.6-13.2,0.4V61.4c1.8,0.3,3.7,0.5,5.6,0.5c17,0,30.7-13.8,30.7-30.7
				c0-1.8-0.2-3.6-0.5-5.4h93.2c-0.3,1.8-0.5,3.6-0.5,5.4c0,17,13.7,30.7,30.7,30.7c1.9,0,3.8-0.2,5.6-0.5v219.9l0,0v63.2
				c-10.6-7.8-22.4-32.2-22.4-32.2s-5.8-64.9-38.7-64.9c-0.9,0-1.7,0-2.6,0.1c0,0-24.9,2.1-4.3,73.3l9.2,79.1
				c0,0,10.3,42.9,38.7,72.6v8.8c0,4.7,3.8,8.6,8.6,8.6h92.5c4.4,0,8-3.3,8.5-7.6c3.3-30.8,16.1-145.3,23.6-162.7
				c1.2-2.8,2.2-5.6,2.6-8.6C399.358,301.2,399.958,283.2,386.458,272.6z"/>
		</g>
		<g>
			<circle cx="203.058" cy="80.3" r="18.4"/>
		</g>
		<g>
			<g>
				<path d="M133.258,177.1c0,31.7,22.2,58.2,51.9,64.9c0.9-1.7,1.8-3.2,2.9-4.8c9.8-14.3,23.1-16.9,27.6-17.3
					c1.8-0.2,3.6-0.3,5.4-0.3c6.4,0,15.1,1.2,24.1,6c12.9-12.1,21-29.4,21-48.5c0-36.7-29.8-66.5-66.5-66.5
					S133.258,140.4,133.258,177.1z M159.858,171.2c4,0,4.1,0,4.7-4c0.5-3.1,1.4-6,2.6-8.9c0.7-1.6,1.8-2.2,3.4-1.7
					c2.5,0.7,4.9,1.4,7.4,2.2c2.3,0.7,2.6,1.5,1.6,3.7c-2.2,4.5-3.1,9.1-2.8,14.1c0.1,1.3,0.2,2.6,0.8,3.7c1.9,4.3,6.6,4.9,9.5,1.3
					c1.5-1.8,2.5-3.9,3.4-6.1c1.6-3.8,3.1-7.6,5-11.1c6.3-11.4,20.6-14.5,30.4-6.4c3.5,2.9,5.9,6.7,7.1,11.1
					c0.5,1.9,1.5,2.8,3.5,2.7s3.9,0,5.9,0c1.8,0,2.7,0.9,2.7,2.6c0.1,2.1,0.1,4.2,0,6.3c0,1.9-1.1,2.7-2.9,2.7c-1.4,0-2.9,0-4.3,0
					c-3.2,0-3.3,0.1-3.8,3.2c-0.6,3.9-1.5,7.7-3.2,11.3c-1.4,2.8-2.1,3.1-5,2.3c-2.2-0.6-4.4-1.2-6.5-1.9c-2.5-0.8-2.8-1.5-1.6-3.8
					c2.1-3.9,3.2-8.1,3.8-12.5c0.4-2.8,0.1-5.6-1.1-8.2c-2.1-4.9-7.8-5.7-11.2-1.5c-1.2,1.4-2,3-2.7,4.7c-1.9,4.3-3.3,8.8-5.7,12.8
					c-3.9,6.6-9.3,10.7-17.3,10.2c-9-0.5-14.7-5.7-17.7-13.9c-1.2-3.4-1.2-3.4-4.8-3.5c-1.2,0-2.4,0-3.6,0c-2.7-0.1-3.2-0.5-3.2-3.2
					c0-0.8,0-1.7,0-2.5C154.158,171.3,154.158,171.3,159.858,171.2z"/>
			</g>
		</g>
	</g>
</g>
<g>
</g>
<g>
</g>
<g>
</g>
<g>
</g>
<g>
</g>
<g>
</g>
<g>
</g>
<g>
</g>
<g>
</g>
<g>
</g>
<g>
</g>
<g>
</g>
<g>
</g>
<g>
</g>
<g>
</g>
</svg>
