<?xml version="1.0" encoding="iso-8859-1"?>
<!-- Generator: Adobe Illustrator 16.0.0, SVG Export Plug-In . SVG Version: 6.00 Build 0)  -->
<!DOCTYPE svg PUBLIC "-//W3C//DTD SVG 1.1//EN" "http://www.w3.org/Graphics/SVG/1.1/DTD/svg11.dtd">
<svg version="1.1" id="Capa_1" xmlns="http://www.w3.org/2000/svg" xmlns:xlink="http://www.w3.org/1999/xlink" x="0px" y="0px"
	 width="485.213px" height="485.212px" viewBox="0 0 485.213 485.212" style="enable-background:new 0 0 485.213 485.212;"
	 xml:space="preserve">
<g>
	<path d="M30.328,454.886h454.884v30.326H0.001V0h30.327h30.324v30.327H30.328v60.651h30.324v30.327H30.328v60.651h30.324v30.327
		H30.328v60.648h30.324v30.327H30.328v60.648h30.324v30.331H30.328V454.886z M121.305,394.237c16.746,0,30.324-13.562,30.324-30.331
		c0-9.974-5.138-18.411-12.587-23.956l39.238-98.081c1.263,0.145,2.371,0.737,3.675,0.737c3.465,0,6.677-0.887,9.787-1.953
		l28.43,42.615c-4.768,5.357-7.89,12.266-7.89,19.989c0,16.764,13.579,30.327,30.324,30.327c16.745,0,30.326-13.563,30.326-30.327
		c0-10.604-5.777-19.48-14.024-24.903l42.363-127.136c0.686,0.056,1.274,0.411,1.983,0.411c5.601,0,10.548-1.923,15.047-4.56
		l50.171,50.169c-2.637,4.501-4.564,9.443-4.564,15.044c0,16.762,13.562,30.324,30.327,30.324c16.759,0,30.326-13.562,30.326-30.324
		c0-10.604-5.772-19.487-14.034-24.936l42.378-127.11c0.677,0.061,1.273,0.416,1.983,0.416c16.759,0,30.322-13.562,30.322-30.324
		C485.212,13.567,471.648,0,454.89,0c-16.765,0-30.327,13.567-30.327,30.327c0,10.601,5.773,19.485,14.039,24.936l-42.387,127.108
		c-0.677-0.061-1.27-0.416-1.979-0.416c-5.597,0-10.543,1.925-15.047,4.562l-50.162-50.168c2.633-4.504,4.56-9.446,4.56-15.044
		c0-16.764-13.566-30.327-30.331-30.327c-16.76,0-30.322,13.565-30.322,30.327c0,10.602,5.778,19.485,14.039,24.936l-42.396,127.078
		c-0.681-0.028-1.274-0.388-1.969-0.388c-3.465,0-6.679,0.892-9.787,1.988l-28.43-42.675c4.766-5.33,7.893-12.2,7.893-19.961
		c0-16.764-13.579-30.327-30.327-30.327c-16.748,0-30.327,13.565-30.327,30.327c0,10.009,5.141,18.421,12.587,23.928l-39.241,98.116
		c-1.257-0.145-2.368-0.741-3.67-0.741c-16.748,0-30.327,13.562-30.327,30.321C90.979,380.674,104.558,394.237,121.305,394.237z"/>
</g>
<g>
</g>
<g>
</g>
<g>
</g>
<g>
</g>
<g>
</g>
<g>
</g>
<g>
</g>
<g>
</g>
<g>
</g>
<g>
</g>
<g>
</g>
<g>
</g>
<g>
</g>
<g>
</g>
<g>
</g>
</svg>
