<?xml version="1.0" encoding="iso-8859-1"?>
<!-- Generator: Adobe Illustrator 19.0.0, SVG Export Plug-In . SVG Version: 6.00 Build 0)  -->
<svg version="1.1" id="Layer_1" xmlns="http://www.w3.org/2000/svg" xmlns:xlink="http://www.w3.org/1999/xlink" x="0px" y="0px"
	 viewBox="0 0 511.846 511.846" style="enable-background:new 0 0 511.846 511.846;" xml:space="preserve">
<g>
	<g>
		<g>
			<path d="M443.068,312.107c-4.079-2.389-9.301-1.024-11.674,3.046l-97.818,166.835c-7.066,12.228-22.741,16.444-34.594,9.6
				l-19.055-12.348c-3.959-2.569-9.242-1.442-11.802,2.517c-2.569,3.951-1.434,9.242,2.517,11.802l19.43,12.578
				c6.699,3.874,14.029,5.709,21.265,5.709c14.754,0,29.107-7.637,36.983-21.274l97.783-166.793
				C448.486,319.718,447.13,314.487,443.068,312.107z"/>
			<path d="M468.881,0H332.348c-26.402,0-46.071,8.405-65.766,28.1c-3.336,3.337-3.336,8.73,0,12.066
				c3.337,3.337,8.73,3.337,12.066,0c16.623-16.623,31.684-23.1,53.7-23.1h136.533c14.114,0,25.6,11.486,25.6,25.6V179.2
				c0,22.025-6.477,37.077-23.108,53.7L217.95,486.682c-9.677,9.66-26.539,9.668-36.198,0L24.866,329.796
				c-4.838-4.838-7.501-11.264-7.501-18.108c0-6.835,2.662-13.261,7.492-18.091L253.909,64.87c3.524,0.896,7.057,1.792,10.718,2.773
				c34.714,9.301,62.106,18.91,82.526,27.486c-4.019,7.441-6.272,15.778-6.272,24.337c0,28.237,22.963,51.2,51.2,51.2
				c28.237,0,51.2-22.963,51.2-51.2c0-28.237-22.963-51.2-51.2-51.2c-4.719,0-8.533,3.823-8.533,8.533s3.814,8.533,8.533,8.533
				c18.825,0,34.133,15.309,34.133,34.133c0,18.825-15.309,34.133-34.133,34.133s-34.133-15.309-34.133-34.133
				c0-6.144,1.681-12.143,4.779-17.365c14.78,7.074,24.021,13.039,27.674,16.845c-1.562,0.444-3.977,0.939-7.62,1.254
				c-4.693,0.418-8.166,4.557-7.748,9.25c0.393,4.437,4.113,7.791,8.491,7.791c0.247,0,0.503-0.017,0.759-0.034
				c5.248-0.469,21.214-1.877,24.286-13.321c8.405-31.394-114.756-66.091-139.529-72.73
				c-37.897-10.155-74.291-17.101-102.494-19.558c-34.654-3.029-51.533,0.913-54.707,12.774
				c-1.519,5.692-5.572,20.804,63.616,48.085c4.378,1.732,9.344-0.418,11.068-4.804c1.724-4.386-0.427-9.344-4.813-11.068
				c-33.425-13.184-47.275-22.844-51.712-27.392c10.522-3.089,46.507-2.193,104.457,10.982L12.8,281.523
				c-8.064,8.064-12.501,18.773-12.501,30.165c0,11.401,4.437,22.118,12.501,30.174l156.885,156.885
				c8.047,8.055,18.765,12.493,30.157,12.493c11.401,0,22.11-4.437,30.174-12.501l253.431-253.773
				c19.703-19.695,28.1-39.364,28.1-65.766V42.667C511.548,19.14,492.408,0,468.881,0z"/>
			<path d="M279.398,224.367c-3.336-3.337-8.73-3.337-12.066,0l-4.608,4.608c-6.75-4.471-14.805-7.108-23.492-7.108
				c-23.526,0-42.667,19.14-42.667,42.667c0,12.715,5.248,22.767,9.822,30.114c4.267,6.852,7.245,16.614,7.245,21.086
				c0,14.114-11.486,25.6-25.6,25.6s-25.6-11.486-25.6-25.6c0-5.18,1.544-10.172,4.463-14.438c2.662-3.883,1.664-9.199-2.219-11.861
				c-3.891-2.654-9.199-1.664-11.861,2.219c-4.873,7.117-7.45,15.445-7.45,24.081c0,8.687,2.637,16.742,7.108,23.492l-4.608,4.608
				c-3.337,3.336-3.337,8.73,0,12.066c1.664,1.664,3.849,2.5,6.033,2.5c2.185,0,4.369-0.836,6.033-2.5l4.608-4.608
				c6.75,4.471,14.805,7.108,23.492,7.108c23.526,0,42.667-19.14,42.667-42.667c0-8.311-4.13-20.975-9.822-30.114
				c-5.077-8.149-7.245-14.455-7.245-21.086c0-14.114,11.486-25.6,25.6-25.6c6.844,0,13.03,2.731,17.621,7.125
				c0.145,0.154,0.196,0.358,0.341,0.512c0.154,0.145,0.358,0.196,0.512,0.341c4.395,4.591,7.125,10.778,7.125,17.621
				s-2.671,13.286-7.518,18.133c-3.337,3.328-3.337,8.73-0.009,12.066c3.319,3.337,8.73,3.328,12.066,0.009
				c8.073-8.073,12.527-18.799,12.527-30.208c0-8.687-2.637-16.742-7.108-23.492l4.608-4.608
				C282.735,233.097,282.735,227.703,279.398,224.367z"/>
		</g>
	</g>
</g>
<g>
</g>
<g>
</g>
<g>
</g>
<g>
</g>
<g>
</g>
<g>
</g>
<g>
</g>
<g>
</g>
<g>
</g>
<g>
</g>
<g>
</g>
<g>
</g>
<g>
</g>
<g>
</g>
<g>
</g>
</svg>
