<?xml version="1.0" encoding="UTF-8" standalone="no"?>
<!-- Generator: Adobe Illustrator 18.0.0, SVG Export Plug-In . SVG Version: 6.00 Build 0)  -->

<svg
   xmlns:dc="http://purl.org/dc/elements/1.1/"
   xmlns:cc="http://creativecommons.org/ns#"
   xmlns:rdf="http://www.w3.org/1999/02/22-rdf-syntax-ns#"
   xmlns:svg="http://www.w3.org/2000/svg"
   xmlns="http://www.w3.org/2000/svg"
   xmlns:sodipodi="http://sodipodi.sourceforge.net/DTD/sodipodi-0.dtd"
   xmlns:inkscape="http://www.inkscape.org/namespaces/inkscape"
   version="1.1"
   id="Artwork"
   x="0px"
   y="0px"
   viewBox="0 0 512 512"
   enable-background="new 0 0 512 512"
   xml:space="preserve"
   sodipodi:docname="printer_exclgreen01.svg"
   inkscape:version="0.92.4 (5da689c313, 2019-01-14)"><metadata
   id="metadata832"><rdf:RDF><cc:Work
       rdf:about=""><dc:format>image/svg+xml</dc:format><dc:type
         rdf:resource="http://purl.org/dc/dcmitype/StillImage" /></cc:Work></rdf:RDF></metadata><defs
   id="defs830" /><sodipodi:namedview
   pagecolor="#ffffff"
   bordercolor="#666666"
   borderopacity="1"
   objecttolerance="10"
   gridtolerance="10"
   guidetolerance="10"
   inkscape:pageopacity="0"
   inkscape:pageshadow="2"
   inkscape:window-width="1920"
   inkscape:window-height="1017"
   id="namedview828"
   showgrid="false"
   inkscape:zoom="1.6015625"
   inkscape:cx="256"
   inkscape:cy="256"
   inkscape:window-x="-8"
   inkscape:window-y="-8"
   inkscape:window-maximized="1"
   inkscape:current-layer="Artwork" />
<g
   id="g825">
	<path
   d="M493,352.9V174c0-23.8-19.4-43.2-43.2-43.2H403V39.7c0-15.8-12.9-28.7-28.7-28.7H137.5c-15.8,0-28.7,12.9-28.7,28.7v91.2   H62.2C38.4,130.8,19,150.2,19,174v178.9c0,23.8,19.4,43.2,43.2,43.2h46.7v76.2c0,15.8,12.9,28.7,28.7,28.7h236.8   c15.8,0,28.7-12.9,28.7-28.7v-76.2h46.7C473.6,396.1,493,376.8,493,352.9z M133.4,39.7c0-2.3,1.9-4.2,4.2-4.2h236.8   c2.3,0,4.2,1.9,4.2,4.2v91.2H133.4V39.7z M378.6,472.3c0,2.3-1.9,4.2-4.2,4.2H137.6c-2.3,0-4.2-1.9-4.2-4.2V275.7h245.1V472.3z    M390.8,251.2H121.2c-6.8,0-12.3,5.5-12.3,12.3v108.1H62.2c-10.3,0-18.7-8.4-18.7-18.7V174c0-10.3,8.4-18.7,18.7-18.7h387.5   c10.3,0,18.7,8.4,18.7,18.7v178.9c0,10.3-8.4,18.7-18.7,18.7h-46.7V263.5C403.1,256.7,397.6,251.2,390.8,251.2z"
   id="path815" />
	<path
   d="M82.5,194.4c-2.3,2.3-3.6,5.4-3.6,8.7c0,3.2,1.3,6.4,3.6,8.7c2.3,2.3,5.4,3.6,8.7,3.6c3.2,0,6.4-1.3,8.7-3.6   c2.3-2.3,3.6-5.5,3.6-8.7c0-3.2-1.3-6.4-3.6-8.7C95.2,189.8,87,189.8,82.5,194.4z"
   id="path817" />
	<path
   d="M325.5,363.9H186.5c-6.8,0-12.3,5.5-12.3,12.3c0,6.8,5.5,12.3,12.3,12.3h138.9c6.8,0,12.3-5.5,12.3-12.3   C337.7,369.4,332.2,363.9,325.5,363.9z"
   id="path819" />
	<path
   d="M325.5,419.4H186.5c-6.8,0-12.3,5.5-12.3,12.3s5.5,12.3,12.3,12.3h138.9c6.8,0,12.3-5.5,12.3-12.3S332.2,419.4,325.5,419.4   z"
   id="path821" />
	<path
   d="M325.5,308.3H186.5c-6.8,0-12.3,5.5-12.3,12.3s5.5,12.3,12.3,12.3h138.9c6.8,0,12.3-5.5,12.3-12.3S332.2,308.3,325.5,308.3   z"
   id="path823" />
</g>
<g
   id="g1209"
   transform="matrix(1.0936117,0,0,1.0040113,117.6322,9.0606166)"
   style="fill:#00e900;fill-opacity:1;stroke-width:0.03507296"><g
     id="g1152"
     style="fill:#00e900;fill-opacity:1;stroke-width:0.03507296"><path
       id="path1148"
       d="m 244.709,389.496 c 18.736,0 34.332,-14.355 35.91,-33.026 L 304.978,65.543 C 306.396,48.67 300.675,31.99 289.222,19.532 277.783,7.09 261.629,0 244.709,0 227.789,0 211.635,7.09 200.195,19.532 188.74,31.99 183.022,48.67 184.44,65.543 l 24.359,290.927 c 1.578,18.671 17.174,33.026 35.91,33.026 z"
       inkscape:connector-curvature="0"
       style="fill:#00e900;fill-opacity:1;stroke-width:0.03507296" /><path
       id="path1150"
       d="m 244.709,410.908 c -21.684,0 -39.256,17.571 -39.256,39.256 0,21.683 17.572,39.254 39.256,39.254 21.684,0 39.256,-17.571 39.256,-39.254 0,-21.685 -17.572,-39.256 -39.256,-39.256 z"
       inkscape:connector-curvature="0"
       style="fill:#00e900;fill-opacity:1;stroke-width:0.03507296" /></g><g
     id="g1154"
     style="fill:#00e900;fill-opacity:1;stroke-width:0.03507296" /><g
     id="g1156"
     style="fill:#00e900;fill-opacity:1;stroke-width:0.03507296" /><g
     id="g1158"
     style="fill:#00e900;fill-opacity:1;stroke-width:0.03507296" /><g
     id="g1160"
     style="fill:#00e900;fill-opacity:1;stroke-width:0.03507296" /><g
     id="g1162"
     style="fill:#00e900;fill-opacity:1;stroke-width:0.03507296" /><g
     id="g1164"
     style="fill:#00e900;fill-opacity:1;stroke-width:0.03507296" /><g
     id="g1166"
     style="fill:#00e900;fill-opacity:1;stroke-width:0.03507296" /><g
     id="g1168"
     style="fill:#00e900;fill-opacity:1;stroke-width:0.03507296" /><g
     id="g1170"
     style="fill:#00e900;fill-opacity:1;stroke-width:0.03507296" /><g
     id="g1172"
     style="fill:#00e900;fill-opacity:1;stroke-width:0.03507296" /><g
     id="g1174"
     style="fill:#00e900;fill-opacity:1;stroke-width:0.03507296" /><g
     id="g1176"
     style="fill:#00e900;fill-opacity:1;stroke-width:0.03507296" /><g
     id="g1178"
     style="fill:#00e900;fill-opacity:1;stroke-width:0.03507296" /><g
     id="g1180"
     style="fill:#00e900;fill-opacity:1;stroke-width:0.03507296" /><g
     id="g1182"
     style="fill:#00e900;fill-opacity:1;stroke-width:0.03507296" /></g></svg>