<?xml version="1.0" encoding="iso-8859-1"?>
<!-- Generator: Adobe Illustrator 16.0.0, SVG Export Plug-In . SVG Version: 6.00 Build 0)  -->
<!DOCTYPE svg PUBLIC "-//W3C//DTD SVG 1.1//EN" "http://www.w3.org/Graphics/SVG/1.1/DTD/svg11.dtd">
<svg version="1.1" id="Capa_1" xmlns="http://www.w3.org/2000/svg" xmlns:xlink="http://www.w3.org/1999/xlink" x="0px" y="0px"
	 width="265.395px" height="265.395px" viewBox="0 0 265.395 265.395" style="enable-background:new 0 0 265.395 265.395;"
	 xml:space="preserve">
<g>
	<g>
		<path d="M132.7,265.393c73.166,0,132.695-59.529,132.695-132.7c0-73.173-59.529-132.69-132.695-132.69
			C59.534,0.002,0,59.532,0,132.698C0,205.863,59.534,265.393,132.7,265.393z M132.7,15.602
			c64.569,0,117.095,52.529,117.095,117.096c0,64.564-52.526,117.101-117.095,117.101c-64.566,0-117.101-52.527-117.101-117.101
			C15.6,68.131,68.134,15.602,132.7,15.602z"/>
		<path d="M108.255,145.456h24.554c7,0,11.771,1.279,14.315,3.834c2.549,2.56,3.879,7.673,3.976,15.346l0.162,11.177
			c0.051,3.539,0.406,6.997,1.062,10.369c0.33,1.63,0.868,3.777,1.63,6.443h27.757v-3.021c-2.438-1.472-3.981-3.752-4.642-6.854
			c-0.447-1.96-0.665-5.688-0.665-11.182v-8.085c0-8.429-1.152-14.705-3.468-18.809c-2.316-4.107-6.246-7.281-11.792-9.511
			c6.643-2.288,11.396-6.188,14.279-11.715c2.89-5.527,4.327-11.144,4.327-16.854c0-4.733-0.742-8.95-2.225-12.652
			c-1.482-3.702-3.509-7.071-6.053-10.118c-3.077-3.702-6.835-6.5-11.263-8.409c-4.429-1.902-10.756-2.938-18.981-3.097H83.688
			v120.307h24.567V145.456z M108.255,93.216h27.753c5.17,0,9.049,0.706,11.629,2.12c4.601,2.501,6.896,7.401,6.896,14.691
			c0,6.748-2.376,11.263-7.129,13.55c-2.691,1.305-6.714,1.96-12.094,1.96h-27.055V93.216z"/>
		<path d="M132.7,241.547c60.019,0,108.849-48.835,108.849-108.849c0-60.017-48.83-108.849-108.849-108.849
			c-60.017,0-108.849,48.827-108.849,108.849C23.851,192.722,72.684,241.547,132.7,241.547z M132.7,39.448
			c51.417,0,93.25,41.827,93.25,93.25s-41.827,93.25-93.25,93.25s-93.25-41.832-93.25-93.25
			C39.451,81.283,81.283,39.448,132.7,39.448z"/>
	</g>
</g>
<g>
</g>
<g>
</g>
<g>
</g>
<g>
</g>
<g>
</g>
<g>
</g>
<g>
</g>
<g>
</g>
<g>
</g>
<g>
</g>
<g>
</g>
<g>
</g>
<g>
</g>
<g>
</g>
<g>
</g>
</svg>
