<?xml version="1.0" encoding="iso-8859-1"?>
<!-- Generator: Adobe Illustrator 16.0.0, SVG Export Plug-In . SVG Version: 6.00 Build 0)  -->
<!DOCTYPE svg PUBLIC "-//W3C//DTD SVG 1.1//EN" "http://www.w3.org/Graphics/SVG/1.1/DTD/svg11.dtd">
<svg version="1.1" id="Capa_1" xmlns="http://www.w3.org/2000/svg" xmlns:xlink="http://www.w3.org/1999/xlink" x="0px" y="0px"
	 width="95.312px" height="95.312px" viewBox="0 0 95.312 95.312" style="enable-background:new 0 0 95.312 95.312;"
	 xml:space="preserve">
<g>
	<path d="M5.39,31.904h12.793c1.021,0,1.849,0.829,1.849,1.849v28.423h-0.007v1.333c0,8.453,6.876,15.33,15.33,15.33
		c8.452,0,15.33-6.877,15.33-15.33l0.025-34.397L37.46,42.414c-0.687,0.687-1.902,0.687-2.588,0l-8.266-8.267
		c-0.343-0.343-0.536-0.81-0.536-1.294c0-0.485,0.193-0.951,0.536-1.294L57.626,0.538c0.715-0.717,1.873-0.717,2.588,0l31.022,31.02
		c0.714,0.715,0.714,1.873,0,2.588l-8.265,8.267c-0.342,0.343-0.809,0.536-1.293,0.536c-0.485,0-0.951-0.193-1.295-0.536
		L67.181,29.111l-0.022,34.397c0,17.537-14.267,31.805-31.804,31.805S3.55,81.046,3.55,63.509L3.541,33.753
		C3.541,32.733,4.368,31.904,5.39,31.904z"/>
</g>
<g>
</g>
<g>
</g>
<g>
</g>
<g>
</g>
<g>
</g>
<g>
</g>
<g>
</g>
<g>
</g>
<g>
</g>
<g>
</g>
<g>
</g>
<g>
</g>
<g>
</g>
<g>
</g>
<g>
</g>
</svg>
