<?xml version="1.0" encoding="UTF-8" standalone="no"?>
<!-- Rotary Switch icon by Arthur Shlain from Usefulicons.com -->

<svg
   xmlns:dc="http://purl.org/dc/elements/1.1/"
   xmlns:cc="http://creativecommons.org/ns#"
   xmlns:rdf="http://www.w3.org/1999/02/22-rdf-syntax-ns#"
   xmlns:svg="http://www.w3.org/2000/svg"
   xmlns="http://www.w3.org/2000/svg"
   xmlns:sodipodi="http://sodipodi.sourceforge.net/DTD/sodipodi-0.dtd"
   xmlns:inkscape="http://www.inkscape.org/namespaces/inkscape"
   xml:space="preserve"
   version="1.1"
   x="0px"
   y="0px"
   viewBox="0 0 100 100"
   id="svg835"
   sodipodi:docname="rotary_switch01.svg"
   inkscape:version="0.92.4 (5da689c313, 2019-01-14)"><metadata
     id="metadata841"><rdf:RDF><cc:Work
         rdf:about=""><dc:format>image/svg+xml</dc:format><dc:type
           rdf:resource="http://purl.org/dc/dcmitype/StillImage" /></cc:Work></rdf:RDF></metadata><defs
     id="defs839" /><sodipodi:namedview
     pagecolor="#ffffff"
     bordercolor="#666666"
     borderopacity="1"
     objecttolerance="10"
     gridtolerance="10"
     guidetolerance="10"
     inkscape:pageopacity="0"
     inkscape:pageshadow="2"
     inkscape:window-width="1920"
     inkscape:window-height="1017"
     id="namedview837"
     showgrid="false"
     inkscape:zoom="8.2"
     inkscape:cx="50"
     inkscape:cy="50"
     inkscape:window-x="-8"
     inkscape:window-y="-8"
     inkscape:window-maximized="1"
     inkscape:current-layer="svg835" /><path
     d="M50,15C30.7,15,15,30.7,15,50S30.7,85,50,85S85,69.3,85,50S69.3,15,50,15ZM50,77.5C44.9,77.5,40.1,76.1,35.9,73.6L41.7,65.6L37.7,62.7L31.9,70.7C26.1,65.7,22.5,58.3,22.5,50C22.5,34.8,34.8,22.5,50,22.5S77.5,34.8,77.5,50S65.2,77.5,50,77.5Z"
     stroke="none"
     id="path815" /><path
     d="m 44.085366,3.9024388 h 9.146342 v 9.0243902 h -9.146342 z"
     id="path817"
     inkscape:connector-curvature="0"
     style="stroke:none;stroke-width:1" /><path
     d="M 30.986121,14.98679 23.586575,20.362875 18.282171,13.06199 25.681717,7.685905 Z"
     id="path817-8"
     inkscape:connector-curvature="0"
     style="stroke:none;stroke-width:1" /><path
     d="m 3.807655,40.394024 2.8263752,-8.698688 8.5827048,2.78869 -2.826375,8.698688 z"
     id="path817-6"
     inkscape:connector-curvature="0"
     style="stroke:none;stroke-width:1" /><path
     d="m 6.6340296,71.84125 -2.8263753,-8.698687 8.5827067,-2.78869 2.826375,8.698688 z"
     id="path817-5"
     inkscape:connector-curvature="0"
     style="stroke:none;stroke-width:1" /><path
     d="m 23.242692,90.118973 -7.399546,-5.376085 5.304404,-7.300885 7.399546,5.376085 z"
     id="path817-9"
     inkscape:connector-curvature="0"
     style="stroke:none;stroke-width:1" /><path
     d="m 74.196331,8.0517594 7.399546,5.3760856 -5.304404,7.300885 -7.399546,-5.376085 z"
     id="path817-1"
     inkscape:connector-curvature="0"
     style="stroke:none;stroke-width:1" /><path
     d="m 93.000116,30.353872 2.826375,8.698688 -8.582705,2.78869 -2.826375,-8.698688 z"
     id="path817-69"
     inkscape:connector-curvature="0"
     style="stroke:none;stroke-width:1" /><path
     d="m 96.558199,60.215732 -2.826375,8.698688 -8.582705,-2.78869 2.826375,-8.698688 z"
     id="path817-3"
     inkscape:connector-curvature="0"
     style="stroke:none;stroke-width:1" /><path
     d="m 82.449536,86.084351 -7.399546,5.376085 -5.304404,-7.300885 7.399546,-5.376085 z"
     id="path817-4"
     inkscape:connector-curvature="0"
     style="stroke:none;stroke-width:1" /></svg>