<?xml version="1.0" encoding="UTF-8" standalone="no"?>
<!-- Generator: Adobe Illustrator 16.0.0, SVG Export Plug-In . SVG Version: 6.00 Build 0)  -->

<svg
   xmlns:dc="http://purl.org/dc/elements/1.1/"
   xmlns:cc="http://creativecommons.org/ns#"
   xmlns:rdf="http://www.w3.org/1999/02/22-rdf-syntax-ns#"
   xmlns:svg="http://www.w3.org/2000/svg"
   xmlns="http://www.w3.org/2000/svg"
   xmlns:xlink="http://www.w3.org/1999/xlink"
   xmlns:sodipodi="http://sodipodi.sourceforge.net/DTD/sodipodi-0.dtd"
   xmlns:inkscape="http://www.inkscape.org/namespaces/inkscape"
   version="1.1"
   id="Capa_1"
   x="0px"
   y="0px"
   width="510px"
   height="510px"
   viewBox="0 0 510 510"
   style="enable-background:new 0 0 510 510;"
   xml:space="preserve"
   sodipodi:docname="scarddiscount.svg"
   inkscape:version="0.92.2 (5c3e80d, 2017-08-06)"><metadata
     id="metadata4586"><rdf:RDF><cc:Work
         rdf:about=""><dc:format>image/svg+xml</dc:format><dc:type
           rdf:resource="http://purl.org/dc/dcmitype/StillImage" /><dc:title /></cc:Work></rdf:RDF></metadata><defs
     id="defs4584"><symbol
       id="icon-powerful"><title
         id="title83048">powerful</title><path
         class="path1"
         d="M404.882 64.86c0 9.83-167.066 577.843-167.066 577.843l257.887-56.95-137.994 438.246 428.472-666.291-290.888 49.139 198.51-406.848z"
         id="path83050" /></symbol><symbol
       id="tag"><title
         id="title5779">tag</title><path
         d="M11 2h7v7L8 19l-7-7zm3 6c1.1 0 2-.9 2-2s-.9-2-2-2-2 .9-2 2 .9 2 2 2z"
         id="path5781" /></symbol></defs><sodipodi:namedview
     pagecolor="#ffffff"
     bordercolor="#666666"
     borderopacity="1"
     objecttolerance="10"
     gridtolerance="10"
     guidetolerance="10"
     inkscape:pageopacity="0"
     inkscape:pageshadow="2"
     inkscape:window-width="1920"
     inkscape:window-height="1017"
     id="namedview4582"
     showgrid="false"
     inkscape:zoom="1.6078431"
     inkscape:cx="172.59146"
     inkscape:cy="31.097556"
     inkscape:window-x="-8"
     inkscape:window-y="-8"
     inkscape:window-maximized="1"
     inkscape:current-layer="Capa_1" /><g
     id="g4549"><g
       id="credit-card"><path
         d="M459,51H51C22.95,51,0,73.95,0,102v306c0,28.05,22.95,51,51,51h408c28.05,0,51-22.95,51-51V102    C510,73.95,487.05,51,459,51z M459,408H51V255h408V408z M459,153H51v-51h408V153z"
         id="path4546" /></g></g><g
     id="g4551" /><g
     id="g4553" /><g
     id="g4555" /><g
     id="g4557" /><g
     id="g4559" /><g
     id="g4561" /><g
     id="g4563" /><g
     id="g4565" /><g
     id="g4567" /><g
     id="g4569" /><g
     id="g4571" /><g
     id="g4573" /><g
     id="g4575" /><g
     id="g4577" /><g
     id="g4579" /><use
     id="use109897"
     style="fill:#000000;stroke:none"
     xlink:href="#tag"
     x="0"
     y="0"
     width="100%"
     height="100%"
     transform="matrix(6.1951221,0,0,5.8658538,45.63415,295.09755)" /></svg>