<?xml version="1.0" encoding="UTF-8" standalone="no"?>
<!-- Generator: Adobe Illustrator 16.0.0, SVG Export Plug-In . SVG Version: 6.00 Build 0)  -->

<svg
   xmlns:dc="http://purl.org/dc/elements/1.1/"
   xmlns:cc="http://creativecommons.org/ns#"
   xmlns:rdf="http://www.w3.org/1999/02/22-rdf-syntax-ns#"
   xmlns:svg="http://www.w3.org/2000/svg"
   xmlns="http://www.w3.org/2000/svg"
   xmlns:sodipodi="http://sodipodi.sourceforge.net/DTD/sodipodi-0.dtd"
   xmlns:inkscape="http://www.inkscape.org/namespaces/inkscape"
   version="1.1"
   id="Capa_1"
   x="0px"
   y="0px"
   width="446.843px"
   height="446.843px"
   viewBox="0 0 446.843 446.843"
   style="enable-background:new 0 0 446.843 446.843;"
   xml:space="preserve"
   sodipodi:docname="shoppingcartinto01.svg"
   inkscape:version="0.92.4 (5da689c313, 2019-01-14)"><metadata
   id="metadata854"><rdf:RDF><cc:Work
       rdf:about=""><dc:format>image/svg+xml</dc:format><dc:type
         rdf:resource="http://purl.org/dc/dcmitype/StillImage" /></cc:Work></rdf:RDF></metadata><defs
   id="defs852" /><sodipodi:namedview
   pagecolor="#ffffff"
   bordercolor="#666666"
   borderopacity="1"
   objecttolerance="10"
   gridtolerance="10"
   guidetolerance="10"
   inkscape:pageopacity="0"
   inkscape:pageshadow="2"
   inkscape:window-width="1920"
   inkscape:window-height="1017"
   id="namedview850"
   showgrid="false"
   inkscape:zoom="1.8306207"
   inkscape:cx="223.42149"
   inkscape:cy="223.42149"
   inkscape:window-x="-8"
   inkscape:window-y="-8"
   inkscape:window-maximized="1"
   inkscape:current-layer="layer3" />

<g
   id="g819">
</g>
<g
   id="g821">
</g>
<g
   id="g823">
</g>
<g
   id="g825">
</g>
<g
   id="g827">
</g>
<g
   id="g829">
</g>
<g
   id="g831">
</g>
<g
   id="g833">
</g>
<g
   id="g835">
</g>
<g
   id="g837">
</g>
<g
   id="g839">
</g>
<g
   id="g841">
</g>
<g
   id="g843">
</g>
<g
   id="g845">
</g>
<g
   id="g847">
</g>
<path
   style="opacity:1;fill:#ffffff;fill-opacity:1;fill-rule:evenodd;stroke:#ffffff;stroke-width:1.51181102;stroke-linecap:round;stroke-linejoin:round;stroke-miterlimit:4;stroke-dasharray:none;stroke-opacity:1"
   id="path877"
   sodipodi:type="arc"
   sodipodi:cx="-101.87801"
   sodipodi:cy="168.52208"
   sodipodi:rx="3.5507083"
   sodipodi:ry="5.189497"
   sodipodi:start="0"
   sodipodi:end="0.2066356"
   d="m -98.327305,168.52208 a 3.5507083,5.189497 0 0 1 -0.07554,1.06472 l -3.475169,-1.06472 z" /><ellipse
   style="opacity:1;fill:#ffffff;fill-opacity:1;fill-rule:evenodd;stroke:#ffffff;stroke-width:1.51181102;stroke-linecap:round;stroke-linejoin:round;stroke-miterlimit:4;stroke-dasharray:none;stroke-opacity:1"
   id="path879"
   cx="-59.269516"
   cy="187.91441"
   rx="9.0133362"
   ry="9.8327303" /><g
   inkscape:groupmode="layer"
   id="layer1"
   inkscape:label="layer-base"><g
     id="g817">
	<path
   d="m 444.09,93.103 c -2.698,-3.699 -7.006,-5.888 -11.584,-5.888 H 155.321 c -7.92,0 -14.337,6.417 -14.337,14.337 0,7.92 6.417,14.337 14.337,14.337 H 412.858 L 402.52,148.148 H 186.782 c -7.92,0 -14.337,6.417 -14.337,14.337 0,7.92 6.417,14.337 14.337,14.337 H 393.325 L 381.457,213.86 H 203.509 c -7.92,0 -14.337,6.417 -14.337,14.34 0,7.92 6.417,14.337 14.337,14.337 h 168.759 l -9.955,31.064 H 172.692 L 94.794,49.064 c -1.376,-3.958 -4.406,-7.113 -8.3,-8.646 L 19.586,14.134 c -7.374,-2.887 -15.695,0.735 -18.591,8.1 -2.891,7.369 0.73,15.695 8.1,18.591 l 60.768,23.872 74.381,214.399 c -3.283,1.144 -6.065,3.663 -7.332,7.187 l -21.506,59.739 c -1.318,3.663 -0.775,7.733 1.468,10.916 2.24,3.183 5.883,5.078 9.773,5.078 h 11.044 c -6.844,7.616 -11.044,17.646 -11.044,28.675 0,23.718 19.298,43.012 43.012,43.012 23.714,0 43.012,-19.294 43.012,-43.012 0,-11.029 -4.2,-21.059 -11.044,-28.675 h 93.776 c -6.847,7.616 -11.048,17.646 -11.048,28.675 0,23.718 19.294,43.012 43.013,43.012 23.718,0 43.012,-19.294 43.012,-43.012 0,-11.029 -4.2,-21.059 -11.043,-28.675 h 13.433 c 6.599,0 11.947,-5.349 11.947,-11.948 0,-6.599 -5.349,-11.947 -11.947,-11.947 H 143.647 l 13.319,-36.996 c 1.72,0.724 3.578,1.152 5.523,1.152 h 210.278 c 6.234,0 11.751,-4.027 13.65,-9.959 l 59.739,-186.387 c 1.401,-4.364 0.632,-9.129 -2.066,-12.828 z M 169.659,409.807 c -10.543,0 -19.116,-8.573 -19.116,-19.116 0,-10.543 8.573,-19.117 19.116,-19.117 10.543,0 19.116,8.574 19.116,19.117 0,10.543 -8.573,19.116 -19.116,19.116 z m 157.708,0 c -10.543,0 -19.117,-8.573 -19.117,-19.116 0,-10.543 8.574,-19.117 19.117,-19.117 10.542,0 19.116,8.574 19.116,19.117 0,10.543 -8.574,19.116 -19.116,19.116 z"
   id="path815"
   inkscape:connector-curvature="0" />
</g></g><g
   inkscape:groupmode="layer"
   id="layer3"
   inkscape:label="layer-arrow-bkg"><ellipse
     style="opacity:1;fill:#ffffff;fill-opacity:1;fill-rule:evenodd;stroke:#ffffff;stroke-width:1.51181102;stroke-linecap:round;stroke-linejoin:round;stroke-miterlimit:4;stroke-dasharray:none;stroke-opacity:1"
     id="path885"
     cx="269.58069"
     cy="152.68047"
     rx="120.45095"
     ry="118.2659" /></g><g
   inkscape:groupmode="layer"
   id="layer2"
   inkscape:label="layer-arrow"><g
     style="fill:currentColor;stroke-width:0.07102273"
     id="g900"
     transform="matrix(14.08,0,0,14.08,156.66756,39.76733)"><path
       id="path889"
       d="M 1,8 A 7,7 0 1 0 15,8 7,7 0 0 0 1,8 Z M 16,8 A 8,8 0 1 1 0,8 8,8 0 0 1 16,8 Z M 8.5,4.5 a 0.5,0.5 0 0 0 -1,0 v 5.793 L 5.354,8.146 A 0.5006316,0.5006316 0 1 0 4.646,8.854 l 3,3 a 0.5,0.5 0 0 0 0.708,0 l 3,-3 A 0.5006316,0.5006316 0 0 0 10.646,8.146 L 8.5,10.293 Z"
       inkscape:connector-curvature="0"
       style="fill-rule:evenodd;stroke-width:0.07102273" /></g></g></svg>