<?xml version="1.0" encoding="iso-8859-1"?>
<!-- Generator: Adobe Illustrator 16.0.0, SVG Export Plug-In . SVG Version: 6.00 Build 0)  -->
<!DOCTYPE svg PUBLIC "-//W3C//DTD SVG 1.1//EN" "http://www.w3.org/Graphics/SVG/1.1/DTD/svg11.dtd">
<svg version="1.1" id="Capa_1" xmlns="http://www.w3.org/2000/svg" xmlns:xlink="http://www.w3.org/1999/xlink" x="0px" y="0px"
	 width="446.843px" height="446.843px" viewBox="0 0 446.843 446.843" style="enable-background:new 0 0 446.843 446.843;"
	 xml:space="preserve">
<g>
	<path d="M444.09,93.103c-2.698-3.699-7.006-5.888-11.584-5.888H155.321c-7.92,0-14.337,6.417-14.337,14.337
		s6.417,14.337,14.337,14.337h257.537l-10.338,32.259H186.782c-7.92,0-14.337,6.417-14.337,14.337
		c0,7.92,6.417,14.337,14.337,14.337h206.543l-11.868,37.038H203.509c-7.92,0-14.337,6.417-14.337,14.34
		c0,7.92,6.417,14.337,14.337,14.337h168.759l-9.955,31.064H172.692L94.794,49.064c-1.376-3.958-4.406-7.113-8.3-8.646
		L19.586,14.134c-7.374-2.887-15.695,0.735-18.591,8.1c-2.891,7.369,0.73,15.695,8.1,18.591l60.768,23.872l74.381,214.399
		c-3.283,1.144-6.065,3.663-7.332,7.187l-21.506,59.739c-1.318,3.663-0.775,7.733,1.468,10.916c2.24,3.183,5.883,5.078,9.773,5.078
		h11.044c-6.844,7.616-11.044,17.646-11.044,28.675c0,23.718,19.298,43.012,43.012,43.012s43.012-19.294,43.012-43.012
		c0-11.029-4.2-21.059-11.044-28.675h93.776c-6.847,7.616-11.048,17.646-11.048,28.675c0,23.718,19.294,43.012,43.013,43.012
		c23.718,0,43.012-19.294,43.012-43.012c0-11.029-4.2-21.059-11.043-28.675h13.433c6.599,0,11.947-5.349,11.947-11.948
		c0-6.599-5.349-11.947-11.947-11.947H143.647l13.319-36.996c1.72,0.724,3.578,1.152,5.523,1.152h210.278
		c6.234,0,11.751-4.027,13.65-9.959l59.739-186.387C447.557,101.567,446.788,96.802,444.09,93.103z M169.659,409.807
		c-10.543,0-19.116-8.573-19.116-19.116s8.573-19.117,19.116-19.117s19.116,8.574,19.116,19.117S180.202,409.807,169.659,409.807z
		 M327.367,409.807c-10.543,0-19.117-8.573-19.117-19.116s8.574-19.117,19.117-19.117c10.542,0,19.116,8.574,19.116,19.117
		S337.909,409.807,327.367,409.807z"/>
</g>
<g>
</g>
<g>
</g>
<g>
</g>
<g>
</g>
<g>
</g>
<g>
</g>
<g>
</g>
<g>
</g>
<g>
</g>
<g>
</g>
<g>
</g>
<g>
</g>
<g>
</g>
<g>
</g>
<g>
</g>
</svg>
