<?xml version="1.0" encoding="UTF-8" standalone="no"?>
<!-- Generator: Adobe Illustrator 18.1.0, SVG Export Plug-In . SVG Version: 6.00 Build 0)  -->

<svg
   xmlns:dc="http://purl.org/dc/elements/1.1/"
   xmlns:cc="http://creativecommons.org/ns#"
   xmlns:rdf="http://www.w3.org/1999/02/22-rdf-syntax-ns#"
   xmlns:svg="http://www.w3.org/2000/svg"
   xmlns="http://www.w3.org/2000/svg"
   xmlns:sodipodi="http://sodipodi.sourceforge.net/DTD/sodipodi-0.dtd"
   xmlns:inkscape="http://www.inkscape.org/namespaces/inkscape"
   version="1.1"
   id="Document"
   x="0px"
   y="0px"
   viewBox="0 0 20 20"
   enable-background="new 0 0 20 20"
   xml:space="preserve"
   sodipodi:docname="styloq_document_finished.svg"
   inkscape:version="0.92.4 (5da689c313, 2019-01-14)"><metadata
   id="metadata950"><rdf:RDF><cc:Work
       rdf:about=""><dc:format>image/svg+xml</dc:format><dc:type
         rdf:resource="http://purl.org/dc/dcmitype/StillImage" /></cc:Work></rdf:RDF></metadata><defs
   id="defs948" /><sodipodi:namedview
   pagecolor="#ffffff"
   bordercolor="#666666"
   borderopacity="1"
   objecttolerance="10"
   gridtolerance="10"
   guidetolerance="10"
   inkscape:pageopacity="0"
   inkscape:pageshadow="2"
   inkscape:window-width="1920"
   inkscape:window-height="1017"
   id="namedview946"
   showgrid="false"
   inkscape:zoom="40.9"
   inkscape:cx="10"
   inkscape:cy="10"
   inkscape:window-x="-8"
   inkscape:window-y="-8"
   inkscape:window-maximized="1"
   inkscape:current-layer="Document" />
<path
   fill-rule="evenodd"
   clip-rule="evenodd"
   d="M16,1H4C3.447,1,3,1.447,3,2v16c0,0.552,0.447,1,1,1h12c0.553,0,1-0.448,1-1V2  C17,1.448,16.553,1,16,1z M15,17H5V3h10V17z"
   id="path943" />
<g
   id="g1061"
   transform="matrix(0.17915904,0,0,0.17915904,5.8926841,5.3303371)"
   style="stroke-width:5.58163261"><g
     id="g1003"
     style="stroke-width:5.58163261">
	<g
   id="g1001"
   style="stroke-width:5.58163261">
		<g
   id="g999"
   style="stroke-width:5.58163261">
			<path
   id="path997"
   d="M 37.727,0.062 H 8.397 C 3.759,0.062 0,3.822 0,8.46 v 29.204 c 0,4.639 3.759,8.398 8.397,8.398 h 29.33 c 4.637,0 8.397,-3.76 8.397,-8.398 V 8.46 C 46.125,3.822 42.365,0.062 37.727,0.062 Z m 0.28,19.078 -15.865,15.865 c -0.673,0.674 -1.586,1.052 -2.538,1.052 -0.952,0 -1.865,-0.379 -2.538,-1.052 L 9.203,27.142 C 7.802,25.74 7.802,23.468 9.204,22.065 c 0.673,-0.673 1.585,-1.051 2.537,-1.051 0.952,0 1.864,0.378 2.537,1.051 l 4.686,4.687 c 0.17,0.17 0.401,0.266 0.641,0.266 0.24,0 0.471,-0.096 0.641,-0.266 L 32.932,14.065 c 0.674,-0.673 1.586,-1.052 2.539,-1.052 0.951,10e-4 1.864,0.379 2.537,1.052 1.401,1.402 1.401,3.674 -0.001,5.075 z"
   inkscape:connector-curvature="0"
   style="stroke-width:5.58163261" />
		</g>
	</g>
</g><g
     id="g1005"
     style="stroke-width:5.58163261">
</g><g
     id="g1007"
     style="stroke-width:5.58163261">
</g><g
     id="g1009"
     style="stroke-width:5.58163261">
</g><g
     id="g1011"
     style="stroke-width:5.58163261">
</g><g
     id="g1013"
     style="stroke-width:5.58163261">
</g><g
     id="g1015"
     style="stroke-width:5.58163261">
</g><g
     id="g1017"
     style="stroke-width:5.58163261">
</g><g
     id="g1019"
     style="stroke-width:5.58163261">
</g><g
     id="g1021"
     style="stroke-width:5.58163261">
</g><g
     id="g1023"
     style="stroke-width:5.58163261">
</g><g
     id="g1025"
     style="stroke-width:5.58163261">
</g><g
     id="g1027"
     style="stroke-width:5.58163261">
</g><g
     id="g1029"
     style="stroke-width:5.58163261">
</g><g
     id="g1031"
     style="stroke-width:5.58163261">
</g><g
     id="g1033"
     style="stroke-width:5.58163261">
</g></g></svg>