<?xml version="1.0" encoding="UTF-8" standalone="no"?>
<!-- Generator: Adobe Illustrator 18.1.0, SVG Export Plug-In . SVG Version: 6.00 Build 0)  -->

<svg
   xmlns:dc="http://purl.org/dc/elements/1.1/"
   xmlns:cc="http://creativecommons.org/ns#"
   xmlns:rdf="http://www.w3.org/1999/02/22-rdf-syntax-ns#"
   xmlns:svg="http://www.w3.org/2000/svg"
   xmlns="http://www.w3.org/2000/svg"
   xmlns:sodipodi="http://sodipodi.sourceforge.net/DTD/sodipodi-0.dtd"
   xmlns:inkscape="http://www.inkscape.org/namespaces/inkscape"
   version="1.1"
   id="Document"
   x="0px"
   y="0px"
   viewBox="0 0 20 20"
   enable-background="new 0 0 20 20"
   xml:space="preserve"
   sodipodi:docname="styloqdocstatus_approved.svg"
   inkscape:version="0.92.4 (5da689c313, 2019-01-14)"><metadata
   id="metadata856"><rdf:RDF><cc:Work
       rdf:about=""><dc:format>image/svg+xml</dc:format><dc:type
         rdf:resource="http://purl.org/dc/dcmitype/StillImage" /></cc:Work></rdf:RDF></metadata><defs
   id="defs854" /><sodipodi:namedview
   pagecolor="#ffffff"
   bordercolor="#666666"
   borderopacity="1"
   objecttolerance="10"
   gridtolerance="10"
   guidetolerance="10"
   inkscape:pageopacity="0"
   inkscape:pageshadow="2"
   inkscape:window-width="1920"
   inkscape:window-height="1017"
   id="namedview852"
   showgrid="false"
   inkscape:zoom="28.920667"
   inkscape:cx="10"
   inkscape:cy="9.0220049"
   inkscape:window-x="-8"
   inkscape:window-y="-8"
   inkscape:window-maximized="1"
   inkscape:current-layer="Document" />
<path
   fill-rule="evenodd"
   clip-rule="evenodd"
   d="M16,1H4C3.447,1,3,1.447,3,2v16c0,0.552,0.447,1,1,1h12c0.553,0,1-0.448,1-1V2  C17,1.448,16.553,1,16,1z M15,17H5V3h10V17z"
   id="path849" />
<g
   style="overflow:hidden;fill:currentColor;stroke-width:96.45061493"
   id="g884"
   transform="matrix(0.010368,0,0,0.010368,5.7024463,6.9188948)"><path
     id="path870"
     fill=""
     d="M 812.569,895.806 H 216.097 c -17.673,0 -32,-14.327 -32,-32 0,-17.673 14.327,-32 32,-32 h 596.472 c 17.673,0 32,14.327 32,32 0,17.673 -14.327,32 -32,32 z m -11.645,-104.8 H 223.757 c -24.345,0 -44.151,-19.807 -44.151,-44.151 V 611.677 c 0,-24.345 19.806,-44.151 44.151,-44.151 h 190.436 c 17.673,0 32,14.327 32,32 0,17.673 -14.327,32 -32,32 H 243.605 v 95.48 h 537.47 v -95.48 H 616.043 c -17.673,0 -32,-14.327 -32,-32 0,-17.673 14.327,-32 32,-32 h 184.881 c 24.345,0 44.151,19.807 44.151,44.151 v 135.178 c 0,24.344 -19.806,44.151 -44.151,44.151 z m 0,-159.481 h 0.01 z M 580.917,490.143 c -12.784,0.001 -24.857,-7.713 -29.803,-20.336 -6.447,-16.456 1.667,-35.021 18.122,-41.468 46.569,-18.244 76.66,-62.358 76.66,-112.386 0,-66.524 -54.121,-120.646 -120.646,-120.646 -66.525,0 -120.646,54.122 -120.646,120.646 0,47.903 28.352,91.295 72.23,110.547 16.184,7.101 23.547,25.977 16.447,42.161 -7.102,16.184 -25.979,23.547 -42.161,16.447 -67.136,-29.456 -110.517,-95.853 -110.517,-169.154 0,-101.814 82.832,-184.646 184.646,-184.646 101.813,0 184.646,82.832 184.646,184.646 0,37.862 -11.385,74.26 -32.923,105.257 -21.021,30.254 -50.203,53.325 -84.392,66.718 a 31.902,31.902 0 0 1 -11.663,2.214 z"
     inkscape:connector-curvature="0"
     style="stroke-width:96.45061493" /><path
     id="path872"
     fill=""
     d="m 416.891,625.033 a 31.95,31.95 0 0 1 -10.945,-1.939 c -16.607,-6.047 -25.167,-24.411 -19.121,-41.018 l 49.598,-136.222 c 6.046,-16.606 24.412,-25.167 41.017,-19.121 16.607,6.046 25.167,24.41 19.121,41.017 l -49.598,136.223 c -4.732,12.992 -17.004,21.06 -30.072,21.06 z m 189.585,6.499 c -14.979,0 -28.358,-10.569 -31.362,-25.822 L 547.293,464.454 c -3.416,-17.34 7.873,-34.165 25.213,-37.581 17.346,-3.417 34.166,7.875 37.58,25.213 l 27.821,141.256 c 3.416,17.34 -7.873,34.165 -25.213,37.58 -2.088,0.412 -4.169,0.61 -6.218,0.61 z"
     inkscape:connector-curvature="0"
     style="stroke-width:96.45061493" /></g></svg>