<?xml version="1.0" encoding="UTF-8" standalone="no"?>
<!-- Generator: Adobe Illustrator 18.1.0, SVG Export Plug-In . SVG Version: 6.00 Build 0)  -->

<svg
   xmlns:dc="http://purl.org/dc/elements/1.1/"
   xmlns:cc="http://creativecommons.org/ns#"
   xmlns:rdf="http://www.w3.org/1999/02/22-rdf-syntax-ns#"
   xmlns:svg="http://www.w3.org/2000/svg"
   xmlns="http://www.w3.org/2000/svg"
   xmlns:sodipodi="http://sodipodi.sourceforge.net/DTD/sodipodi-0.dtd"
   xmlns:inkscape="http://www.inkscape.org/namespaces/inkscape"
   version="1.1"
   id="Document"
   x="0px"
   y="0px"
   viewBox="0 0 20 20"
   enable-background="new 0 0 20 20"
   xml:space="preserve"
   sodipodi:docname="styloqdocstatus_cancelled.svg"
   inkscape:version="0.92.4 (5da689c313, 2019-01-14)"><metadata
   id="metadata1124"><rdf:RDF><cc:Work
       rdf:about=""><dc:format>image/svg+xml</dc:format><dc:type
         rdf:resource="http://purl.org/dc/dcmitype/StillImage" /></cc:Work></rdf:RDF></metadata><defs
   id="defs1122" /><sodipodi:namedview
   pagecolor="#ffffff"
   bordercolor="#666666"
   borderopacity="1"
   objecttolerance="10"
   gridtolerance="10"
   guidetolerance="10"
   inkscape:pageopacity="0"
   inkscape:pageshadow="2"
   inkscape:window-width="1920"
   inkscape:window-height="1017"
   id="namedview1120"
   showgrid="false"
   inkscape:zoom="23.6"
   inkscape:cx="-1.8220339"
   inkscape:cy="10"
   inkscape:window-x="-8"
   inkscape:window-y="-8"
   inkscape:window-maximized="1"
   inkscape:current-layer="Document" />
<path
   fill-rule="evenodd"
   clip-rule="evenodd"
   d="M16,1H4C3.447,1,3,1.447,3,2v16c0,0.552,0.447,1,1,1h12c0.553,0,1-0.448,1-1V2  C17,1.448,16.553,1,16,1z M15,17H5V3h10V17z"
   id="path1117" />
<path
   id="path1027"
   d="m 11.144068,10.5102 c 1.513881,0 2.752512,1.23863 2.752512,2.752512 0,1.513881 -1.238631,2.752512 -2.752512,2.752512 -1.5138818,0 -2.7525122,-1.238631 -2.7525122,-2.752512 0,-1.513882 1.2386304,-2.752512 2.7525122,-2.752512 m 0,-0.6881277 c -1.8923522,0 -3.4406402,1.5482877 -3.4406402,3.4406397 0,1.892352 1.548288,3.44064 3.4406402,3.44064 1.892352,0 3.44064,-1.548288 3.44064,-3.44064 0,-1.892352 -1.548288,-3.4406397 -3.44064,-3.4406397 z"
   inkscape:connector-curvature="0"
   style="overflow:hidden;fill:#006481;fill-opacity:1;stroke-width:1" /><path
   id="path1029"
   d="m 11.66813,13.262711 0.722535,-0.722534 c 0.137625,-0.137626 0.137625,-0.344064 0,-0.48169 -0.137626,-0.137625 -0.344064,-0.137625 -0.48169,0 l -0.722534,0.722535 -0.722535,-0.722535 c -0.137625,-0.137625 -0.344064,-0.137625 -0.4816893,0 -0.1376256,0.137626 -0.1376256,0.344064 0,0.48169 l 0.7225343,0.722534 -0.7225343,0.722535 c -0.1376256,0.137625 -0.1376256,0.344064 0,0.481689 0.1376253,0.137626 0.3440643,0.137626 0.4816893,0 l 0.722535,-0.722534 0.722534,0.722534 c 0.137626,0.137626 0.344064,0.137626 0.48169,0 0.137625,-0.137625 0.137625,-0.344064 0,-0.481689 z"
   inkscape:connector-curvature="0"
   style="overflow:hidden;fill:#006481;fill-opacity:1;stroke-width:1" /></svg>