<?xml version="1.0" encoding="UTF-8" standalone="no"?>
<!-- Generator: Adobe Illustrator 18.1.0, SVG Export Plug-In . SVG Version: 6.00 Build 0)  -->

<svg
   xmlns:dc="http://purl.org/dc/elements/1.1/"
   xmlns:cc="http://creativecommons.org/ns#"
   xmlns:rdf="http://www.w3.org/1999/02/22-rdf-syntax-ns#"
   xmlns:svg="http://www.w3.org/2000/svg"
   xmlns="http://www.w3.org/2000/svg"
   xmlns:sodipodi="http://sodipodi.sourceforge.net/DTD/sodipodi-0.dtd"
   xmlns:inkscape="http://www.inkscape.org/namespaces/inkscape"
   version="1.1"
   id="Document"
   x="0px"
   y="0px"
   viewBox="0 0 20 20"
   enable-background="new 0 0 20 20"
   xml:space="preserve"
   sodipodi:docname="styloq_document_itrm.svg"
   inkscape:version="0.92.4 (5da689c313, 2019-01-14)"><metadata
   id="metadata938"><rdf:RDF><cc:Work
       rdf:about=""><dc:format>image/svg+xml</dc:format><dc:type
         rdf:resource="http://purl.org/dc/dcmitype/StillImage" /></cc:Work></rdf:RDF></metadata><defs
   id="defs936" /><sodipodi:namedview
   pagecolor="#ffffff"
   bordercolor="#666666"
   borderopacity="1"
   objecttolerance="10"
   gridtolerance="10"
   guidetolerance="10"
   inkscape:pageopacity="0"
   inkscape:pageshadow="2"
   inkscape:window-width="1920"
   inkscape:window-height="1017"
   id="namedview934"
   showgrid="false"
   inkscape:zoom="40.9"
   inkscape:cx="10"
   inkscape:cy="10"
   inkscape:window-x="-8"
   inkscape:window-y="-8"
   inkscape:window-maximized="1"
   inkscape:current-layer="Document" />
<path
   fill-rule="evenodd"
   clip-rule="evenodd"
   d="M16,1H4C3.447,1,3,1.447,3,2v16c0,0.552,0.447,1,1,1h12c0.553,0,1-0.448,1-1V2  C17,1.448,16.553,1,16,1z M15,17H5V3h10V17z"
   id="path931" />
<g
   id="g1059"
   transform="matrix(0.432,0,0,0.432,4.8506922,4.8020085)"
   style="stroke-width:2.31481481"><g
     id="g999"
     style="stroke-width:2.31481481">
	<g
   id="g997"
   style="stroke-width:2.31481481">
		<g
   id="g991"
   style="stroke-width:2.31481481">
			<path
   id="path989"
   d="M 16.192,5.224 V 4.487 h -8.77 v 0.737 c 0,0 1.334,3.713 3.838,5.428 v 1.785 c 0,0 -2.761,2.686 -3.838,5.775 v 0.842 h 8.77 v -0.842 c -1.399,-3.41 -3.837,-5.775 -3.837,-5.775 v -1.785 c 3.404,-2.926 3.837,-5.428 3.837,-5.428 z"
   style="fill:#010002;stroke-width:2.31481481"
   inkscape:connector-curvature="0" />
		</g>
		<g
   id="g995"
   style="stroke-width:2.31481481">
			<path
   id="path993"
   d="M 19.353,3.856 V 2.529 h 1.258 V 0 H 3.002 v 2.529 h 1.259 v 1.327 c 0,2.025 3.634,7.555 3.804,7.955 -0.167,0.397 -3.804,5.929 -3.804,7.946 v 1.325 H 3.002 v 2.53 h 17.609 v -2.53 h -1.258 v -1.325 c 0,-2.025 -3.635,-7.521 -3.829,-7.951 0.194,-0.43 3.829,-5.926 3.829,-7.95 z m -1.257,15.901 v 1.325 H 5.519 v -1.325 c 0,-1.455 3.854,-7.222 3.854,-7.951 0,-0.729 -3.854,-6.495 -3.854,-7.95 V 2.529 h 12.578 v 1.327 c 0,1.455 -3.886,7.221 -3.886,7.95 -10e-4,0.729 3.885,6.496 3.885,7.951 z"
   style="fill:#010002;stroke-width:2.31481481"
   inkscape:connector-curvature="0" />
		</g>
	</g>
</g><g
     id="g1001"
     style="stroke-width:2.31481481">
</g><g
     id="g1003"
     style="stroke-width:2.31481481">
</g><g
     id="g1005"
     style="stroke-width:2.31481481">
</g><g
     id="g1007"
     style="stroke-width:2.31481481">
</g><g
     id="g1009"
     style="stroke-width:2.31481481">
</g><g
     id="g1011"
     style="stroke-width:2.31481481">
</g><g
     id="g1013"
     style="stroke-width:2.31481481">
</g><g
     id="g1015"
     style="stroke-width:2.31481481">
</g><g
     id="g1017"
     style="stroke-width:2.31481481">
</g><g
     id="g1019"
     style="stroke-width:2.31481481">
</g><g
     id="g1021"
     style="stroke-width:2.31481481">
</g><g
     id="g1023"
     style="stroke-width:2.31481481">
</g><g
     id="g1025"
     style="stroke-width:2.31481481">
</g><g
     id="g1027"
     style="stroke-width:2.31481481">
</g><g
     id="g1029"
     style="stroke-width:2.31481481">
</g></g></svg>