<svg class="svg-icon" style="width: 1.0830078125em; height: 1em;vertical-align: middle;fill: currentColor;overflow: hidden;" viewBox="0 0 1109 1024" version="1.1" xmlns="http://www.w3.org/2000/svg"><path d="M469.12 635.456c-9.386667-7.573333-15.04-17.066667-15.04-30.336 0-20.864 16.896-37.930667 37.546667-37.930667 20.672 0 37.546667 17.066667 37.546666 37.930667 0 13.269333-5.610667 22.762667-14.997333 30.336l50.688 180.16c3.754667 13.269333 0 26.538667-9.386667 36.010667l-50.688 51.2a18.026667 18.026667 0 0 1-26.304 0l-50.688-51.2c-9.386667-9.472-13.141333-22.741333-9.386666-36.010667l50.688-180.16z m-142.634667-161.386667c-60.394667-49.28-100.032-123.242667-100.032-208.597333C226.453333 119.466667 345.344 0 490.666667 0c145.301333 0 264.213333 119.466667 264.213333 265.472 0 83.456-39.637333 159.296-100.032 208.597333C843.562667 529.066667 981.333333 703.530667 981.333333 910.229333 981.333333 972.8 930.368 1024 868.096 1024H113.237333C50.944 1024 0 972.8 0 910.229333c0-206.72 137.770667-381.162667 326.485333-436.16z m165.973334-6.442666a202.666667 202.666667 0 1 0 0-405.333334 202.666667 202.666667 0 0 0 0 405.333334zM878.549333 960c21.333333 0 38.784-18.346667 38.784-40.746667C917.333333 695.296 742.784 512 529.450667 512h-77.568C238.549333 512 64 695.274667 64 919.253333 64 941.653333 81.450667 960 102.784 960h775.765333z" fill="#000000" /><path d="M853.333333 768m-256 0a256 256 0 1 0 512 0 256 256 0 1 0-512 0Z" fill="#000000" /><path d="M777.472 640l20.906667 6.570667a499.242667 499.242667 0 0 1-30.464 63.914666v201.002667h-21.802667v-167.552c-9.258667 13.44-19.413333 25.685333-29.568 36.138667A184.170667 184.170667 0 0 0 704 758.272c29.269333-28.373333 56.746667-73.173333 73.472-118.272z m63.616 195.626667l21.205333 6.570666c-14.933333 25.984-37.034667 51.968-57.045333 68.992-3.882667-3.882667-12.544-11.050667-17.621333-13.738666 20.309333-15.530667 40.917333-38.826667 53.461333-61.824z m67.498667 10.752c19.712 19.712 41.813333 47.488 51.669333 66.005333l18.816-12.245333c-10.453333-17.621333-32.554667-44.202667-53.162667-63.616l-17.322666 9.856z m-51.968-122.154667v72.874667h58.24v-72.874667h-58.24z m79.744 72.874667h45.994666v21.802666h-192.938666v-21.802666h45.696v-72.874667H796.586667V702.72h38.528v-60.032h21.504v60.032h58.24v-60.330667h21.504v60.330667h42.410666v21.504h-42.410666v72.874667z" fill="#FFFFFF" /></svg>