<?xml version="1.0" encoding="iso-8859-1"?>
<!-- Generator: Adobe Illustrator 19.0.0, SVG Export Plug-In . SVG Version: 6.00 Build 0)  -->
<svg version="1.1" id="Capa_1" xmlns="http://www.w3.org/2000/svg" xmlns:xlink="http://www.w3.org/1999/xlink" x="0px" y="0px"
	 viewBox="0 0 480.001 480.001" style="enable-background:new 0 0 480.001 480.001;" xml:space="preserve">
<g>
	<g>
		<path d="M327.72,197.831c-0.083-0.246-0.182-0.486-0.296-0.72c-0.133-0.404-0.296-0.797-0.488-1.176
			c-0.17-0.256-0.354-0.501-0.552-0.736c-0.209-0.318-0.442-0.621-0.696-0.904c-0.237-0.21-0.486-0.408-0.744-0.592
			c-0.254-0.231-0.521-0.447-0.8-0.648l-80-48c-2.535-1.523-5.705-1.523-8.24,0l-80,48c-0.296,0.195-0.577,0.411-0.84,0.648
			c-0.261,0.184-0.512,0.382-0.752,0.592c-0.249,0.283-0.479,0.582-0.688,0.896c-0.203,0.236-0.39,0.484-0.56,0.744
			c-0.188,0.369-0.348,0.751-0.48,1.144c-0.114,0.248-0.216,0.502-0.304,0.76c-0.187,0.675-0.281,1.372-0.28,2.072v80
			c0.001,2.808,1.473,5.41,3.88,6.856l80,48l0.088,0.04l0.088,0.064c0.42,0.218,0.859,0.398,1.312,0.536
			c0.184,0.064,0.36,0.168,0.552,0.224c1.362,0.373,2.799,0.373,4.16,0c0.192-0.056,0.368-0.16,0.552-0.224
			c0.453-0.138,0.892-0.318,1.312-0.536l0.088-0.064l0.088-0.04l80-48c2.407-1.446,3.879-4.048,3.88-6.856v-80
			C328.001,199.209,327.906,198.509,327.72,197.831z M240,161.239l24.448,14.672L200,214.583l-24.448-14.672L240,161.239z
			 M232,313.775l-64-38.4v-61.336l64,38.4V313.775z M240,238.583l-24.448-14.672L280,185.239l24.448,14.672L240,238.583z
			 M312,275.383l-64,38.4v-61.344l64-38.4V275.383z"/>
	</g>
</g>
<g>
	<g>
		<path d="M246.4,3.111c-2.908-3.535-8.131-4.042-11.666-1.134c-0.414,0.34-0.794,0.72-1.134,1.134l-24,32l12.8,9.6l9.6-12.8v64h16
			v-64l9.6,12.8l12.8-9.6L246.4,3.111z"/>
	</g>
</g>
<g>
	<g>
		<path d="M257.6,435.111l-9.6,12.8v-64h-16v64l-9.6-12.8l-12.8,9.6l24,32c2.651,3.535,7.665,4.251,11.2,1.6
			c0.606-0.455,1.145-0.994,1.6-1.6l24-32L257.6,435.111z"/>
	</g>
</g>
<g>
	<g>
		<rect x="232" y="111.911" width="16" height="16"/>
	</g>
</g>
<g>
	<g>
		<rect x="232" y="351.911" width="16" height="16"/>
	</g>
</g>
<g>
	<g>
		<path d="M96,231.911H32l12.8-9.6l-9.6-12.8l-32,24c-3.535,2.651-4.251,7.665-1.6,11.2c0.455,0.606,0.994,1.145,1.6,1.6l32,24
			l9.6-12.8l-12.8-9.6h64V231.911z"/>
	</g>
</g>
<g>
	<g>
		<path d="M478.4,235.111c-0.455-0.606-0.994-1.145-1.6-1.6l-32-24l-9.6,12.8l12.8,9.6h-64v16h64l-12.8,9.6l9.6,12.8l32-24
			C480.335,243.66,481.051,238.646,478.4,235.111z"/>
	</g>
</g>
<g>
	<g>
		<rect x="112" y="231.911" width="16" height="16"/>
	</g>
</g>
<g>
	<g>
		<rect x="352" y="231.911" width="16" height="16"/>
	</g>
</g>
<g>
	<g>
		<path d="M143.832,132.431L98.584,87.183l15.832,2.256l2.264-15.84l-39.592-5.688c-4.37-0.649-8.439,2.368-9.088,6.739
			c-0.116,0.779-0.116,1.571,0,2.349l5.656,39.592l15.84-2.264L87.24,98.495l45.248,45.248L143.832,132.431z"/>
	</g>
</g>
<g>
	<g>
		<path d="M411.984,402.823l-5.656-39.592l-15.856,2.28l2.256,15.832l-45.248-45.248l-11.312,11.312l45.248,45.248l-15.816-2.272
			l-2.264,15.84l39.592,5.656c0.376,0.054,0.756,0.081,1.136,0.08c4.418,0.001,8-3.581,8.001-7.999
			C412.066,403.58,412.038,403.2,411.984,402.823z"/>
	</g>
</g>
<g>
	<g>
		<rect x="147.151" y="147.063" transform="matrix(0.7071 -0.7071 0.7071 0.7071 -64.2037 155.1248)" width="16" height="16"/>
	</g>
</g>
<g>
	<g>
		<rect x="316.862" y="316.759" transform="matrix(0.7071 -0.7071 0.7071 0.7071 -134.4897 324.8318)" width="16" height="16"/>
	</g>
</g>
<g>
	<g>
		<path d="M98.552,392.639l45.248-45.248l-11.28-11.312l-45.248,45.248l2.256-15.832l-15.84-2.264L68,402.823
			c-0.627,4.373,2.409,8.427,6.783,9.055c0.377,0.054,0.757,0.081,1.137,0.081c0.38,0.001,0.76-0.026,1.136-0.08l39.592-5.656
			l-2.264-15.84L98.552,392.639z"/>
	</g>
</g>
<g>
	<g>
		<path d="M409.704,70.207c-1.774-1.793-4.297-2.634-6.792-2.264l-39.592,5.656l2.264,15.84l15.832-2.256l-45.248,45.248
			l11.312,11.312l45.248-45.248l-2.256,15.816l15.84,2.28l5.656-39.592C412.326,74.505,411.487,71.989,409.704,70.207z"/>
	</g>
</g>
<g>
	<g>
		<rect x="147.158" y="316.767" transform="matrix(0.7071 -0.7071 0.7071 0.7071 -184.1999 204.8355)" width="16" height="16"/>
	</g>
</g>
<g>
	<g>
		<rect x="316.862" y="147.032" transform="matrix(0.7071 -0.7071 0.7071 0.7071 -14.4738 275.1211)" width="16" height="16"/>
	</g>
</g>
<g>
</g>
<g>
</g>
<g>
</g>
<g>
</g>
<g>
</g>
<g>
</g>
<g>
</g>
<g>
</g>
<g>
</g>
<g>
</g>
<g>
</g>
<g>
</g>
<g>
</g>
<g>
</g>
<g>
</g>
</svg>
