<svg height="511pt" viewBox="1 -9 511.99998 511" width="511pt" xmlns="http://www.w3.org/2000/svg"><path d="m111.09375 77.3125 12.003906 63.441406c31.164063-39.132812 79.214844-64.222656 133.128906-64.222656 93.945313 0 170.097657 76.15625 170.097657 170.097656 0 3.929688-.144531 7.824219-.40625 11.691406.335937.0625.675781.109376 1.007812.179688l73.886719 15.691406c1.007812-9.050781 1.542969-18.242187 1.542969-27.5625 0-135.933594-110.195313-246.128906-246.128907-246.128906-59.34375 0-113.78125 21.007812-156.289062 55.984375 5.636719 5.507813 9.617188 12.695313 11.15625 20.828125zm0 0"/><path d="m400.289062 414.644531-11.28125-61.707031c-31.175781 38.882812-79.066406 63.789062-132.78125 63.789062-93.945312 0-170.097656-76.15625-170.097656-170.097656 0-4.304687.160156-8.574218.476563-12.800781-.398438-.066406-.792969-.132813-1.191407-.214844l-73.699218-15.175781c-1.054688 9.253906-1.617188 18.65625-1.617188 28.191406 0 135.933594 110.195313 246.128906 246.128906 246.128906 59.367188 0 113.828126-21.023437 156.339844-56.027343-6.269531-5.675781-10.675781-13.351563-12.277344-22.085938zm0 0"/><path d="m91.417969 204.476562c4.519531.929688 7.558593-1.476562 8.652343-2.554687 1.097657-1.078125 3.554688-4.074219 2.695313-8.609375l-20.902344-110.46875c-1.078125-5.695312-5.589843-7.214844-7.480469-7.605469-.519531-.105469-1.25-.210937-2.105468-.210937-2.269532 0-5.421875.75-7.773438 4.242187l-62.855468 93.214844c-2.578126 3.828125-1.507813 7.550781-.925782 8.976563.582032 1.421874 2.417969 4.832031 6.9375 5.765624zm0 0"/><path d="m511.300781 311.175781c-.570312-1.425781-2.390625-4.851562-6.902343-5.808593l-83.652344-17.765626c-.726563-.15625-1.417969-.222656-2.066406-.222656-3.382813 0-5.675782 1.824219-6.601563 2.726563-1.101563 1.070312-3.578125 4.050781-2.746094 8.59375l20.222657 110.59375c1.042968 5.699219 5.546874 7.246093 7.433593 7.648437 1.886719.398438 6.632813.816406 9.902344-3.964844l63.425781-92.832031c2.605469-3.808593 1.554688-7.542969.984375-8.96875zm0 0"/></svg>