<?xml version="1.0" encoding="iso-8859-1"?>
<!-- Generator: Adobe Illustrator 19.0.0, SVG Export Plug-In . SVG Version: 6.00 Build 0)  -->
<svg version="1.1" id="Capa_1" xmlns="http://www.w3.org/2000/svg" xmlns:xlink="http://www.w3.org/1999/xlink" x="0px" y="0px"
	 viewBox="0 0 512 512" style="enable-background:new 0 0 512 512;" xml:space="preserve">
<g>
	<g>
		<path d="M479.521,129.496C477.016,124.311,471.771,121,466,121h-15.835C442.68,53.588,385.375,0,316,0h-30
			c-8.291,0-15,6.709-15,15s6.709,15,15,15c46.055,0,71.104,31.264,74.575,91H346c-5.771,0-11.016,3.311-13.521,8.496
			c-2.49,5.2-1.802,11.367,1.802,15.879l60,75c2.856,3.56,7.163,5.625,11.719,5.625c4.556,0,8.862-2.065,11.719-5.625l60-75
			C481.323,140.863,482.011,134.696,479.521,129.496z"/>
	</g>
</g>
<g>
	<g>
		<path d="M226,482c-46.055,0-71.104-31.264-74.575-91H166c5.771,0,11.016-3.311,13.521-8.496c2.49-5.2,1.802-11.367-1.802-15.879
			l-60-75c-5.713-7.119-17.725-7.119-23.438,0l-60,75c-3.604,4.512-4.292,10.679-1.802,15.879C34.984,387.689,40.229,391,46,391
			h15.835C69.32,458.412,126.625,512,196,512h30c8.291,0,15-6.709,15-15C241,488.709,234.291,482,226,482z"/>
	</g>
</g>
<g>
	<g>
		<path d="M136,121c-8.291,0-15-6.709-15-15V0H15C6.709,0,0,6.709,0,15v241c0,8.291,6.709,15,15,15h211c8.291,0,15-6.709,15-15V121
			H136z"/>
	</g>
</g>
<g>
	<g>
		<polygon points="151,8.789 151,91 232.211,91 		"/>
	</g>
</g>
<g>
	<g>
		<path d="M407,361c-8.291,0-15-6.709-15-15V241H286c-8.291,0-15,6.709-15,15v241c0,8.291,6.709,15,15,15h211
			c8.291,0,15-6.709,15-15V361H407z"/>
	</g>
</g>
<g>
	<g>
		<polygon points="422,249.789 422,331 503.211,331 		"/>
	</g>
</g>
<g>
</g>
<g>
</g>
<g>
</g>
<g>
</g>
<g>
</g>
<g>
</g>
<g>
</g>
<g>
</g>
<g>
</g>
<g>
</g>
<g>
</g>
<g>
</g>
<g>
</g>
<g>
</g>
<g>
</g>
</svg>
