<?xml version="1.0" encoding="iso-8859-1"?>
<!-- Generator: Adobe Illustrator 18.0.0, SVG Export Plug-In . SVG Version: 6.00 Build 0)  -->
<!DOCTYPE svg PUBLIC "-//W3C//DTD SVG 1.1//EN" "http://www.w3.org/Graphics/SVG/1.1/DTD/svg11.dtd">
<svg version="1.1" id="Capa_1" xmlns="http://www.w3.org/2000/svg" xmlns:xlink="http://www.w3.org/1999/xlink" x="0px" y="0px"
	 viewBox="0 0 494.839 494.839" style="enable-background:new 0 0 494.839 494.839;" xml:space="preserve">
<g>
	<path d="M150.298,151.627c0.325-2.945-1.147-5.758-3.733-7.197l-40.167-22.164c35.005-40.762,86.446-65.35,141.021-65.35
		c102.523,0,185.927,83.404,185.927,185.928c0,13.717,11.112,24.847,24.843,24.847c13.719,0,24.849-11.13,24.849-24.847
		c0-129.926-105.711-235.619-235.619-235.619c-67.177,0-130.896,29.115-175.138,78.111L53.565,51.45
		c-1.402-2.588-4.237-4.062-7.182-3.736c-2.925,0.322-5.368,2.361-6.208,5.192L0.299,188.67c-0.76,2.537-0.046,5.307,1.844,7.212
		c1.861,1.862,4.642,2.588,7.2,1.813l135.75-39.891C147.938,157.001,149.973,154.522,150.298,151.627z"/>
	<path d="M492.697,298.973c-1.863-1.877-4.645-2.589-7.2-1.826l-135.75,39.888c-2.847,0.839-4.883,3.283-5.205,6.196
		c-0.327,2.928,1.145,5.759,3.733,7.182l40.167,22.176c-35.007,40.75-86.448,65.338-141.023,65.338
		c-102.521,0-185.925-83.404-185.925-185.928c0-13.717-11.112-24.848-24.845-24.848c-13.719,0-24.849,11.131-24.849,24.848
		c0,129.926,105.714,235.615,235.619,235.615c67.177,0,130.879-29.117,175.138-78.112l18.716,33.889
		c1.402,2.591,4.237,4.06,7.181,3.754c2.926-0.341,5.37-2.362,6.209-5.208l39.877-135.75
		C495.299,303.631,494.585,300.88,492.697,298.973z"/>
	<path d="M165.216,247.42c0,45.405,36.799,82.203,82.203,82.203c45.391,0,82.206-36.798,82.206-82.203
		c0-45.389-36.814-82.209-82.206-82.209C202.015,165.211,165.216,202.032,165.216,247.42z"/>
</g>
<g>
</g>
<g>
</g>
<g>
</g>
<g>
</g>
<g>
</g>
<g>
</g>
<g>
</g>
<g>
</g>
<g>
</g>
<g>
</g>
<g>
</g>
<g>
</g>
<g>
</g>
<g>
</g>
<g>
</g>
</svg>
