<?xml version="1.0" encoding="iso-8859-1"?>
<!-- Generator: Adobe Illustrator 16.0.0, SVG Export Plug-In . SVG Version: 6.00 Build 0)  -->
<!DOCTYPE svg PUBLIC "-//W3C//DTD SVG 1.1//EN" "http://www.w3.org/Graphics/SVG/1.1/DTD/svg11.dtd">
<svg version="1.1" id="Capa_1" xmlns="http://www.w3.org/2000/svg" xmlns:xlink="http://www.w3.org/1999/xlink" x="0px" y="0px"
	 width="90px" height="90px" viewBox="0 0 90 90" style="enable-background:new 0 0 90 90;" xml:space="preserve">
<g>
	<path id="Newsvine" d="M48.106,58.117l10.78-7.814c0.986,0.623,2.145,0.99,3.396,0.99c3.517,0,6.37-2.854,6.37-6.381
		c0-3.52-2.854-6.374-6.37-6.374c-3.522,0-6.378,2.854-6.378,6.374c0,0.266,0.021,0.525,0.051,0.789l-7.85,5.686V33.648
		l10.861-7.872c0.974,0.589,2.099,0.937,3.314,0.937c3.516,0,6.37-2.854,6.37-6.373s-2.854-6.379-6.37-6.379
		c-3.521,0-6.378,2.859-6.378,6.379c0,0.295,0.022,0.594,0.069,0.879l-7.868,5.702V0h-6.209v14.21l-7.91-5.726
		c0.07-0.383,0.112-0.771,0.112-1.178c0-3.519-2.859-6.373-6.379-6.373c-3.519,0-6.37,2.854-6.37,6.373
		c0,3.52,2.852,6.378,6.37,6.378c1.113,0,2.157-0.288,3.067-0.786l11.109,8.041v17.739l-7.897-5.718c0.062-0.348,0.1-0.709,0.1-1.07
		c0-3.53-2.859-6.381-6.379-6.381c-3.519,0-6.37,2.851-6.37,6.381c0,3.516,2.852,6.37,6.37,6.37c1.148,0,2.222-0.306,3.15-0.833
		l11.026,7.98v18.917l-7.891-5.717c0.055-0.344,0.093-0.69,0.093-1.047c0-3.521-2.859-6.377-6.379-6.377
		c-3.519,0-6.37,2.856-6.37,6.377c0,3.519,2.852,6.373,6.37,6.373c1.158,0,2.238-0.314,3.171-0.85l11.006,7.965V90h0.514h5.451
		h0.244v-6.244l10.761-7.787c0.986,0.623,2.153,0.995,3.416,0.995c3.517,0,6.37-2.854,6.37-6.375s-2.854-6.371-6.37-6.371
		c-3.522,0-6.378,2.853-6.378,6.371c0,0.259,0.021,0.509,0.046,0.757l-7.845,5.688V58.117H48.106z"/>
</g>
<g>
</g>
<g>
</g>
<g>
</g>
<g>
</g>
<g>
</g>
<g>
</g>
<g>
</g>
<g>
</g>
<g>
</g>
<g>
</g>
<g>
</g>
<g>
</g>
<g>
</g>
<g>
</g>
<g>
</g>
</svg>
