<?xml version="1.0" encoding="UTF-8" standalone="no"?>
<!-- Generator: Adobe Illustrator 18.0.0, SVG Export Plug-In . SVG Version: 6.00 Build 0)  -->

<svg
   xmlns:dc="http://purl.org/dc/elements/1.1/"
   xmlns:cc="http://creativecommons.org/ns#"
   xmlns:rdf="http://www.w3.org/1999/02/22-rdf-syntax-ns#"
   xmlns:svg="http://www.w3.org/2000/svg"
   xmlns="http://www.w3.org/2000/svg"
   xmlns:sodipodi="http://sodipodi.sourceforge.net/DTD/sodipodi-0.dtd"
   xmlns:inkscape="http://www.inkscape.org/namespaces/inkscape"
   version="1.1"
   id="Capa_1"
   x="0px"
   y="0px"
   viewBox="0 0 60 60"
   style="enable-background:new 0 0 60 60;"
   xml:space="preserve"
   inkscape:version="0.91 r13725"
   sodipodi:docname="table02.svg"><metadata
     id="metadata3377"><rdf:RDF><cc:Work
         rdf:about=""><dc:format>image/svg+xml</dc:format><dc:type
           rdf:resource="http://purl.org/dc/dcmitype/StillImage" /></cc:Work></rdf:RDF></metadata><defs
     id="defs3375" /><sodipodi:namedview
     pagecolor="#ffffff"
     bordercolor="#666666"
     borderopacity="1"
     objecttolerance="10"
     gridtolerance="10"
     guidetolerance="10"
     inkscape:pageopacity="0"
     inkscape:pageshadow="2"
     inkscape:window-width="1680"
     inkscape:window-height="987"
     id="namedview3373"
     showgrid="false"
     inkscape:zoom="13.166667"
     inkscape:cx="30"
     inkscape:cy="30"
     inkscape:window-x="-8"
     inkscape:window-y="-8"
     inkscape:window-maximized="1"
     inkscape:current-layer="Capa_1" /><g
     id="g3337"><path
       d="M57,20.232h-3c1.654,0,3-1.346,3-3s-1.346-3-3-3h-1v-1h-7v7h-7.106C41.458,19.047,43,17.419,43,15.565   c0-0.329-0.06-0.673-0.183-1.052l-0.292-0.898l-0.914,0.241c-0.215,0.057-0.447,0.098-0.667,0.15   c-0.278-2.124-2.079-3.774-4.277-3.774c-0.753,0-1.467,0.209-2.106,0.569c-0.917-1.15-2.312-1.902-3.894-1.902   c-1.018,0-1.983,0.305-2.803,0.866C26.85,8.817,25.494,8.232,24,8.232c-2.306,0-4.337,1.407-5.209,3.466   c-1.918-0.488-3.988,0.17-5.102,1.781C13.232,14.141,13,14.842,13,15.565c0,1.854,1.542,3.482,4.106,4.667H3c-1.654,0-3,1.346-3,3   s1.346,3,3,3h23v14h1v2h-2v1c0,4.411-3.589,8-8,8h-4c-0.552,0-1,0.447-1,1s0.448,1,1,1h4h26h4c0.552,0,1-0.447,1-1s-0.448-1-1-1h-4   c-4.411,0-8-3.589-8-8v-1h-2v-2h1v-14h23c1.654,0,3-1.346,3-3S58.654,20.232,57,20.232z M54,16.232c0.551,0,1,0.448,1,1   s-0.449,1-1,1h-1v-2H54z M48,15.232h3v5h-3V15.232z M35.481,12.556c0.355-0.212,0.762-0.324,1.185-0.324   c1.232,0,2.242,0.959,2.326,2.169c-0.386,0.065-0.774,0.128-1.171,0.18c-0.141,0.019-0.279,0.043-0.422,0.06   c-0.597,0.071-1.207,0.122-1.82,0.163c0.005-0.024,0.003-0.048,0.007-0.072c0.047-0.275,0.079-0.553,0.079-0.833   c0-0.3-0.037-0.595-0.09-0.887c-0.015-0.083-0.032-0.165-0.052-0.247C35.509,12.696,35.501,12.625,35.481,12.556z M30.667,10.899   c1.216,0,2.259,0.73,2.73,1.771c0.076,0.167,0.13,0.339,0.174,0.513c0.007,0.03,0.021,0.057,0.027,0.087   c0.045,0.206,0.069,0.416,0.069,0.629c0,0.236-0.036,0.466-0.093,0.693c-0.01,0.042-0.021,0.083-0.032,0.124   c-0.017,0.058-0.05,0.112-0.071,0.169c-0.079,0.001-0.157,0.007-0.236,0.007c-0.318,0.003-0.637-0.005-0.956-0.011   c-0.329-0.006-0.658-0.01-0.984-0.025c-0.31-0.014-0.617-0.039-0.926-0.06c-0.258-0.018-0.516-0.035-0.77-0.058   c0.044-0.28,0.067-0.559,0.067-0.839c0-0.211-0.014-0.419-0.036-0.624c-0.007-0.064-0.02-0.126-0.029-0.19   c-0.021-0.142-0.043-0.283-0.074-0.421c-0.016-0.071-0.036-0.14-0.054-0.21c-0.035-0.133-0.073-0.263-0.118-0.392   c-0.022-0.065-0.046-0.129-0.071-0.193c-0.054-0.139-0.113-0.276-0.177-0.409c-0.015-0.032-0.026-0.065-0.042-0.096   C29.54,11.061,30.089,10.899,30.667,10.899z M24,10.232c1.235,0,2.323,0.618,2.988,1.556c0.054,0.076,0.098,0.157,0.146,0.236   c0.066,0.109,0.129,0.22,0.183,0.337c0.037,0.08,0.07,0.161,0.102,0.244c0.051,0.134,0.093,0.271,0.128,0.411   c0.018,0.072,0.039,0.143,0.052,0.216c0.04,0.217,0.067,0.439,0.067,0.667c0,0.2-0.025,0.401-0.062,0.604   c-0.03-0.005-0.062-0.007-0.091-0.012c-0.612-0.093-1.209-0.201-1.789-0.324c-0.203-0.043-0.392-0.096-0.59-0.142   c-0.396-0.093-0.792-0.187-1.168-0.293c-0.207-0.058-0.402-0.125-0.603-0.187c-0.348-0.108-0.692-0.219-1.018-0.338   c-0.193-0.07-0.376-0.146-0.561-0.22c-0.309-0.124-0.608-0.252-0.892-0.386c-0.091-0.043-0.177-0.088-0.265-0.132   C21.189,11.138,22.509,10.232,24,10.232z M15,15.565c0-0.313,0.109-0.623,0.335-0.949c0.493-0.713,1.328-1.099,2.206-1.099   c0.485,0,0.981,0.125,1.441,0.371l0.094,0.043c0.371,0.206,0.768,0.399,1.178,0.586c0.109,0.05,0.221,0.098,0.333,0.146   c0.357,0.154,0.727,0.302,1.11,0.442c0.087,0.032,0.169,0.066,0.257,0.096c0.448,0.157,0.914,0.303,1.394,0.44   c0.157,0.045,0.318,0.086,0.478,0.128c0.34,0.09,0.687,0.176,1.041,0.256c0.196,0.045,0.391,0.09,0.591,0.132   c0.47,0.097,0.948,0.186,1.439,0.265c0.008,0.001,0.016,0.003,0.024,0.004l-0.008,0.021l1.284,0.159   c0.006,0.001,0.012,0.002,0.018,0.003l0.767,0.095l0.002-0.005c0.404,0.041,0.82,0.064,1.232,0.093   c0.167,0.012,0.332,0.028,0.5,0.038c0.554,0.031,1.116,0.046,1.681,0.054l-0.027,0.047l1.776-0.049c0.007,0,0.014,0,0.021,0   l0.561-0.017l0.006-0.01c0.197-0.008,0.394-0.018,0.59-0.029c0.499-0.029,0.993-0.067,1.482-0.114   c0.106-0.01,0.213-0.017,0.318-0.028c0.594-0.062,1.179-0.14,1.757-0.229c0.152-0.023,0.299-0.051,0.45-0.076   c0.261-0.044,0.526-0.084,0.783-0.133l0.651-0.126l0.002-0.011c0.044-0.009,0.09-0.016,0.133-0.025   c-0.779,2.054-6.041,4.148-12.9,4.148C20.56,20.232,15,17.768,15,15.565z M33.05,44.232c0.285,2.856,1.776,5.362,3.957,7H22.994   c2.18-1.638,3.672-4.144,3.957-7H27h6H33.05z M31,42.232h-2v-2h2V42.232z M32,38.232h-4v-12h4V38.232z M57,24.232H34h-8H3   c-0.551,0-1-0.448-1-1s0.449-1,1-1h43h7h4c0.551,0,1,0.448,1,1S57.551,24.232,57,24.232z"
       id="path3339" /><path
       d="M49.463,12.31c0.125,0.052,0.255,0.076,0.382,0.076c0.393,0,0.765-0.232,0.924-0.617c0.205-0.495-0.017-1.061-0.496-1.286   c1.283-0.55,1.476-1.368,1.476-1.811c0-0.447-0.198-1.279-1.521-1.828c-0.512-0.212-1.096,0.031-1.307,0.541   c-0.205,0.495,0.017,1.061,0.497,1.287c-1.285,0.549-1.478,1.367-1.478,1.81C47.941,10.929,48.139,11.761,49.463,12.31z"
       id="path3341" /></g><g
     id="g3343" /><g
     id="g3345" /><g
     id="g3347" /><g
     id="g3349" /><g
     id="g3351" /><g
     id="g3353" /><g
     id="g3355" /><g
     id="g3357" /><g
     id="g3359" /><g
     id="g3361" /><g
     id="g3363" /><g
     id="g3365" /><g
     id="g3367" /><g
     id="g3369" /><g
     id="g3371" /><ellipse
     style="fill:#ffffff"
     id="path3379"
     cx="7.5189872"
     cy="6.4936709"
     rx="3.2658229"
     ry="2.392405" /><ellipse
     style="fill:#ffffff"
     id="path3381"
     cx="11.43038"
     cy="10.101266"
     rx="0.56962025"
     ry="1.0632912" /><path
     style="fill:#ffffff"
     id="path3383"
     sodipodi:type="arc"
     sodipodi:cx="9.2658224"
     sodipodi:cy="7.2531648"
     sodipodi:rx="1.670886"
     sodipodi:ry="1.8607595"
     sodipodi:start="0"
     sodipodi:end="0.10168885"
     d="m 10.936708,7.2531648 a 1.670886,1.8607595 0 0 1 -0.0086,0.1888925 L 9.2658224,7.2531648 Z" /><ellipse
     style="fill:#ffffff"
     id="path3385"
     cx="5.5822783"
     cy="5.7341771"
     rx="1.329114"
     ry="2.4683545" /><ellipse
     style="fill:#000000;fill-opacity:1"
     id="path3387"
     cx="9.0379753"
     cy="8.0126581"
     rx="6.0759497"
     ry="5.8101268" /><path
     style="fill:none;fill-opacity:1;fill-rule:evenodd;stroke:#ffffff;stroke-width:1px;stroke-linecap:butt;stroke-linejoin:miter;stroke-opacity:1"
     d="M 6.1518991,6.8354431 8.1265821,10.481013 11.088607,4.4810127"
     id="path4195"
     inkscape:connector-curvature="0" /></svg>