<?xml version="1.0" encoding="iso-8859-1"?>
<!-- Generator: Adobe Illustrator 18.0.0, SVG Export Plug-In . SVG Version: 6.00 Build 0)  -->
<!DOCTYPE svg PUBLIC "-//W3C//DTD SVG 1.1//EN" "http://www.w3.org/Graphics/SVG/1.1/DTD/svg11.dtd">
<svg version="1.1" id="Capa_1" xmlns="http://www.w3.org/2000/svg" xmlns:xlink="http://www.w3.org/1999/xlink" x="0px" y="0px"
	 viewBox="0 0 411.899 411.899" style="enable-background:new 0 0 411.899 411.899;" xml:space="preserve">
<path d="M410.403,150.065c-2.189-2.487-5.982-2.729-8.469-0.539c-27.817,24.493-32.258,83.483-32.964,102.61h-61.089l-24.127-73.786
	c-0.807-2.467-3.107-4.136-5.703-4.136h-23.073v-11.798c7.523-2.518,12.967-9.617,12.967-17.977v-20.151c0-3.313-2.686-6-6-6
	h-25.932c-3.314,0-6,2.687-6,6v20.151c0,8.358,5.442,15.458,12.965,17.977v11.798h-20.382l2.556-64.449
	c0.926-1.037,1.696-2.109,2.363-3.047c0.662-0.931,1.485-2.089,1.96-2.435c0.498-0.361,1.873-0.797,2.978-1.146
	c2.767-0.875,6.556-2.073,8.995-5.428c2.428-3.336,2.405-7.135,2.387-10.187c-0.007-1.173-0.016-2.632,0.183-3.245
	c0.169-0.521,1.034-1.685,1.665-2.535c1.752-2.356,4.149-5.584,4.149-9.834c0-4.248-2.397-7.476-4.147-9.832
	c-0.632-0.852-1.497-2.016-1.666-2.535c-0.199-0.615-0.19-2.075-0.184-3.248c0.019-3.052,0.041-6.85-2.386-10.184
	c-2.442-3.355-6.229-4.555-8.995-5.43c-1.105-0.35-2.48-0.784-2.979-1.146c-0.475-0.346-1.298-1.504-1.96-2.434
	c-1.692-2.381-4.011-5.639-8.001-6.934c-1.104-0.359-2.285-0.541-3.51-0.541c-2.531,0-4.807,0.755-6.814,1.421
	c-1.193,0.396-2.547,0.845-3.238,0.845c-0.69,0-2.044-0.449-3.238-0.845c-2.008-0.666-4.285-1.421-6.816-1.421
	c-1.225,0-2.405,0.182-3.508,0.54c-3.992,1.296-6.31,4.554-8.003,6.935c-0.662,0.93-1.485,2.088-1.962,2.434
	c-0.496,0.362-1.871,0.797-2.977,1.146c-2.767,0.875-6.556,2.072-8.997,5.43c-2.425,3.333-2.403,7.129-2.384,10.18
	c0.006,1.174,0.016,2.633-0.186,3.253c-0.17,0.521-1.034,1.684-1.666,2.535c-1.75,2.356-4.147,5.583-4.147,9.831
	c0,4.248,2.397,7.476,4.147,9.832c0.632,0.85,1.497,2.014,1.666,2.537c0.201,0.615,0.191,2.076,0.186,3.248
	c-0.02,3.051-0.041,6.847,2.383,10.18c2.442,3.357,6.231,4.556,8.997,5.431c1.104,0.35,2.48,0.784,2.979,1.147
	c0.474,0.345,1.298,1.503,1.96,2.434c0.667,0.938,1.437,2.009,2.362,3.046l2.556,64.451h-20.382v-11.798
	c7.522-2.519,12.965-9.618,12.965-17.977v-20.151c0-3.313-2.687-6-6-6h-25.931c-3.313,0-6,2.687-6,6v20.151
	c0,8.358,5.442,15.458,12.966,17.977v11.798h-23.075c-2.596,0-4.897,1.669-5.703,4.136l-24.126,73.786H42.93
	c-0.706-19.127-5.146-78.117-32.965-102.61c-2.486-2.189-6.278-1.948-8.469,0.539c-2.189,2.486-1.948,6.277,0.539,8.468
	c28.656,25.232,29.027,98.864,29.028,99.605v118.137c0,3.314,2.687,6,6,6c3.313,0,6-2.686,6-6v-31.72h75.704v31.72
	c0,3.314,2.687,6,6,6c3.314,0,6-2.686,6-6v-53.038c15.189,2.253,35.016,4.146,60.203,4.695v25.718l-27.509,17.568
	c-2.247,1.434-3.277,4.18-2.53,6.738c0.748,2.56,3.094,4.318,5.76,4.318h78.516c2.666,0,5.012-1.759,5.76-4.318
	c0.747-2.559-0.283-5.304-2.53-6.738l-27.509-17.568v-25.718c25.187-0.549,45.014-2.442,60.203-4.695v53.038c0,3.314,2.687,6,6,6
	c3.313,0,6-2.686,6-6v-31.72h75.705v31.72c0,3.314,2.686,6,6,6c3.314,0,6-2.686,6-6V258.137c0-0.74,0.371-74.373,29.027-99.605
	C412.351,156.342,412.592,152.551,410.403,150.065z M242.013,144.44v-14.151h13.932v14.151c0,3.841-3.126,6.965-6.967,6.965
	S242.013,148.281,242.013,144.44z M183.065,91.695c-0.938-0.297-2.309-0.731-2.869-1.068c-0.145-0.636-0.136-2.056-0.13-3.028
	c0.013-2.143,0.027-4.57-0.77-7.025c-0.775-2.394-2.195-4.304-3.447-5.988c-0.586-0.789-1.539-2.073-1.756-2.676
	c0.216-0.602,1.17-1.887,1.756-2.676c1.252-1.685,2.672-3.596,3.447-5.986c0.798-2.459,0.783-4.887,0.77-7.029
	c-0.006-0.972-0.015-2.393,0.13-3.027c0.561-0.338,1.932-0.771,2.87-1.068c2.036-0.644,4.345-1.373,6.421-2.886
	c2.059-1.497,3.45-3.454,4.678-5.181c0.574-0.808,1.412-1.986,1.913-2.419c0.657,0.07,1.868,0.472,2.858,0.8
	c2.057,0.683,4.387,1.455,7.016,1.455c2.629,0,4.961-0.773,7.018-1.455c0.984-0.326,2.186-0.726,2.855-0.799
	c0.502,0.435,1.338,1.611,1.912,2.418c1.228,1.726,2.619,3.684,4.678,5.182c2.078,1.512,4.385,2.241,6.42,2.885
	c0.938,0.297,2.311,0.73,2.871,1.069c0.144,0.635,0.135,2.058,0.129,3.03c-0.013,2.141-0.027,4.566,0.77,7.024
	c0.777,2.392,2.195,4.302,3.446,5.985c0.586,0.789,1.542,2.076,1.757,2.678c-0.215,0.604-1.172,1.89-1.758,2.679
	c-1.25,1.684-2.668,3.593-3.445,5.986c-0.797,2.456-0.782,4.882-0.77,7.022c0.006,0.973,0.015,2.396-0.13,3.03
	c-0.56,0.339-1.933,0.772-2.872,1.069c-2.034,0.645-4.341,1.373-6.419,2.886c-2.058,1.497-3.448,3.454-4.677,5.181
	c-0.574,0.807-1.412,1.984-1.913,2.418c-0.657-0.07-1.866-0.471-2.854-0.799c-2.057-0.682-4.389-1.455-7.018-1.455
	c-2.629,0-4.959,0.772-7.017,1.455c-0.985,0.326-2.188,0.725-2.858,0.799c-0.502-0.436-1.34-1.613-1.914-2.42
	c-1.227-1.726-2.619-3.682-4.675-5.178C187.409,93.069,185.102,92.338,183.065,91.695z M212.981,113.856l-2.394,60.358h-9.275
	l-2.394-60.357c1.354-0.281,2.62-0.697,3.794-1.086c1.194-0.396,2.548-0.845,3.239-0.845c0.691,0,2.045,0.449,3.24,0.845
	C210.363,113.16,211.629,113.575,212.981,113.856z M155.955,144.44v-14.151h13.931v14.151c0,3.841-3.124,6.965-6.965,6.965
	C159.08,151.405,155.955,148.281,155.955,144.44z M43.064,264.136h57.03l-4.649,14.22H43.064V264.136z M118.768,332.554H43.064
	v-42.198h48.457l-5.107,15.62c-0.949,2.904,0.435,6.059,3.216,7.325c0.682,0.31,9.49,4.206,29.139,7.922V332.554z M224.664,370.274
	h-37.43l12.966-8.28c1.726-1.102,2.771-3.009,2.771-5.057v-28.854c0.987,0.004,1.976,0.008,2.978,0.008s1.991-0.004,2.979-0.008
	v28.854c0,2.048,1.045,3.954,2.77,5.057L224.664,370.274z M211.95,316.065V237.33c0-3.314-2.686-6-6-6c-3.313,0-6,2.686-6,6v78.733
	c-24.203-0.211-43.686-1.688-59.012-3.599l16.48-73.827c0.723-3.233-1.314-6.44-4.549-7.163c-3.23-0.721-6.439,1.314-7.162,4.549
	l-16.689,74.754c-14.582-2.336-24.133-4.924-29.391-6.602l38.569-117.962h135.504l38.571,117.961
	c-5.264,1.68-14.812,4.267-29.382,6.603l-16.696-74.754c-0.722-3.234-3.932-5.27-7.163-4.549c-3.234,0.723-5.27,3.93-4.548,7.164
	l16.487,73.826C255.643,314.376,236.159,315.854,211.95,316.065z M368.836,332.554h-75.705v-11.331
	c19.649-3.716,28.458-7.612,29.139-7.922c2.781-1.267,4.166-4.421,3.217-7.325l-5.107-15.62h48.457V332.554z M368.836,278.356
	h-52.381l-4.65-14.22h57.031V278.356z"/>
<g>
</g>
<g>
</g>
<g>
</g>
<g>
</g>
<g>
</g>
<g>
</g>
<g>
</g>
<g>
</g>
<g>
</g>
<g>
</g>
<g>
</g>
<g>
</g>
<g>
</g>
<g>
</g>
<g>
</g>
</svg>
