<?xml version='1.0' encoding='utf-8'?>
<!DOCTYPE svg PUBLIC '-//W3C//DTD SVG 1.1//EN' 'http://www.w3.org/Graphics/SVG/1.1/DTD/svg11.dtd'>
<svg version="1.1" xmlns="http://www.w3.org/2000/svg" viewBox="0 0 512 512" xmlns:xlink="http://www.w3.org/1999/xlink" enable-background="new 0 0 512 512">
  <g>
    <g>
      <path d="m125.3,145c-20.8,0-37.6,16.6-37.6,37.1s16.9,37.1 37.6,37.1 37.6-16.6 37.6-37.1-16.8-37.1-37.6-37.1zm0,52.2c-8.5,0-15.4-6.8-15.4-15.1s6.9-15.1 15.4-15.1 15.4,6.8 15.4,15.1-6.9,15.1-15.4,15.1z"/>
      <path d="m491.4,98l-329.7-86.6c-3.2-1-6.4-5.32907e-15-9.5,2.1l-83.8,78.3c-0.5,0.8-56.2,102.3-56.2,102.3-2.1,3.1-2.1,7.3 0,10.4l170.7,291.3c4.2,7.3 15.3,6.6 19.1,0l50.9-95 109.2,3.1c9.4,0 14.2-8.7 9.5-15.7l-68.9-117.5 133.6,35.1c8,2.3 16.6-4.5 13.8-12.5l-31.8-103.4 79.5-74.1c4.6-4.1 4.3-14.7-6.4-17.8zm-243.8,281.9c-4.2,0-7.4,2.1-9.5,5.2l-45.6,83.5-159-269.3 48.7-89.6 102.9,3 159,270.4-96.5-3.2zm151.6-200.4c-3.2,2.1-4.2,6.3-3.2,10.4l27.6,90.8-136.3-36.4-86.4-147.3c-1.1-3.1-5.3-5.2-8.5-5.2l-89.8-2.4 61.1-57.1 305.3,81.4-69.8,65.8z"/>
    </g>
  </g>
</svg>
