<?xml version="1.0" encoding="iso-8859-1"?>
<!-- Generator: Adobe Illustrator 18.1.1, SVG Export Plug-In . SVG Version: 6.00 Build 0)  -->
<svg version="1.1" id="Capa_1" xmlns="http://www.w3.org/2000/svg" xmlns:xlink="http://www.w3.org/1999/xlink" x="0px" y="0px"
	 viewBox="0 0 612.001 612.001" style="enable-background:new 0 0 612.001 612.001;" xml:space="preserve">
<g>
	<g>
		<path d="M607.416,67.76c-3.223-3.223-7.688-4.881-12.231-4.536l-24.713,1.863l-12.533,166.342
			c-0.847,11.196-5.681,21.729-13.609,29.655L239.047,566.365c-1.527,1.527-3.145,2.926-4.835,4.212l30.303,30.303
			c6.107,6.109,16.016,6.112,22.121,0l305.282-305.279c2.645-2.646,4.256-6.151,4.538-9.885l15.5-205.721
			C612.295,75.452,610.641,70.983,607.416,67.76z"/>
		<path d="M526.741,229.076l15.5-205.72c0.343-4.543-1.313-9.013-4.54-12.235c-2.942-2.945-6.928-4.584-11.056-4.584
			c-0.39,0-0.784,0.015-1.176,0.044L319.749,22.084c-3.732,0.282-7.24,1.888-9.887,4.536L4.58,331.901
			c-6.107,6.109-6.107,16.016,0,22.123l190.223,190.221c3.055,3.054,7.057,4.58,11.061,4.58c4.002,0,8.007-1.527,11.061-4.58
			l305.282-305.282C524.853,236.316,526.46,232.81,526.741,229.076z M447.987,160.164c-16.382,16.382-42.945,16.382-59.331,0
			c-16.377-16.382-16.377-42.943,0.003-59.325c16.381-16.382,42.943-16.382,59.327,0
			C464.364,117.221,464.364,143.783,447.987,160.164z"/>
	</g>
</g>
<g>
</g>
<g>
</g>
<g>
</g>
<g>
</g>
<g>
</g>
<g>
</g>
<g>
</g>
<g>
</g>
<g>
</g>
<g>
</g>
<g>
</g>
<g>
</g>
<g>
</g>
<g>
</g>
<g>
</g>
</svg>
