<?xml version="1.0" encoding="UTF-8" standalone="no"?>
<!-- Created with Inkscape (http://www.inkscape.org/) -->

<svg
   xmlns:dc="http://purl.org/dc/elements/1.1/"
   xmlns:cc="http://creativecommons.org/ns#"
   xmlns:rdf="http://www.w3.org/1999/02/22-rdf-syntax-ns#"
   xmlns:svg="http://www.w3.org/2000/svg"
   xmlns="http://www.w3.org/2000/svg"
   xmlns:sodipodi="http://sodipodi.sourceforge.net/DTD/sodipodi-0.dtd"
   xmlns:inkscape="http://www.inkscape.org/namespaces/inkscape"
   width="128mm"
   height="128mm"
   viewBox="0 0 128 128"
   version="1.1"
   id="svg8"
   inkscape:version="0.92.4 (5da689c313, 2019-01-14)"
   sodipodi:docname="tech.svg">
  <defs
     id="defs2" />
  <sodipodi:namedview
     id="base"
     pagecolor="#ffffff"
     bordercolor="#666666"
     borderopacity="1.0"
     inkscape:pageopacity="0.0"
     inkscape:pageshadow="2"
     inkscape:zoom="1.4142136"
     inkscape:cx="315.55057"
     inkscape:cy="210.42096"
     inkscape:document-units="mm"
     inkscape:current-layer="layer1"
     showgrid="false"
     inkscape:window-width="1920"
     inkscape:window-height="1017"
     inkscape:window-x="-8"
     inkscape:window-y="-8"
     inkscape:window-maximized="1" />
  <metadata
     id="metadata5">
    <rdf:RDF>
      <cc:Work
         rdf:about="">
        <dc:format>image/svg+xml</dc:format>
        <dc:type
           rdf:resource="http://purl.org/dc/dcmitype/StillImage" />
        <dc:title />
      </cc:Work>
    </rdf:RDF>
  </metadata>
  <g
     inkscape:label="Layer 1"
     inkscape:groupmode="layer"
     id="layer1"
     transform="translate(0,-169)">
    <g
       transform="matrix(0.13229166,0,0,0.13229167,59.615142,175.20373)"
       id="g964"
       style="stroke:#000000;stroke-width:10.66666698;stroke-miterlimit:4;stroke-dasharray:none;stroke-opacity:1">
      <g
         id="g932"
         style="stroke:#000000;stroke-width:10.66666698;stroke-miterlimit:4;stroke-dasharray:none;stroke-opacity:1">
        <g
           id="g930"
           style="stroke:#000000;stroke-width:10.66666698;stroke-miterlimit:4;stroke-dasharray:none;stroke-opacity:1">
          <path
             inkscape:connector-curvature="0"
             d="m 454.2,189.101 -33.6,-5.7 c -3.5,-11.3 -8,-22.2 -13.5,-32.6 l 19.8,-27.7 c 8.4,-11.8 7.1,-27.9 -3.2,-38.1 l -29.8,-29.8 c -5.6,-5.6 -13,-8.7 -20.9,-8.7 -6.2,0 -12.1,1.9 -17.1,5.5 l -27.8,19.8 c -10.8,-5.7 -22.1,-10.4 -33.8,-13.9 l -5.6,-33.2 c -2.4,-14.3 -14.7,-24.7 -29.2,-24.7 h -42.1 c -14.5,0 -26.8,10.4 -29.2,24.7 l -5.8,34 c -11.2,3.5 -22.1,8.1 -32.5,13.7 l -27.5,-19.8 c -5,-3.6 -11,-5.5 -17.2,-5.5 -7.9,0 -15.4,3.1 -20.9,8.7 l -29.9,29.8 c -10.2,10.2 -11.6,26.3 -3.2,38.1 l 20,28.1 c -5.5,10.5 -9.9,21.4 -13.3,32.7 l -33.2,5.6 c -14.3,2.4 -24.7,14.7 -24.7,29.2 v 42.1 c 0,14.5 10.4,26.8 24.7,29.2 l 34,5.8 c 3.5,11.2 8.1,22.1 13.7,32.5 l -19.7,27.4 c -8.4,11.8 -7.1,27.9 3.2,38.1 l 29.8,29.8 c 5.6,5.6 13,8.7 20.9,8.7 6.2,0 12.1,-1.9 17.1,-5.5 l 28.1,-20 c 10.1,5.3 20.7,9.6 31.6,13 l 5.6,33.6 c 2.4,14.3 14.7,24.7 29.2,24.7 h 42.2 c 14.5,0 26.8,-10.4 29.2,-24.7 l 5.7,-33.6 c 11.3,-3.5 22.2,-8 32.6,-13.5 l 27.7,19.8 c 5,3.6 11,5.5 17.2,5.5 v 0 c 7.9,0 15.3,-3.1 20.9,-8.7 l 29.8,-29.8 c 10.2,-10.2 11.6,-26.3 3.2,-38.1 l -19.8,-27.8 c 5.5,-10.5 10.1,-21.4 13.5,-32.6 l 33.6,-5.6 c 14.3,-2.4 24.7,-14.7 24.7,-29.2 v -42.1 c 0.2,-14.5 -10.2,-26.8 -24.5,-29.2 z m -2.3,71.3 c 0,1.3 -0.9,2.4 -2.2,2.6 l -42,7 c -5.3,0.9 -9.5,4.8 -10.8,9.9 -3.8,14.7 -9.6,28.8 -17.4,41.9 -2.7,4.6 -2.5,10.3 0.6,14.7 l 24.7,34.8 c 0.7,1 0.6,2.5 -0.3,3.4 l -29.8,29.8 c -0.7,0.7 -1.4,0.8 -1.9,0.8 -0.6,0 -1.1,-0.2 -1.5,-0.5 l -34.7,-24.7 c -4.3,-3.1 -10.1,-3.3 -14.7,-0.6 -13.1,7.8 -27.2,13.6 -41.9,17.4 -5.2,1.3 -9.1,5.6 -9.9,10.8 l -7.1,42 c -0.2,1.3 -1.3,2.2 -2.6,2.2 h -42.1 c -1.3,0 -2.4,-0.9 -2.6,-2.2 l -7,-42 c -0.9,-5.3 -4.8,-9.5 -9.9,-10.8 -14.3,-3.7 -28.1,-9.4 -41,-16.8 -2.1,-1.2 -4.5,-1.8 -6.8,-1.8 -2.7,0 -5.5,0.8 -7.8,2.5 l -35,24.9 c -0.5,0.3 -1,0.5 -1.5,0.5 -0.4,0 -1.2,-0.1 -1.9,-0.8 L 75,375.601 c -0.9,-0.9 -1,-2.3 -0.3,-3.4 l 24.6,-34.5 c 3.1,-4.4 3.3,-10.2 0.6,-14.8 -7.8,-13 -13.8,-27.1 -17.6,-41.8 -1.4,-5.1 -5.6,-9 -10.8,-9.9 l -42.3,-7.2 c -1.3,-0.2 -2.2,-1.3 -2.2,-2.6 v -42.1 c 0,-1.3 0.9,-2.4 2.2,-2.6 l 41.7,-7 c 5.3,-0.9 9.6,-4.8 10.9,-10 3.7,-14.7 9.4,-28.9 17.1,-42 2.7,-4.6 2.4,-10.3 -0.7,-14.6 l -24.9,-35 c -0.7,-1 -0.6,-2.5 0.3,-3.4 l 29.8,-29.8 c 0.7,-0.7 1.4,-0.8 1.9,-0.8 0.6,0 1.1,0.2 1.5,0.5 l 34.5,24.6 c 4.4,3.1 10.2,3.3 14.8,0.6 13,-7.8 27.1,-13.8 41.8,-17.6 5.1,-1.4 9,-5.6 9.9,-10.8 l 7.2,-42.3 c 0.2,-1.3 1.3,-2.2 2.6,-2.2 h 42.1 c 1.3,0 2.4,0.9 2.6,2.2 l 7,41.7 c 0.9,5.3 4.8,9.6 10,10.9 15.1,3.8 29.5,9.7 42.9,17.6 4.6,2.7 10.3,2.5 14.7,-0.6 l 34.5,-24.8 c 0.5,-0.3 1,-0.5 1.5,-0.5 0.4,0 1.2,0.1 1.9,0.8 l 29.8,29.8 c 0.9,0.9 1,2.3 0.3,3.4 l -24.7,34.7 c -3.1,4.3 -3.3,10.1 -0.6,14.7 7.8,13.1 13.6,27.2 17.4,41.9 1.3,5.2 5.6,9.1 10.8,9.9 l 42,7.1 c 1.3,0.2 2.2,1.3 2.2,2.6 v 42.1 z"
             id="path926"
             style="stroke:#000000;stroke-width:10.66666698;stroke-miterlimit:4;stroke-dasharray:none;stroke-opacity:1" />
          <path
             inkscape:connector-curvature="0"
             d="m 239.4,136.001 c -57,0 -103.3,46.3 -103.3,103.3 0,57 46.3,103.3 103.3,103.3 57,0 103.3,-46.3 103.3,-103.3 0,-57 -46.3,-103.3 -103.3,-103.3 z m 0,179.6 c -42.1,0 -76.3,-34.2 -76.3,-76.3 0,-42.1 34.2,-76.3 76.3,-76.3 42.1,0 76.3,34.2 76.3,76.3 0,42.1 -34.2,76.3 -76.3,76.3 z"
             id="path928"
             style="stroke:#000000;stroke-width:10.66666698;stroke-miterlimit:4;stroke-dasharray:none;stroke-opacity:1" />
        </g>
      </g>
      <g
         id="g934"
         style="stroke:#000000;stroke-width:10.66666698;stroke-miterlimit:4;stroke-dasharray:none;stroke-opacity:1" />
      <g
         id="g936"
         style="stroke:#000000;stroke-width:10.66666698;stroke-miterlimit:4;stroke-dasharray:none;stroke-opacity:1" />
      <g
         id="g938"
         style="stroke:#000000;stroke-width:10.66666698;stroke-miterlimit:4;stroke-dasharray:none;stroke-opacity:1" />
      <g
         id="g940"
         style="stroke:#000000;stroke-width:10.66666698;stroke-miterlimit:4;stroke-dasharray:none;stroke-opacity:1" />
      <g
         id="g942"
         style="stroke:#000000;stroke-width:10.66666698;stroke-miterlimit:4;stroke-dasharray:none;stroke-opacity:1" />
      <g
         id="g944"
         style="stroke:#000000;stroke-width:10.66666698;stroke-miterlimit:4;stroke-dasharray:none;stroke-opacity:1" />
      <g
         id="g946"
         style="stroke:#000000;stroke-width:10.66666698;stroke-miterlimit:4;stroke-dasharray:none;stroke-opacity:1" />
      <g
         id="g948"
         style="stroke:#000000;stroke-width:10.66666698;stroke-miterlimit:4;stroke-dasharray:none;stroke-opacity:1" />
      <g
         id="g950"
         style="stroke:#000000;stroke-width:10.66666698;stroke-miterlimit:4;stroke-dasharray:none;stroke-opacity:1" />
      <g
         id="g952"
         style="stroke:#000000;stroke-width:10.66666698;stroke-miterlimit:4;stroke-dasharray:none;stroke-opacity:1" />
      <g
         id="g954"
         style="stroke:#000000;stroke-width:10.66666698;stroke-miterlimit:4;stroke-dasharray:none;stroke-opacity:1" />
      <g
         id="g956"
         style="stroke:#000000;stroke-width:10.66666698;stroke-miterlimit:4;stroke-dasharray:none;stroke-opacity:1" />
      <g
         id="g958"
         style="stroke:#000000;stroke-width:10.66666698;stroke-miterlimit:4;stroke-dasharray:none;stroke-opacity:1" />
      <g
         id="g960"
         style="stroke:#000000;stroke-width:10.66666698;stroke-miterlimit:4;stroke-dasharray:none;stroke-opacity:1" />
      <g
         id="g962"
         style="stroke:#000000;stroke-width:10.66666698;stroke-miterlimit:4;stroke-dasharray:none;stroke-opacity:1" />
    </g>
    <g
       style="stroke:#000000;stroke-width:10.66666698;stroke-miterlimit:4;stroke-dasharray:none;stroke-opacity:1"
       id="g1004"
       transform="matrix(0.13229166,0,0,0.13229167,4.4401173,230.97213)">
      <g
         style="stroke:#000000;stroke-width:10.66666698;stroke-miterlimit:4;stroke-dasharray:none;stroke-opacity:1"
         id="g972">
        <g
           style="stroke:#000000;stroke-width:10.66666698;stroke-miterlimit:4;stroke-dasharray:none;stroke-opacity:1"
           id="g970">
          <path
             style="stroke:#000000;stroke-width:10.66666698;stroke-miterlimit:4;stroke-dasharray:none;stroke-opacity:1"
             id="path966"
             d="m 454.2,189.101 -33.6,-5.7 c -3.5,-11.3 -8,-22.2 -13.5,-32.6 l 19.8,-27.7 c 8.4,-11.8 7.1,-27.9 -3.2,-38.1 l -29.8,-29.8 c -5.6,-5.6 -13,-8.7 -20.9,-8.7 -6.2,0 -12.1,1.9 -17.1,5.5 l -27.8,19.8 c -10.8,-5.7 -22.1,-10.4 -33.8,-13.9 l -5.6,-33.2 c -2.4,-14.3 -14.7,-24.7 -29.2,-24.7 h -42.1 c -14.5,0 -26.8,10.4 -29.2,24.7 l -5.8,34 c -11.2,3.5 -22.1,8.1 -32.5,13.7 l -27.5,-19.8 c -5,-3.6 -11,-5.5 -17.2,-5.5 -7.9,0 -15.4,3.1 -20.9,8.7 l -29.9,29.8 c -10.2,10.2 -11.6,26.3 -3.2,38.1 l 20,28.1 c -5.5,10.5 -9.9,21.4 -13.3,32.7 l -33.2,5.6 c -14.3,2.4 -24.7,14.7 -24.7,29.2 v 42.1 c 0,14.5 10.4,26.8 24.7,29.2 l 34,5.8 c 3.5,11.2 8.1,22.1 13.7,32.5 l -19.7,27.4 c -8.4,11.8 -7.1,27.9 3.2,38.1 l 29.8,29.8 c 5.6,5.6 13,8.7 20.9,8.7 6.2,0 12.1,-1.9 17.1,-5.5 l 28.1,-20 c 10.1,5.3 20.7,9.6 31.6,13 l 5.6,33.6 c 2.4,14.3 14.7,24.7 29.2,24.7 h 42.2 c 14.5,0 26.8,-10.4 29.2,-24.7 l 5.7,-33.6 c 11.3,-3.5 22.2,-8 32.6,-13.5 l 27.7,19.8 c 5,3.6 11,5.5 17.2,5.5 v 0 c 7.9,0 15.3,-3.1 20.9,-8.7 l 29.8,-29.8 c 10.2,-10.2 11.6,-26.3 3.2,-38.1 l -19.8,-27.8 c 5.5,-10.5 10.1,-21.4 13.5,-32.6 l 33.6,-5.6 c 14.3,-2.4 24.7,-14.7 24.7,-29.2 v -42.1 c 0.2,-14.5 -10.2,-26.8 -24.5,-29.2 z m -2.3,71.3 c 0,1.3 -0.9,2.4 -2.2,2.6 l -42,7 c -5.3,0.9 -9.5,4.8 -10.8,9.9 -3.8,14.7 -9.6,28.8 -17.4,41.9 -2.7,4.6 -2.5,10.3 0.6,14.7 l 24.7,34.8 c 0.7,1 0.6,2.5 -0.3,3.4 l -29.8,29.8 c -0.7,0.7 -1.4,0.8 -1.9,0.8 -0.6,0 -1.1,-0.2 -1.5,-0.5 l -34.7,-24.7 c -4.3,-3.1 -10.1,-3.3 -14.7,-0.6 -13.1,7.8 -27.2,13.6 -41.9,17.4 -5.2,1.3 -9.1,5.6 -9.9,10.8 l -7.1,42 c -0.2,1.3 -1.3,2.2 -2.6,2.2 h -42.1 c -1.3,0 -2.4,-0.9 -2.6,-2.2 l -7,-42 c -0.9,-5.3 -4.8,-9.5 -9.9,-10.8 -14.3,-3.7 -28.1,-9.4 -41,-16.8 -2.1,-1.2 -4.5,-1.8 -6.8,-1.8 -2.7,0 -5.5,0.8 -7.8,2.5 l -35,24.9 c -0.5,0.3 -1,0.5 -1.5,0.5 -0.4,0 -1.2,-0.1 -1.9,-0.8 L 75,375.601 c -0.9,-0.9 -1,-2.3 -0.3,-3.4 l 24.6,-34.5 c 3.1,-4.4 3.3,-10.2 0.6,-14.8 -7.8,-13 -13.8,-27.1 -17.6,-41.8 -1.4,-5.1 -5.6,-9 -10.8,-9.9 l -42.3,-7.2 c -1.3,-0.2 -2.2,-1.3 -2.2,-2.6 v -42.1 c 0,-1.3 0.9,-2.4 2.2,-2.6 l 41.7,-7 c 5.3,-0.9 9.6,-4.8 10.9,-10 3.7,-14.7 9.4,-28.9 17.1,-42 2.7,-4.6 2.4,-10.3 -0.7,-14.6 l -24.9,-35 c -0.7,-1 -0.6,-2.5 0.3,-3.4 l 29.8,-29.8 c 0.7,-0.7 1.4,-0.8 1.9,-0.8 0.6,0 1.1,0.2 1.5,0.5 l 34.5,24.6 c 4.4,3.1 10.2,3.3 14.8,0.6 13,-7.8 27.1,-13.8 41.8,-17.6 5.1,-1.4 9,-5.6 9.9,-10.8 l 7.2,-42.3 c 0.2,-1.3 1.3,-2.2 2.6,-2.2 h 42.1 c 1.3,0 2.4,0.9 2.6,2.2 l 7,41.7 c 0.9,5.3 4.8,9.6 10,10.9 15.1,3.8 29.5,9.7 42.9,17.6 4.6,2.7 10.3,2.5 14.7,-0.6 l 34.5,-24.8 c 0.5,-0.3 1,-0.5 1.5,-0.5 0.4,0 1.2,0.1 1.9,0.8 l 29.8,29.8 c 0.9,0.9 1,2.3 0.3,3.4 l -24.7,34.7 c -3.1,4.3 -3.3,10.1 -0.6,14.7 7.8,13.1 13.6,27.2 17.4,41.9 1.3,5.2 5.6,9.1 10.8,9.9 l 42,7.1 c 1.3,0.2 2.2,1.3 2.2,2.6 v 42.1 z"
             inkscape:connector-curvature="0" />
          <path
             style="stroke:#000000;stroke-width:10.66666698;stroke-miterlimit:4;stroke-dasharray:none;stroke-opacity:1"
             id="path968"
             d="m 239.4,136.001 c -57,0 -103.3,46.3 -103.3,103.3 0,57 46.3,103.3 103.3,103.3 57,0 103.3,-46.3 103.3,-103.3 0,-57 -46.3,-103.3 -103.3,-103.3 z m 0,179.6 c -42.1,0 -76.3,-34.2 -76.3,-76.3 0,-42.1 34.2,-76.3 76.3,-76.3 42.1,0 76.3,34.2 76.3,76.3 0,42.1 -34.2,76.3 -76.3,76.3 z"
             inkscape:connector-curvature="0" />
        </g>
      </g>
      <g
         style="stroke:#000000;stroke-width:10.66666698;stroke-miterlimit:4;stroke-dasharray:none;stroke-opacity:1"
         id="g974" />
      <g
         style="stroke:#000000;stroke-width:10.66666698;stroke-miterlimit:4;stroke-dasharray:none;stroke-opacity:1"
         id="g976" />
      <g
         style="stroke:#000000;stroke-width:10.66666698;stroke-miterlimit:4;stroke-dasharray:none;stroke-opacity:1"
         id="g978" />
      <g
         style="stroke:#000000;stroke-width:10.66666698;stroke-miterlimit:4;stroke-dasharray:none;stroke-opacity:1"
         id="g980" />
      <g
         style="stroke:#000000;stroke-width:10.66666698;stroke-miterlimit:4;stroke-dasharray:none;stroke-opacity:1"
         id="g982" />
      <g
         style="stroke:#000000;stroke-width:10.66666698;stroke-miterlimit:4;stroke-dasharray:none;stroke-opacity:1"
         id="g984" />
      <g
         style="stroke:#000000;stroke-width:10.66666698;stroke-miterlimit:4;stroke-dasharray:none;stroke-opacity:1"
         id="g986" />
      <g
         style="stroke:#000000;stroke-width:10.66666698;stroke-miterlimit:4;stroke-dasharray:none;stroke-opacity:1"
         id="g988" />
      <g
         style="stroke:#000000;stroke-width:10.66666698;stroke-miterlimit:4;stroke-dasharray:none;stroke-opacity:1"
         id="g990" />
      <g
         style="stroke:#000000;stroke-width:10.66666698;stroke-miterlimit:4;stroke-dasharray:none;stroke-opacity:1"
         id="g992" />
      <g
         style="stroke:#000000;stroke-width:10.66666698;stroke-miterlimit:4;stroke-dasharray:none;stroke-opacity:1"
         id="g994" />
      <g
         style="stroke:#000000;stroke-width:10.66666698;stroke-miterlimit:4;stroke-dasharray:none;stroke-opacity:1"
         id="g996" />
      <g
         style="stroke:#000000;stroke-width:10.66666698;stroke-miterlimit:4;stroke-dasharray:none;stroke-opacity:1"
         id="g998" />
      <g
         style="stroke:#000000;stroke-width:10.66666698;stroke-miterlimit:4;stroke-dasharray:none;stroke-opacity:1"
         id="g1000" />
      <g
         style="stroke:#000000;stroke-width:10.66666698;stroke-miterlimit:4;stroke-dasharray:none;stroke-opacity:1"
         id="g1002" />
    </g>
    <g
       id="g916"
       transform="rotate(45,-182.82129,91.111719)"
       style="stroke:#000000;stroke-width:0.70555556;stroke-miterlimit:4;stroke-dasharray:none;stroke-opacity:1">
      <path
         style="stroke:#000000;stroke-width:2.11666656;stroke-miterlimit:4;stroke-dasharray:none;stroke-opacity:1"
         inkscape:connector-curvature="0"
         d="m 19.57123,23.420833 c -1.5875,0 -2.21721,-2.243666 -2.88396,-4.614332 -0.48154,-1.7145 -1.08479,-3.852334 -1.87854,-3.852334 -1.793876,0 -1.852084,3.667126 -1.852084,3.704166 h -1.058334 c 0,-0.1958 0.03174,-4.7625 2.910418,-4.7625 1.5875,0 2.22779,2.24896 2.89454,4.624918 0.455084,1.61925 1.07421,3.84175 1.86796,3.84175 1.820332,0 1.867958,-3.667126 1.867958,-3.704168 h 1.058332 c 0,0.1958 -0.03176,4.7625 -2.92629,4.7625 z"
         id="path860" />
      <path
         id="path870"
         d="m 29.112104,23.420833 c -1.5875,0 -2.21721,-2.243666 -2.88396,-4.614332 -0.48154,-1.7145 -1.08479,-3.852334 -1.87854,-3.852334 -1.793876,0 -1.852084,3.667126 -1.852084,3.704166 h -1.058334 c 0,-0.1958 0.03174,-4.7625 2.910418,-4.7625 1.5875,0 2.22779,2.24896 2.89454,4.624918 0.455084,1.61925 1.07421,3.84175 1.86796,3.84175 1.820332,0 1.867958,-3.667126 1.867958,-3.704168 h 1.058332 c 0,0.1958 -0.03176,4.7625 -2.92629,4.7625 z"
         inkscape:connector-curvature="0"
         style="stroke:#000000;stroke-width:2.11666656;stroke-miterlimit:4;stroke-dasharray:none;stroke-opacity:1" />
      <path
         id="path872"
         d="m 38.652978,23.420833 c -1.5875,0 -2.21721,-2.243666 -2.88396,-4.614332 -0.48154,-1.7145 -1.08479,-3.852334 -1.87854,-3.852334 -1.793876,0 -1.852084,3.667126 -1.852084,3.704166 H 30.98006 c 0,-0.1958 0.03174,-4.7625 2.910418,-4.7625 1.5875,0 2.22779,2.24896 2.89454,4.624918 0.455084,1.61925 1.07421,3.84175 1.86796,3.84175 1.820332,0 1.867958,-3.667126 1.867958,-3.704168 h 1.058332 c 0,0.1958 -0.03176,4.7625 -2.92629,4.7625 z"
         inkscape:connector-curvature="0"
         style="stroke:#000000;stroke-width:2.11666656;stroke-miterlimit:4;stroke-dasharray:none;stroke-opacity:1" />
      <path
         style="stroke:#000000;stroke-width:2.11666656;stroke-miterlimit:4;stroke-dasharray:none;stroke-opacity:1"
         inkscape:connector-curvature="0"
         d="m 48.193852,23.420833 c -1.5875,0 -2.21721,-2.243666 -2.88396,-4.614332 -0.48154,-1.7145 -1.08479,-3.852334 -1.87854,-3.852334 -1.793876,0 -1.852084,3.667126 -1.852084,3.704166 h -1.058334 c 0,-0.1958 0.03174,-4.7625 2.910418,-4.7625 1.5875,0 2.22779,2.24896 2.89454,4.624918 0.455084,1.61925 1.07421,3.84175 1.86796,3.84175 1.820332,0 1.867958,-3.667126 1.867958,-3.704168 h 1.058332 c 0,0.1958 -0.03176,4.7625 -2.92629,4.7625 z"
         id="path874" />
      <path
         id="path876"
         d="m 57.734726,23.420833 c -1.5875,0 -2.21721,-2.243666 -2.88396,-4.614332 -0.48154,-1.7145 -1.08479,-3.852334 -1.87854,-3.852334 -1.793876,0 -1.852084,3.667126 -1.852084,3.704166 h -1.058334 c 0,-0.1958 0.03174,-4.7625 2.910418,-4.7625 1.5875,0 2.22779,2.24896 2.89454,4.624918 0.455084,1.61925 1.07421,3.84175 1.86796,3.84175 1.820332,0 1.867958,-3.667126 1.867958,-3.704168 h 1.058332 c 0,0.1958 -0.03176,4.7625 -2.92629,4.7625 z"
         inkscape:connector-curvature="0"
         style="stroke:#000000;stroke-width:2.11666656;stroke-miterlimit:4;stroke-dasharray:none;stroke-opacity:1" />
      <path
         style="stroke:#000000;stroke-width:2.11666656;stroke-miterlimit:4;stroke-dasharray:none;stroke-opacity:1"
         inkscape:connector-curvature="0"
         d="m 67.2756,23.420833 c -1.5875,0 -2.21721,-2.243666 -2.88396,-4.614332 -0.48154,-1.7145 -1.08479,-3.852334 -1.87854,-3.852334 -1.793876,0 -1.852084,3.667126 -1.852084,3.704166 h -1.058334 c 0,-0.1958 0.03174,-4.7625 2.910418,-4.7625 1.5875,0 2.22779,2.24896 2.89454,4.624918 0.455084,1.61925 1.07421,3.84175 1.86796,3.84175 1.820332,0 1.867958,-3.667126 1.867958,-3.704168 h 1.058332 c 0,0.1958 -0.03176,4.7625 -2.92629,4.7625 z"
         id="path878" />
      <path
         style="stroke:#000000;stroke-width:2.11666656;stroke-miterlimit:4;stroke-dasharray:none;stroke-opacity:1"
         inkscape:connector-curvature="0"
         d="m 76.816474,23.420833 c -1.5875,0 -2.21721,-2.243666 -2.88396,-4.614332 -0.48154,-1.7145 -1.08479,-3.852334 -1.87854,-3.852334 -1.793876,0 -1.852084,3.667126 -1.852084,3.704166 h -1.058334 c 0,-0.1958 0.03174,-4.7625 2.910418,-4.7625 1.5875,0 2.22779,2.24896 2.89454,4.624918 0.455084,1.61925 1.07421,3.84175 1.86796,3.84175 1.820332,0 1.867958,-3.667126 1.867958,-3.704168 h 1.058332 c 0,0.1958 -0.03176,4.7625 -2.92629,4.7625 z"
         id="path880" />
      <path
         id="path882"
         d="m 86.357348,23.420833 c -1.5875,0 -2.21721,-2.243666 -2.88396,-4.614332 -0.48154,-1.7145 -1.08479,-3.852334 -1.87854,-3.852334 -1.793876,0 -1.852084,3.667126 -1.852084,3.704166 H 78.68443 c 0,-0.1958 0.03174,-4.7625 2.910418,-4.7625 1.5875,0 2.22779,2.24896 2.89454,4.624918 0.455084,1.61925 1.07421,3.84175 1.86796,3.84175 1.820332,0 1.867958,-3.667126 1.867958,-3.704168 h 1.058332 c 0,0.1958 -0.03176,4.7625 -2.92629,4.7625 z"
         inkscape:connector-curvature="0"
         style="stroke:#000000;stroke-width:2.11666656;stroke-miterlimit:4;stroke-dasharray:none;stroke-opacity:1" />
      <path
         id="path884"
         d="m 95.898222,23.420833 c -1.5875,0 -2.21721,-2.243666 -2.88396,-4.614332 -0.48154,-1.7145 -1.08479,-3.852334 -1.87854,-3.852334 -1.793876,0 -1.852084,3.667126 -1.852084,3.704166 h -1.058334 c 0,-0.1958 0.03174,-4.7625 2.910418,-4.7625 1.5875,0 2.22779,2.24896 2.89454,4.624918 0.455084,1.61925 1.07421,3.84175 1.86796,3.84175 1.820332,0 1.867958,-3.667126 1.867958,-3.704168 h 1.058332 c 0,0.1958 -0.03176,4.7625 -2.92629,4.7625 z"
         inkscape:connector-curvature="0"
         style="stroke:#000000;stroke-width:2.11666656;stroke-miterlimit:4;stroke-dasharray:none;stroke-opacity:1" />
      <path
         style="stroke:#000000;stroke-width:2.11666656;stroke-miterlimit:4;stroke-dasharray:none;stroke-opacity:1"
         inkscape:connector-curvature="0"
         d="m 105.4391,23.420833 c -1.5875,0 -2.21721,-2.243666 -2.88396,-4.614332 -0.48154,-1.7145 -1.08479,-3.852334 -1.87854,-3.852334 -1.79388,0 -1.852088,3.667126 -1.852088,3.704166 h -1.058334 c 0,-0.1958 0.03174,-4.7625 2.910422,-4.7625 1.5875,0 2.22779,2.24896 2.89454,4.624918 0.45508,1.61925 1.07421,3.84175 1.86796,3.84175 1.82033,0 1.86795,-3.667126 1.86795,-3.704168 h 1.05834 c 0,0.1958 -0.0318,4.7625 -2.92629,4.7625 z"
         id="path886" />
      <path
         style="stroke:#000000;stroke-width:2.11666656;stroke-miterlimit:4;stroke-dasharray:none;stroke-opacity:1"
         inkscape:connector-curvature="0"
         d="m 114.97997,23.420833 c -1.5875,0 -2.21721,-2.243666 -2.88396,-4.614332 -0.48154,-1.7145 -1.08479,-3.852334 -1.87854,-3.852334 -1.79388,0 -1.85208,3.667126 -1.85208,3.704166 h -1.05834 c 0,-0.1958 0.0317,-4.7625 2.91042,-4.7625 1.5875,0 2.22779,2.24896 2.89454,4.624918 0.45508,1.61925 1.07421,3.84175 1.86796,3.84175 1.82033,0 1.86796,-3.667126 1.86796,-3.704168 h 1.05833 c 0,0.1958 -0.0318,4.7625 -2.92629,4.7625 z"
         id="path888" />
      <path
         id="path890"
         d="m 124.52084,23.420833 c -1.5875,0 -2.21721,-2.243666 -2.88396,-4.614332 -0.48154,-1.7145 -1.08479,-3.852334 -1.87854,-3.852334 -1.79387,0 -1.85208,3.667126 -1.85208,3.704166 h -1.05833 c 0,-0.1958 0.0317,-4.7625 2.91041,-4.7625 1.5875,0 2.22779,2.24896 2.89454,4.624918 0.45509,1.61925 1.07421,3.84175 1.86796,3.84175 1.82034,0 1.86796,-3.667126 1.86796,-3.704168 h 1.05833 c 0,0.1958 -0.0318,4.7625 -2.92629,4.7625 z"
         inkscape:connector-curvature="0"
         style="stroke:#000000;stroke-width:2.11666656;stroke-miterlimit:4;stroke-dasharray:none;stroke-opacity:1" />
      <path
         style="stroke:#000000;stroke-width:2.11666656;stroke-miterlimit:4;stroke-dasharray:none;stroke-opacity:1"
         inkscape:connector-curvature="0"
         d="m 134.06172,23.420833 c -1.5875,0 -2.21721,-2.243666 -2.88396,-4.614332 -0.48154,-1.7145 -1.08479,-3.852334 -1.87854,-3.852334 -1.79388,0 -1.85209,3.667126 -1.85209,3.704166 h -1.05833 c 0,-0.1958 0.0317,-4.7625 2.91042,-4.7625 1.5875,0 2.22779,2.24896 2.89454,4.624918 0.45508,1.61925 1.07421,3.84175 1.86796,3.84175 1.82033,0 1.86796,-3.667126 1.86796,-3.704168 h 1.05833 c 0,0.1958 -0.0318,4.7625 -2.92629,4.7625 z"
         id="path892" />
      <path
         id="path894"
         d="m 143.60259,23.420833 c -1.5875,0 -2.21721,-2.243666 -2.88396,-4.614332 -0.48154,-1.7145 -1.08479,-3.852334 -1.87854,-3.852334 -1.79387,0 -1.85208,3.667126 -1.85208,3.704166 h -1.05834 c 0,-0.1958 0.0317,-4.7625 2.91042,-4.7625 1.5875,0 2.22779,2.24896 2.89454,4.624918 0.45509,1.61925 1.07421,3.84175 1.86796,3.84175 1.82033,0 1.86796,-3.667126 1.86796,-3.704168 h 1.05833 c 0,0.1958 -0.0318,4.7625 -2.92629,4.7625 z"
         inkscape:connector-curvature="0"
         style="stroke:#000000;stroke-width:2.11666656;stroke-miterlimit:4;stroke-dasharray:none;stroke-opacity:1" />
      <path
         id="path896"
         d="m 153.14347,23.420833 c -1.5875,0 -2.21721,-2.243666 -2.88396,-4.614332 -0.48154,-1.7145 -1.08479,-3.852334 -1.87854,-3.852334 -1.79388,0 -1.85209,3.667126 -1.85209,3.704166 h -1.05833 c 0,-0.1958 0.0317,-4.7625 2.91042,-4.7625 1.5875,0 2.22779,2.24896 2.89454,4.624918 0.45508,1.61925 1.07421,3.84175 1.86796,3.84175 1.82033,0 1.86795,-3.667126 1.86795,-3.704168 h 1.05834 c 0,0.1958 -0.0318,4.7625 -2.92629,4.7625 z"
         inkscape:connector-curvature="0"
         style="stroke:#000000;stroke-width:2.11666656;stroke-miterlimit:4;stroke-dasharray:none;stroke-opacity:1" />
      <path
         style="stroke:#000000;stroke-width:2.11666656;stroke-miterlimit:4;stroke-dasharray:none;stroke-opacity:1"
         inkscape:connector-curvature="0"
         d="m 162.68434,23.420833 c -1.5875,0 -2.21721,-2.243666 -2.88396,-4.614332 -0.48154,-1.7145 -1.08479,-3.852334 -1.87854,-3.852334 -1.79388,0 -1.85208,3.667126 -1.85208,3.704166 h -1.05834 c 0,-0.1958 0.0317,-4.7625 2.91042,-4.7625 1.5875,0 2.22779,2.24896 2.89454,4.624918 0.45508,1.61925 1.07421,3.84175 1.86796,3.84175 1.82033,0 1.86796,-3.667126 1.86796,-3.704168 h 1.05833 c 0,0.1958 -0.0318,4.7625 -2.92629,4.7625 z"
         id="path898" />
    </g>
  </g>
</svg>
