<svg xmlns="http://www.w3.org/2000/svg" width="24" height="24" viewBox="0 0 24 24"><path d="M19 18c0 1.104-.896 2-2 2s-2-.896-2-2 .896-2 2-2 2 .896 2 2zm-14-3c-1.654 0-3 1.346-3 3s1.346 3 3 3h14c1.654 0 3-1.346 3-3s-1.346-3-3-3h-14zm19 3c0 2.761-2.239 5-5 5h-14c-2.761 0-5-2.239-5-5s2.239-5 5-5h14c2.761 0 5 2.239 5 5zm-17-14c-1.104 0-2 .896-2 2s.896 2 2 2 2-.896 2-2-.896-2-2-2zm-2-1c-1.654 0-3 1.346-3 3s1.346 3 3 3h14c1.654 0 3-1.346 3-3s-1.346-3-3-3h-14zm19 3c0 2.761-2.239 5-5 5h-14c-2.761 0-5-2.239-5-5s2.239-5 5-5h14c2.761 0 5 2.239 5 5z"/></svg>