<?xml version="1.0" encoding="iso-8859-1"?>
<!-- Generator: Adobe Illustrator 19.0.0, SVG Export Plug-In . SVG Version: 6.00 Build 0)  -->
<svg version="1.1" id="Capa_1" xmlns="http://www.w3.org/2000/svg" xmlns:xlink="http://www.w3.org/1999/xlink" x="0px" y="0px"
	 viewBox="0 0 512 512" style="enable-background:new 0 0 512 512;" xml:space="preserve">
<polygon style="fill:#FFCC33;" points="136,346 27.074,321.537 16,286 136,226 256,286 243.497,322.251 "/>
<polygon style="fill:#FEA832;" points="136,512 16,451 16,286 136,346 166,389.154 166,467.889 "/>
<polygon style="fill:#FE9923;" points="256,451 136,512 136,346 256,286 "/>
<polygon style="fill:#32D736;" points="376,346 267.074,321.537 256,286 376,226 496,286 483.497,322.251 "/>
<polygon style="fill:#10BB67;" points="376,512 256,451 256,286 376,346 406,389.154 406,467.889 "/>
<polygon style="fill:#0CA656;" points="496,451 376,512 376,346 496,286 "/>
<polygon style="fill:#FF507E;" points="256,121 147.074,96.537 136,61 256,0 376,61 363.497,97.251 "/>
<polygon style="fill:#F40F78;" points="256,286 136,226 136,61 256,121 286,164.154 286,242.889 "/>
<polygon style="fill:#CE0067;" points="376,226 256,286 256,121 376,61 "/>
<g>
</g>
<g>
</g>
<g>
</g>
<g>
</g>
<g>
</g>
<g>
</g>
<g>
</g>
<g>
</g>
<g>
</g>
<g>
</g>
<g>
</g>
<g>
</g>
<g>
</g>
<g>
</g>
<g>
</g>
</svg>
