<?xml version="1.0" encoding="iso-8859-1"?>
<!-- Uploaded to: SVG Repo, www.svgrepo.com, Generator: SVG Repo Mixer Tools -->
<svg fill="#000000" version="1.1" id="Layer_1" xmlns="http://www.w3.org/2000/svg" xmlns:xlink="http://www.w3.org/1999/xlink" 
	 viewBox="0 0 491.52 491.52" xml:space="preserve">
<g>
	<g>
		<path d="M301.39,202.11v-46.66l-28.59-4.76c-1.92-6.45-4.48-12.65-7.66-18.53l16.85-23.57l-33-32.99l-23.58,16.83
			c-5.88-3.17-12.08-5.73-18.52-7.65l-4.78-28.6h-46.66l-4.76,28.6c-6.45,1.92-12.65,4.48-18.53,7.65L108.59,75.6L75.6,108.59
			l16.83,23.57c-3.17,5.88-5.73,12.08-7.65,18.53l-28.6,4.76v46.66l28.6,4.78c1.92,6.44,4.48,12.64,7.65,18.52L75.6,248.99l32.99,33
			l23.57-16.85c5.88,3.18,12.08,5.74,18.53,7.66l4.76,28.59h46.66l4.78-28.59c6.44-1.92,12.64-4.48,18.52-7.66l23.58,16.85l33-33
			l-16.85-23.58c3.18-5.88,5.74-12.08,7.66-18.52L301.39,202.11z M256.06,188.92l-1.5,6.74c-1.97,8.88-5.42,17.22-10.24,24.79
			l-3.72,5.84l14.63,20.48l-8.46,8.46l-20.48-14.63l-5.84,3.72c-7.57,4.82-15.91,8.27-24.79,10.24l-6.74,1.5l-4.15,24.85h-11.96
			l-4.14-24.85l-6.75-1.5c-8.89-1.97-17.24-5.42-24.8-10.24l-5.84-3.72l-20.47,14.63l-8.47-8.46l14.63-20.48l-3.71-5.83
			c-4.83-7.58-8.27-15.92-10.24-24.8l-1.5-6.74l-24.86-4.15v-11.96l24.86-4.14l1.5-6.75c1.97-8.89,5.42-17.23,10.24-24.81l3.71-5.83
			l-14.63-20.47l8.47-8.47l20.47,14.63l5.83-3.71c7.58-4.82,15.92-8.27,24.81-10.24l6.75-1.5l4.14-24.86h11.96l4.15,24.86l6.74,1.5
			c8.88,1.97,17.22,5.41,24.8,10.24l5.83,3.71l20.48-14.63l8.46,8.47l-14.63,20.47l3.72,5.84c4.82,7.56,8.27,15.91,10.24,24.8
			l1.5,6.75l24.85,4.14v11.96L256.06,188.92z"/>
	</g>
</g>
<g>
	<g>
		<path d="M207.7,149.88c-15.94-15.94-41.88-15.94-57.82,0s-15.94,41.88,0,57.82c7.97,7.97,18.44,11.96,28.91,11.96
			c10.47,0,20.94-3.99,28.91-11.96C223.64,191.76,223.64,165.82,207.7,149.88z M193.22,193.22c-7.96,7.96-20.9,7.96-28.86,0
			c-7.96-7.96-7.96-20.9,0-28.86c3.98-3.98,9.2-5.97,14.43-5.97c5.23,0,10.45,1.99,14.43,5.97
			C201.18,172.32,201.18,185.26,193.22,193.22z"/>
	</g>
</g>
<g>
	<g>
		<path d="M472.06,378.13l-80.15-80.16c-7.99-7.99-21-7.97-28.97,0l-9.355,9.355l-27.463-27.463
			C373.9,210.265,367.011,114.171,305.21,52.37C271.44,18.6,226.55,0,178.79,0C131.03,0,86.14,18.6,52.37,52.37
			C18.6,86.14,0,131.03,0,178.79c0,47.76,18.6,92.65,52.37,126.42c34.85,34.86,80.64,52.28,126.42,52.28
			c35.392,0,70.728-10.535,101.073-31.367l27.462,27.462l-9.355,9.355c-7.99,7.99-7.99,20.98,0,28.97l80.16,80.15
			c12.54,12.55,29.22,19.46,46.97,19.46c17.74,0,34.42-6.91,46.96-19.46c12.55-12.54,19.46-29.22,19.46-46.96
			C491.52,407.35,484.61,390.67,472.06,378.13z M66.85,290.73c-29.9-29.9-46.37-69.65-46.37-111.94
			c0-42.29,16.47-82.04,46.37-111.94c29.9-29.9,69.65-46.37,111.94-46.37c42.29,0,82.04,16.47,111.94,46.37
			c61.72,61.72,61.72,162.16,0,223.88S128.57,352.45,66.85,290.73z M296.122,313.422c3.066-2.676,6.168-5.292,9.088-8.212
			c2.92-2.92,5.537-6.021,8.212-9.088l25.683,25.683l-17.3,17.3L296.122,313.422z M457.58,457.58
			c-8.68,8.68-20.22,13.46-32.48,13.46c-12.27,0-23.81-4.78-32.49-13.46l-80.17-80.15l64.99-64.98l80.15,80.16
			c8.68,8.68,13.46,20.22,13.46,32.49C471.04,437.36,466.26,448.9,457.58,457.58z"/>
	</g>
</g>
<g>
	<g>
		
			<rect x="374.43" y="374.415" transform="matrix(0.7071 -0.7071 0.7071 0.7071 -159.3253 384.6643)" width="20.48" height="20.48"/>
	</g>
</g>
<g>
	<g>
		
			<rect x="403.298" y="403.354" transform="matrix(0.7071 -0.7071 0.7071 0.7071 -171.3324 413.553)" width="20.48" height="20.48"/>
	</g>
</g>
</svg>