<svg height="512pt" viewBox="0 0 512 512" width="512pt" xmlns="http://www.w3.org/2000/svg"><path d="m64.125 249.894531 34.992188 55.574219 33.296874-56.605469 63.667969-16.105469-43.546875-49.160156 4.355469-65.527344-60.207031 26.222657-60.976563-24.394531 6.332031 65.367187-42.039062 50.453125zm59.480469-84.523437-1.914063 28.765625 19.117188 21.578125-27.949219 7.070312-14.613281 24.847656-15.359375-24.394531-28.152344-6.222656 18.457031-22.144531-2.78125-28.695313 26.765625 10.707031zm0 0"/><path d="m315.917969 232.757812 63.667969 16.105469 33.296874 56.605469 34.992188-55.574219 64.125-14.175781-42.042969-50.453125 6.335938-65.367187-60.976563 24.394531-60.210937-26.226563 4.359375 65.53125zm141.347656-15.742187-28.148437 6.222656-15.359376 24.394531-14.617187-24.847656-27.949219-7.070312 19.117188-21.578125-1.914063-28.765625 26.429688 11.511718 26.765625-10.710937-2.777344 28.695313zm0 0"/><path d="m195.402344 186.503906 60.597656-25.308594 60.597656 25.308594-5.34375-65.453125 42.796875-49.8125-63.902343-15.140625-34.148438-56.097656-34.148438 56.097656-63.902343 15.140625 42.796875 49.8125zm75.585937-104.039062 28.050781 6.648437-18.785156 21.863281 2.347656 28.734376-26.601562-11.113282-26.601562 11.113282 2.347656-28.734376-18.789063-21.867187 28.050781-6.644531 14.992188-24.625zm0 0"/><path d="m48.476562 351.25v104.933594h415.050782v-104.933594zm384.972657 74.855469h-98.25v-44.777344h98.25zm-128.324219 0h-98.25v-44.777344h98.25zm-128.324219 0h-98.25v-44.777344h98.25zm0 0"/><path d="m191.835938 287.089844h128.328124v30.074218h-128.328124zm0 0"/></svg>