<?xml version="1.0" encoding="UTF-8" standalone="no"?>
<svg
   xmlns:dc="http://purl.org/dc/elements/1.1/"
   xmlns:cc="http://creativecommons.org/ns#"
   xmlns:rdf="http://www.w3.org/1999/02/22-rdf-syntax-ns#"
   xmlns:svg="http://www.w3.org/2000/svg"
   xmlns="http://www.w3.org/2000/svg"
   xmlns:sodipodi="http://sodipodi.sourceforge.net/DTD/sodipodi-0.dtd"
   xmlns:inkscape="http://www.inkscape.org/namespaces/inkscape"
   id="Capa_1"
   enable-background="new 0 0 512.016 512.016"
   height="512"
   viewBox="0 0 512.016 512.016"
   width="512"
   version="1.1"
   sodipodi:docname="unmatch01.svg"
   inkscape:version="0.92.2 (5c3e80d, 2017-08-06)">
  <metadata
     id="metadata835">
    <rdf:RDF>
      <cc:Work
         rdf:about="">
        <dc:format>image/svg+xml</dc:format>
        <dc:type
           rdf:resource="http://purl.org/dc/dcmitype/StillImage" />
      </cc:Work>
    </rdf:RDF>
  </metadata>
  <defs
     id="defs833" />
  <sodipodi:namedview
     pagecolor="#ffffff"
     bordercolor="#666666"
     borderopacity="1"
     objecttolerance="10"
     gridtolerance="10"
     guidetolerance="10"
     inkscape:pageopacity="0"
     inkscape:pageshadow="2"
     inkscape:window-width="1920"
     inkscape:window-height="1017"
     id="namedview831"
     showgrid="false"
     inkscape:zoom="1.6015625"
     inkscape:cx="256"
     inkscape:cy="256"
     inkscape:window-x="-8"
     inkscape:window-y="-8"
     inkscape:window-maximized="1"
     inkscape:current-layer="Capa_1" />
  <g
     id="g828">
    <path
       d="m467.016 120.51h-273.303v-15.979c0-31.96-25.671-58.391-57.225-58.917-15.747-.29-30.59 5.667-41.807 16.698-11.218 11.033-17.397 25.774-17.397 41.508v16.69h-32.284c-24.813 0-45 20.187-45 45v180.998c0 24.813 20.187 45 45 45h62.284v-80.049c0-15.692 12.438-28.667 27.727-28.922 7.64-.163 14.834 2.746 20.27 8.092 5.438 5.348 8.433 12.492 8.433 20.118v80.761h154.589v16.69c0 15.733 6.179 30.475 17.397 41.508 10.979 10.797 25.434 16.707 40.803 16.706.333 0 .669-.002 1.003-.008 31.554-.526 57.226-26.957 57.226-58.917v-15.979h32.284c24.813 0 45-20.187 45-45v-180.998c0-24.813-20.187-45-45-45zm-226.018 163.714v77.284h-47.284v-50.761c0-15.733-6.178-30.475-17.397-41.508-11.217-11.031-26.06-17.003-41.806-16.698-31.554.527-57.226 26.957-57.226 58.918v50.049h-32.285c-8.271 0-15-6.729-15-15v-180.998c0-8.271 6.729-15 15-15h62.284v-46.69c0-7.625 2.995-14.77 8.433-20.118 5.436-5.346 12.631-8.208 20.271-8.092 15.288.255 27.726 13.229 27.726 28.921v45.979h77.284v77.284h45.979c15.692 0 28.667 12.438 28.922 27.727.127 7.636-2.747 14.835-8.092 20.271-5.348 5.438-12.493 8.433-20.118 8.433h-46.691zm241.018 62.284c0 8.271-6.729 15-15 15h-62.284v45.979c0 15.692-12.438 28.666-27.727 28.921-7.658.125-14.834-2.747-20.27-8.092-5.438-5.348-8.433-12.493-8.433-20.118v-46.69h-77.284v-47.284h16.67c15.733 0 30.474-6.179 41.507-17.397 11.031-11.216 16.962-26.063 16.699-41.806-.527-31.555-26.957-57.227-58.918-57.227h-15.958v-47.284h195.998c8.271 0 15 6.729 15 15z"
       id="path826" />
  </g>
  <polygon
     transform="matrix(18.126808,0,0,18.270329,96.785377,27.465496)"
     points="9.905,19.794 13.685,16.01 9.905,12.231 12.649,9.486 16.433,13.266 20.212,9.486 22.957,12.231 19.178,16.01 22.957,19.794 20.212,22.538 16.433,18.759 12.649,22.538 "
     id="polygon2461"
     style="fill:#e30000;fill-opacity:1;stroke-width:0.05495152" />
</svg>
