<?xml version="1.0" encoding="UTF-8" standalone="no"?>
<svg
   xmlns:dc="http://purl.org/dc/elements/1.1/"
   xmlns:cc="http://creativecommons.org/ns#"
   xmlns:rdf="http://www.w3.org/1999/02/22-rdf-syntax-ns#"
   xmlns:svg="http://www.w3.org/2000/svg"
   xmlns="http://www.w3.org/2000/svg"
   xmlns:sodipodi="http://sodipodi.sourceforge.net/DTD/sodipodi-0.dtd"
   xmlns:inkscape="http://www.inkscape.org/namespaces/inkscape"
   id="Layer_1"
   data-name="Layer 1"
   viewBox="0 0 101 101"
   version="1.1"
   sodipodi:docname="vetiswarehouse.svg"
   inkscape:version="0.92.2 (5c3e80d, 2017-08-06)">
  <metadata
     id="metadata846">
    <rdf:RDF>
      <cc:Work
         rdf:about="">
        <dc:format>image/svg+xml</dc:format>
        <dc:type
           rdf:resource="http://purl.org/dc/dcmitype/StillImage" />
      </cc:Work>
    </rdf:RDF>
  </metadata>
  <defs
     id="defs844" />
  <sodipodi:namedview
     pagecolor="#ffffff"
     bordercolor="#666666"
     borderopacity="1"
     objecttolerance="10"
     gridtolerance="10"
     guidetolerance="10"
     inkscape:pageopacity="0"
     inkscape:pageshadow="2"
     inkscape:window-width="1920"
     inkscape:window-height="1017"
     id="namedview842"
     showgrid="false"
     inkscape:zoom="9.3465346"
     inkscape:cx="50.5"
     inkscape:cy="37.120506"
     inkscape:window-x="-8"
     inkscape:window-y="-8"
     inkscape:window-maximized="1"
     inkscape:current-layer="Layer_1" />
  <title
     id="title837">log_Artboard 2 copy 4</title>
  <path
     d="M 55.863924,20.24694 28.808496,0.52060964 a 1.0968417,1.0959073 0 0 0 -1.301586,0 L 1.1827098,20.24694 A 1.0968417,1.0959073 0 0 0 0.74397282,21.123666 V 59.115117 A 1.0968417,1.0959073 0 0 0 1.8408148,60.218331 H 55.220443 a 1.0968417,1.0959073 0 0 0 1.096842,-1.095908 V 21.130972 A 1.0968417,1.0959073 0 0 0 55.863924,20.24694 Z M 46.080096,44.145024 H 34.380451 V 33.185952 H 46.080096 Z M 32.186768,58.026516 H 21.218351 V 46.336839 H 32.186768 Z M 34.380451,46.336839 H 46.080096 V 58.026516 H 34.380451 Z M 46.080096,30.994137 H 33.28361 a 1.0968417,1.0959073 0 0 0 -1.096842,1.095907 v 12.05498 H 20.121509 a 1.0968417,1.0959073 0 0 0 -1.096841,1.095907 V 58.026516 H 11.71239 V 25.879903 h 34.367706 z m 8.043506,27.032379 h -5.849823 v -33.24252 a 1.0968417,1.0959073 0 0 0 -1.096841,-1.095907 h -36.56139 a 1.0968417,1.0959073 0 0 0 -1.0968412,1.095907 v 33.24252 H 2.9376558 V 21.678925 L 28.172327,2.7708725 54.123602,21.686232 Z"
     id="path839"
     inkscape:connector-curvature="0"
     style="stroke-width:0.73091626" />
  <g
     id="g1415"
     transform="matrix(0.1168378,0,0,0.10059163,46.3096,48.532692)">
    <path
       id="path1402"
       d="m 452.635,156.771 -33.986,-33.458 -5,-47.41 L 368.537,60.517 343.522,19.924 296.175,25.64 256,0 215.827,25.64 168.48,19.924 143.465,60.517 98.352,75.903 l -5.001,47.41 -33.986,33.458 16.143,44.866 -16.143,44.865 33.986,33.458 5,47.411 45.112,15.385 13.701,22.233 V 512 L 256,476.642 354.835,512 V 364.987 l 13.701,-22.232 45.112,-15.385 5.001,-47.411 33.986,-33.458 -16.143,-44.865 z m -265.443,224.318 28.635,-3.457 25.16,16.058 v 56.433 l -53.795,19.245 z m 83.821,69.034 V 393.69 l 25.16,-16.058 28.635,3.457 v 88.279 z m 146.863,-211.538 -27.96,27.525 -4.117,39.033 -37.166,12.675 -20.593,33.417 -38.95,-4.702 -33.09,21.119 -33.09,-21.119 -38.95,4.702 -20.593,-33.417 -37.166,-12.675 -4.117,-39.033 -27.96,-27.525 13.295,-36.949 -13.295,-36.949 27.96,-27.525 4.117,-39.033 37.166,-12.675 20.593,-33.417 38.95,4.702 33.09,-21.118 33.09,21.119 38.95,-4.702 20.593,33.417 37.166,12.675 4.117,39.033 27.96,27.525 -13.295,36.949 z"
       inkscape:connector-curvature="0" />
    <path
       id="path1404"
       d="m 256,84.791 c -64.429,0 -116.845,52.417 -116.845,116.845 0,64.428 52.416,116.845 116.845,116.845 64.429,0 116.845,-52.416 116.845,-116.845 C 372.845,137.207 320.429,84.791 256,84.791 Z m 0,203.664 c -47.872,0 -86.818,-38.947 -86.818,-86.818 0,-47.872 38.947,-86.819 86.818,-86.819 47.871,0 86.818,38.947 86.818,86.819 0,47.871 -38.946,86.818 -86.818,86.818 z"
       inkscape:connector-curvature="0" />
  </g>
</svg>
