<?xml version="1.0" encoding="UTF-8" standalone="no"?>
<svg
   xmlns:dc="http://purl.org/dc/elements/1.1/"
   xmlns:cc="http://creativecommons.org/ns#"
   xmlns:rdf="http://www.w3.org/1999/02/22-rdf-syntax-ns#"
   xmlns:svg="http://www.w3.org/2000/svg"
   xmlns="http://www.w3.org/2000/svg"
   xmlns:sodipodi="http://sodipodi.sourceforge.net/DTD/sodipodi-0.dtd"
   xmlns:inkscape="http://www.inkscape.org/namespaces/inkscape"
   id="Capa_1"
   enable-background="new 0 0 512 512"
   height="512"
   viewBox="0 0 512 512"
   width="512"
   version="1.1"
   sodipodi:docname="vetisrefresh.svg"
   inkscape:version="0.92.2 (5c3e80d, 2017-08-06)">
  <metadata
     id="metadata835">
    <rdf:RDF>
      <cc:Work
         rdf:about="">
        <dc:format>image/svg+xml</dc:format>
        <dc:type
           rdf:resource="http://purl.org/dc/dcmitype/StillImage" />
      </cc:Work>
    </rdf:RDF>
  </metadata>
  <defs
     id="defs833" />
  <sodipodi:namedview
     pagecolor="#ffffff"
     bordercolor="#666666"
     borderopacity="1"
     objecttolerance="10"
     gridtolerance="10"
     guidetolerance="10"
     inkscape:pageopacity="0"
     inkscape:pageshadow="2"
     inkscape:window-width="1920"
     inkscape:window-height="1017"
     id="namedview831"
     showgrid="false"
     inkscape:zoom="1.6015625"
     inkscape:cx="256"
     inkscape:cy="256"
     inkscape:window-x="-8"
     inkscape:window-y="-8"
     inkscape:window-maximized="1"
     inkscape:current-layer="Capa_1" />
  <path
     d="m 501.77477,320.50085 -20.58795,-16.96388 -3.02888,-24.03789 -27.32784,-7.80103 -15.15352,-20.58151 -28.68178,2.89812 -24.33708,-13.00002 -24.33593,13.00002 -28.68176,-2.89812 -15.15351,20.58151 -27.32845,7.80103 -3.02948,24.03789 -20.58797,16.96388 9.77907,22.74799 -9.77907,22.74752 20.58797,16.96393 3.02888,24.03835 27.32786,7.80052 8.29973,11.27262 v 74.53768 l 59.87266,-17.92723 59.87202,17.92723 V 426.0708 l 8.29975,-11.27211 27.32786,-7.80051 3.02947,-24.03838 20.58795,-16.96393 -9.77906,-22.74751 z m -160.79941,113.73398 17.34643,-1.75277 15.24139,8.14177 v 28.61269 l -32.58782,9.75762 z m 50.77689,35.00169 v -28.61269 l 15.24136,-8.14177 17.34644,1.75277 v 44.75931 z m 88.96632,-107.25425 -16.93756,13.95578 -2.49399,19.79054 -22.51432,6.42648 -12.47475,16.94316 -23.59506,-2.38402 -20.04517,10.7078 -20.04519,-10.7078 -23.59504,2.38402 -12.47477,-16.94316 -22.51437,-6.42648 -2.49397,-19.79054 -16.93751,-13.95578 8.05381,-18.73391 -8.05381,-18.73394 16.93751,-13.95574 2.49397,-19.79058 22.51437,-6.42648 12.47477,-16.94314 23.59504,2.38405 20.04519,-10.70729 20.04517,10.70776 23.59506,-2.38401 12.47475,16.94317 22.51432,6.42647 2.49399,19.79055 16.93756,13.95578 -8.05382,18.73388 z"
     id="path826"
     inkscape:connector-curvature="0"
     style="stroke-width:0.55420399" />
  <path
     id="path871"
     d="M 293.41968,47.620216 C 263.44251,20.719402 222.04295,4.0084634 176.17059,3.9804548 84.425878,3.9244386 10.284118,70.251145 10.234425,152.19644 c -0.04969,81.94527 74.011558,148.3625 165.756285,148.41853 77.3188,0.0472 142.10845,-47.18939 160.51693,-111.14 l -43.17397,-0.0263 c -17.1505,43.18691 -63.04163,74.12013 -117.32048,74.08699 -68.80854,-0.042 -124.510148,-49.85503 -124.472876,-111.314 0.03727,-61.458983 55.799246,-111.203934 124.607796,-111.161922 34.35238,0.02098 65.16835,12.832164 87.67721,32.961436 l -66.9767,59.749536 145.29708,0.0887 0.0787,-129.7775896 z"
     inkscape:connector-curvature="0"
     style="stroke-width:9.80844975" />
  <path
     d="m 378.04177,291.27877 c -31.07728,0 -56.36008,25.16934 -56.36008,56.10599 0,30.93671 25.2828,56.10598 56.36008,56.10598 31.07725,0 56.36003,-25.16882 56.36003,-56.10598 0,-30.93717 -25.28278,-56.10599 -56.36003,-56.10599 z m 0,97.79424 c -23.09102,0 -41.87656,-18.70136 -41.87656,-41.68778 0,-22.98689 18.78603,-41.68824 41.87656,-41.68824 23.09051,0 41.87656,18.70135 41.87656,41.68824 0,22.98642 -18.78556,41.68778 -41.87656,41.68778 z"
     id="path828"
     inkscape:connector-curvature="0"
     style="stroke-width:0.48126048" />
</svg>
