<?xml version="1.0" encoding="iso-8859-1"?>
<!-- Generator: Adobe Illustrator 18.0.0, SVG Export Plug-In . SVG Version: 6.00 Build 0)  -->
<!DOCTYPE svg PUBLIC "-//W3C//DTD SVG 1.1//EN" "http://www.w3.org/Graphics/SVG/1.1/DTD/svg11.dtd">
<svg version="1.1" id="Capa_1" xmlns="http://www.w3.org/2000/svg" xmlns:xlink="http://www.w3.org/1999/xlink" x="0px" y="0px"
	 viewBox="0 0 60 60" style="enable-background:new 0 0 60 60;" xml:space="preserve">
<g>
	<path d="M5.508,12.424c0.502-0.229,0.723-0.822,0.493-1.325c-0.23-0.502-0.822-0.725-1.325-0.493
		c-0.693,0.316-1.338,0.731-1.915,1.231c-0.417,0.362-0.462,0.994-0.101,1.411c0.198,0.228,0.477,0.345,0.756,0.345
		c0.232,0,0.466-0.08,0.655-0.244C4.504,12.973,4.987,12.662,5.508,12.424z"/>
	<path d="M9,11.884h2c0.553,0,1-0.447,1-1s-0.447-1-1-1H9c-0.553,0-1,0.447-1,1S8.447,11.884,9,11.884z"/>
	<path d="M15,11.884h2c0.553,0,1-0.447,1-1s-0.447-1-1-1h-2c-0.553,0-1,0.447-1,1S14.447,11.884,15,11.884z"/>
	<path d="M11,23.884H9c-0.553,0-1,0.447-1,1s0.447,1,1,1h2c0.553,0,1-0.447,1-1S11.553,23.884,11,23.884z"/>
	<path d="M23,23.884h-2c-0.553,0-1,0.447-1,1s0.447,1,1,1h2c0.553,0,1-0.447,1-1S23.553,23.884,23,23.884z"/>
	<path d="M17,23.884h-2c-0.553,0-1,0.447-1,1s0.447,1,1,1h2c0.553,0,1-0.447,1-1S17.553,23.884,17,23.884z"/>
	<path d="M5.508,23.344c-0.52-0.238-1.003-0.549-1.436-0.925c-0.417-0.361-1.048-0.316-1.411,0.101
		c-0.361,0.417-0.316,1.049,0.101,1.411c0.577,0.5,1.221,0.914,1.914,1.231c0.135,0.062,0.276,0.091,0.415,0.091
		c0.38,0,0.742-0.217,0.91-0.584C6.23,24.167,6.01,23.573,5.508,23.344z"/>
	<path d="M29,23.884h-2c-0.553,0-1,0.447-1,1s0.447,1,1,1h2c0.553,0,1-0.447,1-1S29.553,23.884,29,23.884z"/>
	<path d="M47,23.884h-2c-0.553,0-1,0.447-1,1s0.447,1,1,1h2c0.553,0,1-0.447,1-1S47.553,23.884,47,23.884z"/>
	<path d="M53,23.884h-2c-0.553,0-1,0.447-1,1s0.447,1,1,1h2c0.553,0,1-0.447,1-1S53.553,23.884,53,23.884z"/>
	<path d="M35,23.884h-2c-0.553,0-1,0.447-1,1s0.447,1,1,1h2c0.553,0,1-0.447,1-1S35.553,23.884,35,23.884z"/>
	<path d="M41,23.884h-2c-0.553,0-1,0.447-1,1s0.447,1,1,1h2c0.553,0,1-0.447,1-1S41.553,23.884,41,23.884z"/>
	<path d="M5.508,53.344c-0.52-0.238-1.003-0.549-1.436-0.925c-0.417-0.361-1.048-0.316-1.411,0.101
		c-0.361,0.417-0.316,1.049,0.101,1.411c0.577,0.5,1.221,0.914,1.914,1.231c0.135,0.062,0.276,0.091,0.415,0.091
		c0.38,0,0.742-0.217,0.91-0.584C6.23,54.167,6.01,53.573,5.508,53.344z"/>
	<path d="M17,53.884h-2c-0.553,0-1,0.447-1,1s0.447,1,1,1h2c0.553,0,1-0.447,1-1S17.553,53.884,17,53.884z"/>
	<path d="M11,53.884H9c-0.553,0-1,0.447-1,1s0.447,1,1,1h2c0.553,0,1-0.447,1-1S11.553,53.884,11,53.884z"/>
	<path d="M35,53.884h-2c-0.553,0-1,0.447-1,1s0.447,1,1,1h2c0.553,0,1-0.447,1-1S35.553,53.884,35,53.884z"/>
	<path d="M38,54.884c0,0.553,0.447,1,1,1h2c0.553,0,1-0.447,1-1s-0.447-1-1-1h-2C38.447,53.884,38,54.331,38,54.884z"/>
	<path d="M45,55.884h2c0.553,0,1-0.447,1-1s-0.447-1-1-1h-2c-0.553,0-1,0.447-1,1S44.447,55.884,45,55.884z"/>
	<path d="M29,53.884h-2c-0.553,0-1,0.447-1,1s0.447,1,1,1h2c0.553,0,1-0.447,1-1S29.553,53.884,29,53.884z"/>
	<path d="M51,55.884h2c0.553,0,1-0.447,1-1s-0.447-1-1-1h-2c-0.553,0-1,0.447-1,1S50.447,55.884,51,55.884z"/>
	<path d="M23,53.884h-2c-0.553,0-1,0.447-1,1s0.447,1,1,1h2c0.553,0,1-0.447,1-1S23.553,53.884,23,53.884z"/>
	<path d="M44,38.884c0,2.206,1.794,4,4,4s4-1.794,4-4s-1.794-4-4-4S44,36.678,44,38.884z M48,36.884c1.103,0,2,0.897,2,2
		s-0.897,2-2,2s-2-0.897-2-2S46.897,36.884,48,36.884z"/>
	<path d="M42.942,5.884l-5.436-5.436c-0.443-0.443-1.166-0.443-1.609,0l-2.046,2.046l-2.046-2.046c-0.443-0.443-1.166-0.443-1.609,0
		L24.76,5.884H8c-4.411,0-8,3.589-8,8v38.848c0,3.943,3.209,7.152,7.152,7.152H60v-14v-14v-10v-2v-14H42.942z M36.702,2.472
		l3.412,3.412l14,14h-5.391L37.456,8.616c-0.423-0.411-1.086-0.41-1.519,0.011L24.681,19.884H19.29L35.266,3.909l0,0L36.702,2.472z
		 M45.896,19.884H27.509l9.193-9.193L45.896,19.884z M31,2.472l1.437,1.437L16.462,19.884h-2.874l14-14L31,2.472z M8,7.884h14.76
		l-2.061,2.061c-0.303,0.098-0.535,0.329-0.633,0.633l-9.306,9.306H8c-3.309,0-6-2.691-6-6S4.691,7.884,8,7.884z M58,43.884H47
		c-2.757,0-5-2.243-5-5s2.243-5,5-5h11V43.884z M58,23.884h-1c-0.553,0-1,0.447-1,1s0.447,1,1,1h1v6H47c-3.859,0-7,3.141-7,7
		s3.141,7,7,7h11v8h-1c-0.553,0-1,0.447-1,1s0.447,1,1,1h1v2H7.152C4.312,57.884,2,55.573,2,52.732v-2.204
		c0.233-0.25,0.345-0.603,0.241-0.954C2.081,49.028,2,48.459,2,47.884V20.528c0.233-0.25,0.345-0.603,0.241-0.954
		c-0.019-0.065-0.026-0.132-0.043-0.197c0.09,0.095,0.181,0.188,0.275,0.278c0.086,0.083,0.175,0.162,0.265,0.241
		c0.112,0.098,0.226,0.193,0.343,0.285c0.094,0.074,0.19,0.145,0.287,0.215c0.121,0.087,0.246,0.169,0.372,0.249
		c0.101,0.064,0.202,0.126,0.306,0.186c0.132,0.075,0.267,0.145,0.403,0.213c0.105,0.053,0.21,0.106,0.318,0.154
		c0.143,0.063,0.289,0.119,0.435,0.174c0.108,0.041,0.215,0.083,0.325,0.119c0.157,0.051,0.317,0.092,0.477,0.134
		c0.106,0.027,0.21,0.059,0.318,0.082c0.181,0.039,0.365,0.065,0.55,0.091c0.092,0.013,0.182,0.032,0.275,0.042
		c0.28,0.03,0.564,0.047,0.851,0.047h3.816h2.828h2.874h2.828H25.3h22.805h4.953h2.828H58V23.884z M56.942,19.884l-8-8H49
		c0.553,0,1-0.447,1-1s-0.447-1-1-1h-2c-0.017,0-0.031,0.009-0.048,0.01l-2.01-2.01H58v12H56.942z"/>
	<path d="M55,9.884h-2c-0.553,0-1,0.447-1,1s0.447,1,1,1h2c0.553,0,1-0.447,1-1S55.553,9.884,55,9.884z"/>
</g>
<g>
</g>
<g>
</g>
<g>
</g>
<g>
</g>
<g>
</g>
<g>
</g>
<g>
</g>
<g>
</g>
<g>
</g>
<g>
</g>
<g>
</g>
<g>
</g>
<g>
</g>
<g>
</g>
<g>
</g>
</svg>
