<svg id="Layer_1" data-name="Layer 1" xmlns="http://www.w3.org/2000/svg" viewBox="0 0 101 101"><title>log_Artboard 2 copy 4</title><path d="M88.38,32.29l-37-27a1.5,1.5,0,0,0-1.78,0l-36,27a1.5,1.5,0,0,0-.6,1.2v52A1.5,1.5,0,0,0,14.5,87h73A1.5,1.5,0,0,0,89,85.5v-52A1.5,1.5,0,0,0,88.38,32.29ZM75,65H59V50H75ZM56,84H41V68H56Zm3-16H75V84H59ZM75,47H57.5A1.5,1.5,0,0,0,56,48.5V65H39.5A1.5,1.5,0,0,0,38,66.5V84H28V40H75ZM86,84H78V38.5A1.5,1.5,0,0,0,76.5,37h-50A1.5,1.5,0,0,0,25,38.5V84H16V34.25L50.51,8.37,86,34.26Z"/></svg>